<?xml version="1.0" encoding="utf-8"?>
<!-- Generator: Adobe Illustrator 23.0.1, SVG Export Plug-In . SVG Version: 6.00 Build 0)  -->
<svg version="1.1" id="Layer_1" xmlns="http://www.w3.org/2000/svg" xmlns:xlink="http://www.w3.org/1999/xlink" x="0px" y="0px"
	 viewBox="0 0 50 50" style="enable-background:new 0 0 50 50;" xml:space="preserve">
<style type="text/css">
	.st0{fill:url(#SVGID_1_);}
	.st1{fill:#EAEAEA;}
	.st2{opacity:0.35;}
	.st3{opacity:0.5;fill:url(#SVGID_2_);enable-background:new    ;}
	.st4{opacity:0.5;fill:url(#SVGID_3_);enable-background:new    ;}
	.st5{opacity:0.5;fill:url(#SVGID_4_);enable-background:new    ;}
</style>
<g>
	<g>
		<g>
			
				<linearGradient id="SVGID_1_" gradientUnits="userSpaceOnUse" x1="25" y1="11.63" x2="25" y2="39.4095" gradientTransform="matrix(1 0 0 -1 0 50.5197)">
				<stop  offset="0" style="stop-color:#DCFFFF"/>
				<stop  offset="0.6301" style="stop-color:#DCFFFF;stop-opacity:0.75"/>
				<stop  offset="1" style="stop-color:#DCFFFF;stop-opacity:0.85"/>
			</linearGradient>
			<circle class="st0" cx="25" cy="25" r="13.9"/>
			<path class="st1" d="M25,11.4c7.5,0,13.6,6.1,13.6,13.6S32.5,38.6,25,38.6S11.4,32.5,11.4,25S17.5,11.4,25,11.4 M25,10.8
				c-7.8,0-14.2,6.3-14.2,14.2S17.2,39.2,25,39.2S39.2,32.8,39.2,25S32.8,10.8,25,10.8L25,10.8z"/>
		</g>
	</g>
	<g id="Layer_4" class="st2">
		
			<linearGradient id="SVGID_2_" gradientUnits="userSpaceOnUse" x1="25" y1="23.7653" x2="25" y2="11.3465" gradientTransform="matrix(1 0 0 -1 0 50.5197)">
			<stop  offset="0" style="stop-color:#000000;stop-opacity:0.4"/>
			<stop  offset="1" style="stop-color:#FF0000;stop-opacity:5.476415e-08"/>
		</linearGradient>
		<path class="st3" d="M12.7,27.6c0,3.4,5.5,11.6,12.3,11.6s12.3-7.6,12.3-11.6c0-2-6.2,0.3-12.3,0.3C18.8,27.9,12.7,25.6,12.7,27.6
			z"/>
	</g>
	
		<linearGradient id="SVGID_3_" gradientUnits="userSpaceOnUse" x1="25" y1="37.7682" x2="25" y2="24.0849" gradientTransform="matrix(1 0 0 -1 0 50.5197)">
		<stop  offset="0" style="stop-color:#FFFFFF"/>
		<stop  offset="0.85" style="stop-color:#FFFFFF;stop-opacity:0"/>
	</linearGradient>
	<ellipse class="st4" cx="25" cy="19.6" rx="8.9" ry="6.8"/>
	
		<linearGradient id="SVGID_4_" gradientUnits="userSpaceOnUse" x1="25" y1="25.0298" x2="25" y2="11.3465" gradientTransform="matrix(1 0 0 -1 0 50.5197)">
		<stop  offset="0.15" style="stop-color:#FFFFFF;stop-opacity:0"/>
		<stop  offset="1" style="stop-color:#FFFFFF;stop-opacity:0.5"/>
	</linearGradient>
	<ellipse class="st5" cx="25" cy="32.3" rx="8.9" ry="6.8"/>
</g>
</svg>
