<?xml version="1.0" encoding="utf-8"?>
<!-- Generator: Adobe Illustrator 23.0.1, SVG Export Plug-In . SVG Version: 6.00 Build 0)  -->
<svg version="1.1" id="Layer_1" xmlns="http://www.w3.org/2000/svg" xmlns:xlink="http://www.w3.org/1999/xlink" x="0px" y="0px"
	 viewBox="0 0 141.7 286.3" style="enable-background:new 0 0 141.7 286.3;" xml:space="preserve">
<style type="text/css">
	.st0{fill:#414141;}
	.st1{fill:#1A478C;}
	.st2{fill:#E12839;}
</style>
<polygon class="st0" points="141.7,221.1 0,221.1 0,212.6 141.7,212.6 "/>
<g>
	<path class="st1" d="M0,26.9c0,0.5,0,0.9,0,1.4v60h42.8L0,26.9z"/>
	<path class="st1" d="M27.7,0c-0.1,0-0.1,0-0.2,0c-0.3,0-0.7,0-1,0c-3.5,0.2-6.8,1.1-9.8,2.5l29.9,44.7V0H29.5H27.7z"/>
	<path class="st1" d="M141.7,86.6V28.3c0-1.2-0.1-2.3-0.2-3.4L98.6,86.6H141.7z"/>
	<path class="st1" d="M116.3,0.2c-0.7-0.1-1.3-0.1-2-0.1c-0.1,0-0.1,0-0.2,0H93.7v45.1l29.8-43.3C121.2,1,118.8,0.4,116.3,0.2z"/>
	<polygon class="st1" points="141.7,125.1 98.9,125.1 141.7,186.7 	"/>
	<polygon class="st1" points="125.6,212.6 94,166.4 94,212.6 	"/>
	<polygon class="st1" points="0,126.8 43.7,126.8 0,189.6 	"/>
	<polygon class="st1" points="16.1,212.6 46.9,168.1 46.9,212.6 	"/>
</g>
<g>
	<polygon class="st2" points="141.7,96.7 84.7,96.7 84.7,0 57.7,0 57.7,96.7 0,96.7 0,116.5 57.7,116.5 57.7,212.6 84.7,212.6 
		84.7,116.5 141.7,116.5 	"/>
	<path class="st2" d="M17,28c-3-4.3-5.9-8.6-8.9-12.9c-0.6-0.8-1.5-2.2-2.5-3.7c-2,2.6-3.5,5.6-4.4,8.8C6.5,28,14,38.9,18.9,46
		c6.1,8.9,12.2,17.7,18.4,26.6c2.9,4.2,5.9,8.5,8.8,12.7v-15c-3.2-4.7-6.4-9.3-9.6-14C29.9,46.9,23.4,37.5,17,28z"/>
	<polygon class="st2" points="46.9,159.8 46.9,145.3 0,210.6 0,212.6 8.9,212.6 	"/>
	<polygon class="st2" points="95.8,128.4 95.8,143.4 141.7,210.3 141.7,194.9 	"/>
	<path class="st2" d="M129.2,4.9L94.4,53.2v14.5l41.1-57.1C133.6,8.4,131.6,6.5,129.2,4.9z"/>
</g>
<g>
	<path id="path1027_8_" class="st0" d="M41.2,231.9v22.9c0,7,0.1,12,1.9,15.4c2,3.7,5.3,5.3,10.4,5.3c5.6,0,9.1-1.6,11.1-5.5
		c1.5-2.9,1.6-6.5,1.6-10.8v-27.1h-9.3v27.2c0,5.4-0.1,8.4-3.1,8.4c-3.2,0-3.3-3-3.3-8.9v-26.6h-9.3V231.9z"/>
	<path id="path1031_8_" class="st0" d="M74.7,274.4H84v-11.3l2-4.1l4.9,15.4h9.8l-8.8-23.9l8.6-18.6H91l-7,17.6v-17.6h-9.3V274.4z"
		/>
</g>
</svg>
