<?xml version="1.0" encoding="utf-8"?>
<!-- Generator: Adobe Illustrator 23.0.1, SVG Export Plug-In . SVG Version: 6.00 Build 0)  -->
<svg version="1.1" id="Layer_1" xmlns="http://www.w3.org/2000/svg" xmlns:xlink="http://www.w3.org/1999/xlink" x="0px" y="0px"
	 viewBox="0 0 141.6999969 286.2999878" style="enable-background:new 0 0 141.6999969 286.2999878;" xml:space="preserve">
<style type="text/css">
	.st0{opacity:0.2;fill:#FFFFFF;}
	.st1{opacity:0.33;fill:#FFFFFF;}
	.st2{opacity:0.33;}
	.st3{fill:#1A478C;}
	.st4{fill:#E12839;}
</style>
<path class="st0" d="M0.0499802,215.7999878v47.1727905c0,12.7763672,12.7000122,23.3272095,28.3000488,23.3272095h85
	c15.5000076,0,28.2999954-10.4683838,28.2999954-23.3272095v-47.1727905H0.0499802z"/>
<path class="st1" d="M113.2999878,0.0999756h-85C12.7999878,0.0999756,0,10.5683737,0,23.4272118v189.1727905h141.6000366
	V23.4271622C141.6000366,10.6508322,128.9000244,0.0999756,113.2999878,0.0999756z"/>
<polygon class="st2" points="141.6999969,215.8000031 0,215.8000031 0,212.6000061 141.6999969,212.6000061 "/>
<g class="st2">
	<path class="st3" d="M0,26.8999996c0,0.5,0,0.8999996,0,1.3999996v60.0000038h42.7999992L0,26.8999996z"/>
	<path class="st3" d="M27.7000008,0C27.6000004,0,27.6000004,0,27.5,0c-0.2999992,0-0.7000008,0-1,0
		c-3.5,0.2-6.7999992,1.1-9.7999992,2.5l29.8999977,44.7000008V0H29.5H27.7000008z"/>
	<path class="st3" d="M141.6999969,86.5999985V28.2999992c0-1.2000008-0.1000061-2.2999992-0.1999969-3.3999996
		L98.5999985,86.5999985H141.6999969z"/>
	<path class="st3" d="M116.3000031,0.2c-0.6999969-0.1-1.3000031-0.1-2-0.1c-0.0999985,0-0.0999985,0-0.1999969,0H93.6999969
		v45.0999985L123.5,1.8999977C121.1999969,1,118.8000031,0.4,116.3000031,0.2z"/>
	<polygon class="st3" points="141.6999969,125.0999985 98.9000015,125.0999985 141.6999969,186.6999969 	"/>
	<polygon class="st3" points="125.5999985,212.6000061 94,166.3999939 94,212.6000061 	"/>
	<polygon class="st3" points="0,126.8000031 43.7000008,126.8000031 0,189.6000061 	"/>
	<polygon class="st3" points="16.1000004,212.6000061 46.9000015,168.1000061 46.9000015,212.6000061 	"/>
</g>
<g class="st2">
	<polygon class="st4" points="141.6999969,96.6999969 84.6999969,96.6999969 84.6999969,0 57.7000008,0 57.7000008,96.6999969 
		0,96.6999969 0,116.5 57.7000008,116.5 57.7000008,212.6000061 84.6999969,212.6000061 84.6999969,116.5 141.6999969,116.5 	"/>
	<path class="st4" d="M17,28c-3-4.2999992-5.8999996-8.6000004-8.8999996-12.8999996
		c-0.5999999-0.8000002-1.5-2.1999998-2.5-3.6999998c-2,2.5999994-3.5,5.5999994-4.4000001,8.8000002
		C6.5,28,14,38.9000015,18.8999996,46C25,54.9000015,31.0999985,63.7000008,37.2999992,72.5999985
		c2.9000015,4.1999969,5.9000015,8.5,8.7999992,12.6999969v-15c-3.2000008-4.6999969-6.4000015-9.2999992-9.5999985-14
		C29.8999996,46.9000015,23.3999996,37.5,17,28z"/>
	<polygon class="st4" points="46.9000015,159.8000031 46.9000015,145.3000031 0,210.6000061 0,212.6000061 8.8999996,212.6000061 	
		"/>
	<polygon class="st4" points="95.8000031,128.3999939 95.8000031,143.3999939 141.6999969,210.3000031 141.6999969,194.8999939 	"/>
	<path class="st4" d="M129.1999969,4.9000001L94.4000015,53.2000008v14.4999962L135.5,10.5999985
		C133.6000061,8.3999996,131.6000061,6.5,129.1999969,4.9000001z"/>
</g>
</svg>
