<?xml version="1.0" encoding="utf-8"?>
<!-- Generator: Adobe Illustrator 23.0.1, SVG Export Plug-In . SVG Version: 6.00 Build 0)  -->
<svg version="1.1" xmlns="http://www.w3.org/2000/svg" xmlns:xlink="http://www.w3.org/1999/xlink" x="0px" y="0px"
	 viewBox="0 0 141.732 286.299" style="enable-background:new 0 0 141.732 286.299;" xml:space="preserve">
<style type="text/css">
	.st0{fill:#FFFFFF;}
	.st1{fill:#E12839;}
	.st2{fill:#1A478C;}
</style>
<g id="Layer_2">
	<path class="st0" d="M113.386,0h-85.04C12.756,0,0,12.756,0,28.346v229.606c0,15.591,12.756,28.347,28.346,28.347h85.039
		c15.591,0,28.346-12.756,28.346-28.347V28.346C141.732,12.756,128.976,0,113.386,0L113.386,0z"/>
</g>
<g id="Layer_1">
	<g id="UK">
		<g>
			<path id="path1027_8_" d="M37.945,222.9v25.347c0,7.759,0.116,13.267,2.104,17.022c2.222,4.131,5.848,5.82,11.577,5.82
				c6.198,0,10.115-1.815,12.279-6.132c1.637-3.255,1.754-7.197,1.754-12.016V222.9H55.368v30.103c0,6.007-0.059,9.261-3.45,9.261
				c-3.566,0-3.683-3.378-3.683-9.888V222.9H37.945z"/>
			<path id="path1031_8_" d="M75.08,269.963h10.29v-12.517l2.222-4.505l5.379,17.022h10.816l-9.763-26.472l9.531-20.591H93.03
				l-7.66,19.527V222.9H75.08V269.963z"/>
		</g>
	</g>
	<g id="St._George_x27_s_Cross">
		<polygon id="St._George_x27_s_Cross_4_" class="st1" points="138.472,91.275 85.039,91.275 85.039,3.202 56.693,3.202 
			56.693,91.275 3.26,91.275 3.26,119.621 56.693,119.621 56.693,207.694 85.039,207.694 85.039,119.621 138.472,119.621 		"/>
	</g>
	<g id="St._Andrew_x27_s_Saltire">
		<path class="st2" d="M128.719,4.545c1.059,0.686,2.069,1.44,3.026,2.256C130.788,5.984,129.777,5.231,128.719,4.545z"/>
		<path class="st2" d="M125.26,2.63c1.16,0.54,2.277,1.157,3.346,1.842C127.536,3.787,126.42,3.17,125.26,2.63z"/>
		<path class="st2" d="M134.548,9.546c-0.839-0.943-1.74-1.827-2.696-2.651C132.807,7.718,133.709,8.603,134.548,9.546z"/>
		<path class="st2" d="M123.416,1.85c0.602,0.23,1.193,0.48,1.774,0.749C121.591,0.936,117.593,0,113.386,0H94.677v44.629
			L123.416,1.85z"/>
		<path class="st2" d="M141.34,23.69c0.106,0.636,0.194,1.278,0.257,1.927l-37.633,56.021h37.768V28.346
			C141.732,26.761,141.594,25.206,141.34,23.69z"/>
		<path class="st2" d="M140.902,21.567c-0.154-0.62-0.327-1.232-0.521-1.836C140.575,20.335,140.748,20.948,140.902,21.567z"/>
		<path class="st2" d="M140.35,19.64c-0.183-0.562-0.385-1.115-0.601-1.661C139.965,18.525,140.167,19.078,140.35,19.64z"/>
		<path class="st2" d="M141.297,23.447c-0.101-0.571-0.218-1.137-0.352-1.697C141.079,22.309,141.196,22.875,141.297,23.447z"/>
		<path class="st2" d="M139.656,17.745c-0.468-1.15-1.009-2.263-1.618-3.333C138.647,15.482,139.188,16.595,139.656,17.745z"/>
		<path class="st2" d="M137.914,14.198c-0.623-1.074-1.314-2.104-2.068-3.083C136.601,12.094,137.291,13.125,137.914,14.198z"/>
		<path class="st2" d="M135.745,10.986c-0.367-0.471-0.747-0.93-1.142-1.376C134.998,10.056,135.378,10.516,135.745,10.986z"/>
		<path class="st2" d="M3.818,14.198c0.623-1.073,1.313-2.104,2.067-3.083C5.131,12.095,4.441,13.125,3.818,14.198z"/>
		<path class="st2" d="M5.987,10.986c0.366-0.47,0.745-0.928,1.14-1.374C6.733,10.058,6.354,10.516,5.987,10.986z"/>
		<path class="st2" d="M13.128,4.471c1.069-0.685,2.185-1.301,3.344-1.841C15.313,3.17,14.197,3.786,13.128,4.471z"/>
		<path class="st2" d="M16.544,2.598c0.581-0.268,1.171-0.519,1.772-0.748C17.715,2.079,17.125,2.33,16.544,2.598z"/>
		<path class="st2" d="M47.055,44.629V0H28.346c-3.527,0-6.907,0.659-10.029,1.85L47.055,44.629z"/>
		<path class="st2" d="M9.879,6.895c-0.955,0.824-1.856,1.708-2.694,2.65C8.023,8.603,8.924,7.719,9.879,6.895z"/>
		<path class="st2" d="M9.989,6.8c0.955-0.816,1.965-1.569,3.023-2.254C11.954,5.231,10.945,5.984,9.989,6.8z"/>
		<path class="st2" d="M0.135,25.617c0.063-0.649,0.151-1.291,0.257-1.926C0.286,24.327,0.198,24.968,0.135,25.617z"/>
		<path class="st2" d="M2.076,17.745c0.468-1.15,1.009-2.263,1.618-3.333C3.085,15.483,2.544,16.595,2.076,17.745z"/>
		<path class="st2" d="M0.436,23.446c0.101-0.571,0.218-1.136,0.352-1.695C0.653,22.31,0.536,22.875,0.436,23.446z"/>
		<path class="st2" d="M0.135,25.617C0.048,26.516,0,27.426,0,28.346v53.291h37.768L0.135,25.617z"/>
		<path class="st2" d="M0.831,21.567c0.154-0.62,0.327-1.232,0.52-1.835C1.157,20.336,0.984,20.948,0.831,21.567z"/>
		<path class="st2" d="M1.382,19.64c0.183-0.562,0.385-1.115,0.601-1.661C1.767,18.525,1.565,19.078,1.382,19.64z"/>
		<polygon class="st2" points="94.677,207.723 122.47,207.723 94.677,166.35 		"/>
		<polygon class="st2" points="103.908,129.259 141.732,185.564 141.732,129.259 		"/>
		<polygon class="st2" points="0,129.259 0,185.563 37.824,129.259 		"/>
		<polygon class="st2" points="19.262,207.723 47.055,207.723 47.055,166.351 		"/>
	</g>
	<g id="St._Patrick_x27_s_Saltire">
		<polygon class="st1" points="126.933,4.865 94.677,52.887 94.677,73.222 135.745,12.081 		"/>
		<polygon class="st1" points="2.076,20.258 43.304,81.637 47.055,81.637 47.055,66.887 8.22,9.07 		"/>
		<polygon class="st1" points="94.677,144.122 138.733,209.711 141.341,193.259 98.353,129.259 94.677,129.259 		"/>
		<polygon class="st1" points="47.055,137.787 0,207.752 12.399,209.718 47.055,158.122 		"/>
	</g>
	<g id="bar">
		<polygon id="bar_1_" points="0,211.009 141.732,211.009 141.732,207.752 0,207.752 		"/>
	</g>
	<g id="outline_1_">
		<g id="outline">
			<path d="M113.386,3.26c13.833,0,25.087,11.254,25.087,25.087v229.606c0,13.833-11.254,25.087-25.087,25.087h-85.04
				c-13.833,0-25.087-11.254-25.087-25.087V28.346C3.26,14.514,14.514,3.26,28.346,3.26H113.386 M113.386,0h-85.04
				C12.756,0,0,12.756,0,28.346v229.606c0,15.591,12.756,28.346,28.346,28.346h85.039c15.591,0,28.346-12.756,28.346-28.346V28.346
				C141.732,12.756,128.976,0,113.386,0L113.386,0z"/>
		</g>
	</g>
</g>
</svg>
