<?xml version="1.0" encoding="utf-8"?>
<!-- Generator: Adobe Illustrator 23.0.1, SVG Export Plug-In . SVG Version: 6.00 Build 0)  -->
<svg version="1.1" id="Layer_1" xmlns="http://www.w3.org/2000/svg" xmlns:xlink="http://www.w3.org/1999/xlink" x="0px" y="0px"
	 viewBox="0 0 141.7 286.3" style="enable-background:new 0 0 141.7 286.3;" xml:space="preserve">
<style type="text/css">
	.st0{fill:#E12839;}
	.st1{fill:#414141;}
</style>
<polygon class="st0" points="141.7,74.2 83.8,74.2 83.8,0.1 58,0.1 58,74.2 0,74.2 0,103.1 58,103.1 58,207.8 83.8,207.8 
	83.8,103.1 141.7,103.1 "/>
<polygon class="st1" points="141.7,216.3 0,216.3 0,207.8 141.7,207.8 "/>
<g>
	<polygon class="st1" points="23.6,275.2 47.6,275.2 47.6,265.6 33.9,265.6 33.9,255.3 46.6,255.3 46.6,245.8 33.9,245.8 
		33.9,237.1 47.6,237.1 47.6,227.9 23.6,227.9 	"/>
	<path class="st1" d="M55.1,275.2h9.3v-8c0-7.1-0.4-14.5-1.2-22.1l8.6,30.1h10.8v-47.3h-9.2v7.4c0,5.2,0.4,12.4,1,21.8l-8.6-29.2
		H55.1V275.2z"/>
	<path class="st1" d="M118.1,249.3h-14v8.2h4.1c0.1,0.9,0.1,1.6,0.1,2.4c0,5.2-1.1,7.7-4,7.7c-3.5,0-3.6-3.7-3.6-12v-7.9
		c0-8.4,0.2-12.2,3.8-12.2c2.6,0,3.5,2.4,3.5,7.6v0.6h9.8c0-0.6,0.1-1.2,0.1-1.8c0-10-4.4-15.1-13.1-15.1c-5.5,0-9.6,2.1-12,6.2
		c-1.8,3.1-2.5,9.1-2.5,17.9c0,10.1,0.3,16.7,3.8,20.9c2.2,2.7,5.3,4.1,8.9,4.1c3.2,0,5.6-1.2,7.7-3.8l0.5,3h7.1v-25.8L118.1,249.3
		L118.1,249.3z"/>
</g>
</svg>
