<?xml version="1.0" encoding="utf-8"?>
<!-- Generator: Adobe Illustrator 23.0.1, SVG Export Plug-In . SVG Version: 6.00 Build 0)  -->
<svg version="1.1" id="Layer_1" xmlns="http://www.w3.org/2000/svg" xmlns:xlink="http://www.w3.org/1999/xlink" x="0px" y="0px"
	 viewBox="0 0 141.6999969 286.2999878" style="enable-background:new 0 0 141.6999969 286.2999878;" xml:space="preserve">
<style type="text/css">
	.st0{fill:#E6E6E6;}
	.st1{fill:#E12839;}
	.st2{opacity:0.5;fill:url(#SVGID_1_);}
	.st3{fill:url(#SVGID_2_);}
</style>
<g>
	<g>
		<path class="st0" d="M113.3000031,0.1h-85C12.8000002,0.1,0,12.8000002,0,28.3999996v229.5
			C0,273.5,12.8000002,286.1999817,28.3999996,286.1999817h85c15.5999985,0,28.2999954-12.7000122,28.2000046-28.2999878v-229.5
			C141.6000061,12.8999996,128.8999939,0.1,113.3000031,0.1L113.3000031,0.1z"/>
	</g>
</g>
<polygon class="st1" points="141.6999969,74.1999969 83.8000031,74.1999969 83.8000031,0.1 58,0.1 58,74.1999969 0,74.1999969 
	0,103.0999985 58,103.0999985 58,207.8000031 83.8000031,207.8000031 83.8000031,103.0999985 141.6999969,103.0999985 "/>
<polygon points="141.6999969,211 0,211 0,207.8000031 141.6999969,207.8000031 "/>
<polygon points="23.6000004,270.7000122 47.5999985,270.7000122 47.5999985,261.1000061 33.9000015,261.1000061 
	33.9000015,250.8000031 46.5999985,250.8000031 46.5999985,241.3000031 33.9000015,241.3000031 33.9000015,232.6000061 
	47.5999985,232.6000061 47.5999985,223.3999939 23.6000004,223.3999939 "/>
<path d="M55.0999985,270.7000122h9.3000031v-8c0-7.1000061-0.4000015-14.5-1.2000008-22.1000061l8.6000023,30.1000061h10.8000031
	v-47.3000031h-9.1999969v7.3999939c0,5.1999969,0.4000015,12.3999939,1,21.8000031l-8.5999985-29.1999969H55.0999985V270.7000122z"
	/>
<path d="M118.0999985,244.8000031h-14V253h4.0999985c0.0999985,0.8999939,0.0999985,1.6000061,0.0999985,2.3999939
	c0,5.2000122-1.0999985,7.7000122-4,7.7000122c-3.5,0-3.5999985-3.7000122-3.5999985-12v-7.8999939
	c0-8.3999939,0.1999969-12.1999969,3.8000031-12.1999969c2.5999985,0,3.5,2.3999939,3.5,7.6000061v0.6000061h9.8000031
	c0-0.6000061,0.0999985-1.1999969,0.0999985-1.8000031c0-10-4.4000015-15.1000061-13.0999985-15.1000061
	c-5.5,0-9.5999985,2.1000061-12,6.1999969c-1.8000031,3.1000061-2.5,9.1000061-2.5,17.8999939
	c0,10.0999908,0.3000031,16.6999969,3.8000031,20.9000092c2.1999969,2.7000122,5.3000031,4.1000061,8.9000015,4.1000061
	c3.1999969,0,5.5999985-1.2000122,7.6999969-3.7999878l0.5,3h7.0999985v-25.8000031L118.0999985,244.8000031
	L118.0999985,244.8000031z"/>
<linearGradient id="SVGID_1_" gradientUnits="userSpaceOnUse" x1="4.6907387" y1="140.0981445" x2="43.7000008" y2="140.0981445">
	<stop  offset="0" style="stop-color:#FFFFFF"/>
	<stop  offset="1" style="stop-color:#FFFFFF;stop-opacity:0"/>
</linearGradient>
<path class="st2" d="M24.1953888,271.222229h-0.0000381c-10.7275372,0-19.504612-8.7770691-19.504612-19.5046234V28.4786873
	c0-10.7275372,8.7770748-19.504612,19.504612-19.504612h0.0000381c10.7275352,0,19.504612,8.7770748,19.504612,19.504612
	v223.2389221C43.7000008,262.4451599,34.922924,271.222229,24.1953888,271.222229z"/>
<linearGradient id="SVGID_2_" gradientUnits="userSpaceOnUse" x1="70.8500061" y1="3.8999996" x2="70.8500061" y2="45.1999969">
	<stop  offset="0" style="stop-color:#FFFFFF"/>
	<stop  offset="1" style="stop-color:#FFFFFF;stop-opacity:0"/>
</linearGradient>
<path class="st3" d="M25.3407192,45.1999969h91.0185623c11.3574905,0,20.6499786-9.2924919,20.6499786-20.6499786v-0.0000401
	c0-11.3574886-9.2924881-20.6499786-20.6499786-20.6499786H25.3407192c-11.3574886,0-20.6499786,9.29249-20.6499786,20.6499786
	v0.0000401C4.6907406,35.907505,13.9832306,45.1999969,25.3407192,45.1999969z"/>
</svg>
