<?xml version="1.0" encoding="utf-8"?>
<!-- Generator: Adobe Illustrator 23.0.1, SVG Export Plug-In . SVG Version: 6.00 Build 0)  -->
<svg version="1.1" xmlns="http://www.w3.org/2000/svg" xmlns:xlink="http://www.w3.org/1999/xlink" x="0px" y="0px"
	 viewBox="0 0 141.732 286.299" style="enable-background:new 0 0 141.732 286.299;" xml:space="preserve">
<style type="text/css">
	.st0{fill:#FFFFFF;}
	.st1{fill:#E12839;}
</style>
<g id="Layer_2">
	<path class="st0" d="M113.386,0h-85.04C12.756,0,0,12.756,0,28.346v229.606c0,15.591,12.756,28.347,28.346,28.347h85.039
		c15.591,0,28.346-12.756,28.346-28.347V28.346C141.732,12.756,128.976,0,113.386,0L113.386,0z"/>
</g>
<g id="Layer_1">
	<polygon id="St._George_x27_s_Cross" class="st1" points="138.472,91.333 85.039,91.333 85.039,3.26 56.693,3.26 56.693,91.333 
		3.26,91.333 3.26,119.679 56.693,119.679 56.693,207.752 85.039,207.752 85.039,119.679 138.472,119.679 	"/>
	<polygon points="24.581,270.289 48.098,270.289 48.098,260.873 34.642,260.873 34.642,250.779 47.063,250.779 47.063,241.486 
		34.642,241.486 34.642,232.995 48.098,232.995 48.098,224.009 24.581,224.009 	"/>
	<path d="M55.456,270.289h9.086v-7.817c0-6.954-0.402-14.155-1.15-21.602l8.453,29.419h10.579v-46.281h-9.028v7.262
		c0,5.046,0.345,12.124,0.978,21.293l-8.395-28.556H55.456V270.289z"/>
	<path d="M117.151,244.933H103.41v8.061h3.967c0.057,0.863,0.057,1.6,0.057,2.338c0,5.11-1.093,7.51-3.91,7.51
		c-3.393,0-3.565-3.632-3.565-11.754v-7.756c0-8.184,0.23-11.939,3.738-11.939c2.529,0,3.393,2.339,3.393,7.447v0.555h9.602
		c0-0.617,0.058-1.17,0.058-1.723c0-9.785-4.313-14.772-12.823-14.772c-5.404,0-9.371,2.031-11.786,6.093
		c-1.783,3.016-2.414,8.862-2.414,17.542c0,9.846,0.286,16.37,3.736,20.492c2.183,2.646,5.232,4.062,8.74,4.062
		c3.103,0,5.518-1.168,7.532-3.692l0.458,2.892h6.958L117.151,244.933L117.151,244.933z"/>
	<polygon id="bar" points="0,211.009 141.732,211.009 141.732,207.752 0,207.752 	"/>
	<path d="M113.386,3.26c13.833,0,25.087,11.254,25.087,25.087v229.606c0,13.833-11.254,25.087-25.087,25.087h-85.04
		c-13.833,0-25.087-11.254-25.087-25.087V28.346C3.26,14.514,14.514,3.26,28.346,3.26H113.386 M113.386,0h-85.04
		C12.756,0,0,12.756,0,28.346v229.606c0,15.591,12.756,28.347,28.346,28.347h85.039c15.591,0,28.346-12.756,28.346-28.347V28.346
		C141.732,12.756,128.976,0,113.386,0L113.386,0z"/>
</g>
</svg>
