<?xml version="1.0" encoding="utf-8"?>
<!-- Generator: Adobe Illustrator 23.0.1, SVG Export Plug-In . SVG Version: 6.00 Build 0)  -->
<svg version="1.1" id="Layer_1" xmlns="http://www.w3.org/2000/svg" xmlns:xlink="http://www.w3.org/1999/xlink" x="0px" y="0px"
	 viewBox="0 0 141.6999969 286.2999878" style="enable-background:new 0 0 141.6999969 286.2999878;" xml:space="preserve">
<style type="text/css">
	.st0{fill:#232323;}
	.st1{fill:#6E000B;}
</style>
<g>
	<path id="path1297_8_" class="st0" d="M28.7000008,253.5v1.1999969c0,3.5000153-0.5,5.0999908-2.5,5.0999908
		c-2.6000004,0-2.6000004-2.8999939-2.6000004-9.5v-0.5c0-6.3000031,0-9,2.6000004-9c1.8999996,0,2.5,1.6000061,2.6000004,5.1999969
		h6.0000019v-0.3000031c0-6.8999939-2.8999996-10.3000031-8.7000008-10.3000031
		c-3.3999996,0-5.7999992,1.1999969-7.2999992,3.6999969c-1.2999992,2.1000061-1.5,5.8000031-1.5,11.1999969
		s0.2000008,9.0000153,1.5,11.1999969c1.5,2.5,3.8999996,3.7000122,7.3999996,3.7000122
		c5.8999996,0,8.6000004-3.3999939,8.6000004-10.1999969c0-0.5,0-0.8999939,0-1.3999939L28.7000008,253.5
		C28.7000008,253.6000061,28.7000008,253.5,28.7000008,253.5z"/>
	<path id="path1301_8_" class="st0" d="M42.5999985,264.3999939h6.2999992v-12l6.0999985-16.3000031h-6.7000008l-2.5999985,9
		l-2.5999985-9h-6.7000008l6.0999985,16.3000031v12H42.5999985z"/>
	<path id="path1305_8_" class="st0" d="M57.5999985,264.3999939h5.7999992l-0.5-21.8999939l4.2000008,21.8999939h4.6999969
		L75.9999924,242.5l-0.5,21.8999939h5.8000031v-28.3000031h-8.5999985L70.4000015,248
		C70.3000031,248.5,70,250.8000031,69.5,254.6999969c-0.5-4-0.8000031-6.1999969-0.8000031-6.6000061L66.3000031,236h-8.7000008
		L57.5999985,264.3999939L57.5999985,264.3999939z"/>
	<path id="path1309_8_" class="st0" d="M86.4000015,236.1000061h7c3.5,0,5.9000015,0.1999969,7.5,1.5
		C102.5,239,103.2000046,240.9000092,103.2000046,243.5c0,3.1999969-1,5.3999939-3.3000031,6.8000031
		c2.9000015,1.3999939,2.9000015,3.1999969,3,6.5999908c0.0999985,3.7000122-0.0999985,6.1000061,1.5,7.5h-7.3000031
		c-0.3000031-1.2000122-0.5-2.5-0.5-3.8999939c0-1.2000122,0.0999985-2.2000122,0.0999985-2.8999939
		c0-3.3000031-0.5999985-4.5-2.9000015-4.5h-1.3000031v11.2999878h-6.0999985
		C86.4000015,264.3999939,86.4000015,236.1000061,86.4000015,236.1000061z M93.3000031,247.8999939c2.5,0,3.5-1,3.5-3.6000061
		c0-2.3999939-1-3.3999939-3.5-3.3999939c-0.1999969,0-0.5,0-0.8000031,0v6.8999939
		C92.8000031,247.8999939,93,247.8999939,93.3000031,247.8999939"/>
	<path id="path1313_8_" class="st0" d="M107.6999969,236.1000061v15.1999969c0,4.6999969,0.0999985,7.9999847,1.3000031,10.3000031
		c1.3000031,2.5,3.5,3.5,7,3.5c3.6999969,0,6.0999985-1.1000061,7.4000015-3.7000122c1-2,1.0999985-4.2999878,1.0999985-7.1999969
		v-18.1000061h-6.1999969v18.1000061c0,3.5999908,0,5.5999908-2.0999985,5.5999908s-2.1999969-2-2.1999969-6V236h-6.3000031
		C107.6999969,236,107.6999969,236.1000061,107.6999969,236.1000061z"/>
</g>
<g>
	<polygon class="st1" points="92.9000015,129.8999939 92.9000015,129.8000031 92.3000031,129.5 92.9000015,130.1000061 	"/>
	<polygon class="st1" points="20.5,87.4000015 20.6000004,88.4000015 21,89 21.6000004,89.4000015 22.5,89.8000031 22.6000004,89 
		22.7000008,88 22.6000004,87.1999969 22.5,86.4000015 22.2000008,85.5999985 21.7999992,84.8000031 21,84 20.1000004,83.3000031 
		20.3999996,84.4000015 20.5,85.4000015 20.5,86.4000015 	"/>
	<polygon class="st1" points="99,143.3000031 98.0999985,143.6999969 97.4000015,144.1000061 97,144.6999969 96.6999969,145.5 
		97.3000031,145.1999969 98,144.8999939 98.5999985,145 99.3000031,145.3000031 99.5999985,144.6999969 99.5999985,144.3000031 
		99.3000031,143.8999939 	"/>
	<polygon class="st1" points="95.5,138.8999939 94.0999985,139.1000061 93.1999969,139.6999969 92.5,140.5 92.0999985,141.6000061 
		93,141 93.8000031,140.8999939 94.6999969,140.8999939 95.5999985,141.1999969 96,140.8000031 96,140.1999969 95.9000015,139.5 	
		"/>
	<polygon class="st1" points="95.5,136.6999969 96.1999969,136.8000031 96.9000015,137.1999969 97.3000031,136.6000061 
		97.5999985,135.8999939 97.6999969,135.3000031 97.5999985,134.6999969 96.5,135 95.5999985,135.3999939 94.5999985,136.1000061 
		93.6999969,136.8000031 94.5999985,136.6999969 	"/>
	<polygon class="st1" points="55.5999985,133.8000031 56.2000008,133.8999939 56.7999992,134 57.4000015,134.3000031 
		58,134.6000061 58.4000015,134.8999939 58.7000008,134.3000031 59,133.8000031 59,133.1000061 58.7000008,132.3999939 
		58,132.3999939 57.2000008,132.3999939 56.5999985,132.5 56,132.6000061 55.4000015,132.8999939 54.7999992,133.1999969 
		54.2000008,133.5 53.7999992,133.8999939 54.4000015,133.8000031 55,133.8000031 	"/>
	<polygon class="st1" points="56.4000015,138.5 56.2999992,138.1000061 56.2000008,137.6999969 55.7999992,137.3999939 
		54.5999985,137.6000061 53.7000008,138 53.0999985,138.6999969 52.7000008,139.5 53.5999985,139.1000061 54.5,138.8000031 
		55.4000015,138.8000031 56.4000015,139.1000061 	"/>
	<polygon class="st1" points="59.4000015,142.3000031 58.7000008,142.1999969 58,142.1999969 57.2000008,142.1999969 
		56.5999985,142.5 56.2999992,143.1000061 56.2000008,143.6999969 56.7999992,143.3999939 57.2000008,143.3000031 
		57.7999992,143.1999969 58.2000008,143.1000061 58.7999992,143.1000061 59.4000015,143 60,143 60.7000008,143 
		60.0999985,142.6999969 	"/>
	<polygon class="st1" points="20,142.1999969 18.5,142.6999969 17.5,143.1000061 16.7999992,143.8000031 16.3999996,144.8000031 
		17.6000004,144.1999969 18.6000004,143.8000031 19.5,143.8000031 20.7000008,143.8999939 20.7000008,143.1999969 
		20.7000008,142.6000061 20.3999996,142.3000031 	"/>
	<polygon class="st1" points="17.2000008,140 17.7999992,140.3000031 18.1000004,139.6999969 18,139 17.6000004,138.3999939 
		16.8999996,137.6999969 15.6999998,138 14.5,138.3999939 13.6000004,139.1999969 13,140.3000031 13.6999998,140 
		14.3999996,139.6999969 15,139.6000061 15.6000004,139.6000061 16.2000008,139.6999969 16.7999992,139.6999969 	"/>
	<polygon class="st1" points="16.7000008,135.3999939 17.3999996,135.3999939 18.2999992,135.5 19.2000008,135.3999939 
		19.7999992,134.8999939 20.3999996,134.1999969 20.7999992,133.1999969 20,133.3999939 19.1000004,133.5 18.3999996,133.6000061 
		17.5,134 16.8999996,134.3000031 16.2000008,134.8999939 15.6000004,135.3999939 15,136.1000061 16,135.6999969 	"/>
	<polygon class="st1" points="15.1999998,84 14.8999996,84.5999985 14.6000004,85.1999969 15.3000002,85.3000031 16,85.1999969 
		16.7000008,84.8000031 17.6000004,84.3000031 17.6000004,83.5999985 17.5,83 17.2000008,82.5 16.7000008,82 16,81.4000015 
		15.3000002,81.0999985 14.3000002,80.6999969 13,80.5999985 13.8999996,81.1999969 14.5,81.8000031 14.8999996,82.4000015 
		15.1999998,83 15.1999998,83.6999969 	"/>
	<polygon class="st1" points="9.6000004,87.1999969 9.5,88.3000031 10.1000004,88.4000015 10.5,88.0999985 11.1000004,87.5 
		11.6999998,86.8000031 11.6000004,86.0999985 11.3000002,85.6999969 10.8999996,85.3000031 10.3000002,84.9000015 
		9.6999998,84.8000031 8.8000002,84.6999969 8,84.6999969 7.0999999,84.6999969 8.6000004,85.4000015 9.5,86.1999969 	"/>
	<polygon class="st1" points="12,73 12.8999996,74.5999985 14.1000004,76 15.3999996,77.5 16.8999996,78.6999969 18.5,79.9000015 
		20.1000004,81 19.5,80 19.1000004,79.1999969 19.1000004,78.4000015 19.3999996,77.4000015 21.7000008,77.8000031 24,77.9000015 
		26.2999992,78.0999985 28.6000004,78.0999985 30.8999996,78 33.0999985,77.5999985 35,77 36.9000015,76.0999985 37.7999992,75 
		37.5,73.9000015 36.5,73.0999985 35.2000008,73 33.4000015,74 31.5,74.6999969 29.5,75.3000031 27.5,75.5999985 
		25.6000004,75.6999969 23.7000008,75.6999969 22.1000004,75.5999985 20.6000004,75.1999969 20.5,74.9000015 20.5,74.5 
		20.6000004,73.9000015 20.7000008,73.1999969 19.7999992,73.1999969 18.5,72.9000015 17,72.5999985 15.3999996,72 
		13.8000002,71.5999985 12.3999996,71 11.1999998,70.3000031 10.5,69.6999969 11.1000004,71.5 	"/>
	<path class="st1" d="M133.5,87.5999985l-0.6999969-2.5L132.4000092,82.5l-0.3999939-2.5999985l-0.1000061-2.5999985
		L131.8000031,74.5v-2.8000031v-2.8000031l-1.5,2.1999969l-1.6000061,2.1999969l-1.5999985,2.0999985L125.5,77.4999847
		l-1.6999969,1.9000015l-1.6999969,2.0999985l-1.9000015,1.9000015l-1.9000015,1.9000015l0.9000015,0.0999985l0.9000015,0.0999985
		l0.9000015-0.0999985l0.9000015-0.0999985l0.9000015-0.0999985l0.9000015-0.3000031l0.9000015-0.3000031l0.9000015-0.3000031
		l0.0999985,0.8000031v0.8000031l-0.0999985,0.8000031v0.8000031l-0.3000031,0.8000031l-0.0999985,0.6999969l-0.3000031,0.8000031
		l-0.3000031,0.5999985l-1.1999969-1.0999985l-1.1999969-0.8000031l-1.3000031-0.6999969l-1.5-0.4000015l-1.5-0.3000031
		l-1.5-0.0999985l-1.5,0.0999985l-1.5999985,0.0999985l-1,0.4000015l-0.9000015,0.5999985l-0.6999969,0.5999985
		l-0.6999969,0.6999969l-0.6999969,0.6999969l-0.4000015,0.6999969l-0.4000015,0.8000031l-0.4000015,0.6999969l-0.0999985,1v1
		v0.8000031l0.0999985,0.6999969l0.3000031,0.8000031l0.3000031,0.6999969l0.4000015,0.6999969l0.6999969,0.6999969
		l0.9000015,0.8000031l1,0.5999985l1,0.5999985l1,0.3000031l1.1999969,0.3000031h1.1999969h1.0999985l1.1999969-0.3000031
		l-0.6999969,0.4000015l-0.6999969,0.5999985l-0.6999969,0.4000015l-0.9000015,0.3000031l-0.9000015,0.3000031l-0.9000015,0.3000031
		l-1,0.0999985h-1.1999969l-2.3000031-0.4000015l-2.1999969-0.6999969l-1.9000015-0.8000031l-1.5999985-1l-1.6999969-1.0999985
		l-1.5999985-0.8000031l-1.9000015-0.8000031l-1.6999969-0.5l0.0999985-0.1999969l-0.1999969,0.0999985h-0.0999985
		l1.1999969-0.5999985l1-0.3000031l0.9000015-0.3000031l1-0.0999985h1h1.1999969l1.5,0.0999985l1.6999969,0.3000031
		l-0.3000031-0.4000015l-0.5999985-0.8000031l-0.6999969-0.8000031l-0.5999985-0.8000031l-0.3000031-0.4000015l-0.6999969-2.5999985
		l0.5999985-2.8000031l1.5999985-2.4000015l2.3000031-2.1999969l2.8000031-1.9000015l3.0999985-1.5l2.8000031-1.0999985
		l-3.1999969-1.1999969l-1.3000031-1.5l0.3000031-1.5L113,73l1.9000015-1.8000031l2.1999969-1.9000015L119,67.3999939
		l1.1999969-2.1999969l-3.8000031,1.1999969l-3.5,1.0999985l-3.0999985,1.0999985l-2.8000031,0.8000031l-2.5,0.8000031
		l-2.1999969,0.5999985l-1.8000031,0.4000015l-1.5999985,0.0999985l-1.3000031-0.0999985l-1-0.4000015l-0.6999969-0.5999985
		l-0.4000015-1.0999985l-0.0999985-1.4000015V66l0.0999985-2.4000015l0.4000015-2.5l-1.5,1l-1.6999969,1.0999985l-1.9000015,1
		l-2,1.0999985l-2,1.0999985l-2.1999969,1.0999985l-2.1999969,1.0999985l-2,1.0999985l-2.1999969,1.1999969L76,72.0999985
		l-1.9000015,1.1999969l-1.9000015,1.4000015L70.5,76.0999985L68.9000015,77.5l-1.3000031,1.4000015l-1.1999969,1.5
		l-0.5999985,1.6999969l-0.5999985,1.5l-0.3000031,1.8000031c-0.0999985,0.8000031-0.3000031,1.5999985-0.5,2.4000015L57,93
		l-0.2999992-0.5L56,91.8000031l-0.7000008-0.5999985l-0.5999985-0.5999985L54,90.1999969l-0.5999985-0.3000031L53,89.5999985
		L52.4000015,89.5L52.5,88.6999969l0.0999985-0.8000031l0.0999985-0.6999969L52.9999962,86.5l0.4000015,0.3000031
		l0.5999985,0.0999985h0.5999985l0.7000008-0.0999985H56l1,0.0999985l1,0.4000015l1,0.8000031l-0.2999992-0.6999969
		l-0.5999985-0.8000031l-0.5999985-0.8000031L56.9000015,85l-0.7000008-0.8000031l-0.9000015-0.5999985l-0.7000008-0.4000015
		l-0.9000015-0.3000031l0.2999992-0.8000031v-0.8000031l0.0999985-0.6999969V80l0.5,0.0999985H55L55.4000015,80l0.4000015-0.0999985
		h0.5999985L57.1000023,80l1,0.4000015l1,1l-0.4000015-0.8000031l-0.4000015-0.8000031L57.9000015,79l-0.5999985-0.6999969
		L56.6000023,77.5l-0.7000008-0.5999985L55,76.3000031l-0.9000015-0.4000015L54.1999969,75.5v-0.5999985l-0.0999985-0.5999985
		L54,73.5999985L54.4000015,73.5l0.4000015-0.0999985L55.4000015,73.5l0.7000008,0.0999985l0.5999985,0.3000031l0.5999985,0.3000031
		L58,74.5000076l0.7000008,0.1999969l-0.2999992-1l-0.5999985-0.8000031l-0.5999985-0.6999969l-0.9000015-0.6999969
		l-0.9000015-0.5999985L54.5,70.5000076l-0.9000015-0.4000015L52.9000015,70l0.4000015-0.5l0.2999992-0.5999985l0.0999985-0.5999985
		L54,67.9000015l0.4000015-0.5999985L55,66.9000015l1-0.5999985l1.5-0.5l0.0999985-0.6999969l-0.4000015-0.3000031L56.5999985,64.5
		l-0.2999992-0.4000015v-0.4000015l0.0999985-0.5999985l0.2999992-0.5L57,62l0.2999992-0.4000015V61l-0.0999985-0.7000008
		l-0.4000015-0.5999985L55.8999977,60.5L55,61.2000008l-1.2000008,0.5999985l-1.2000008,0.2999992l0.0999985-1l0.2999992-1
		l0.2999992-1L53,58.4000015l-1.2000008,0.7000008L50.5,59.7000008l-1.2999992,0.7000008L48,61l-1.4000015,0.5999985
		l-0.9000015,0.7000008l-0.4000015,1l-0.2000008,1.0000038L43.7999992,64L42.5,63.9000015l-1.2999992-0.0999985
		l-1.2999992-0.0999985l-1.2999992-0.0999985h-1.2999992L36,63.7000008L34.7000008,64l-1,0.3000031l-0.4000015,0.4000015
		l-0.4000015,0.4000015l-0.0999985,0.6999969l-2.2000008,0.0999985l-2.2000008,0.4000015l-2.2000008,0.5999985l-2,0.5999985
		l-1.8999996,0.6999969L20.6000004,69L19,69.8000031l-1.2999992,1h9l0.2999992,1l0.7000008,0.9000015l0.7000008,0.8000031l1,1
		l0.6000004,0.0999985l0.7000008-0.0999985l0.7000008-0.0999985L32,74l1-0.5999985l1-0.6999969l0.9000015-0.5999985l1-0.4000015
		l0.9000015,0.0999985l0.9000015,0.3000031l0.7000008,0.4000015l0.7000008,0.5999985l0.7000008,0.6999969l0.4000015,0.8000031
		l0.4000015,0.6999969l0.0999985,0.8000031l-1.2999992,0.0999985l-1.2000008,0.4000015L36.9000015,77l-1.2999992,0.4000015
		L34.2999992,78L33,78.4000015l-1.5,0.3000031L30.2000008,79l-0.1000004,1L30,81v1l0.1000004,1l0.2999992,1l0.2999992,1
		l0.2999992,0.8000031l0.3999996,0.8000031V86l0.2000008-0.6999969L31.8999977,84.5l0.1000004-0.6999969l0.3000011-0.9000015
		l0.2999992-0.8000031L33,81.2999954l0.2999992-0.9000015l0.0999985,1l0.2999992,0.6999969l0.5999985,0.6999969l0.5999985,0.5999985
		l0.4000015-1.0999985l0.5999985-1l0.4000015-0.8000031l0.7000008-0.8000031l0.4000015-0.5999985h0.7000008l0.5999985,0.0999985
		l0.7000008,0.3000031l-0.7000008,0.5999985l-0.5999985,0.5999985l-0.4000015,0.6999969l-0.2999992,0.6999969l-0.2999992,0.6999969
		v0.6999969L37,84.3000031L37.0999985,85l-0.4000015,0.3000031l-0.4000015,0.3000031L36,86.1999969l-0.4000015,0.5999985
		L35.5,87.4999924l-0.0999985,0.8000031L35.2999992,89v0.5999985l-0.7000008,0.0999985L34,90.3000031l-0.4000015,0.5999985
		l-0.4000015,0.8000031l-0.2999992,0.8000031l-0.0999985,0.8000031V94l0.0999985,0.5999985l-0.7000008,0.5999985
		l-0.3999996,0.6999969l-0.3999996,0.6999969l-0.1000004,1l-0.1000004,0.8000031v0.8000031v0.4000015l-6,8.1999969
		l-0.3999996-0.3000031l-1.2000008-0.6999969l-1.2999992-0.8000031l-1.2000008-0.6999969l-1.2999992-0.6999969l-0.1000004-1.1999969
		l-0.1000004-1.3000031L19.2999973,101L19,99.8000031l-0.3999996-1.0999985l-0.3999996-1.0999985L18,96.5l-0.3999996-1.0999985
		l0.7000008-0.5999985l0.7000008-0.6999969l0.6000004-0.5999985l0.6000004-0.5l0.5-0.5999985l0.6000004-0.6999969
		l0.6000004-0.6999969l0.3999996-0.6999969L21.3999996,90l-0.7000008-0.5999985l-0.6000004-0.6999969l-0.3999996-1v0.6999969
		L19.6000004,89l-0.2999992,0.5999985L19,90l-0.6000004,0.1999969l-0.2999992,0.5999985l-0.2999992,0.5999985l-0.2999992,0.8000031
		l0.1000004-1.4000015v-1L17.5,89v-0.8000031L17.3999996,87.5v-0.8000031L17.5,85.5999985l0.2999992-1.4000015l-0.8999996,0.6999969
		l-1,0.4000015L15,85.4000015l-1-0.0999985l0.3999996,1l0.3000002,1l0.1000004,1l-0.1000004,1v1l-0.1000004,1l-0.3000002,1
		l-0.1000004,1l-0.3999996-0.4000015l-0.3999996-0.6999969L13,91.5l-0.3000002-0.8000031l-0.1000004-0.8000031l-0.1000004-1
		l-0.1000004-1v-1l-0.6999998,1l-0.6000004,0.6999969l-0.8999996,0.3000031L9.3000002,89L10,90.3000031l0.3000002,1.4000015
		l0.3000002,1.5l0.3000002,1.6999969l0.1000004,1.5l0.3999996,1.5l0.3999996,1.4000015l0.6000004,1.4000015l-0.3000002,0.6999969
		l-0.3999996,0.8000031l-0.3000002,0.8000031l-0.3999996,0.6999969l-0.3000002,0.8000031l-0.3999996,0.8000031l-0.3999996,0.8000031
		l-0.3999996,0.6999969l0.1000004,0.5999985l0.1000004,0.5999985v0.3000031l0.1000004,0.5999985v0.5999985v0.5999985
		l0.1000004,0.6999969V111.5l0.3999996-1l0.6000004-1l0.3000002-1.0999985l0.6000004-1.1999969l0.3999996-1.1999969
		l0.6000004-1.0999985l0.6999998-1.0999985l0.8999996-1.0999985l0.3999996,1.9000015l0.6000004,1.6999969l0.3999996,1.6999969
		l0.6000004,1.5l0.6000004,1.4000015l0.7000008,1.4000015l0.7000008,1.3000031l0.7000008,1.1999969L20,116l0.8999996,1.3000031
		l1,1.1999969l0.8999996,1.1999969L24,120.8999939l1,1.1999969l1.2000008,1.4000015L27.5,124.8999939l0.1000004,0.6999969v0.6999969
		v0.6999969v0.5999985L27.5,128.2999878l-0.2999992,0.6999969l-0.2999992,0.6999969l-0.3999996,0.6999969l0.6000004-0.3000031
		l0.7000008-0.3000031l0.6000004-0.3999939l0.6000004-0.6000061l0.3999996-0.6999969l0.6000004-0.6999969l0.3999996-0.8000031
		l0.2999992-0.8000031l0.2999992-0.6999969l0.2999992-0.8000031l0.1000004-0.8000031l-0.1000004-0.8000031L32,123
		l0.7000008,0.0999985h0.7000008h0.9000015L35,123l0.7000008-0.3000031l0.7000008-0.4000015l0.2999992-0.1999969h0.2000008
		l-0.7000008,0.8000031l-0.4000015,1l0.0999985,0.8000031l0.5999985,1l-0.9000015,0.5999985L35.1999931,127v0.5l0.2999992,0.8000031
		l-0.7000008,0.6000061l-0.4000015,0.8000031v1.1000061l0.0999985,1.1000061l-1.2999992,0.3000031l-1,0.3000031
		l-0.7000008,0.6000061l-0.2999992,1.1000061l-0.6000004,0.3000031l-0.3999996,0.3999939l-0.6000004,0.3000031l-0.3999996,0.1000061
		l-0.6000004,0.3000031l-0.6000004,0.1000061h-0.6000004l-0.7000008,0.1000061l-0.7000008-0.3999939l-0.7000008-0.3000031
		l-0.7000008-0.3000031l-0.7000008-0.1000061l-0.7000008-0.3000031l-0.7000008-0.3000031l-0.6000004-0.3000031l-0.7000008-0.6000061
		l-0.2999992,1l-0.3999996,0.6999969l-0.8999996,0.6000061l-1,0.3000031l1,0.1000061l0.8999996,0.1000061l1,0.1000061
		l0.8999996,0.3000031l0.7000008,0.3000031l0.7000008,0.3999939l0.7000008,0.3999939l0.6000004,0.6000061l-0.8999996-0.1000061
		l-1-0.1000061h-1l-0.8999996-0.1000061l-1-0.1000061l-1-0.1000061l-0.8999996-0.1000061l-0.8999996-0.1000061l0.6000004,0.6999969
		l0.2999992,0.6999969l0.2999992,0.8000031v1L19,140l0.5-0.6000061l0.3999996-0.3000031L20.5,138.9999847l0.7000008,0.3000031
		l0.7000008,0.1000061h0.7000008l0.7000008-0.1000061h0.8999996l0.7000008-0.1000061l0.8999996-0.1000061h0.7000008
		l0.6000004,0.3000031l0.3999996,0.3999939l-0.1000004,0.3000031l-0.2999992,0.3999939l-0.8999996,0.3000031l-0.8999996,0.3000031
		l-0.7000008,0.1000061l-0.7000008,0.1000061l-0.7000008,0.1000061L22.3000031,141.5h-0.8999996h-1l0.6000004,0.3999939
		l0.3999996,0.3999939l0.1000004,0.6000061l-0.1000004,0.6999969l0.7000008-0.3000031l0.7000008-0.1000061h0.7000008h0.8999996
		l0.7000008-0.1000061L26,143l0.3999996-1.5L27,140.8000031h0.7000008l0.7000008-0.1000061l0.8999996-0.1000061l1.5-0.1000061
		l0.7000008-0.3000031l0.6999989-0.3999939l0.5999985-0.6000061c0.0999985-0.3999939,0.0999985-0.8000031,0.5-0.8999939
		c0.4000015-0.1999969,1.4000015-0.1000061,1.7999992,0c0.5,0.1999969,0.0999985,0,0.4000015,0.3000031
		c0.2000008,0.1999969,0.4000015,0.5,0.5,0.6999969c0.4000015,0.6000061,0.7000008,1.1000061,1.2000008,1.5
		c0.7000008,0.6000061,1.4000015,1.1000061,2.0999985,1.6999969c0.2999992,0.3000031,1.2000008,1.1999969,1.5999985,0.6999969
		c0.2000008-0.1999969-0.0999985-0.6000061,0.0999985-0.8000031c0.2000008-0.1000061,1,0.1999969,1.2000008,0.3000031
		c0.7000008,0.1999969,1.4000015,0.3999939,2.0999985,0.5c0.5,0.1000061,1.0999985,0.3000031,1.5999985,0.3999939
		c-0.5-0.6000061-1.0999985-1.1999969-1.7000008-1.8000031c-0.5999985-0.5-1.2000008-1.1000061-2.2000008-1.1999969
		c0.2000008-0.5,0.2000008-1.1000061,0.4000015-1.6999969c0.0999985-0.3999939,0.2000008-0.8000031,0.2000008-1.1999969
		c-0.5-0.1000061-1,0-1.4000015-0.1000061c-0.2999992-0.1000061-0.5999985-0.1999969-1-0.1999969
		c-0.7000008-0.1000061-1.4000015-0.1999969-2-0.3999939c-0.5-0.1999969-2.0999985-0.5-1.9000015-1.3999939
		c0.0999985-0.6000061,1.2000008-1.3999939,1.5999985-1.8000031l1.2999992-1.3999939l1-1.1999969l1-1.1000061l0.9000015-1.1999969
		l0.7000008-1.4000015l0.9000015-1.5l1-1.9000015l0.7000008-0.8000031l0.9000015-0.6999969l0.9000015-0.0999985l0.9000015,0.4000015
		l-0.2999992,0.6999969l-0.0999985,0.6999969l-0.2999992,0.5999985l-0.2999992,0.6999969l0.5999985,0.4000015l0.5999985,0.6999969
		l0.2999992,0.6999969L49,128.1999817l0.2999992-1l0.2999992-1.0999985v-1v-1l2.5-0.8000031l2.5-0.8000031l2.7999992-0.8000031
		l2.5999985-1l2.5999985-0.6999969l2.2999992-0.5999985l2.1999969-0.4000015l1.9000015-0.0999985l-0.3000031,0.5999985
		l-0.3000031,0.6999969l-0.4000015,0.5999985l-0.4000015,0.5999985l-0.4000015,0.5999985l-0.4000015,0.5999985l-0.0999985,0.5999985
		l-0.0999985,0.5999985l0.0999985,0.6999969l0.0999985,0.6999969l0.4000015,0.6999969l0.1999969,0.3000031l-0.6999969,0.1999969
		l0.5,0.3000031l0.0999985,0.4000015l0.3000031,0.3000031l0.0999985,0.4000015l0.5999985-0.3000031l0.3000031,0.3000031
		l0.6999969,0.5999985l0.5999985,0.3999939l0.9000015,0.3999939l1,0.3000031l1,0.3000031h0.0999985L73,130l0.4000015,0.1000061
		l0.3000031,0.3000031l0.3000031,0.3999939l0.4000015-0.5l0.4000015,0.1000061l0.9000015,0.3000031l0.6999969,0.3999939
		L76.8000107,131.5l-0.5999985,0.6999969l-0.5999985,0.6999969L74.9000168,133.5L74,134l-0.9000015,0.6999969l-1,0.3999939
		l-0.9000015,0.3999939l-1,0.3000031l-0.5999985-0.6999969l-0.6999969-0.6000061l-0.6999969-0.3000031l-0.6999969-0.1000061
		h-0.6999969l-0.6999969,0.1000061l-0.5999985,0.3999939l-0.4000015,0.6000061l-0.9000015-0.3999939l-0.9000015-0.3000031
		l-0.9000015-0.3000031l-0.7000008-0.3000031l-0.7000008-0.3000031l-0.7000008-0.3999939l-0.7000008-0.6000061L59,132
		l0.0999985,1.1999969V134l-0.4000015,0.6999969l-0.5999985,0.3999939L59,135.1999969L59.9000015,135.5l0.7000008,0.3000031
		l0.7000008,0.3000031L62.0000038,136.5l0.7000008,0.3999939l0.5999985,0.3999939l0.5999985,0.3999939l-1,0.1000061l-1-0.1000061
		l-1-0.3000031l-1-0.3000031l-1-0.3999939l-1-0.1000061L57,136.4999695l-1,0.1000061l0.5999985,0.6000061L57,137.7999878
		l0.0999985,0.6000061L57,139.0999908l1,0.1000061h1h1.2000008h1.2000008h1.2000008h1.2000008L65,139.0999908l1.1999969-0.1000061
		l-0.5999985,0.3999939l-1,0.3999939l-1.2999992,0.3000031l-1.5,0.3000031l-1.5,0.3000031L59,141l-1,0.1999969l-0.4000015,0.3999939
		l1,0.1000061l1,0.3000031l0.7000008,0.3999939L61,143l0.5999985-0.3000031L62,142.5999908l0.5999985-0.3000031l0.5999985-0.1000061
		l0.5999985-0.1000061l0.5999985-0.1000061l0.5999985-0.1000061l0.5999985-0.1000061l0.6999969-0.1000061l0.6999969-0.1000061
		l0.6999969-0.1000061h0.5999985c1.8000031,0,3.4000015-0.3999939,5.0999985,0.3999939
		c0.8000031,0.3999939,1.5,0.8000031,2.1999969,1.1999969c0.9000015,0.5,1.6999969,1.1999969,2.5,1.8000031
		c0.4000015-0.1999969,0.5999985-1,1-0.8999939c-0.0999985-0.1999969,0-0.3000031,0.1999969-0.3000031
		c0.5,0,1.0999985,0.6000061,1.4000015,1s0.5,0.8000031,0.6999969,1.3000031s0.3000031,1.1000061,0.6999969,1.3999939
		c0.4000015,0.3999939,0.5999985-0.3000031,0.5999985-0.6999969c0.0999985-1.5-0.3000031-2.6000061-1.3000031-3.6999969
		c-0.3000031-0.3999939-0.6999969-0.8000031-1-1.1999969c-0.0999985-0.1000061-0.1999969-0.3999939-0.0999985-0.6000061
		c0.0999985-0.1000061,0.3000031-0.3000031,0.5-0.3000031c-1.1999969-0.1999969-2.5-0.5-3.8000031-0.6999969
		c-0.5999985,0-1.5999985,0-1.6999969-0.8000031c-0.0999985-0.6999969,0.9000015-0.5,1.5-0.8000031l1.1999969-0.6999969
		l1.3000031-0.8000031l1.3000031-0.8000031l1.1999969-0.8000031l1-0.6999969l0.9000015-0.5l0.6999969-0.3999939l0.6999969-0.6000061
		l0.6999969-0.6999969l0.6999969-0.6000061l0.5999985-0.6999969l0.6999969-0.6999969l0.5999985-0.6999969l0.4000015-0.1000061
		l0.5999985-0.1000061H90h0.5h0.5999985l0.5999985,0.1000061l0.5999985,0.1000061l-0.3000031-0.3000031l-1.1999969-0.8000031
		l-1.1999969-0.8000031l-1.1999969-0.6999969l-1.3000031-0.5999985l-1.1999969-0.5999985l-1.3000031-0.4000015l-1.3000031-0.4000015
		l-0.0999985-0.8000031l-0.4000015-1l-0.5999985-0.8000031l-0.9000015-0.5999985l-0.6999969-1l-0.9000015-0.8000031l-1-0.5999985
		L77.5,119.0999222l-0.0999985-0.8000031L77,117.4999161l-0.6999969-0.6999969l-0.6999969-0.5999985l1-0.6999969
		l0.6999969-0.8000031L78,113.5999222l0.4000015-1.0999985L79,113.2999268l0.6999969,1l1,0.8000031l1.1999969,0.8000031
		l1.1999969,0.8000031l1.3000031,0.6999969l1.3000031,0.4000015l1.1999969,0.4000015l0.6999969,0.8000031l0.0999985,0.0999985
		l0.0999985,0.3000031l0.0999985-0.0999985l0.4000015,0.4000015l1,0.5999985l1,0.4000015l1.1999969,0.4000015l1.3000031,0.3000031
		l1.3000031,0.3000031l1.3000031,0.0999985l1.1999969,0.3000031l1,0.0999985l1.1999969,0.0999985h1.1999969h1.6999969
		l1.1999969,0.0999985h0.8000031l0.3000031,0.0999985l0.3000031,0.0999985l0.0999985,0.0999985l0.4000015,0.0999985
		l-0.0999985-0.3000031h0.4000015l0.9000015,0.3000031l0.0999985,0.1999969l0.0999985,0.3000031l0.0999985-0.4000015
		l0.4000015,0.1999969l0.6999969,0.3000031l0.6999969,0.4000015l0.5999985,0.4000015l0.5999985,0.5999985l0.4000015,0.5999985
		l0.4000015,0.6999969l0.3000031,1l0.3000031,0.8000031l0.0999985,0.7999954l0.0999985,0.8000031v0.8000031v0.8000031
		l-0.3000031,0.6999969l-0.3000031,0.8000031l-0.5999985,0.6999969l-0.5999985,0.6999969l-0.4000015,0.6999969l-0.5999985,0.6999969
		l-0.4000015,0.8000031l-0.4000015,0.6999969l-0.4000015,0.8000031l-0.3000031,0.8000031l-1.1999969-0.1000061l-1.1999969-0.3000031
		l-1-0.3999939l-1-0.6000061l-1-0.6000061l-1-0.6999969l-1-0.8000031l-0.9000015-0.6999969v1l-0.0999985,0.8000031
		l-0.3000031,0.6999969l-0.4000015,0.6000061l0.6999969,0.3000031l0.6999969,0.1000061l0.6999969,0.3000031l0.6999969,0.3000031
		l0.6999969,0.3000031l0.5999985,0.3999939l0.6999969,0.3000031l0.5999985,0.3999939l-0.9000015,0.1000061h-0.6999969
		l-0.9000015-0.3000031l-0.9000015-0.1000061l-0.9000015-0.3000031l-0.9000015-0.3999939l-0.6999969-0.3000031l-0.9000015-0.1000061
		l0.4000015,1l0.3000031,0.8000031v0.6999969l-0.5999985,0.3999939l0.9000015,0.1000061l0.9000015,0.1000061h1h0.9000015h0.9000015
		h0.9000015l0.9000015-0.1000061l0.9000015-0.1000061l0.4000015,0.1000061l0.4000015,0.1000061l0.0999985,0.3000031
		l0.0999985,0.3999939l-0.5999985,0.1000061l-0.5999985,0.1000061l-0.5999985,0.1000061l-0.5999985,0.1000061l-0.6999969,0.1000061
		l-0.5999985,0.1000061h-0.6999969h-0.5999985l0.4000015,0.6999969l0.0999985,0.3999939v0.6000061l-0.0999985,0.6000061
		l1.3000031-0.3999939l1.5-0.3999939l1.3000031-0.3000031l1.5-0.3000031l1.3000031-0.6000061l1.3000031-0.6999969
		c0.9000015-0.6000061,1.5-1.3000031,2.3000031-2.1000061c0.6999969-0.6999969,1.9000015-0.6000061,2.8000031-0.6000061
		c1.1999969,0,2.3000031,0.1999969,3.4000015,0.6000061c0.6999969,0.3000031,1.4000015,0.8000031,2.0999985,1.1999969
		c0.5999985,0.3999939,1.5,1.1000061,2.1999969,1.3999939c0.9000015,0.3000031,0.8000031-1,1.0999985-1.6000061
		c0.3000031-0.8000031,1-0.6000061,1.9000015-0.6000061c1.0999985,0,2.0999985,0,3.1999969,0
		C126.5,140.0999451,125.6999969,139.7999573,125,139.3999481c-0.8000031-0.3999939-1.5999985-0.1999969-2.4000015-0.3999939
		c-0.5999985-0.1999969-0.5999985-1.3999939-0.5-2c-0.1999969,0-0.4000015,0.1999969-0.5999985,0.3000031
		c-0.5999985,0.1999969-1.5999985,0.1000061-2.1999969,0.1000061c-1,0-1.8000031-0.1000061-2.6999969-0.6000061
		c-0.8000031-0.5-0.6999969-1.1000061-0.6999969-1.8999939c0-1,0-1.8999939,0.3000031-2.8000031
		c0.1999969-0.3999939,0.1999969-0.8999939,0.3000031-1.3000031l0.3000031-1.1999969l0.3000031-1.3999939l0.0999985-1.5v-1.4000015
		v-1.5v-1.5v-1.5l-0.0999985-1.4000015l0.5999985,0.0999985l0.6999969,0.3000031l0.5999985,0.3000031l0.6999969,0.4000015
		l0.6999969,0.3000031l0.5999985,0.4000015l0.6999969,0.4000015l0.5999985,0.3000031l-0.5999985-3l-1.1999969-1.9000015
		l-1.6999969-1.0999985l-2-0.6999969l-2.1999969-0.3000031l-2.1999969-0.0999985l-2-0.4000015l-1.6999969-0.8000031
		l1.9000015-0.3000031l2.1999969-0.4000015l2.3000031-0.5999985l2.3000031-0.8000031l2.1999969-1.0999985l2-1.0999985
		l1.9000015-1.4000015l1.3000031-1.4000015l1-1.1999969l0.9000015-1.5l0.6999969-1.5l0.6999969-1.8000031l0.3000031-1.6999969
		l0.1000061-1.8000031l-0.3000031-1.6999969l-0.5999985-1.6999969l0.4000015-1l0.3999939-1.0999985l0.3000031-1.0999985
		l0.3000031-1.0999985l0.3000031-1.0999985l0.1000061-1.0999985l0.1000061-1.0999985l0.1000061-1.0999985l0.3999939,0.8000031
		l0.6000061,0.6999969l0.6000061,0.6999969l0.6999969,0.6999969l0.6999969,0.5999985l0.6999969,0.5999985l0.6000061,0.5999985
		l0.6999969,0.4000015L133.5,87.5999985z M37,122L37,122L37,122L37,122z M52.5,96.3000031
		c-0.2000008-0.5999985-0.0999985-1.4000015-0.2999992-2c0.2999992,0,0.7999992-0.1999969,1.0999985-0.4000015l0.4000015-0.3000031
		l0.5999985-0.4000015l0.5999985-0.0999985L55.4999962,93l1,0.1999969l0.2000008,0.0999985L52.5,96.3000031z M121.5,94.9000015
		l-0.9000015,1l-0.9000015,0.6999969l-1,0.4000015l-1,0.0999985h-1l-1-0.0999985l-1-0.3000031l-0.9000015-0.4000015
		l-0.6999969-0.6999969l-0.4000015-0.8000031l-0.0999985-0.8000031L113,92.8999939l0.5999985-0.4000015l0.5999985-0.4000015
		l0.5999985-0.3000031l0.6999969-0.0999985l0.6999969-0.0999985l0.6999969-0.0999985l0.9000015,0.0999985l1,0.0999985l1.5,0.8000031
		l1,0.5999985l0.4000015,0.8000031L121.5,94.9000015z"/>
</g>
<polygon class="st0" points="141.6999969,214.3000031 0,214.3000031 0,205.8000031 141.6999969,205.8000031 "/>
</svg>
