<?xml version="1.0" encoding="utf-8"?>
<!-- Generator: Adobe Illustrator 23.0.1, SVG Export Plug-In . SVG Version: 6.00 Build 0)  -->
<svg version="1.1" xmlns="http://www.w3.org/2000/svg" xmlns:xlink="http://www.w3.org/1999/xlink" x="0px" y="0px"
	 viewBox="0 0 141.732 286.299" style="enable-background:new 0 0 141.732 286.299;" xml:space="preserve">
<style type="text/css">
	.st0{fill:#FFFFFF;}
	.st1{fill:#4DB74B;}
	.st2{fill:#E02739;}
	.st3{fill:none;stroke:#161519;stroke-width:0.6863;stroke-miterlimit:1;}
	.st4{fill:#161519;}
</style>
<g id="Layer_2">
	<path class="st0" d="M113.386,0h-85.04C12.756,0,0,12.756,0,28.346v229.606c0,15.591,12.756,28.347,28.346,28.347h85.039
		c15.591,0,28.346-12.756,28.346-28.347V28.346C141.732,12.756,128.976,0,113.386,0L113.386,0z"/>
</g>
<g id="Layer_1">
	<g id="green_background">
		<path class="st1" d="M141.732,207.752V105.506H0v102.246C11.996,207.752,129.477,207.752,141.732,207.752z"/>
	</g>
	<g id="CYMRU">
		<g>
			<path id="path1297_8_" d="M28.733,250.198v1.243c0,3.544-0.458,5.088-2.5,5.088c-2.605,0-2.605-2.903-2.605-9.537v-0.527
				c0-6.256,0.035-8.971,2.605-8.971c1.937,0,2.535,1.584,2.57,5.241h6.023v-0.265c0-6.86-2.888-10.327-8.698-10.327
				c-3.381,0-5.812,1.243-7.29,3.693c-1.303,2.148-1.479,5.805-1.479,11.156c0,5.353,0.177,9.01,1.479,11.158
				c1.514,2.488,3.944,3.693,7.395,3.693c5.881,0,8.628-3.355,8.628-10.214c0-0.49,0-0.944-0.035-1.432h-6.093V250.198z"/>
			<path id="path1301_8_" d="M42.572,261.166h6.339v-12.024l6.092-16.321h-6.726l-2.57,8.971l-2.571-8.971H36.48l6.093,16.321
				v12.024H42.572z"/>
			<path id="path1305_8_" d="M57.608,261.166h5.846l-0.528-21.899l4.192,21.899h4.717l4.192-21.899l-0.529,21.899h5.847v-28.344
				H72.75l-2.325,11.948c-0.105,0.49-0.387,2.752-0.95,6.748c-0.528-3.957-0.775-6.182-0.845-6.634l-2.359-12.063h-8.663V261.166z"
				/>
			<path id="path1309_8_" d="M86.379,232.821h6.972c3.522,0,5.881,0.151,7.466,1.508c1.55,1.356,2.255,3.279,2.255,5.917
				c0,3.242-1.022,5.39-3.276,6.823c2.887,1.356,2.922,3.242,3.028,6.558c0.106,3.657-0.141,6.106,1.515,7.538h-7.255
				c-0.317-1.207-0.457-2.487-0.457-3.919c0-1.243,0.07-2.188,0.07-2.903c0-3.279-0.599-4.523-2.923-4.523h-1.268v11.345h-6.127
				C86.379,261.165,86.379,232.821,86.379,232.821z M93.28,244.656c2.535,0,3.522-0.979,3.522-3.618c0-2.45-0.987-3.355-3.522-3.355
				c-0.246,0-0.492,0.037-0.774,0.037v6.899C92.788,244.619,93.035,244.656,93.28,244.656"/>
			<path id="path1313_8_" d="M107.683,232.821v15.266c0,4.675,0.07,7.991,1.269,10.253c1.338,2.487,3.521,3.505,6.972,3.505
				c3.733,0,6.093-1.094,7.395-3.693c0.986-1.962,1.056-4.336,1.056-7.237v-18.093h-6.196v18.13c0,3.62-0.035,5.579-2.078,5.579
				c-2.149,0-2.219-2.035-2.219-5.957v-17.753H107.683z"/>
		</g>
	</g>
	<g id="Welsh_dragon">
		<g>
			<path id="path1101_8_" class="st2" d="M92.901,132.52v-0.136l-0.583-0.281l0.583,0.556V132.52z"/>
			<path id="path1105_8_" class="st3" d="M92.901,132.52v-0.136l-0.583-0.281l0.583,0.556V132.52z"/>
			<path id="path1109_8_" class="st2" d="M121.699,96.508l-0.431-0.829l-1.021-0.56l-1.456-0.827l-1.016-0.142l-0.877-0.136
				l-0.724,0.136l-0.727,0.142l-0.725,0.139l-0.585,0.276l-0.58,0.412l-0.583,0.417l-0.434,1.11l0.145,0.83l0.435,0.832l0.725,0.693
				l0.876,0.412l1.016,0.281l1.019,0.134h1.019l1.016-0.134l1.021-0.42l0.871-0.691l0.87-0.969L121.699,96.508z M134.646,92.628
				l-0.724-0.415l-0.585-0.554l-0.724-0.551l-0.731-0.554l-0.727-0.693l-0.583-0.694l-0.58-0.691l-0.439-0.835l-0.144,1.11
				l-0.142,1.11l-0.148,1.106l-0.293,1.105l-0.289,1.113l-0.291,1.108l-0.436,1.105l-0.436,0.974l0.58,1.658l0.292,1.665
				l-0.147,1.798l-0.289,1.662l-0.724,1.801l-0.731,1.525l-0.873,1.525l-1.016,1.242l-1.309,1.385l-1.888,1.386l-2.039,1.11
				l-2.184,1.104l-2.324,0.832l-2.328,0.556l-2.182,0.417l-1.89,0.276l1.743,0.83l2.037,0.42l2.179,0.136l2.185,0.276l2.035,0.693
				l1.746,1.105l1.168,1.942l0.578,3.048l-0.578-0.279l-0.732-0.417l-0.583-0.415l-0.727-0.276l-0.728-0.415l-0.58-0.278
				l-0.727-0.279l-0.583-0.136l0.142,1.384v1.525v1.525v1.522v1.381l-0.142,1.53l-0.289,1.384l-0.293,1.245
				c-0.078,0.44-0.147,0.876-0.269,1.303c-0.272,0.94-0.337,1.782-0.337,2.762c0,0.825-0.061,1.406,0.715,1.858
				c0.909,0.526,1.703,0.563,2.749,0.563c0.645,0,1.591,0.148,2.226-0.086c0.222-0.079,0.371-0.286,0.616-0.256
				c-0.11,0.568-0.135,1.764,0.47,1.957c0.771,0.248,1.586-0.018,2.37,0.393c0.723,0.373,1.489,0.712,2.1,1.269
				c-1.071,0.024-2.15,0-3.223,0c-0.901,0-1.55-0.237-1.91,0.584c-0.254,0.574-0.154,1.908-1.053,1.582
				c-0.734-0.266-1.557-0.964-2.203-1.401c-0.65-0.437-1.353-0.907-2.074-1.199c-1.063-0.435-2.212-0.628-3.362-0.617
				c-0.899,0.008-2.15-0.069-2.78,0.638c-0.752,0.847-1.424,1.461-2.326,2.147l-1.309,0.696l-1.308,0.553l-1.454,0.276l-1.311,0.273
				l-1.456,0.417l-1.306,0.42l0.143-0.556v-0.554l-0.143-0.415l-0.437-0.693h0.58h0.727l0.583-0.139l0.727-0.14l0.583-0.139
				l0.583-0.137l0.583-0.139l0.58-0.136l-0.147-0.417l-0.142-0.279l-0.436-0.137l-0.439-0.139l-0.871,0.139l-0.875,0.137h-0.873
				h-0.872h-0.871h-1.016l-0.877-0.137l-0.871-0.139l0.58-0.415v-0.696l-0.292-0.829l-0.436-0.972l0.872,0.139l0.729,0.281
				l0.872,0.415l0.873,0.276l0.872,0.139l0.873,0.276h0.723l0.876-0.139l-0.583-0.415l-0.727-0.279l-0.583-0.415l-0.727-0.279
				l-0.725-0.276l-0.729-0.279l-0.722-0.136l-0.733-0.276l0.439-0.556l0.295-0.691l0.139-0.835v-0.968l0.877,0.693l1.017,0.832
				l1.016,0.691l1.021,0.553l1.014,0.557l1.021,0.415l1.165,0.276l1.16,0.139l0.293-0.829l0.434-0.832l0.436-0.691l0.439-0.835
				l0.583-0.691l0.436-0.692l0.58-0.691l0.583-0.696l0.291-0.828l0.287-0.696v-0.832v-0.827l-0.142-0.833l-0.145-0.832l-0.291-0.834
				l-0.292-0.969l-0.436-0.693l-0.435-0.553l-0.583-0.552l-0.581-0.417l-0.729-0.415l-0.727-0.276l-0.727-0.278l-0.872-0.276
				l-1.163-0.141h-1.016l-1.168-0.136h-1.163h-1.163l-1.16-0.14l-1.024-0.139l-1.163-0.276l-1.308-0.141l-1.309-0.273l-1.309-0.279
				l-1.165-0.417l-1.016-0.415l-1.019-0.554l-0.724-0.692l-0.733-0.833l-1.158-0.415l-1.309-0.417l-1.311-0.691l-1.165-0.832
				l-1.163-0.83l-1.016-0.829l-0.729-0.972l-0.58-0.832l-0.439,1.113l-0.727,1.105l-0.727,0.834l-1.019,0.691l0.729,0.552
				l0.727,0.691l0.436,0.832l0.147,0.833l1.164,0.556l1.017,0.557l0.872,0.827l0.727,0.972l0.872,0.551l0.58,0.834l0.441,0.969
				l0.147,0.829l1.304,0.418l1.308,0.415l1.165,0.551l1.309,0.554l1.163,0.696l1.163,0.829l1.165,0.832l0.289,0.276l-0.583-0.134
				l-0.578-0.142h-0.583h-0.583H89.41l-0.58,0.142l-0.439,0.134l-0.583,0.693l-0.727,0.691l-0.579,0.696l-0.727,0.552l-0.727,0.694
				l-0.729,0.552l-0.728,0.422l-0.871,0.549l-1.021,0.693l-1.163,0.832l-1.308,0.829l-1.312,0.836l-1.16,0.692
				c-0.553,0.331-1.578,0.067-1.507,0.788c0.078,0.774,1.149,0.754,1.729,0.822c1.33,0.154,2.553,0.514,3.839,0.743
				c-0.154,0.05-0.398,0.177-0.465,0.338c-0.074,0.17,0.042,0.482,0.138,0.628c0.272,0.42,0.692,0.808,1.03,1.189
				c0.989,1.113,1.413,2.186,1.34,3.685c-0.024,0.445-0.157,1.053-0.603,0.679c-0.39-0.326-0.5-0.925-0.706-1.396
				c-0.198-0.45-0.409-0.925-0.705-1.319c-0.274-0.36-0.936-0.998-1.44-0.968c-0.209,0.011-0.266,0.146-0.194,0.324
				c-0.444-0.074-0.558,0.716-0.961,0.93c-0.849-0.584-1.577-1.311-2.5-1.84c-0.715-0.411-1.437-0.842-2.202-1.18
				c-1.712-0.771-3.327-0.378-5.085-0.378h-0.58l-0.729,0.139l-0.725,0.137l-0.724,0.136l-0.583,0.142l-0.585,0.134l-0.578,0.144
				l-0.585,0.14l-0.583,0.136l-0.58,0.276l-0.439,0.139l-0.58,0.279l-0.727-0.554l-0.728-0.415l-1.016-0.277l-1.017-0.142
				l0.43-0.412l0.877-0.279l1.309-0.277l1.452-0.279l1.455-0.276l1.309-0.276l1.021-0.415l0.58-0.417l-1.163,0.141l-1.163,0.137
				h-1.164h-1.165H60.32h-1.165h-1.163l-1.019-0.137l0.148-0.696l-0.148-0.551l-0.435-0.554l-0.584-0.556l1.019-0.14l0.875,0.14
				l1.019,0.136l1.019,0.42l1.017,0.276l1.016,0.279l1.016,0.136l1.024-0.136l-0.585-0.415l-0.583-0.421l-0.727-0.415l-0.725-0.415
				l-0.729-0.281l-0.724-0.27l-0.875-0.284l-0.877-0.137l0.588-0.412l0.434-0.691v-0.837l-0.144-1.246l0.583,0.556l0.727,0.557
				l0.731,0.412l0.722,0.279l0.729,0.28l0.872,0.276l0.873,0.273l0.875,0.417l0.436-0.554l0.58-0.412l0.727-0.144h0.729l0.723,0.144
				l0.729,0.276l0.727,0.552l0.583,0.696l1.019-0.284l0.875-0.412l1.019-0.416l0.722-0.556l0.875-0.552l0.727-0.553l0.583-0.691
				l0.583-0.696l-0.436-0.417l-0.729-0.412l-0.872-0.281l-1.016-0.276l-1.017-0.276l-1.021-0.28l-1.016-0.271l-0.875-0.42
				l-0.58-0.413l-0.729-0.556l-0.58-0.557l-0.436-0.553l-0.441-0.554l-0.432-0.691l-0.145-0.693l-0.147-0.689l0.147-0.557
				l0.145-0.552l0.432-0.556l0.441-0.554l0.436-0.556l0.434-0.552l0.293-0.696l0.295-0.551l-1.899,0.136l-2.176,0.415l-2.328,0.557
				l-2.616,0.691l-2.62,0.973l-2.762,0.83l-2.476,0.832l-2.472,0.829v0.969v0.969l-0.289,1.11l-0.291,0.969l-0.436-0.833
				l-0.293-0.693l-0.579-0.688l-0.584-0.42l0.291-0.691l0.293-0.551l0.143-0.693l0.288-0.696l-0.868-0.415l-0.872,0.141
				l-0.871,0.691l-0.731,0.829l-1.016,1.938l-0.876,1.525l-0.724,1.389l-0.87,1.244l-1.024,1.106l-1.021,1.246l-1.304,1.386
				c-0.423,0.443-1.474,1.185-1.581,1.783c-0.152,0.88,1.357,1.185,1.942,1.406c0.63,0.233,1.32,0.326,1.985,0.425
				c0.351,0.05,0.677,0.104,1.028,0.175c0.444,0.095,0.922,0.041,1.368,0.145c-0.023,0.425-0.091,0.769-0.217,1.176
				c-0.177,0.567-0.185,1.178-0.357,1.729c0.952,0.052,1.559,0.655,2.22,1.244c0.63,0.565,1.153,1.156,1.688,1.801
				c-0.536-0.052-1.071-0.334-1.607-0.444c-0.687-0.142-1.382-0.315-2.064-0.477c-0.227-0.057-1.026-0.411-1.225-0.279
				c-0.236,0.154,0.085,0.633-0.07,0.822c-0.432,0.537-1.307-0.441-1.576-0.657c-0.71-0.568-1.419-1.103-2.074-1.738
				c-0.45-0.437-0.847-0.937-1.176-1.461c-0.147-0.238-0.303-0.491-0.502-0.678c-0.311-0.29,0.119-0.107-0.421-0.256
				c-0.423-0.117-1.368-0.156-1.781-0.028c-0.374,0.117-0.398,0.487-0.528,0.852l-0.578,0.557l-0.727,0.415l-0.728,0.276
				l-1.456,0.136l-0.872,0.142l-0.729,0.134h-0.724l-0.583,0.696l-0.581,0.417l-0.871,0.139l-0.729,0.14h-0.875h-0.724l-0.728,0.134
				l-0.724,0.281l0.142-0.693l-0.142-0.554l-0.439-0.415l-0.588-0.42h1.026h0.87l0.871-0.136l0.731-0.137l0.727-0.139l0.724-0.141
				l0.875-0.273l0.876-0.279l0.289-0.417l0.144-0.276l-0.434-0.415l-0.585-0.276H25.71l-0.872,0.137l-0.727,0.139H23.23
				l-0.727,0.139h-0.729l-0.724-0.139l-0.733-0.276l-0.578,0.137l-0.439,0.277l-0.288,0.413l-0.295,0.556v-0.969l-0.288-0.829
				l-0.292-0.696l-0.578-0.691l0.87,0.14l0.871,0.136l1.016,0.136l1.026,0.142l0.87,0.136h1.017l1.016,0.141l0.877,0.135
				l-0.583-0.554l-0.727-0.412l-0.731-0.42l-0.722-0.276l-0.877-0.277l-1.017-0.137l-0.875-0.136l-1.016-0.145l1.016-0.27
				l0.875-0.557l0.437-0.691l0.292-0.972l0.724,0.552l0.583,0.279l0.727,0.277l0.725,0.279l0.727,0.137l0.727,0.275l0.731,0.281
				l0.724,0.409l0.729-0.134h0.58l0.585-0.136l0.579-0.284l0.44-0.137l0.575-0.275l0.441-0.416l0.583-0.277l0.292-1.105l0.727-0.557
				l1.019-0.273l1.309-0.282l-0.149-1.106v-1.108l0.439-0.829l0.724-0.554l-0.288-0.832v-0.698l0.44-0.691l0.87-0.551l-0.58-0.969
				l-0.147-0.834l0.435-0.966l0.872-0.972l-0.724,0.417l-0.725,0.416l-0.729,0.277l-0.727,0.137h-0.875h-0.729l-0.87-0.276
				l-0.727-0.278l0.144,0.83l-0.144,0.834l-0.292,0.827l-0.293,0.693l-0.295,0.834l-0.43,0.83l-0.585,0.691l-0.436,0.693
				l-0.583,0.553l-0.578,0.417l-0.725,0.276l-0.585,0.276l0.434-0.688l0.295-0.693l0.291-0.696l0.144-0.691v-0.698v-0.691v-0.691
				l-0.144-0.693l-1.309-1.385l-1.163-1.384l-1.021-1.248l-1.16-1.246l-0.875-1.248l-1.016-1.249l-0.876-1.105l-0.87-1.248
				l-0.729-1.244l-0.727-1.25l-0.728-1.384l-0.578-1.385l-0.588-1.526l-0.436-1.658l-0.58-1.66l-0.436-1.939l-0.871,1.105
				l-0.727,1.108l-0.585,1.105l-0.436,1.248l-0.583,1.249l-0.289,1.108l-0.583,0.969l-0.434,0.966v-0.689l-0.147-0.689v-0.557
				v-0.556l-0.147-0.552v-0.557l-0.144-0.553l-0.145-0.552l0.436-0.693l0.436-0.829l0.434-0.832l0.293-0.833l0.439-0.694
				l0.287-0.828l0.44-0.832l0.289-0.693l-0.583-1.386l-0.434-1.384l-0.439-1.522l-0.147-1.525l-0.292-1.66l-0.288-1.525L9.85,92.909
				l-0.583-1.25l0.872-0.136l0.873-0.281l0.579-0.688l0.729-0.973v0.973l0.149,0.969l0.142,0.972l0.148,0.827l0.288,0.829
				l0.439,0.693l0.434,0.693l0.437,0.417l0.148-0.968l0.288-0.972l0.148-0.969v-0.973l0.142-0.964l-0.142-0.974l-0.292-0.968
				l-0.436-0.969l1.016,0.136l0.875-0.136l1.017-0.417l0.872-0.691l-0.291,1.386l-0.143,1.105v0.829l0.143,0.698v0.829l0.147,0.828
				v0.973l-0.147,1.381l0.291-0.827l0.292-0.554l0.291-0.553l0.436-0.557l0.288-0.415l0.292-0.554l0.147-0.551v-0.698l0.436,0.974
				l0.58,0.688l0.729,0.556l0.877,0.281l-0.44,0.692l-0.578,0.693l-0.588,0.693l-0.58,0.693l-0.583,0.548l-0.58,0.557l-0.727,0.693
				L17.56,98.03l0.434,1.108l0.292,1.108l0.432,1.111l0.441,1.108l0.287,1.246l0.293,1.108l0.147,1.25l0.143,1.246l1.315,0.691
				l1.16,0.688l1.311,0.834l1.163,0.693l1.163,0.969l1.165,0.829l1.014,0.969l0.873,1.113l0.436-0.281v-0.417v-0.829l-0.144-0.832
				l-0.292-0.966v-0.972l0.292-0.969l0.58-0.829l-0.142-0.556l-0.145-0.552v-0.696l0.145-0.693l0.142-0.691l0.288-0.693l0.441-0.415
				l0.583-0.279l-0.144-0.551l-0.149-0.833v-0.832l0.149-0.829l0.144-0.974l0.436-0.691l0.436-0.693l0.724-0.553l-0.144-0.552
				v-0.698l0.144-0.829l0.295-0.827l0.435-0.833l0.436-0.553l0.585-0.557l0.725-0.134l-0.148-0.836l0.148-0.692l0.147-0.833
				l0.142-0.691l0.441-0.553l0.288-0.557l0.439-0.273l0.434-0.28l-0.144-0.691l0.144-0.836v-0.689l0.293-0.691l0.289-0.693
				l0.439-0.693l0.578-0.554l0.727-0.551L38.939,82.1l-0.578-0.142h-0.728l-0.585,0.421l-0.724,0.827l-0.434,0.832l-0.588,0.969
				l-0.434,1.105l-0.585-0.551l-0.58-0.691l-0.288-0.693l-0.147-0.972l-0.295,0.696l-0.434,0.827l-0.291,0.833l-0.289,0.837
				l-0.147,0.688l-0.295,0.829l-0.142,0.693v0.554l-0.436-0.833L30.646,87.5l-0.295-0.969l-0.288-0.97l-0.142-0.972V83.62
				l0.142-0.972l0.147-0.963l1.307-0.278l1.455-0.281l1.309-0.412l1.313-0.554l1.309-0.42l1.306-0.409l1.163-0.42l1.309-0.136
				l-0.142-0.83l-0.436-0.698l-0.441-0.829l-0.727-0.688l-0.727-0.558l-0.728-0.413l-0.868-0.275l-0.877-0.142l-1.014,0.417
				l-0.873,0.557l-0.877,0.691l-1.014,0.551l-0.583,0.418l-0.729,0.139l-0.724,0.134l-0.585-0.134l-1.019-0.972l-0.725-0.827
				l-0.578-0.832l-0.296-0.972h-9.017l1.309-0.969l1.601-0.832l1.748-0.829l1.884-0.693l2.04-0.557l2.179-0.553l2.182-0.418
				l2.182-0.134l0.144-0.693l0.441-0.42l0.436-0.412l1.017-0.281l1.311-0.273l1.304-0.139h1.313l1.309,0.139l1.307,0.137
				l1.308,0.136l1.309,0.144l1.307,0.273l0.15-0.969l0.437-0.965l0.87-0.696l1.163-0.829l1.163-0.557l1.308-0.691l1.309-0.554
				l1.165-0.692l0.291,0.692l-0.147,0.828l-0.291,0.974l-0.145,0.965l1.167-0.271l1.163-0.556l0.873-0.696l0.87-0.832l0.439,0.558
				l0.144,0.691v0.552l-0.292,0.553l-0.291,0.56l-0.289,0.548l-0.144,0.557v0.412l0.289,0.417l0.583,0.276l0.435,0.281l-0.147,0.693
				L55.95,68.94l-1.015,0.557l-0.583,0.409l-0.434,0.553l-0.295,0.421l-0.147,0.553l-0.289,0.552l-0.291,0.696l0.727,0.141
				l0.875,0.409l0.871,0.417l0.875,0.552l0.872,0.696l0.583,0.688l0.578,0.832l0.293,0.974l-0.583-0.278l-0.727-0.281l-0.583-0.276
				l-0.58-0.28l-0.728-0.135l-0.58-0.136l-0.437,0.136l-0.434,0.135l0.139,0.698l0.147,0.553v0.554l-0.147,0.415l0.877,0.415
				l0.873,0.557l0.725,0.553l0.727,0.832l0.583,0.691l0.434,0.835l0.44,0.827l0.434,0.832l-1.021-0.968l-1.012-0.421l-0.728-0.134
				h-0.58l-0.439,0.134l-0.435,0.142h-0.436l-0.441-0.142v0.557l-0.139,0.696v0.827l-0.295,0.833l0.875,0.277l0.724,0.412
				l0.875,0.56l0.727,0.827l0.58,0.835l0.583,0.829l0.583,0.829l0.292,0.696l-1.019-0.832l-1.019-0.417L55.95,89.44h-0.727
				l-0.724,0.137h-0.58l-0.583-0.137l-0.439-0.277l-0.292,0.694l-0.147,0.693l-0.142,0.83l-0.147,0.829l0.58,0.141l0.437,0.273
				l0.584,0.281l0.727,0.412l0.583,0.557l0.727,0.553l0.725,0.688l0.727,0.972l-0.872-0.273l-0.871-0.139l-0.583,0.139l-0.583,0.136
				l-0.58,0.418c0,0-0.436,0.272-0.436,0.275c-0.339,0.214-0.773,0.356-1.165,0.416c0.278,0.849,0.055,2.018,0.68,2.729
				c0.68,0.774,1.913,0.623,2.841,0.623c1.049,0,1.392-0.3,2.329-0.589c1.023-0.315,1.327-0.866,2.203-1.455
				c1.199-0.802,2.854-1.808,3.449-3.207c0.358-0.852,0.316-1.783,0.501-2.672c0.286-1.399,0.697-2.749,0.944-4.158l0.289-1.798
				l0.584-1.525l0.579-1.662l1.163-1.522l1.309-1.386l1.601-1.384l1.743-1.386l1.892-1.39l1.891-1.242l2.182-1.246l2.182-1.245
				l2.035-1.108l2.183-1.11l2.179-1.108l2.043-1.105l2.035-1.11l1.89-0.972l1.746-1.105l1.455-0.974l-0.436,2.496L95.37,68.66v1.665
				l0.144,1.386l0.439,1.113l0.724,0.552l1.024,0.412l1.307,0.136l1.596-0.136l1.751-0.412l2.179-0.552l2.472-0.837l2.764-0.833
				l3.051-1.105l3.494-1.108l3.78-1.246l-1.163,2.213l-1.892,1.939l-2.182,1.941l-1.891,1.798l-1.451,1.527l-0.295,1.522
				l1.312,1.525l3.198,1.248l-2.764,1.108l-3.052,1.522l-2.762,1.941l-2.331,2.215l-1.601,2.356l-0.578,2.767l0.727,2.77l2.47,3.047
				l-1.746-0.272l-1.451-0.142h-1.164h-1.02l-1.019,0.142l-0.872,0.272l-1.016,0.276l-1.165,0.557l1.891,0.553l1.895,0.833
				l1.599,0.829l1.746,1.108l1.599,0.969l1.89,0.832l2.182,0.693l2.329,0.415h1.163l1.016-0.134l0.873-0.281l0.872-0.279
				l0.873-0.276l0.725-0.415l0.729-0.556l0.727-0.413l-1.163,0.276h-1.307h-1.168l-1.163-0.276l-1.016-0.277l-1.021-0.554
				l-1.019-0.553l-0.87-0.83l-0.729-0.696l-0.434-0.693l-0.291-0.691l-0.297-0.832l-0.142-0.693v-0.832v-0.972l0.142-0.968
				l0.441-0.688l0.436-0.833l0.436-0.693l0.727-0.691l0.727-0.696l0.731-0.551l0.871-0.554l1.019-0.42l1.599-0.136l1.456-0.137
				l1.452,0.137l1.455,0.276l1.459,0.415l1.308,0.696l1.163,0.829l1.163,1.108l0.288-0.556l0.292-0.828l0.147-0.696l0.289-0.832
				v-0.829l0.142-0.83v-0.832l-0.142-0.829l-0.872,0.28l-0.871,0.271l-0.872,0.278l-0.875,0.141l-0.871,0.137l-0.875,0.136
				l-0.873-0.136l-0.872-0.137l1.888-1.944l1.892-1.934l1.746-2.077l1.746-1.941l1.601-2.078l1.599-2.077l1.599-2.218l1.457-2.214
				v2.767v2.772l0.147,2.767l0.144,2.635l0.436,2.632l0.436,2.629l0.729,2.494L134.646,92.628z"/>
			<path id="path1113_8_" class="st3" d="M121.699,96.508l-0.431-0.829l-1.021-0.56l-1.456-0.827l-1.016-0.142l-0.877-0.136
				l-0.724,0.136l-0.727,0.142l-0.725,0.139l-0.585,0.276l-0.58,0.412l-0.583,0.417l-0.434,1.11l0.145,0.83l0.435,0.832l0.725,0.693
				l0.876,0.412l1.016,0.281l1.019,0.134h1.019l1.016-0.134l1.021-0.42l0.871-0.691l0.87-0.969L121.699,96.508z M134.646,92.628
				l-0.724-0.415l-0.585-0.554l-0.724-0.551l-0.731-0.554l-0.727-0.693l-0.583-0.694l-0.58-0.691l-0.439-0.835l-0.144,1.11
				l-0.142,1.11l-0.148,1.106l-0.293,1.105l-0.289,1.113l-0.291,1.108l-0.436,1.105l-0.436,0.974l0.58,1.658l0.292,1.665
				l-0.147,1.798l-0.289,1.662l-0.724,1.801l-0.731,1.525l-0.873,1.525l-1.016,1.242l-1.309,1.385l-1.888,1.386l-2.039,1.11
				l-2.184,1.104l-2.324,0.832l-2.328,0.556l-2.182,0.417l-1.89,0.276l1.743,0.83l2.037,0.42l2.179,0.136l2.185,0.276l2.035,0.693
				l1.746,1.105l1.168,1.942l0.578,3.048l-0.578-0.279l-0.732-0.417l-0.583-0.415l-0.727-0.276l-0.728-0.415l-0.58-0.278
				l-0.727-0.279l-0.583-0.136l0.142,1.384v1.525v1.525v1.522v1.381l-0.142,1.53l-0.289,1.384l-0.293,1.245
				c-0.078,0.44-0.147,0.876-0.269,1.303c-0.272,0.94-0.337,1.782-0.337,2.762c0,0.825-0.061,1.406,0.715,1.858
				c0.909,0.526,1.703,0.563,2.749,0.563c0.645,0,1.591,0.148,2.226-0.086c0.222-0.079,0.371-0.286,0.616-0.256
				c-0.11,0.568-0.135,1.764,0.47,1.957c0.771,0.248,1.586-0.018,2.37,0.393c0.723,0.373,1.489,0.712,2.1,1.269
				c-1.071,0.024-2.15,0-3.223,0c-0.901,0-1.55-0.237-1.91,0.584c-0.254,0.574-0.154,1.908-1.053,1.582
				c-0.734-0.266-1.557-0.964-2.203-1.401c-0.65-0.437-1.353-0.907-2.074-1.199c-1.063-0.435-2.212-0.628-3.362-0.617
				c-0.899,0.008-2.15-0.069-2.78,0.638c-0.752,0.847-1.424,1.461-2.326,2.147l-1.309,0.696l-1.308,0.553l-1.454,0.276l-1.311,0.273
				l-1.456,0.417l-1.306,0.42l0.143-0.556v-0.554l-0.143-0.415l-0.437-0.693h0.58h0.727l0.583-0.139l0.727-0.14l0.583-0.139
				l0.583-0.137l0.583-0.139l0.58-0.136l-0.147-0.417l-0.142-0.279l-0.436-0.137l-0.439-0.139l-0.871,0.139l-0.875,0.137h-0.873
				h-0.872h-0.871h-1.016l-0.877-0.137l-0.871-0.139l0.58-0.415v-0.696l-0.292-0.829l-0.436-0.972l0.872,0.139l0.729,0.281
				l0.872,0.415l0.873,0.276l0.872,0.139l0.873,0.276h0.723l0.876-0.139l-0.583-0.415l-0.727-0.279l-0.583-0.415l-0.727-0.279
				l-0.725-0.276l-0.729-0.279l-0.722-0.136l-0.733-0.276l0.439-0.556l0.295-0.691l0.139-0.835v-0.968l0.877,0.693l1.017,0.832
				l1.016,0.691l1.021,0.553l1.014,0.557l1.021,0.415l1.165,0.276l1.16,0.139l0.293-0.829l0.434-0.832l0.436-0.691l0.439-0.835
				l0.583-0.691l0.436-0.692l0.58-0.691l0.583-0.696l0.291-0.828l0.287-0.696v-0.832v-0.827l-0.142-0.833l-0.145-0.832l-0.291-0.834
				l-0.292-0.969l-0.436-0.693l-0.435-0.553l-0.583-0.552l-0.581-0.417l-0.729-0.415l-0.727-0.276l-0.727-0.278l-0.872-0.276
				l-1.163-0.141h-1.016l-1.168-0.136h-1.163h-1.163l-1.16-0.14l-1.024-0.139l-1.163-0.276l-1.308-0.141l-1.309-0.273l-1.309-0.279
				l-1.165-0.417l-1.016-0.415l-1.019-0.554l-0.724-0.692l-0.733-0.833l-1.158-0.415l-1.309-0.417l-1.311-0.691l-1.165-0.832
				l-1.163-0.83l-1.016-0.829l-0.729-0.972l-0.58-0.832l-0.439,1.113l-0.727,1.105l-0.727,0.834l-1.019,0.691l0.729,0.552
				l0.727,0.691l0.436,0.832l0.147,0.833l1.164,0.556l1.017,0.557l0.872,0.827l0.727,0.972l0.872,0.551l0.58,0.834l0.441,0.969
				l0.147,0.829l1.304,0.418l1.308,0.415l1.165,0.551l1.309,0.554l1.163,0.696l1.163,0.829l1.165,0.832l0.289,0.276l-0.583-0.134
				l-0.578-0.142h-0.583h-0.583H89.41l-0.58,0.142l-0.439,0.134l-0.583,0.693l-0.727,0.691l-0.579,0.696l-0.727,0.552l-0.727,0.694
				l-0.729,0.552l-0.728,0.422l-0.871,0.549l-1.021,0.693l-1.163,0.832l-1.308,0.829l-1.312,0.836l-1.16,0.692
				c-0.553,0.331-1.578,0.067-1.507,0.788c0.078,0.774,1.149,0.754,1.729,0.822c1.33,0.154,2.553,0.514,3.839,0.743
				c-0.154,0.05-0.398,0.177-0.465,0.338c-0.074,0.17,0.042,0.482,0.138,0.628c0.272,0.42,0.692,0.808,1.03,1.189
				c0.989,1.113,1.413,2.186,1.34,3.685c-0.024,0.445-0.157,1.053-0.603,0.679c-0.39-0.326-0.5-0.925-0.706-1.396
				c-0.198-0.45-0.409-0.925-0.705-1.319c-0.274-0.36-0.936-0.998-1.44-0.968c-0.209,0.011-0.266,0.146-0.194,0.324
				c-0.444-0.074-0.558,0.716-0.961,0.93c-0.849-0.584-1.577-1.311-2.5-1.84c-0.715-0.411-1.437-0.842-2.202-1.18
				c-1.712-0.771-3.327-0.378-5.085-0.378h-0.58l-0.729,0.139l-0.725,0.137l-0.724,0.136l-0.583,0.142l-0.585,0.134l-0.578,0.144
				l-0.585,0.14l-0.583,0.136l-0.58,0.276l-0.439,0.139l-0.58,0.279l-0.727-0.554l-0.728-0.415l-1.016-0.277l-1.017-0.142
				l0.43-0.412l0.877-0.279l1.309-0.277l1.452-0.279l1.455-0.276l1.309-0.276l1.021-0.415l0.58-0.417l-1.163,0.141l-1.163,0.137
				h-1.164h-1.165H60.32h-1.165h-1.163l-1.019-0.137l0.148-0.696l-0.148-0.551l-0.435-0.554l-0.584-0.556l1.019-0.14l0.875,0.14
				l1.019,0.136l1.019,0.42l1.017,0.276l1.016,0.279l1.016,0.136l1.024-0.136l-0.585-0.415l-0.583-0.421l-0.727-0.415l-0.725-0.415
				l-0.729-0.281l-0.724-0.27l-0.875-0.284l-0.877-0.137l0.588-0.412l0.434-0.691v-0.837l-0.144-1.246l0.583,0.556l0.727,0.557
				l0.731,0.412l0.722,0.279l0.729,0.28l0.872,0.276l0.873,0.273l0.875,0.417l0.436-0.554l0.58-0.412l0.727-0.144h0.729l0.723,0.144
				l0.729,0.276l0.727,0.552l0.583,0.696l1.019-0.284l0.875-0.412l1.019-0.416l0.722-0.556l0.875-0.552l0.727-0.553l0.583-0.691
				l0.583-0.696l-0.436-0.417l-0.729-0.412l-0.872-0.281l-1.016-0.276l-1.017-0.276l-1.021-0.28l-1.016-0.271l-0.875-0.42
				l-0.58-0.413l-0.729-0.556l-0.58-0.557l-0.436-0.553l-0.441-0.554l-0.432-0.691l-0.145-0.693l-0.147-0.689l0.147-0.557
				l0.145-0.552l0.432-0.556l0.441-0.554l0.436-0.556l0.434-0.552l0.293-0.696l0.295-0.551l-1.899,0.136l-2.176,0.415l-2.328,0.557
				l-2.616,0.691l-2.62,0.973l-2.762,0.83l-2.476,0.832l-2.472,0.829v0.969v0.969l-0.289,1.11l-0.291,0.969l-0.436-0.833
				l-0.293-0.693l-0.579-0.688l-0.584-0.42l0.291-0.691l0.293-0.551l0.143-0.693l0.288-0.696l-0.868-0.415l-0.872,0.141
				l-0.871,0.691l-0.731,0.829l-1.016,1.938l-0.876,1.525l-0.724,1.389l-0.87,1.244l-1.024,1.106l-1.021,1.246l-1.304,1.386
				c-0.423,0.443-1.474,1.185-1.581,1.783c-0.152,0.88,1.357,1.185,1.942,1.406c0.63,0.233,1.32,0.326,1.985,0.425
				c0.351,0.05,0.677,0.104,1.028,0.175c0.444,0.095,0.922,0.041,1.368,0.145c-0.023,0.425-0.091,0.769-0.217,1.176
				c-0.177,0.567-0.185,1.178-0.357,1.729c0.952,0.052,1.559,0.655,2.22,1.244c0.63,0.565,1.153,1.156,1.688,1.801
				c-0.536-0.052-1.071-0.334-1.607-0.444c-0.687-0.142-1.382-0.315-2.064-0.477c-0.227-0.057-1.026-0.411-1.225-0.279
				c-0.236,0.154,0.085,0.633-0.07,0.822c-0.432,0.537-1.307-0.441-1.576-0.657c-0.71-0.568-1.419-1.103-2.074-1.738
				c-0.45-0.437-0.847-0.937-1.176-1.461c-0.147-0.238-0.303-0.491-0.502-0.678c-0.311-0.29,0.119-0.107-0.421-0.256
				c-0.423-0.117-1.368-0.156-1.781-0.028c-0.374,0.117-0.398,0.487-0.528,0.852l-0.578,0.557l-0.727,0.415l-0.728,0.276
				l-1.456,0.136l-0.872,0.142l-0.729,0.134h-0.724l-0.583,0.696l-0.581,0.417l-0.871,0.139l-0.729,0.14h-0.875h-0.724l-0.728,0.134
				l-0.724,0.281l0.142-0.693l-0.142-0.554l-0.439-0.415l-0.588-0.42h1.026h0.87l0.871-0.136l0.731-0.137l0.727-0.139l0.724-0.141
				l0.875-0.273l0.876-0.279l0.289-0.417l0.144-0.276l-0.434-0.415l-0.585-0.276H25.71l-0.872,0.137l-0.727,0.139H23.23
				l-0.727,0.139h-0.729l-0.724-0.139l-0.733-0.276l-0.578,0.137l-0.439,0.277l-0.288,0.413l-0.295,0.556v-0.969l-0.288-0.829
				l-0.292-0.696l-0.578-0.691l0.87,0.14l0.871,0.136l1.016,0.136l1.026,0.142l0.87,0.136h1.017l1.016,0.141l0.877,0.135
				l-0.583-0.554l-0.727-0.412l-0.731-0.42l-0.722-0.276l-0.877-0.277l-1.017-0.137l-0.875-0.136l-1.016-0.145l1.016-0.27
				l0.875-0.557l0.437-0.691l0.292-0.972l0.724,0.552l0.583,0.279l0.727,0.277l0.725,0.279l0.727,0.137l0.727,0.275l0.731,0.281
				l0.724,0.409l0.729-0.134h0.58l0.585-0.136l0.579-0.284l0.44-0.137l0.575-0.275l0.441-0.416l0.583-0.277l0.292-1.105l0.727-0.557
				l1.019-0.273l1.309-0.282l-0.149-1.106v-1.108l0.439-0.829l0.724-0.554l-0.288-0.832v-0.698l0.44-0.691l0.87-0.551l-0.58-0.969
				l-0.147-0.834l0.435-0.966l0.872-0.972l-0.724,0.417l-0.725,0.416l-0.729,0.277l-0.727,0.137h-0.875h-0.729l-0.87-0.276
				l-0.727-0.278l0.144,0.83l-0.144,0.834l-0.292,0.827l-0.293,0.693l-0.295,0.834l-0.43,0.83l-0.585,0.691l-0.436,0.693
				l-0.583,0.553l-0.578,0.417l-0.725,0.276l-0.585,0.276l0.434-0.688l0.295-0.693l0.291-0.696l0.144-0.691v-0.698v-0.691v-0.691
				l-0.144-0.693l-1.309-1.385l-1.163-1.384l-1.021-1.248l-1.16-1.246l-0.875-1.248l-1.016-1.249l-0.876-1.105l-0.87-1.248
				l-0.729-1.244l-0.727-1.25l-0.728-1.384l-0.578-1.385l-0.588-1.526l-0.436-1.658l-0.58-1.66l-0.436-1.939l-0.871,1.105
				l-0.727,1.108l-0.585,1.105l-0.436,1.248l-0.583,1.249l-0.289,1.108l-0.583,0.969l-0.434,0.966v-0.689l-0.147-0.689v-0.557
				v-0.556l-0.147-0.552v-0.557l-0.144-0.553l-0.145-0.552l0.436-0.693l0.436-0.829l0.434-0.832l0.293-0.833l0.439-0.694
				l0.287-0.828l0.44-0.832l0.289-0.693l-0.583-1.386l-0.434-1.384l-0.439-1.522l-0.147-1.525l-0.292-1.66l-0.288-1.525L9.85,92.909
				l-0.583-1.25l0.872-0.136l0.873-0.281l0.579-0.688l0.729-0.973v0.973l0.149,0.969l0.142,0.972l0.148,0.827l0.288,0.829
				l0.439,0.693l0.434,0.693l0.437,0.417l0.148-0.968l0.288-0.972l0.148-0.969v-0.973l0.142-0.964l-0.142-0.974l-0.292-0.968
				l-0.436-0.969l1.016,0.136l0.875-0.136l1.017-0.417l0.872-0.691l-0.291,1.386l-0.143,1.105v0.829l0.143,0.698v0.829l0.147,0.828
				v0.973l-0.147,1.381l0.291-0.827l0.292-0.554l0.291-0.553l0.436-0.557l0.288-0.415l0.292-0.554l0.147-0.551v-0.698l0.436,0.974
				l0.58,0.688l0.729,0.556l0.877,0.281l-0.44,0.692l-0.578,0.693l-0.588,0.693l-0.58,0.693l-0.583,0.548l-0.58,0.557l-0.727,0.693
				L17.56,98.03l0.434,1.108l0.292,1.108l0.432,1.111l0.441,1.108l0.287,1.246l0.293,1.108l0.147,1.25l0.143,1.246l1.315,0.691
				l1.16,0.688l1.311,0.834l1.163,0.693l1.163,0.969l1.165,0.829l1.014,0.969l0.873,1.113l0.436-0.281v-0.417v-0.829l-0.144-0.832
				l-0.292-0.966v-0.972l0.292-0.969l0.58-0.829l-0.142-0.556l-0.145-0.552v-0.696l0.145-0.693l0.142-0.691l0.288-0.693l0.441-0.415
				l0.583-0.279l-0.144-0.551l-0.149-0.833v-0.832l0.149-0.829l0.144-0.974l0.436-0.691l0.436-0.693l0.724-0.553l-0.144-0.552
				v-0.698l0.144-0.829l0.295-0.827l0.435-0.833l0.436-0.553l0.585-0.557l0.725-0.134l-0.148-0.836l0.148-0.692l0.147-0.833
				l0.142-0.691l0.441-0.553l0.288-0.557l0.439-0.273l0.434-0.28l-0.144-0.691l0.144-0.836v-0.689l0.293-0.691l0.289-0.693
				l0.439-0.693l0.578-0.554l0.727-0.551L38.939,82.1l-0.578-0.142h-0.728l-0.585,0.421l-0.724,0.827l-0.434,0.832l-0.588,0.969
				l-0.434,1.105l-0.585-0.551l-0.58-0.691l-0.288-0.693l-0.147-0.972l-0.295,0.696l-0.434,0.827l-0.291,0.833l-0.289,0.837
				l-0.147,0.688l-0.295,0.829l-0.142,0.693v0.554l-0.436-0.833L30.646,87.5l-0.295-0.969l-0.288-0.97l-0.142-0.972V83.62
				l0.142-0.972l0.147-0.963l1.307-0.278l1.455-0.281l1.309-0.412l1.313-0.554l1.309-0.42l1.306-0.409l1.163-0.42l1.309-0.136
				l-0.142-0.83l-0.436-0.698l-0.441-0.829l-0.727-0.688l-0.727-0.558l-0.728-0.413l-0.868-0.275l-0.877-0.142l-1.014,0.417
				l-0.873,0.557l-0.877,0.691l-1.014,0.551l-0.583,0.418l-0.729,0.139l-0.724,0.134l-0.585-0.134l-1.019-0.972l-0.725-0.827
				l-0.578-0.832l-0.296-0.972h-9.017l1.309-0.969l1.601-0.832l1.748-0.829l1.884-0.693l2.04-0.557l2.179-0.553l2.182-0.418
				l2.182-0.134l0.144-0.693l0.441-0.42l0.436-0.412l1.017-0.281l1.311-0.273l1.304-0.139h1.313l1.309,0.139l1.307,0.137
				l1.308,0.136l1.309,0.144l1.307,0.273l0.15-0.969l0.437-0.965l0.87-0.696l1.163-0.829l1.163-0.557l1.308-0.691l1.309-0.554
				l1.165-0.692l0.291,0.692l-0.147,0.828l-0.291,0.974l-0.145,0.965l1.167-0.271l1.163-0.556l0.873-0.696l0.87-0.832l0.439,0.558
				l0.144,0.691v0.552l-0.292,0.553l-0.291,0.56l-0.289,0.548l-0.144,0.557v0.412l0.289,0.417l0.583,0.276l0.435,0.281l-0.147,0.693
				L55.95,68.94l-1.015,0.557l-0.583,0.409l-0.434,0.553l-0.295,0.421l-0.147,0.553l-0.289,0.552l-0.291,0.696l0.727,0.141
				l0.875,0.409l0.871,0.417l0.875,0.552l0.872,0.696l0.583,0.688l0.578,0.832l0.293,0.974l-0.583-0.278l-0.727-0.281l-0.583-0.276
				l-0.58-0.28l-0.728-0.135l-0.58-0.136l-0.437,0.136l-0.434,0.135l0.139,0.698l0.147,0.553v0.554l-0.147,0.415l0.877,0.415
				l0.873,0.557l0.725,0.553l0.727,0.832l0.583,0.691l0.434,0.835l0.44,0.827l0.434,0.832l-1.021-0.968l-1.012-0.421l-0.728-0.134
				h-0.58l-0.439,0.134l-0.435,0.142h-0.436l-0.441-0.142v0.557l-0.139,0.696v0.827l-0.295,0.833l0.875,0.277l0.724,0.412
				l0.875,0.56l0.727,0.827l0.58,0.835l0.583,0.829l0.583,0.829l0.292,0.696l-1.019-0.832l-1.019-0.417L55.95,89.44h-0.727
				l-0.724,0.137h-0.58l-0.583-0.137l-0.439-0.277l-0.292,0.694l-0.147,0.693l-0.142,0.83l-0.147,0.829l0.58,0.141l0.437,0.273
				l0.584,0.281l0.727,0.412l0.583,0.557l0.727,0.553l0.725,0.688l0.727,0.972l-0.872-0.273l-0.871-0.139l-0.583,0.139l-0.583,0.136
				l-0.58,0.418c0,0-0.436,0.272-0.436,0.275c-0.339,0.214-0.773,0.356-1.165,0.416c0.278,0.849,0.055,2.018,0.68,2.729
				c0.68,0.774,1.913,0.623,2.841,0.623c1.049,0,1.392-0.3,2.329-0.589c1.023-0.315,1.327-0.866,2.203-1.455
				c1.199-0.802,2.854-1.808,3.449-3.207c0.358-0.852,0.316-1.783,0.501-2.672c0.286-1.399,0.697-2.749,0.944-4.158l0.289-1.798
				l0.584-1.525l0.579-1.662l1.163-1.522l1.309-1.386l1.601-1.384l1.743-1.386l1.892-1.39l1.891-1.242l2.182-1.246l2.182-1.245
				l2.035-1.108l2.183-1.11l2.179-1.108l2.043-1.105l2.035-1.11l1.89-0.972l1.746-1.105l1.455-0.974l-0.436,2.496L95.37,68.66v1.665
				l0.144,1.386l0.439,1.113l0.724,0.552l1.024,0.412l1.307,0.136l1.596-0.136l1.751-0.412l2.179-0.552l2.472-0.837l2.764-0.833
				l3.051-1.105l3.494-1.108l3.78-1.246l-1.163,2.213l-1.892,1.939l-2.182,1.941l-1.891,1.798l-1.451,1.527l-0.295,1.522
				l1.312,1.525l3.198,1.248l-2.764,1.108l-3.052,1.522l-2.762,1.941l-2.331,2.215l-1.601,2.356l-0.578,2.767l0.727,2.77l2.47,3.047
				l-1.746-0.272l-1.451-0.142h-1.164h-1.02l-1.019,0.142l-0.872,0.272l-1.016,0.276l-1.165,0.557l1.891,0.553l1.895,0.833
				l1.599,0.829l1.746,1.108l1.599,0.969l1.89,0.832l2.182,0.693l2.329,0.415h1.163l1.016-0.134l0.873-0.281l0.872-0.279
				l0.873-0.276l0.725-0.415l0.729-0.556l0.727-0.413l-1.163,0.276h-1.307h-1.168l-1.163-0.276l-1.016-0.277l-1.021-0.554
				l-1.019-0.553l-0.87-0.83l-0.729-0.696l-0.434-0.693l-0.291-0.691l-0.297-0.832l-0.142-0.693v-0.832v-0.972l0.142-0.968
				l0.441-0.688l0.436-0.833l0.436-0.693l0.727-0.691l0.727-0.696l0.731-0.551l0.871-0.554l1.019-0.42l1.599-0.136l1.456-0.137
				l1.452,0.137l1.455,0.276l1.459,0.415l1.308,0.696l1.163,0.829l1.163,1.108l0.288-0.556l0.292-0.828l0.147-0.696l0.289-0.832
				v-0.829l0.142-0.83v-0.832l-0.142-0.829l-0.872,0.28l-0.871,0.271l-0.872,0.278l-0.875,0.141l-0.871,0.137l-0.875,0.136
				l-0.873-0.136l-0.872-0.137l1.888-1.944l1.892-1.934l1.746-2.077l1.746-1.941l1.601-2.078l1.599-2.077l1.599-2.218l1.457-2.214
				v2.767v2.772l0.147,2.767l0.144,2.635l0.436,2.632l0.436,2.629l0.729,2.494L134.646,92.628z"/>
			<path id="path1117_8_" class="st2" d="M20.466,89.998L20.466,89.998l0.147,0.969l0.436,0.693l0.583,0.412l0.872,0.422
				l0.144-0.834l0.147-0.972l-0.147-0.827l-0.144-0.836l-0.292-0.829l-0.439-0.827l-0.724-0.698l-0.875-0.691l0.292,1.108
				l0.147,0.972v0.965L20.466,89.998z"/>
			<path id="path1121_8_" class="st3" d="M20.466,89.998L20.466,89.998l0.147,0.969l0.436,0.693l0.583,0.412l0.872,0.422
				l0.144-0.834l0.147-0.972l-0.147-0.827l-0.144-0.836l-0.292-0.829l-0.439-0.827l-0.724-0.698l-0.875-0.691l0.292,1.108
				l0.147,0.972v0.965L20.466,89.998"/>
			<path id="path1125_8_" class="st2" d="M99.013,145.958L99.013,145.958l0.289,0.554l0.291,0.412v0.417l-0.291,0.556l-0.728-0.279
				l-0.583-0.141l-0.727,0.276l-0.583,0.28l0.291-0.833l0.439-0.552l0.727-0.417L99.013,145.958z"/>
			<path id="path1129_8_" class="st3" d="M99.013,145.958L99.013,145.958l0.289,0.554l0.291,0.412v0.417l-0.291,0.556l-0.728-0.279
				l-0.583-0.141l-0.727,0.276l-0.583,0.28l0.291-0.833l0.439-0.552l0.727-0.417L99.013,145.958"/>
			<path id="path1133_8_" class="st2" d="M95.519,141.526L95.519,141.526l0.439,0.552l0.144,0.691v0.553l-0.436,0.415l-0.871-0.273
				H93.92l-0.873,0.137l-0.872,0.553l0.439-1.11l0.727-0.827l0.872-0.557L95.519,141.526z"/>
			<path id="path1137_8_" class="st3" d="M95.519,141.526L95.519,141.526l0.439,0.552l0.144,0.691v0.553l-0.436,0.415l-0.871-0.273
				H93.92l-0.873,0.137l-0.872,0.553l0.439-1.11l0.727-0.827l0.872-0.557L95.519,141.526"/>
			<path id="path1141_8_" class="st2" d="M97.558,137.366L97.558,137.366l0.147,0.554l-0.147,0.556l-0.293,0.691l-0.436,0.554
				l-0.728-0.416l-0.727-0.139h-0.871l-0.875,0.139l0.875-0.694l1.015-0.691l0.875-0.413L97.558,137.366z"/>
			<path id="path1145_8_" class="st3" d="M97.558,137.366L97.558,137.366l0.147,0.554l-0.147,0.556l-0.293,0.691l-0.436,0.554
				l-0.728-0.416l-0.727-0.139h-0.871l-0.875,0.139l0.875-0.694l1.015-0.691l0.875-0.413L97.558,137.366"/>
			<path id="path1149_8_" class="st2" d="M58.722,135.017L58.722,135.017l0.289,0.691v0.696l-0.289,0.548l-0.293,0.557l-0.436-0.279
				l-0.583-0.279l-0.58-0.277l-0.58-0.137l-0.583-0.134h-0.581h-0.583l-0.58,0.134l0.434-0.415l0.583-0.276l0.583-0.277l0.58-0.278
				l0.58-0.14l0.583-0.134h0.728L58.722,135.017L58.722,135.017z"/>
			<path id="path1153_8_" class="st3" d="M58.722,135.017L58.722,135.017l0.289,0.691v0.696l-0.289,0.548l-0.293,0.557l-0.436-0.279
				l-0.583-0.279l-0.58-0.277l-0.58-0.137l-0.583-0.134h-0.581h-0.583l-0.58,0.134l0.434-0.415l0.583-0.276l0.583-0.277l0.58-0.278
				l0.58-0.14l0.583-0.134h0.728L58.722,135.017"/>
			<path id="path1157_8_" class="st2" d="M55.814,140.001L55.814,140.001l0.436,0.276l0.144,0.415l0.144,0.415v0.554l-1.016-0.273
				h-0.871l-0.875,0.273l-0.873,0.417l0.439-0.832l0.583-0.691l0.871-0.416L55.814,140.001z"/>
			<path id="path1161_8_" class="st3" d="M55.814,140.001L55.814,140.001l0.436,0.276l0.144,0.415l0.144,0.415v0.554l-1.016-0.273
				h-0.871l-0.875,0.273l-0.873,0.417l0.439-0.832l0.583-0.691l0.871-0.416L55.814,140.001"/>
			<path id="path1165_8_" class="st2" d="M57.992,144.85L57.992,144.85h0.729l0.728,0.136l0.727,0.416l0.58,0.277h-0.724H59.45
				l-0.583,0.14h-0.585l-0.434,0.139l-0.583,0.135l-0.436,0.139l-0.58,0.281l0.144-0.554l0.289-0.556l0.583-0.276L57.992,144.85z"/>
			<path id="path1169_8_" class="st3" d="M57.992,144.85L57.992,144.85h0.729l0.728,0.136l0.727,0.416l0.58,0.277h-0.724H59.45
				l-0.583,0.14h-0.585l-0.434,0.139l-0.583,0.135l-0.436,0.139l-0.58,0.281l0.144-0.554l0.289-0.556l0.583-0.276L57.992,144.85"/>
			<path id="path1173_8_" class="st2" d="M20.028,144.85L20.028,144.85l0.439,0.136l0.288,0.276v0.557v0.693l-1.163-0.14h-0.873
				l-1.016,0.415l-1.163,0.554l0.435-0.969l0.728-0.693l1.016-0.417L20.028,144.85z"/>
			<path id="path1177_8_" class="st3" d="M20.028,144.85L20.028,144.85l0.439,0.136l0.288,0.276v0.557v0.693l-1.163-0.14h-0.873
				l-1.016,0.415l-1.163,0.554l0.435-0.969l0.728-0.693l1.016-0.417L20.028,144.85"/>
			<path id="path1181_8_" class="st2" d="M17.849,142.908L17.849,142.908l-0.583-0.279l-0.439-0.276H16.25l-0.583-0.136h-0.585
				l-0.578,0.136l-0.732,0.276l-0.725,0.279l0.58-1.105l0.877-0.834l1.163-0.413l1.16-0.277l0.732,0.691l0.434,0.558l0.145,0.691
				L17.849,142.908z"/>
			<path id="path1185_8_" class="st3" d="M17.849,142.908L17.849,142.908l-0.583-0.279l-0.439-0.276H16.25l-0.583-0.136h-0.585
				l-0.578,0.136l-0.732,0.276l-0.725,0.279l0.58-1.105l0.877-0.834l1.163-0.413l1.16-0.277l0.732,0.691l0.434,0.558l0.145,0.691
				L17.849,142.908"/>
			<path id="path1189_8_" class="st2" d="M20.755,135.846L20.755,135.846l-0.439,0.972l-0.578,0.691l-0.58,0.548l-0.873,0.145
				l-0.872-0.145h-0.727l-0.725,0.284l-1.021,0.415l0.579-0.698l0.585-0.548l0.724-0.557l0.585-0.279l0.872-0.415l0.727-0.136
				l0.873-0.142L20.755,135.846z"/>
			<path id="path1193_8_" class="st3" d="M20.755,135.846L20.755,135.846l-0.439,0.972l-0.578,0.691l-0.58,0.548l-0.873,0.145
				l-0.872-0.145h-0.727l-0.725,0.284l-1.021,0.415l0.579-0.698l0.585-0.548l0.724-0.557l0.585-0.279l0.872-0.415l0.727-0.136
				l0.873-0.142L20.755,135.846"/>
			<path id="path1197_8_" class="st2" d="M17.56,86.948L17.56,86.948v-0.693l-0.147-0.553l-0.292-0.549l-0.436-0.56l-0.724-0.551
				l-0.732-0.276l-1.016-0.417l-1.165-0.139l0.872,0.556l0.585,0.554l0.435,0.553l0.289,0.554v0.688v0.556l-0.289,0.557
				l-0.291,0.551l0.724,0.14l0.729-0.14l0.725-0.409L17.56,86.948z"/>
			<path id="path1201_8_" class="st3" d="M17.56,86.948L17.56,86.948v-0.693l-0.147-0.553l-0.292-0.549l-0.436-0.56l-0.724-0.551
				l-0.732-0.276l-1.016-0.417l-1.165-0.139l0.872,0.556l0.585,0.554l0.435,0.553l0.289,0.554v0.688v0.556l-0.289,0.557
				l-0.291,0.551l0.724,0.14l0.729-0.14l0.725-0.409L17.56,86.948"/>
			<path id="path1205_8_" class="st2" d="M11.738,89.444L11.738,89.444l-0.147-0.693l-0.287-0.417l-0.439-0.415l-0.583-0.415
				l-0.58-0.135l-0.871-0.141H7.955H7.087L8.54,87.92l0.872,0.832l0.144,0.972l-0.144,1.108l0.583,0.136l0.434-0.277l0.585-0.554
				L11.738,89.444z"/>
			<path id="path1209_8_" class="st3" d="M11.738,89.444L11.738,89.444l-0.147-0.693l-0.287-0.417l-0.439-0.415l-0.583-0.415
				l-0.58-0.135l-0.871-0.141H7.955H7.087L8.54,87.92l0.872,0.832l0.144,0.972l-0.144,1.108l0.583,0.136l0.434-0.277l0.585-0.554
				L11.738,89.444"/>
			<path id="path1213_8_" class="st2" d="M35.159,75.59L35.159,75.59l1.307,0.144l1.016,0.828l0.292,1.11l-0.87,1.108l-1.892,0.832
				l-1.893,0.554l-2.179,0.412l-2.328,0.141h-2.326l-2.331-0.141l-2.323-0.137L19.3,80.026l-0.288,0.969v0.832l0.434,0.828
				l0.583,0.97L18.43,82.52l-1.601-1.249l-1.455-1.245l-1.309-1.386l-1.163-1.387l-0.87-1.662l-0.876-1.517l-0.583-1.803
				l0.732,0.558l1.165,0.688l1.45,0.557l1.599,0.415l1.604,0.551l1.454,0.281l1.309,0.271h0.87l-0.142,0.691l-0.147,0.556v0.416
				l0.147,0.28l1.454,0.417l1.599,0.137h1.893l1.89-0.137l2.035-0.277l2.035-0.554l1.895-0.696L35.159,75.59z"/>
			<path id="path1217_8_" class="st3" d="M35.159,75.59L35.159,75.59l1.307,0.144l1.016,0.828l0.292,1.11l-0.87,1.108l-1.892,0.832
				l-1.893,0.554l-2.179,0.412l-2.328,0.141h-2.326l-2.331-0.141l-2.323-0.137L19.3,80.026l-0.288,0.969v0.832l0.434,0.828
				l0.583,0.97L18.43,82.52l-1.601-1.249l-1.455-1.245l-1.309-1.386l-1.163-1.387l-0.87-1.662l-0.876-1.517l-0.583-1.803
				l0.732,0.558l1.165,0.688l1.45,0.557l1.599,0.415l1.604,0.551l1.454,0.281l1.309,0.271h0.87l-0.142,0.691l-0.147,0.556v0.416
				l0.147,0.28l1.454,0.417l1.599,0.137h1.893l1.89-0.137l2.035-0.277l2.035-0.554l1.895-0.696L35.159,75.59"/>
			<path id="path1221_8_" class="st3" d="M95.23,68.665L95.23,68.665l-2.911,1.246l-2.762,1.248l-2.623,1.249l-2.321,1.248
				l-2.184,1.246l-2.182,1.379l-1.892,1.391l-1.747,1.386l-1.598,1.384l-1.455,1.386L72.1,83.212l-1.165,1.522l-1.163,1.384
				l-1.016,1.525l-0.873,1.525l-0.877,1.522l1.165-1.384l1.311-1.244l1.309-1.389l1.599-1.244l1.459-1.248l1.742-1.108l1.746-1.11
				l1.892-1.105l2.037-1.113l2.036-0.966l2.179-0.972l2.327-0.829l2.472-0.832l2.479-0.828l2.759-0.697l2.764-0.693l0.873-0.137
				l0.724-0.136l0.875-0.14l0.87-0.136l0.734-0.141l0.866-0.14l0.733-0.136l0.868-0.135l-1.89,0.828l-1.892,0.832l-1.888,0.688
				l-1.892,0.834l-1.891,0.828l-1.746,0.834l-1.89,0.829l-1.743,0.835l-1.749,0.829l-1.74,0.829l-1.601,0.969l-1.746,0.972
				l-1.604,0.97l-1.451,0.969l-1.452,1.108l-1.459,1.108l2.039-0.834l2.182-0.827l2.182-0.836l2.184-0.551l2.032-0.693l2.184-0.554
				l2.182-0.556l2.328-0.412l2.179-0.416l2.184-0.28l2.179-0.273l2.331-0.281l2.323-0.136l2.184-0.14l2.328-0.136h2.328l0.727,0.276
				l0.579,0.136l0.729,0.281l0.724,0.273l-0.868,0.417l-0.875,0.415l-0.872,0.42l-0.727,0.412l-0.871,0.416l-0.875,0.415
				l-0.729,0.556l-0.87,0.412h-2.328l-2.184,0.14l-2.182,0.141l-2.179,0.137l-2.182,0.141l-2.184,0.276l-2.034,0.136l-2.182,0.278
				l-2.037,0.412l-2.04,0.417l-1.887,0.417l-2.037,0.415l-1.89,0.557l-1.891,0.691l-1.892,0.693l-1.746,0.691l1.746-0.137h1.746
				h1.746l1.746,0.137l1.747,0.139l1.743,0.137l1.746,0.144l1.601,0.276l1.746,0.412l1.743,0.417l1.601,0.412l1.746,0.557
				l1.599,0.556l1.601,0.693l1.746,0.693l1.599,0.827l0.729,0.83l0.58,0.834l0.731,0.832l0.578,0.83l-1.016-0.14l-0.872-0.139
				h-1.019l-1.023-0.136l-1.596-0.833l-1.601-0.829l-1.599-0.693l-1.599-0.557l-1.455-0.553l-1.6-0.412l-1.599-0.417l-1.599-0.276
				l-1.607-0.279l-1.594-0.139l-1.607-0.137h-1.599l-1.596-0.139h-1.599l-1.603,0.139h-1.599l2.475,0.693l2.618,1.108l2.618,1.105
				l2.619,1.386l2.474,1.662l2.034,1.801l1.749,1.798l1.304,2.082l1.019,1.798l1.163,1.661l1.165,1.526l1.455,1.385l1.598,1.248
				l1.601,1.244l1.893,1.248l1.887,1.11l2.476,0.969l2.034,1.244l1.308,1.248l1.02,1.525l0.728,1.527l0.58,1.517l0.439,1.667
				l0.58,1.662l-0.731-1.662l-0.724-1.667l-0.872-1.517l-0.873-1.389l-1.312-1.246l-1.452-0.972l-1.888-0.832l-2.18-0.691
				l-2.187-0.415l-2.182-0.693l-2.035-0.83l-2.037-0.968l-1.89-1.386l-1.746-1.389l-1.599-1.801l-1.601-2.077l-2.179-2.489
				l-2.184-2.22l-2.328-1.937l-2.326-1.523l-2.328-1.249l-2.327-0.829l-2.472-0.554l-2.472-0.136l2.472,1.52l2.035,1.801
				l1.599,1.803l1.312,1.937l0.873,2.082l0.583,2.21l0.434,2.219l0.292,2.218l-1.165-1.941l-1.163-1.939l-1.165-1.801l-1.162-1.801
				l-1.451-1.522l-1.46-1.384l-1.743-0.972l-1.892-0.696l0.873,1.389l0.436,1.801l0.144,1.937l-0.144,2.219l-0.144,2.354
				l-0.292,2.213l-0.144,2.355l-0.144,2.215l-0.439-1.798l-0.295-1.942l-0.43-1.798l-0.295-1.801l-0.439-1.941l-0.288-1.796
				l-0.436-1.806l-0.441-1.798l-2.032,0.691l-1.451,1.386l-0.875,1.939l-0.585,2.214l-0.436,2.495l-0.288,2.631l-0.289,2.494
				l-0.585,2.218l-0.432-1.662l-0.439-1.806l-0.292-1.798l-0.147-1.798l-0.144-1.801v-1.942l0.291-1.938l0.436-2.075l-1.016,0.693
				l-0.873,0.829l-0.728,1.108l-0.727,1.108l-0.727,1.245l-0.58,1.385l-0.583,1.526l-0.441,1.661l-0.58-1.384l-0.436-1.522v-1.525
				l0.147-1.52l0.436-1.67l0.58-1.52l0.729-1.389l1.016-1.381l-3.052,0.972l-2.182,0.965l-1.601,0.833l-1.021,0.693l-0.724,0.691
				l-0.725,0.693l-0.583,0.694l-1.015,0.552v-1.381l0.286-1.386l0.588-1.11l0.87-1.108l1.016-0.972l1.309-0.832l1.455-0.832
				l1.454-0.828"/>
			<path id="path1225_8_" class="st4" d="M89.41,108.835l-1.887,0.556l-1.604,0.689l-1.306,0.832l-1.163,0.97l-0.878,1.248
				l-0.58,1.246l-0.439,1.526l-0.287,1.661l-0.291-0.277l-0.292-0.416l-0.436-0.277l-0.288-0.279l0.724-1.662l0.87-1.522l0.876-1.11
				l1.164-0.969l1.309-0.829l1.454-0.554l1.452-0.558L89.41,108.835z"/>
			<path id="path1229_8_" class="st4" d="M91.303,112.158l-1.601,0.415l-1.456,0.557l-1.164,0.832l-1.017,0.827l-0.725,1.113
				l-0.583,1.106l-0.436,1.382l-0.149,1.384l-0.286-0.276l-0.292-0.277l-0.288-0.276l-0.295-0.276l0.583-1.525l0.727-1.242
				l1.019-0.973l1.019-0.966l1.014-0.696l1.312-0.412l1.165-0.417L91.303,112.158z"/>
			<path id="path1233_8_" class="st4" d="M104.977,117.143l-1.165,0.698l-0.875,0.827l-0.724,0.969l-0.436,0.834l-0.291,1.105
				l-0.148,0.974l0.148,1.103l0.291,1.11l-0.439-0.139l-0.147-0.14l-0.288-0.136l-0.439-0.139v-1.248l0.144-1.105l0.436-0.972
				l0.441-0.97l0.727-0.833l0.724-0.693l1.021-0.691L104.977,117.143z"/>
			<path id="path1237_8_" class="st4" d="M107.739,118.251l-1.021,0.693l-0.871,0.829l-0.58,0.833l-0.439,0.832l-0.289,0.969v0.97
				v0.972l0.289,1.108l-0.434-0.139l-0.147-0.14l-0.289-0.136l-0.291-0.141v-1.106l0.144-1.11l0.288-0.968l0.584-0.83l0.583-0.696
				l0.724-0.829l0.873-0.552L107.739,118.251z"/>
			<path id="path1241_8_" class="st4" d="M112.684,120.886l-1.309,0.136l-1.163,0.416l-1.019,0.42l-0.872,0.548l-0.727,0.833
				l-0.583,0.829l-0.439,0.974l-0.436,1.105l-0.147-0.276l-0.144-0.276l-0.292-0.279l-0.144-0.275l0.58-1.11l0.875-0.833
				l0.729-0.693l0.871-0.548l1.016-0.42l1.016-0.276l1.024-0.14L112.684,120.886z"/>
			<path id="path1245_8_" class="st4" d="M86.793,120.606l1.163-0.415l1.165-0.417l1.16-0.554l1.021-0.688l0.872-0.832l0.871-0.83
				l0.875-0.968l0.873-0.974l-0.583,0.974l-0.727,0.968l-0.583,0.972l-0.872,0.969l-0.871,0.827l-1.019,0.835l-1.163,0.829
				l-1.309,0.693l-0.145-0.417l-0.293-0.276l-0.147-0.415L86.793,120.606z"/>
			<path id="path1249_8_" class="st4" d="M66.718,129.058l1.165-0.42l1.163-0.412l1.165-0.552l1.016-0.693l0.875-0.834l0.871-0.829
				l0.877-0.969l0.868-0.972l-0.583,0.972l-0.724,0.969l-0.585,0.968l-0.872,0.969l-0.871,0.832l-1.016,0.83l-1.163,0.832
				l-1.311,0.696l-0.147-0.42l-0.293-0.276l-0.147-0.412L66.718,129.058z"/>
			<path id="path1253_8_" class="st4" d="M92.759,123.099l1.016-0.693l0.871-0.691l0.728-0.829l0.727-0.972l0.58-0.972l0.583-0.968
				l0.58-1.105l0.439-1.113l-0.291,1.113l-0.287,0.97l-0.295,1.103l-0.437,0.972l-0.58,1.108l-0.583,1.108l-0.875,0.969l-0.872,1.11
				l-0.288-0.415l-0.292-0.278l-0.437-0.139L92.759,123.099z"/>
			<path id="path1257_8_" class="st4" d="M72.827,132.24l1.024-0.691l0.868-0.693l0.728-0.832l0.727-0.966l0.583-0.972l0.58-0.968
				l0.58-1.105l0.439-1.113l-0.292,1.113l-0.291,0.968l-0.289,1.105l-0.435,0.972l-0.583,1.108l-0.584,1.105l-0.871,0.969
				l-0.875,1.113l-0.286-0.42l-0.295-0.273l-0.437-0.139L72.827,132.24z"/>
			<path id="path1261_8_" class="st3" d="M79.812,111.19L79.812,111.19l-1.601-0.139h-1.309l-1.311,0.139l-1.307,0.278l-1.165,0.551
				l-1.016,0.835l-1.019,0.827l-1.016,1.246l-1.163-0.551l-1.02-0.276l-1.167-0.139l-1.012-0.142l-1.021,0.142l-1.019,0.271
				l-1.016,0.282l-1.021,0.549"/>
			<path id="path1265_8_" class="st3" d="M96.537,99.829L96.537,99.829l-0.58,0.417l-0.583,0.415l-0.439,0.278l-0.434,0.417
				l-0.437,0.415l-0.289,0.557v0.827v0.972"/>
			<path id="path1269_8_" class="st3" d="M59.594,115.902L59.594,115.902l-1.019-0.417l-0.871-0.276h-0.875l-0.727,0.137
				l-0.728,0.412l-0.58,0.556l-0.585,0.693l-0.58,0.969l-1.307-0.691l-1.309-0.278h-1.311l-1.309,0.415l-1.311,0.83l-1.454,1.11
				l-1.312,1.525l-1.452,1.934l-0.578,0.557l-0.583,0.553l-0.728,0.418l-0.729,0.275l-0.727,0.14l-0.872,0.136h-0.873l-1.016-0.136"
				/>
			<path id="path1273_8_" class="st3" d="M52.902,72.686L52.902,72.686l-1.452,0.693l-0.291,0.827v1.113l0.291,1.104l1.306,0.694
				l0.147,0.691l-0.439,0.693l-0.727,0.836l0.727,0.829l0.147,0.829l-0.435,0.696L51.16,82.24l0.291,0.97l-0.291,0.696l-0.585,0.415
				l-1.019,0.273l-0.58,0.417l-0.729,0.418l-0.725,0.136L46.65,85.01l-0.875,0.833l-1.019,0.273l-1.016-0.273l-1.165-0.554
				l-1.743,1.384l-0.439,1.108l0.725,0.832l1.892,0.693l0.729,0.693l0.576,0.691l0.293,0.554l0.147,0.696v0.556l-0.147,0.691
				l-0.436,0.554l-0.58,0.553l0.875,0.552l0.436,0.834l0.147,0.829l-0.295,0.833l-0.583,0.832l-0.58,0.829l-0.729,0.554
				l-0.724,0.273l0.58,0.97l0.291,0.836v0.693l-0.147,0.553l-0.436,0.412l-0.58,0.417l-0.436,0.416l-0.58,0.415l0.287,0.693
				l0.293,0.553l0.148,0.693l0.144,0.554v0.691l-0.144,0.696l-0.289,0.553l-0.439,0.693l0.872,0.554l0.583,0.691l0.288,0.693
				l0.145,0.692l-0.145,0.833l-0.288,0.832l-0.583,0.827l-0.872,0.833l-2.331,1.249l-2.179,0.829l-2.331,0.413h-2.323l-2.331-0.271
				l-2.179-0.834l-2.329-1.106l-2.326-1.668l-0.436-1.379l0.295-1.113l0.87-0.691l1.598-0.417"/>
			<path id="path1277_8_" class="st3" d="M43.302,94.293L43.302,94.293l-1.163,0.279l-1.021,0.273h-1.014H39.08l-0.871-0.273
				l-0.872-0.42l-0.871-0.691l-0.731-0.833"/>
			<path id="path1281_8_" class="st3" d="M42.139,99.556L42.139,99.556l-1.457,0.273l-1.309,0.279H38.21h-1.163l-1.158-0.279
				l-1.165-0.415l-1.021-0.691l-1.016-0.83"/>
			<path id="path1285_8_" class="st3" d="M40.976,104.682L40.976,104.682l-1.457,0.273l-1.309,0.279h-1.163h-1.158l-1.165-0.279
				l-1.165-0.415l-1.019-0.691l-1.021-0.833"/>
			<path id="path1289_8_" class="st3" d="M41.559,109.392L41.559,109.392l-1.746,0.412l-1.604,0.276l-1.596,0.141l-1.455-0.141
				l-1.456-0.276l-1.455-0.556l-1.307-0.691l-1.163-1.108"/>
			<path id="path1293_8_" class="st4" d="M36.178,71.763L36.178,71.763l1.016-0.139h0.873l0.87-0.137h1.021h0.873l1.016,0.137
				l1.016,0.28l1.019,0.413l-1.163-0.413l-0.725-0.141H41.27l-0.439,0.276l-0.291,0.422l-0.436,0.407l-0.291,0.696l-0.295,0.693
				l-0.439-0.829l-1.014-0.696l-1.163-0.552L36.178,71.763z"/>
		</g>
	</g>
	<g id="bar">
		<polygon id="bar_1_" points="0,211.009 141.732,211.009 141.732,207.752 0,207.752 		"/>
	</g>
	<g id="outline_1_">
		<g id="outline">
			<path d="M113.386,3.26c13.833,0,25.087,11.254,25.087,25.087v229.606c0,13.833-11.254,25.087-25.087,25.087h-85.04
				c-13.833,0-25.087-11.254-25.087-25.087V28.346C3.26,14.514,14.514,3.26,28.346,3.26H113.386 M113.386,0h-85.04
				C12.756,0,0,12.756,0,28.346v229.606c0,15.591,12.756,28.347,28.346,28.347h85.039c15.591,0,28.346-12.756,28.346-28.347V28.346
				C141.732,12.756,128.976,0,113.386,0L113.386,0z"/>
		</g>
	</g>
</g>
</svg>
