<?xml version="1.0" encoding="utf-8"?>
<!-- Generator: Adobe Illustrator 23.0.1, SVG Export Plug-In . SVG Version: 6.00 Build 0)  -->
<svg version="1.1" id="Layer_1" xmlns="http://www.w3.org/2000/svg" xmlns:xlink="http://www.w3.org/1999/xlink" x="0px" y="0px"
	 viewBox="0 0 141.6999969 286.2999878" style="enable-background:new 0 0 141.6999969 286.2999878;" xml:space="preserve">
<style type="text/css">
	.st0{fill:#414141;}
	.st1{fill:#E1293A;}
	.st2{fill:none;stroke:#16161A;stroke-width:0.6863;stroke-miterlimit:1;}
	.st3{fill:#16161A;}
</style>
<polygon class="st0" points="141.6999969,214.3000031 0,214.3000031 0,205.8000031 141.6999969,205.8000031 "/>
<g id="dragon">
	<path id="path1101_8_" class="st1" d="M92.9000015,129.8999939v-0.1000061l-0.5999985-0.3000031l0.5999985,0.6000061V129.8999939z"
		/>
	<path id="path1105_8_" class="st2" d="M92.9000015,129.8999939v-0.1000061l-0.5999985-0.3000031l0.5999985,0.6000061V129.8999939z"
		/>
	<path id="path1109_8_" class="st1" d="M121.6999969,93.9000015l-0.4000015-0.8000031l-1-0.5999985l-1.5-0.8000031l-1-0.0999985
		L116.8999939,91.5l-0.6999969,0.0999985L115.5,91.6999969l-0.6999969,0.0999985l-0.5999985,0.3000031L113.6000061,92.5
		l-0.5999985,0.4000015L112.6000061,94l0.0999985,0.8000031l0.4000015,0.8000031l0.6999969,0.6999969l0.9000015,0.4000015
		l1,0.3000031l1,0.0999985h1l1-0.0999985l1-0.4000015l0.9000015-0.6999969l0.9000015-1L121.6999969,93.9000015z M134.6000061,90
		l-0.6999969-0.4000015L133.3000031,89l-0.6999969-0.5999985l-0.6999969-0.5999985l-0.6999969-0.6999969l-0.6000061-0.6999969
		L130,85.7000122l-0.3999939-0.8000031L129.5,86.0000076l-0.1000061,1.0999985l-0.1000061,1.0999985l-0.3000031,1.0999985
		l-0.3000031,1.0999985L128.3999786,91.5l-0.4000015,1.0999985l-0.4000015,1l0.6000061,1.6999969l0.3000031,1.6999969
		l-0.1000061,1.8000031l-0.3000031,1.6999969l-0.6999969,1.8000031l-0.6999969,1.5l-0.9000015,1.5l-1,1.1999969
		l-1.3000031,1.4000015l-1.9000015,1.4000015l-2,1.0999985l-2.1999969,1.0999985l-2.3000031,0.8000031l-2.3000031,0.5999985
		l-2.1999969,0.4000015l-1.9000015,0.3000031l1.6999969,0.8000031l2,0.4000015l2.1999969,0.0999985l2.1999969,0.3000031l2,0.6999969
		L120.4999619,117l1.1999969,1.9000015l0.5999985,3l-0.5999985-0.3000031l-0.6999969-0.4000015l-0.5999985-0.4000015
		l-0.6999969-0.3000031l-0.6999969-0.4000015l-0.5999985-0.3000031l-0.6999969-0.3000031l-0.5999985-0.0999985l0.0999985,1.4000015
		v1.5v1.5v1.5v1.4000015l-0.0999985,1.4999924l-0.3000031,1.3999939l-0.3000031,1.1999969
		c-0.0999985,0.3999939-0.0999985,0.8999939-0.3000031,1.3000031c-0.3000031,0.8999939-0.3000031,1.8000031-0.3000031,2.8000031
		c0,0.8000031-0.0999985,1.3999939,0.6999969,1.8999939c0.9000015,0.5,1.6999969,0.6000061,2.6999969,0.6000061
		c0.5999985,0,1.5999985,0.1000061,2.1999969-0.1000061c0.1999969-0.1000061,0.4000015-0.3000031,0.5999985-0.3000031
		c-0.0999985,0.6000061-0.0999985,1.8000031,0.5,2c0.8000031,0.1999969,1.5999985,0,2.4000015,0.3999939
		c0.6999969,0.3999939,1.5,0.6999969,2.0999985,1.3000031c-1.0999985,0-2.0999985,0-3.1999969,0
		c-0.9000015,0-1.5999985-0.1999969-1.9000015,0.6000061c-0.3000031,0.6000061-0.1999969,1.8999939-1.0999985,1.6000061
		c-0.6999969-0.3000031-1.5999985-1-2.1999969-1.3999939c-0.6999969-0.3999939-1.4000015-0.8999939-2.0999985-1.1999969
		c-1.0999985-0.3999939-2.1999969-0.6000061-3.4000015-0.6000061c-0.9000015,0-2.0999985-0.1000061-2.8000031,0.6000061
		c-0.8000031,0.8000031-1.4000015,1.5-2.3000031,2.1000061l-1.3000031,0.6999969l-1.3000031,0.6000061L104,144l-1.3000031,0.3000031
		l-1.5,0.3999939l-1.3000031,0.3999939l0.0999985-0.6000061v-0.6000061l-0.0999985-0.3999939l-0.4000015-0.6999969h0.5999985
		h0.6999969l0.5999985-0.1000061l0.6999969-0.1000061l0.5999985-0.1000061l0.5999985-0.1000061l0.5999985-0.1000061
		l0.5999985-0.1000061l-0.0999985-0.3999939l-0.0999985-0.3000031l-0.4000015-0.1000061l-0.4000015-0.1000061l-0.9000015,0.1000061
		l-0.9000015,0.1000061h-0.9000015H99.899971H99h-1l-0.9000015-0.1000061l-0.9000015-0.1000061l0.5999985-0.3999939v-0.6999969
		l-0.3000031-0.8000031l-0.4000015-1l0.9000015,0.1000061l0.6999969,0.3000031l0.9000015,0.3999939l0.9000015,0.3000031
		l0.9000015,0.1000061l0.9000015,0.3000031h0.6999969l0.9000015-0.1000061l-0.5999985-0.3999939l-0.6999969-0.3000031
		L101,138.6999664l-0.6999969-0.3000031l-0.6999969-0.3000031l-0.6999969-0.3000031l-0.6999969-0.1000061l-0.6999969-0.3000031
		l0.4000015-0.6000061l0.3000031-0.6999969l0.0999985-0.8000031v-1l0.9000015,0.6999969l1,0.8000031l1,0.6999969l1,0.6000061
		l1,0.6000061l1,0.3999939l1.1999969,0.3000031l1.1999969,0.1000061l0.3000031-0.8000031l0.4000015-0.8000031l0.4000015-0.6999969
		l0.4000015-0.8000031l0.5999985-0.6999969l0.4000015-0.6999969l0.5999985-0.6999969l0.5999985-0.6999969l0.3000031-0.8000031
		l0.3000031-0.6999969v-0.8000031v-0.8000031l-0.0999985-0.8000031l-0.0999985-0.8000031l-0.3000031-0.8000031l-0.3000031-1
		l-0.4000015-0.6999969l-0.4000015-0.5999985l-0.5999985-0.5999985l-0.5999985-0.4000015l-0.6999969-0.4000015l-0.6999969-0.3000031
		l-0.6999969-0.3000031l-0.9000015-0.3000031l-1.1999969-0.0999985h-1l-1.1999969-0.0999985H100h-1.1999969l-1.1999969-0.0999985
		l-1-0.0999985l-1.1999969-0.3000031l-1.3000031-0.0999985l-1.3000031-0.3000031L91.5,121.0999374l-1.1999969-0.4000015
		l-1-0.4000015l-1-0.5999985l-0.6999969-0.6999969l-0.6999969-0.8000031l-1.1999969-0.4000015l-1.3000031-0.4000015
		l-1.3000031-0.6999969l-1.1999969-0.8000031l-1.1999969-0.8000031l-1-0.8000031l-0.6999969-1l-0.5999985-0.8000031
		l-0.4000015,1.0999985l-0.6999969,1.0999985l-0.6999969,0.8000031l-1,0.6999969l0.6999969,0.5999985l0.6999969,0.6999969
		l0.4000015,0.8000031l0.0999985,0.8000031l1.1999969,0.5999985l1,0.5999985l0.9000015,0.8000031l0.6999969,1l0.9000015,0.5999985
		l0.5999985,0.8000031l0.4000015,1l0.0999985,0.8000031l1.3000031,0.4000015l1.3000031,0.4000015l1.1999969,0.5999985
		l1.3000031,0.5999985l1.1999969,0.6999969l1.1999969,0.8000031l1.1999969,0.8000031l0.3000031,0.3000031l-0.5999985-0.1000061
		l-0.5999985-0.1000061h-0.5999985H90h-0.5999985l-0.5999985,0.1000061l-0.4000015,0.1000061l-0.5999985,0.6999969
		l-0.6999969,0.6999969l-0.5999985,0.6999969l-0.6999969,0.6000061l-0.6999969,0.6999969l-0.6999969,0.6000061l-0.6999969,0.3999939
		l-0.9000015,0.5l-1,0.6999969l-1.1999969,0.8000031l-1.3000031,0.8000031l-1.3000031,0.8000031l-1.1999969,0.6999969
		c-0.5999985,0.3000031-1.5999985,0.1000061-1.5,0.8000031c0.0999985,0.8000031,1.0999985,0.8000031,1.6999969,0.8000031
		c1.3000031,0.1999969,2.5999985,0.5,3.8000031,0.6999969c-0.1999969,0-0.4000015,0.1999969-0.5,0.3000031
		c-0.0999985,0.1999969,0,0.5,0.0999985,0.6000061c0.3000031,0.3999939,0.6999969,0.8000031,1,1.1999969
		c1,1.1000061,1.4000015,2.1999969,1.3000031,3.6999969c0,0.3999939-0.1999969,1.1000061-0.5999985,0.6999969
		c-0.4000015-0.3000031-0.5-0.8999939-0.6999969-1.3999939s-0.4000015-0.8999939-0.6999969-1.3000031
		c-0.3000031-0.3999939-0.9000015-1-1.4000015-1c-0.1999969,0-0.3000031,0.1000061-0.1999969,0.3000031
		c-0.4000015-0.1000061-0.5999985,0.6999969-1,0.8999939c-0.8000031-0.6000061-1.5999985-1.3000031-2.5-1.8000031
		c-0.6999969-0.3999939-1.4000015-0.8000031-2.1999969-1.1999969c-1.6999969-0.8000031-3.3000031-0.3999939-5.0999985-0.3999939
		h-0.5999985l-0.6999969,0.1000061l-0.6999969,0.1000061l-0.6999969,0.1000061l-0.5999985,0.1000061l-0.5999985,0.1000061
		l-0.5999985,0.1000061l-0.5999985,0.1000061l-0.5999985,0.1000061l-0.5999985,0.3000031l-0.4000015,0.1000061L61,143
		l-0.7000008-0.6000061L59.5999985,142l-1-0.3000031l-1-0.1000061L58,141.1999969L59,141l1.2999992-0.3000031l1.5-0.3000031
		l1.5-0.3000031l1.2999992-0.3000031l1-0.3999939L66.1999969,139L65,139.1000061l-1.2000008,0.1000061h-1.2000008h-1.2000008
		h-1.2000008H59h-1l-1-0.1000061l0.0999985-0.6999969L57,137.8000031l-0.4000015-0.6000061L56,136.5999908l1-0.1000061
		l0.9000015,0.1000061l1,0.1000061l1,0.3999939l1,0.3000031l1,0.3000031l1,0.1000061l1-0.1000061l-0.5999985-0.3999939
		l-0.5999985-0.3999939l-0.7000008-0.3999939l-0.7000008-0.3999939l-0.7000008-0.3000031l-0.7000008-0.3000031L59,135.2000122
		l-0.9000015-0.1000061l0.5999985-0.3999939l0.4000015-0.6999969v-0.8000031L59,132l0.5999985,0.6000061l0.7000008,0.6000061
		L61,133.6000061l0.7000008,0.3000031l0.7000008,0.3000031l0.9000015,0.3000031l0.9000015,0.3000031l0.9000015,0.3999939
		l0.4000015-0.6000061l0.5999985-0.3999939l0.6999969-0.1000061H67.5l0.6999969,0.1000061l0.6999969,0.3000031l0.6999969,0.6000061
		l0.5999985,0.6999969l1-0.3000031l0.9000015-0.3999939l1-0.3999939L74,134l0.9000015-0.6000061l0.6999969-0.6000061
		l0.5999985-0.6999969l0.5999985-0.6999969L76.3999939,131l-0.6999969-0.3999939l-0.9000015-0.3000031l-1-0.3000031l-1-0.3000031
		l-1-0.3000031l-1-0.3000031l-0.9000015-0.3999939l-0.5999985-0.3999939l-0.6999969-0.5999985L68,127.1000061l-0.4000015-0.5999985
		l-0.4000015-0.5999985l-0.4000015-0.6999969l-0.0999985-0.6999969l-0.0999985-0.6999969l0.0999985-0.5999985l0.0999985-0.5999985
		l0.4000015-0.5999985l0.4000015-0.5999985L68,120.8000259l0.4000015-0.5999985l0.3000031-0.6999969l0.3000031-0.5999985
		l-1.9000015,0.0999985l-2.1999969,0.4000015l-2.2999992,0.5999985l-2.5999985,0.6999969l-2.5999985,1l-2.7999992,0.8000031
		l-2.5,0.8000031l-2.5,0.8000031v1v1l-0.2999992,1.0999985l-0.2999992,1.0000076l-0.4000015-0.8000031l-0.2999992-0.6999969
		l-0.5999985-0.6999969l-0.5999985-0.4000015l0.2999992-0.6999969l0.2999992-0.5999985l0.0999985-0.6999969l0.2999992-0.6999969
		l-0.9000015-0.4000015l-0.9000015,0.0999985l-0.9000015,0.6999969l-0.7000008,0.8000031l-1,1.9000015l-0.9000015,1.5
		l-0.7000008,1.4000015l-0.9000015,1.1999969l-1,1.1000061l-1,1.1999969l-1.2999992,1.3999939
		c-0.4000015,0.3999939-1.5,1.1999969-1.5999985,1.8000031c-0.2000008,0.8999939,1.4000015,1.1999969,1.9000015,1.3999939
		c0.5999985,0.1999969,1.2999992,0.3000031,2,0.3999939c0.4000015,0,0.7000008,0.1000061,1,0.1999969
		c0.4000015,0.1000061,0.9000015,0,1.4000015,0.1000061c0,0.3999939-0.0999985,0.8000031-0.2000008,1.1999969
		c-0.2000008,0.6000061-0.2000008,1.1999969-0.4000015,1.6999969c1,0.1000061,1.5999985,0.6999969,2.2000008,1.1999969
		c0.5999985,0.6000061,1.2000008,1.1999969,1.7000008,1.8000031c-0.5-0.1000061-1.0999985-0.3000031-1.5999985-0.3999939
		c-0.7000008-0.1000061-1.4000015-0.3000031-2.0999985-0.5c-0.2000008-0.1000061-1-0.3999939-1.2000008-0.3000031
		c-0.2000008,0.1999969,0.0999985,0.6000061-0.0999985,0.8000031c-0.4000015,0.5-1.2999992-0.3999939-1.5999985-0.6999969
		c-0.7000008-0.6000061-1.4000015-1.1000061-2.0999985-1.6999969c-0.5-0.3999939-0.7999992-0.8999939-1.2000008-1.5
		c-0.0999985-0.1999969-0.2999992-0.5-0.5-0.6999969c-0.2999992-0.3000031,0.0999985-0.1000061-0.4000015-0.3000031
		c-0.4000015-0.1000061-1.4000015-0.1999969-1.7999992,0c-0.4000015,0.1000061-0.4000015,0.5-0.5,0.8999939l-0.5999985,0.6000061
		l-0.7000008,0.3999939l-0.7000008,0.3000031l-1.5,0.1000061l-0.8999996,0.1000061l-0.7000008,0.1000061H27l-0.6000004,0.6999969
		L26,143l-0.8999996,0.1000061l-0.7000008,0.1000061H23.5h-0.7000008l-0.7000008,0.1000061l-0.7000008,0.3000031
		l0.1000004-0.6999969l-0.1000004-0.6000061l-0.3999996-0.3999939l-0.6000004-0.3999939h1h0.8999996l0.8999996-0.1000061
		l0.7000008-0.1000061l0.7000008-0.1000061l0.7000008-0.1000061l0.8999996-0.3000031L27.0999985,140.5l0.2999992-0.3999939
		l0.1000004-0.3000031l-0.3999996-0.3999939l-0.6000004-0.3000031h-0.7000008l-0.8999996,0.1000061l-0.7000008,0.1000061h-0.8999996
		l-0.7000008,0.1000061h-0.7000008l-0.7000008-0.1000061l-0.7000008-0.3000031l-0.6000004,0.1000061l-0.3999996,0.3000031L19,140
		l-0.2999992,0.6000061v-1l-0.2999992-0.8000031l-0.2999992-0.6999969l-0.6000004-0.6999969l0.8999996,0.1000061
		l0.8999996,0.1000061l1,0.1000061l1,0.1000061l0.8999996,0.1000061h1l1,0.1000061l0.8999996,0.1000061L24.5,137.5000458
		l-0.7000008-0.3999939l-0.7000008-0.3999939l-0.7000008-0.3000031l-0.8999996-0.3000031l-1-0.1000061l-0.8999996-0.1000061
		l-1-0.1000061l1-0.3000031l0.8999996-0.6000061l0.3999996-0.6999969l0.2999992-1l0.7000008,0.6000061l0.6000004,0.3000031
		l0.7000008,0.3000031l0.7000008,0.3000031l0.7000008,0.1000061l0.7000008,0.3000031l0.7000008,0.3000031l0.7000008,0.3999939
		l0.7000008-0.1000061H28l0.6000004-0.1000061l0.6000004-0.3000031l0.3999996-0.1000061l0.6000004-0.3000031l0.3999996-0.3999939
		l0.6000004-0.3000031L31.5,133.1000214l0.7000008-0.6000061l1-0.3000031L34.5,131.9000092l-0.0999985-1.1000061v-1.1000061
		l0.4000015-0.8000031l0.7000008-0.6000061l-0.2999992-0.8000031V127l0.4000015-0.6999969l0.9000015-0.5999985l-0.5999985-1
		l-0.0999985-0.8000031l0.4000015-1l0.9000015-1l-0.7000008,0.4000015l-0.7000008,0.4000015L35,123l-0.7000008,0.0999985h-0.9000015
		h-0.7000008L32,123l-0.7000008-0.3000031L31.3999996,123.5l-0.1000004,0.8000031L31,125.1000061l-0.2999992,0.6999969
		l-0.2999992,0.8000031l-0.3999996,0.8000031l-0.6000004,0.6999969l-0.3999996,0.6999969l-0.6000004,0.6000061l-0.6000004,0.3999939
		l-0.7000008,0.3000031L26.5,130.4000092l0.3999996-0.6999969l0.2999992-0.6999969l0.2999992-0.6999969l0.1000004-0.6999969V127
		v-0.6999969v-0.6999969l-0.1000004-0.6999969l-1.2999992-1.4000015l-1.2000008-1.4000015l-1-1.1999969l-1.2000008-1.1999969
		l-0.8999996-1.1999969l-1-1.1999969L20,116l-0.8999996-1.1999969l-0.7000008-1.1999969l-0.7000008-1.3000031l-0.7000008-1.4000015
		L16.3999977,109.5l-0.6000004-1.5l-0.3999996-1.6999969l-0.6000004-1.6999969l-0.3999996-1.9000015l-0.8999996,1.0999985
		l-0.6999998,1.0999985L12.1999979,106l-0.3999996,1.1999969l-0.6000004,1.1999969l-0.3000002,1.0999985l-0.6000004,1l-0.3999996,1
		v-0.6999969l-0.1000004-0.6999969V109.5v-0.5999985l-0.1000004-0.5999985V108l-0.1000004-0.5999985l-0.1000004-0.5999985
		l0.3999996-0.6999969l0.3999996-0.8000031L10.699995,104.5l0.3000002-0.8000031L11.3999949,103l0.3000002-0.8000031
		l0.3999996-0.8000031l0.3000002-0.6999969l-0.6000004-1.4000015l-0.3999996-1.4000015L11,96.4000015l-0.1000004-1.5
		l-0.3000002-1.6999969l-0.3000002-1.5L10,90.3000031L9.3000002,89l0.8999996-0.0999985l0.8999996-0.3000031l0.6000004-0.6999969
		l0.6999998-1v1l0.1000004,1l0.1000004,1l0.1000004,0.8000031l0.3000002,0.8000031l0.3999996,0.6999969l0.3999996,0.6999969
		l0.3999996,0.4000015l0.1000004-1l0.3000002-1l0.1000004-1v-1l0.1000004-1l-0.1000004-1l-0.3000002-1l-0.3999996-1l1,0.0999985
		l0.8999996-0.0999985l1.000001-0.4000015l0.8999996-0.6999969l-0.2999992,1.4000015l-0.1000004,1.0999985v0.8000031
		l0.1000004,0.6999969V89l0.1000004,0.8000031v1l-0.1000004,1.4000015l0.2999992-0.8000031l0.2999992-0.5999985l0.2999992-0.5999985
		L19,90l0.2999992-0.4000015L19.5999985,89l0.1000004-0.5999985v-0.6999969l0.3999996,1l0.6000004,0.6999969L21.3999996,90
		l0.8999996,0.3000031L21.8999996,91l-0.6000004,0.6999969l-0.6000004,0.6999969L20.2000008,93l-0.6000004,0.5L19,94.0999985
		l-0.7000008,0.6999969l-0.7000008,0.5999985l0.3999996,1.0999985l0.2999992,1.0999985l0.3999996,1.0999985l0.3999996,1.0999985
		l0.2999992,1.1999969l0.2999992,1.0999985l0.1000004,1.3000031l0.1000004,1.1999969l1.2999992,0.6999969l1.2000008,0.6999969
		l1.2999992,0.8000031l1.2000008,0.6999969l1.2000008,1l1.2000008,0.8000031l1,1l0.8999996,1.0999985l0.3999996-0.3000031
		v-0.4000015v-0.8000031l-0.1000004-0.8000031l-0.2999992-1v-1l0.2999992-1l0.6000004-0.8000031l-0.1000004-0.5999985
		l-0.1000004-0.5999985v-0.6999969l0.1000004-0.6999969l0.1000004-0.6999969l0.2999992-0.6999969l0.3999996-0.4000015
		l0.6000004-0.3000031l-0.1000004-0.5999985l-0.1000004-0.8000031V98.399971l0.1000004-0.8000031l0.1000004-1l0.3999996-0.6999969
		l0.4000015-0.6999969l0.7000008-0.5999985L32.7999992,94v-0.6999969L32.8999977,92.5l0.2999992-0.8000031l0.4000015-0.8000031
		L34,90.2999954l0.5999985-0.5999985l0.7000008-0.0999985V89l0.0999985-0.6999969L35.4999962,87.5l0.0999985-0.6999969
		l0.4000015-0.5999985l0.2999992-0.5999985l0.4000015-0.3000031L37.0999985,85L37,84.3000031L37.0999985,83.5v-0.6999969
		l0.2999992-0.6999969l0.2999992-0.6999969l0.4000015-0.6999969l0.5999985-0.5999985l0.7000008-0.5999985l-0.7000008-0.3000031
		l-0.5999985-0.0999985h-0.7000008L37,79.6999969L36.2999992,80.5l-0.4000015,0.8000031l-0.5999985,1l-0.4000015,1.0999985
		l-0.5999985-0.5999985l-0.5999985-0.6999969l-0.2999992-0.6999969l-0.0999985-1L33,81.3000031l-0.4000015,0.8000031
		l-0.2999992,0.8000031L32,83.8000031L31.8999996,84.5l-0.2999992,0.8000031L31.3999996,86v0.5999985L31,85.8000031L30.7000008,85
		l-0.2999992-1l-0.2999992-1L30,82v-1l0.1000004-1l0.1000004-1L31.5,78.6999969l1.5-0.3000031l1.2999992-0.4000015
		l1.2999992-0.5999985l1.2999992-0.4000015l1.2999992-0.4000015l1.2000008-0.4000015l1.2999992-0.0999985l-0.0999985-0.8000031
		l-0.4000015-0.6999969l-0.4000015-0.8000031l-0.7000008-0.6999969l-0.7000008-0.5999985l-0.7000008-0.4000015l-0.9000015-0.3000031
		l-0.9000015-0.0999985l-1,0.4000015L34,72.6999969l-1,0.6999969L32,74l-0.6000004,0.4000015L30.6999989,74.5L30,74.5999985
		L29.3999996,74.5l-1-1l-0.7000008-0.8000031L27,71.8000031l-0.2999992-1h-9l1.2999992-1L20.6000004,69l1.7000008-0.8000031
		L24.2000008,67.5l2-0.5999985l2.2000008-0.5999985l2.2000008-0.4000015l2.2000008-0.0999985l0.0999985-0.6999969
		l0.4000015-0.4000015l0.4000015-0.4000015l1-0.3000031l1.2999992-0.2999992l1.2999992-0.0999985h1.2999992l1.2999992,0.0999985
		l1.2999992,0.0999985L42.5,63.8999977l1.2999992,0.0999985l1.2999992,0.2999992l0.2000008-1l0.4000015-1l0.9000015-0.7000008L48,61
		l1.2000008-0.5999985L50.5,59.7000008l1.2999992-0.5999985L53,58.4000015l0.2999992,0.7000008l-0.2999992,1l-0.2999992,1
		l-0.0999985,1l1.2000008-0.2999992l1.2000008-0.5999985l0.9000015-0.7000008l0.9000015-0.7999992l0.4000015,0.5999985
		l0.0999985,0.7000008v0.5999985L57,62l-0.2999992,0.5999985l-0.2999992,0.5l-0.0999985,0.5999985v0.4000015L56.6000023,64.5
		l0.5999985,0.3000031l0.4000015,0.3000031l-0.0999985,0.6999969L56,66.3000031l-1,0.5999985l-0.5999985,0.4000015L54,67.9000015
		l-0.2999992,0.4000015l-0.0999985,0.5999985L53.3000031,69.5L52.9000015,70l0.7000008,0.0999985L54.5000038,70.5
		l0.9000015,0.4000015L56.3000069,71.5l0.9000015,0.6999969l0.5999985,0.6999969l0.5999985,0.8000031l0.2999992,1L58,74.5
		l-0.7000008-0.3000031l-0.5999985-0.3000031l-0.5999985-0.3000031l-0.7000008-0.0999985l-0.5999985-0.0999985l-0.4000015,0.0999985
		L54,73.5999985l0.0999985,0.6999969l0.0999985,0.5999985v0.5999985l-0.0999985,0.4000015L55,76.2999954l0.9000015,0.5999985
		l0.7000008,0.5999985l0.7000008,0.8000031l0.5999985,0.6999969l0.4000015,0.8000031l0.4000015,0.8000031l0.4000015,0.8000031l-1-1
		l-1-0.4000015l-0.7000008-0.0999985h-0.5999985L55.4000015,80L55,80.0999985h-0.4000015L54.0999985,80v0.5999985L54,81.3000031
		v0.8000031l-0.2999992,0.8000031l0.9000015,0.3000031l0.7000008,0.4000015l0.9000015,0.5999985l0.7000008,0.8000031
		l0.5999985,0.8000031l0.5999985,0.8000031l0.5999985,0.8000031L59,88.1000214l-1-0.8000031l-1-0.4000015l-1-0.0999985h-0.7000008
		l-0.7000008,0.0999985H54l-0.5999985-0.0999985L53,86.5l-0.2999992,0.6999969l-0.0999985,0.6999969l-0.0999985,0.8000031
		L52.4000053,89.5l0.5999985,0.0999985l0.4000015,0.3000031l0.5999985,0.3000031l0.7000008,0.4000015l0.5999985,0.5999985
		l0.7000008,0.5999985L56.7000046,92.5l0.7000008,1l-0.9000015-0.3000031l-1-0.1999969l-0.5999985,0.0999985l-0.5999985,0.0999985
		l-0.5999985,0.4000015l-0.4000015,0.3000031c-0.2999992,0.1999969-0.7999992,0.4000015-1.2000008,0.4000015
		c0.2999992,0.8000031,0.0999985,2,0.7000008,2.6999969c0.7000008,0.8000031,1.9000015,0.5999985,2.7999992,0.5999985
		c1,0,1.4000015-0.3000031,2.2999992-0.5999985c1-0.3000031,1.2999992-0.9000015,2.2000008-1.5
		c1.2000008-0.8000031,2.9000015-1.8000031,3.4000015-3.1999969c0.4000015-0.9000015,0.2999992-1.8000031,0.5-2.6999969
		c0.3000031-1.4000015,0.6999969-2.6999969,0.9000015-4.1999969l0.3000031-1.8000031l0.5999985-1.5l0.5999985-1.6999969
		l1.1999969-1.5l1.3000031-1.4000015l1.5999985-1.4000015l1.6999969-1.4000015l1.9000015-1.4000015l1.9000015-1.1999969
		l2.1999969-1.1999969l2.1999969-1.1999969l2-1.0999985l2.1999969-1.0999985l2.1999969-1.0999985l2-1.0999985l2-1.0999985
		l1.9000015-1l1.6999969-1.0999985l1.5-1l-0.4000015,2.5L95.4000015,66v1.6999969L95.5,69.0999985l0.4000015,1.0999985
		l0.6999969,0.5999985l1,0.4000015l1.3000031,0.0999985L100.5,71.1999969l1.8000031-0.4000015L104.5,70.1999969l2.5-0.8000031
		l2.8000031-0.8000031l3.0999985-1.0999985l3.5-1.0999985l3.8000031-1.1999969l-1.1999969,2.1999969l-1.9000015,1.9000015
		l-2.1999969,1.9000015L113,73l-1.5,1.5l-0.3000031,1.5L112.5,77.5l3.1999969,1.1999969l-2.8000031,1.0999985l-3.0999985,1.5
		l-2.8000031,1.9000015l-2.3000031,2.1999969l-1.5999985,2.4000015l-0.5999985,2.8000031l0.6999969,2.8000031l2.5,3
		l-1.6999969-0.3000031l-1.5-0.0999985h-1.1999969h-1l-1,0.0999985l-0.9000015,0.3000031l-1,0.3000031l-1.1999969,0.5999985
		l1.9000015,0.5999985L100,98.7000046l1.5999985,0.8000031l1.6999969,1.0999985l1.5999985,1l1.9000015,0.8000031
		l2.1999969,0.6999969l2.3000031,0.4000015h1.1999969l1-0.0999985l0.9000015-0.3000031l0.9000015-0.3000031L116.1999969,102.5
		l0.6999969-0.4000015L117.5999908,101.5l0.6999969-0.4000015l-1.1999969,0.3000031H116h-1.1999969l-1.1999969-0.3000031
		l-1-0.3000031l-1-0.5999985l-1-0.5999985l-0.9000015-0.8000031l-0.6999969-0.6999969l-0.4000015-0.6999969l-0.3000031-0.6999969
		L108,95.9000015l-0.0999985-0.6999969v-0.8000031v-1l0.0999985-1l0.4000015-0.6999969l0.4000015-0.8000031l0.4000015-0.6999969
		l0.6999969-0.6999969l0.6999969-0.6999969l0.6999969-0.5999985l0.9000015-0.5999985l1-0.4000015l1.5999985-0.0999985l1.5-0.0999985
		l1.5,0.0999985l1.5,0.3000031l1.5,0.4000015l1.3000031,0.6999969l1.1999969,0.8000031l1.1999969,1.0999985l0.3000031-0.5999985
		l0.3000031-0.8000031l0.0999985-0.6999969L125.5,87.5000153v-0.8000031l0.0999985-0.8000031v-0.8000031L125.5,84.3000031
		l-0.9000015,0.3000031l-0.9000015,0.3000031l-0.9000015,0.3000031l-0.9000015,0.0999985l-0.9000015,0.0999985l-0.9000015,0.0999985
		l-0.9000015-0.0999985l-0.9000015-0.0999985l1.9000015-1.9000015l1.9000015-1.9000015l1.6999969-2.0999985l1.6999969-1.9000015
		l1.5999985-2.0999985l1.5999985-2.0999985l1.6000061-2.1999969l1.5-2.1999969v2.8000031v2.8000031l0.1000061,2.8000031
		L132,79.9000244l0.3999939,2.5999985l0.3999939,2.5999985l0.6999969,2.5L134.6000061,90z"/>
	<path id="path1113_8_" class="st2" d="M121.6999969,93.9000015l-0.4000015-0.8000031l-1-0.5999985l-1.5-0.8000031l-1-0.0999985
		L116.8999939,91.5l-0.6999969,0.0999985L115.5,91.6999969l-0.6999969,0.0999985l-0.5999985,0.3000031L113.6000061,92.5
		l-0.5999985,0.4000015L112.6000061,94l0.0999985,0.8000031l0.4000015,0.8000031l0.6999969,0.6999969l0.9000015,0.4000015
		l1,0.3000031l1,0.0999985h1l1-0.0999985l1-0.4000015l0.9000015-0.6999969l0.9000015-1L121.6999969,93.9000015z M134.6000061,90
		l-0.6999969-0.4000015L133.3000031,89l-0.6999969-0.5999985l-0.6999969-0.5999985l-0.6999969-0.6999969l-0.6000061-0.6999969
		L130,85.7000122l-0.3999939-0.8000031L129.5,86.0000076l-0.1000061,1.0999985l-0.1000061,1.0999985l-0.3000031,1.0999985
		l-0.3000031,1.0999985L128.3999786,91.5l-0.4000015,1.0999985l-0.4000015,1l0.6000061,1.6999969l0.3000031,1.6999969
		l-0.1000061,1.8000031l-0.3000031,1.6999969l-0.6999969,1.8000031l-0.6999969,1.5l-0.9000015,1.5l-1,1.1999969
		l-1.3000031,1.4000015l-1.9000015,1.4000015l-2,1.0999985l-2.1999969,1.0999985l-2.3000031,0.8000031l-2.3000031,0.5999985
		l-2.1999969,0.4000015l-1.9000015,0.3000031l1.6999969,0.8000031l2,0.4000015l2.1999969,0.0999985l2.1999969,0.3000031l2,0.6999969
		L120.4999619,117l1.1999969,1.9000015l0.5999985,3l-0.5999985-0.3000031l-0.6999969-0.4000015l-0.5999985-0.4000015
		l-0.6999969-0.3000031l-0.6999969-0.4000015l-0.5999985-0.3000031l-0.6999969-0.3000031l-0.5999985-0.0999985l0.0999985,1.4000015
		v1.5v1.5v1.5v1.4000015l-0.0999985,1.4999924l-0.3000031,1.3999939l-0.3000031,1.1999969
		c-0.0999985,0.3999939-0.0999985,0.8999939-0.3000031,1.3000031c-0.3000031,0.8999939-0.3000031,1.8000031-0.3000031,2.8000031
		c0,0.8000031-0.0999985,1.3999939,0.6999969,1.8999939c0.9000015,0.5,1.6999969,0.6000061,2.6999969,0.6000061
		c0.5999985,0,1.5999985,0.1000061,2.1999969-0.1000061c0.1999969-0.1000061,0.4000015-0.3000031,0.5999985-0.3000031
		c-0.0999985,0.6000061-0.0999985,1.8000031,0.5,2c0.8000031,0.1999969,1.5999985,0,2.4000015,0.3999939
		c0.6999969,0.3999939,1.5,0.6999969,2.0999985,1.3000031c-1.0999985,0-2.0999985,0-3.1999969,0
		c-0.9000015,0-1.5999985-0.1999969-1.9000015,0.6000061c-0.3000031,0.6000061-0.1999969,1.8999939-1.0999985,1.6000061
		c-0.6999969-0.3000031-1.5999985-1-2.1999969-1.3999939c-0.6999969-0.3999939-1.4000015-0.8999939-2.0999985-1.1999969
		c-1.0999985-0.3999939-2.1999969-0.6000061-3.4000015-0.6000061c-0.9000015,0-2.0999985-0.1000061-2.8000031,0.6000061
		c-0.8000031,0.8000031-1.4000015,1.5-2.3000031,2.1000061l-1.3000031,0.6999969l-1.3000031,0.6000061L104,144l-1.3000031,0.3000031
		l-1.5,0.3999939l-1.3000031,0.3999939l0.0999985-0.6000061v-0.6000061l-0.0999985-0.3999939l-0.4000015-0.6999969h0.5999985
		h0.6999969l0.5999985-0.1000061l0.6999969-0.1000061l0.5999985-0.1000061l0.5999985-0.1000061l0.5999985-0.1000061
		l0.5999985-0.1000061l-0.0999985-0.3999939l-0.0999985-0.3000031l-0.4000015-0.1000061l-0.4000015-0.1000061l-0.9000015,0.1000061
		l-0.9000015,0.1000061h-0.9000015H99.899971H99h-1l-0.9000015-0.1000061l-0.9000015-0.1000061l0.5999985-0.3999939v-0.6999969
		l-0.3000031-0.8000031l-0.4000015-1l0.9000015,0.1000061l0.6999969,0.3000031l0.9000015,0.3999939l0.9000015,0.3000031
		l0.9000015,0.1000061l0.9000015,0.3000031h0.6999969l0.9000015-0.1000061l-0.5999985-0.3999939l-0.6999969-0.3000031
		L101,138.6999664l-0.6999969-0.3000031l-0.6999969-0.3000031l-0.6999969-0.3000031l-0.6999969-0.1000061l-0.6999969-0.3000031
		l0.4000015-0.6000061l0.3000031-0.6999969l0.0999985-0.8000031v-1l0.9000015,0.6999969l1,0.8000031l1,0.6999969l1,0.6000061
		l1,0.6000061l1,0.3999939l1.1999969,0.3000031l1.1999969,0.1000061l0.3000031-0.8000031l0.4000015-0.8000031l0.4000015-0.6999969
		l0.4000015-0.8000031l0.5999985-0.6999969l0.4000015-0.6999969l0.5999985-0.6999969l0.5999985-0.6999969l0.3000031-0.8000031
		l0.3000031-0.6999969v-0.8000031v-0.8000031l-0.0999985-0.8000031l-0.0999985-0.8000031l-0.3000031-0.8000031l-0.3000031-1
		l-0.4000015-0.6999969l-0.4000015-0.5999985l-0.5999985-0.5999985l-0.5999985-0.4000015l-0.6999969-0.4000015l-0.6999969-0.3000031
		l-0.6999969-0.3000031l-0.9000015-0.3000031l-1.1999969-0.0999985h-1l-1.1999969-0.0999985H100h-1.1999969l-1.1999969-0.0999985
		l-1-0.0999985l-1.1999969-0.3000031l-1.3000031-0.0999985l-1.3000031-0.3000031L91.5,121.0999374l-1.1999969-0.4000015
		l-1-0.4000015l-1-0.5999985l-0.6999969-0.6999969l-0.6999969-0.8000031l-1.1999969-0.4000015l-1.3000031-0.4000015
		l-1.3000031-0.6999969l-1.1999969-0.8000031l-1.1999969-0.8000031l-1-0.8000031l-0.6999969-1l-0.5999985-0.8000031
		l-0.4000015,1.0999985l-0.6999969,1.0999985l-0.6999969,0.8000031l-1,0.6999969l0.6999969,0.5999985l0.6999969,0.6999969
		l0.4000015,0.8000031l0.0999985,0.8000031l1.1999969,0.5999985l1,0.5999985l0.9000015,0.8000031l0.6999969,1l0.9000015,0.5999985
		l0.5999985,0.8000031l0.4000015,1l0.0999985,0.8000031l1.3000031,0.4000015l1.3000031,0.4000015l1.1999969,0.5999985
		l1.3000031,0.5999985l1.1999969,0.6999969l1.1999969,0.8000031l1.1999969,0.8000031l0.3000031,0.3000031l-0.5999985-0.1000061
		l-0.5999985-0.1000061h-0.5999985H90h-0.5999985l-0.5999985,0.1000061l-0.4000015,0.1000061l-0.5999985,0.6999969
		l-0.6999969,0.6999969l-0.5999985,0.6999969l-0.6999969,0.6000061l-0.6999969,0.6999969l-0.6999969,0.6000061l-0.6999969,0.3999939
		l-0.9000015,0.5l-1,0.6999969l-1.1999969,0.8000031l-1.3000031,0.8000031l-1.3000031,0.8000031l-1.1999969,0.6999969
		c-0.5999985,0.3000031-1.5999985,0.1000061-1.5,0.8000031c0.0999985,0.8000031,1.0999985,0.8000031,1.6999969,0.8000031
		c1.3000031,0.1999969,2.5999985,0.5,3.8000031,0.6999969c-0.1999969,0-0.4000015,0.1999969-0.5,0.3000031
		c-0.0999985,0.1999969,0,0.5,0.0999985,0.6000061c0.3000031,0.3999939,0.6999969,0.8000031,1,1.1999969
		c1,1.1000061,1.4000015,2.1999969,1.3000031,3.6999969c0,0.3999939-0.1999969,1.1000061-0.5999985,0.6999969
		c-0.4000015-0.3000031-0.5-0.8999939-0.6999969-1.3999939s-0.4000015-0.8999939-0.6999969-1.3000031
		c-0.3000031-0.3999939-0.9000015-1-1.4000015-1c-0.1999969,0-0.3000031,0.1000061-0.1999969,0.3000031
		c-0.4000015-0.1000061-0.5999985,0.6999969-1,0.8999939c-0.8000031-0.6000061-1.5999985-1.3000031-2.5-1.8000031
		c-0.6999969-0.3999939-1.4000015-0.8000031-2.1999969-1.1999969c-1.6999969-0.8000031-3.3000031-0.3999939-5.0999985-0.3999939
		h-0.5999985l-0.6999969,0.1000061l-0.6999969,0.1000061l-0.6999969,0.1000061l-0.5999985,0.1000061l-0.5999985,0.1000061
		l-0.5999985,0.1000061l-0.5999985,0.1000061l-0.5999985,0.1000061l-0.5999985,0.3000031l-0.4000015,0.1000061L61,143
		l-0.7000008-0.6000061L59.5999985,142l-1-0.3000031l-1-0.1000061L58,141.1999969L59,141l1.2999992-0.3000031l1.5-0.3000031
		l1.5-0.3000031l1.2999992-0.3000031l1-0.3999939L66.1999969,139L65,139.1000061l-1.2000008,0.1000061h-1.2000008h-1.2000008
		h-1.2000008H59h-1l-1-0.1000061l0.0999985-0.6999969L57,137.8000031l-0.4000015-0.6000061L56,136.5999908l1-0.1000061
		l0.9000015,0.1000061l1,0.1000061l1,0.3999939l1,0.3000031l1,0.3000031l1,0.1000061l1-0.1000061l-0.5999985-0.3999939
		l-0.5999985-0.3999939l-0.7000008-0.3999939l-0.7000008-0.3999939l-0.7000008-0.3000031l-0.7000008-0.3000031L59,135.2000122
		l-0.9000015-0.1000061l0.5999985-0.3999939l0.4000015-0.6999969v-0.8000031L59,132l0.5999985,0.6000061l0.7000008,0.6000061
		L61,133.6000061l0.7000008,0.3000031l0.7000008,0.3000031l0.9000015,0.3000031l0.9000015,0.3000031l0.9000015,0.3999939
		l0.4000015-0.6000061l0.5999985-0.3999939l0.6999969-0.1000061H67.5l0.6999969,0.1000061l0.6999969,0.3000031l0.6999969,0.6000061
		l0.5999985,0.6999969l1-0.3000031l0.9000015-0.3999939l1-0.3999939L74,134l0.9000015-0.6000061l0.6999969-0.6000061
		l0.5999985-0.6999969l0.5999985-0.6999969L76.3999939,131l-0.6999969-0.3999939l-0.9000015-0.3000031l-1-0.3000031l-1-0.3000031
		l-1-0.3000031l-1-0.3000031l-0.9000015-0.3999939l-0.5999985-0.3999939l-0.6999969-0.5999985L68,127.1000061l-0.4000015-0.5999985
		l-0.4000015-0.5999985l-0.4000015-0.6999969l-0.0999985-0.6999969l-0.0999985-0.6999969l0.0999985-0.5999985l0.0999985-0.5999985
		l0.4000015-0.5999985l0.4000015-0.5999985L68,120.8000259l0.4000015-0.5999985l0.3000031-0.6999969l0.3000031-0.5999985
		l-1.9000015,0.0999985l-2.1999969,0.4000015l-2.2999992,0.5999985l-2.5999985,0.6999969l-2.5999985,1l-2.7999992,0.8000031
		l-2.5,0.8000031l-2.5,0.8000031v1v1l-0.2999992,1.0999985l-0.2999992,1.0000076l-0.4000015-0.8000031l-0.2999992-0.6999969
		l-0.5999985-0.6999969l-0.5999985-0.4000015l0.2999992-0.6999969l0.2999992-0.5999985l0.0999985-0.6999969l0.2999992-0.6999969
		l-0.9000015-0.4000015l-0.9000015,0.0999985l-0.9000015,0.6999969l-0.7000008,0.8000031l-1,1.9000015l-0.9000015,1.5
		l-0.7000008,1.4000015l-0.9000015,1.1999969l-1,1.1000061l-1,1.1999969l-1.2999992,1.3999939
		c-0.4000015,0.3999939-1.5,1.1999969-1.5999985,1.8000031c-0.2000008,0.8999939,1.4000015,1.1999969,1.9000015,1.3999939
		c0.5999985,0.1999969,1.2999992,0.3000031,2,0.3999939c0.4000015,0,0.7000008,0.1000061,1,0.1999969
		c0.4000015,0.1000061,0.9000015,0,1.4000015,0.1000061c0,0.3999939-0.0999985,0.8000031-0.2000008,1.1999969
		c-0.2000008,0.6000061-0.2000008,1.1999969-0.4000015,1.6999969c1,0.1000061,1.5999985,0.6999969,2.2000008,1.1999969
		c0.5999985,0.6000061,1.2000008,1.1999969,1.7000008,1.8000031c-0.5-0.1000061-1.0999985-0.3000031-1.5999985-0.3999939
		c-0.7000008-0.1000061-1.4000015-0.3000031-2.0999985-0.5c-0.2000008-0.1000061-1-0.3999939-1.2000008-0.3000031
		c-0.2000008,0.1999969,0.0999985,0.6000061-0.0999985,0.8000031c-0.4000015,0.5-1.2999992-0.3999939-1.5999985-0.6999969
		c-0.7000008-0.6000061-1.4000015-1.1000061-2.0999985-1.6999969c-0.5-0.3999939-0.7999992-0.8999939-1.2000008-1.5
		c-0.0999985-0.1999969-0.2999992-0.5-0.5-0.6999969c-0.2999992-0.3000031,0.0999985-0.1000061-0.4000015-0.3000031
		c-0.4000015-0.1000061-1.4000015-0.1999969-1.7999992,0c-0.4000015,0.1000061-0.4000015,0.5-0.5,0.8999939l-0.5999985,0.6000061
		l-0.7000008,0.3999939l-0.7000008,0.3000031l-1.5,0.1000061l-0.8999996,0.1000061l-0.7000008,0.1000061H27l-0.6000004,0.6999969
		L26,143l-0.8999996,0.1000061l-0.7000008,0.1000061H23.5h-0.7000008l-0.7000008,0.1000061l-0.7000008,0.3000031
		l0.1000004-0.6999969l-0.1000004-0.6000061l-0.3999996-0.3999939l-0.6000004-0.3999939h1h0.8999996l0.8999996-0.1000061
		l0.7000008-0.1000061l0.7000008-0.1000061l0.7000008-0.1000061l0.8999996-0.3000031L27.0999985,140.5l0.2999992-0.3999939
		l0.1000004-0.3000031l-0.3999996-0.3999939l-0.6000004-0.3000031h-0.7000008l-0.8999996,0.1000061l-0.7000008,0.1000061h-0.8999996
		l-0.7000008,0.1000061h-0.7000008l-0.7000008-0.1000061l-0.7000008-0.3000031l-0.6000004,0.1000061l-0.3999996,0.3000031L19,140
		l-0.2999992,0.6000061v-1l-0.2999992-0.8000031l-0.2999992-0.6999969l-0.6000004-0.6999969l0.8999996,0.1000061
		l0.8999996,0.1000061l1,0.1000061l1,0.1000061l0.8999996,0.1000061h1l1,0.1000061l0.8999996,0.1000061L24.5,137.5000458
		l-0.7000008-0.3999939l-0.7000008-0.3999939l-0.7000008-0.3000031l-0.8999996-0.3000031l-1-0.1000061l-0.8999996-0.1000061
		l-1-0.1000061l1-0.3000031l0.8999996-0.6000061l0.3999996-0.6999969l0.2999992-1l0.7000008,0.6000061l0.6000004,0.3000031
		l0.7000008,0.3000031l0.7000008,0.3000031l0.7000008,0.1000061l0.7000008,0.3000031l0.7000008,0.3000031l0.7000008,0.3999939
		l0.7000008-0.1000061H28l0.6000004-0.1000061l0.6000004-0.3000031l0.3999996-0.1000061l0.6000004-0.3000031l0.3999996-0.3999939
		l0.6000004-0.3000031L31.5,133.1000214l0.7000008-0.6000061l1-0.3000031L34.5,131.9000092l-0.0999985-1.1000061v-1.1000061
		l0.4000015-0.8000031l0.7000008-0.6000061l-0.2999992-0.8000031V127l0.4000015-0.6999969l0.9000015-0.5999985l-0.5999985-1
		l-0.0999985-0.8000031l0.4000015-1l0.9000015-1l-0.7000008,0.4000015l-0.7000008,0.4000015L35,123l-0.7000008,0.0999985h-0.9000015
		h-0.7000008L32,123l-0.7000008-0.3000031L31.3999996,123.5l-0.1000004,0.8000031L31,125.1000061l-0.2999992,0.6999969
		l-0.2999992,0.8000031l-0.3999996,0.8000031l-0.6000004,0.6999969l-0.3999996,0.6999969l-0.6000004,0.6000061l-0.6000004,0.3999939
		l-0.7000008,0.3000031L26.5,130.4000092l0.3999996-0.6999969l0.2999992-0.6999969l0.2999992-0.6999969l0.1000004-0.6999969V127
		v-0.6999969v-0.6999969l-0.1000004-0.6999969l-1.2999992-1.4000015l-1.2000008-1.4000015l-1-1.1999969l-1.2000008-1.1999969
		l-0.8999996-1.1999969l-1-1.1999969L20,116l-0.8999996-1.1999969l-0.7000008-1.1999969l-0.7000008-1.3000031l-0.7000008-1.4000015
		L16.3999977,109.5l-0.6000004-1.5l-0.3999996-1.6999969l-0.6000004-1.6999969l-0.3999996-1.9000015l-0.8999996,1.0999985
		l-0.6999998,1.0999985L12.1999979,106l-0.3999996,1.1999969l-0.6000004,1.1999969l-0.3000002,1.0999985l-0.6000004,1l-0.3999996,1
		v-0.6999969l-0.1000004-0.6999969V109.5v-0.5999985l-0.1000004-0.5999985V108l-0.1000004-0.5999985l-0.1000004-0.5999985
		l0.3999996-0.6999969l0.3999996-0.8000031L10.699995,104.5l0.3000002-0.8000031L11.3999949,103l0.3000002-0.8000031
		l0.3999996-0.8000031l0.3000002-0.6999969l-0.6000004-1.4000015l-0.3999996-1.4000015L11,96.4000015l-0.1000004-1.5
		l-0.3000002-1.6999969l-0.3000002-1.5L10,90.3000031L9.3000002,89l0.8999996-0.0999985l0.8999996-0.3000031l0.6000004-0.6999969
		l0.6999998-1v1l0.1000004,1l0.1000004,1l0.1000004,0.8000031l0.3000002,0.8000031l0.3999996,0.6999969l0.3999996,0.6999969
		l0.3999996,0.4000015l0.1000004-1l0.3000002-1l0.1000004-1v-1l0.1000004-1l-0.1000004-1l-0.3000002-1l-0.3999996-1l1,0.0999985
		l0.8999996-0.0999985l1.000001-0.4000015l0.8999996-0.6999969l-0.2999992,1.4000015l-0.1000004,1.0999985v0.8000031
		l0.1000004,0.6999969V89l0.1000004,0.8000031v1l-0.1000004,1.4000015l0.2999992-0.8000031l0.2999992-0.5999985l0.2999992-0.5999985
		L19,90l0.2999992-0.4000015L19.5999985,89l0.1000004-0.5999985v-0.6999969l0.3999996,1l0.6000004,0.6999969L21.3999996,90
		l0.8999996,0.3000031L21.8999996,91l-0.6000004,0.6999969l-0.6000004,0.6999969L20.2000008,93l-0.6000004,0.5L19,94.0999985
		l-0.7000008,0.6999969l-0.7000008,0.5999985l0.3999996,1.0999985l0.2999992,1.0999985l0.3999996,1.0999985l0.3999996,1.0999985
		l0.2999992,1.1999969l0.2999992,1.0999985l0.1000004,1.3000031l0.1000004,1.1999969l1.2999992,0.6999969l1.2000008,0.6999969
		l1.2999992,0.8000031l1.2000008,0.6999969l1.2000008,1l1.2000008,0.8000031l1,1l0.8999996,1.0999985l0.3999996-0.3000031
		v-0.4000015v-0.8000031l-0.1000004-0.8000031l-0.2999992-1v-1l0.2999992-1l0.6000004-0.8000031l-0.1000004-0.5999985
		l-0.1000004-0.5999985v-0.6999969l0.1000004-0.6999969l0.1000004-0.6999969l0.2999992-0.6999969l0.3999996-0.4000015
		l0.6000004-0.3000031l-0.1000004-0.5999985l-0.1000004-0.8000031V98.399971l0.1000004-0.8000031l0.1000004-1l0.3999996-0.6999969
		l0.4000015-0.6999969l0.7000008-0.5999985L32.7999992,94v-0.6999969L32.8999977,92.5l0.2999992-0.8000031l0.4000015-0.8000031
		L34,90.2999954l0.5999985-0.5999985l0.7000008-0.0999985V89l0.0999985-0.6999969L35.4999962,87.5l0.0999985-0.6999969
		l0.4000015-0.5999985l0.2999992-0.5999985l0.4000015-0.3000031L37.0999985,85L37,84.3000031L37.0999985,83.5v-0.6999969
		l0.2999992-0.6999969l0.2999992-0.6999969l0.4000015-0.6999969l0.5999985-0.5999985l0.7000008-0.5999985l-0.7000008-0.3000031
		l-0.5999985-0.0999985h-0.7000008L37,79.6999969L36.2999992,80.5l-0.4000015,0.8000031l-0.5999985,1l-0.4000015,1.0999985
		l-0.5999985-0.5999985l-0.5999985-0.6999969l-0.2999992-0.6999969l-0.0999985-1L33,81.3000031l-0.4000015,0.8000031
		l-0.2999992,0.8000031L32,83.8000031L31.8999996,84.5l-0.2999992,0.8000031L31.3999996,86v0.5999985L31,85.8000031L30.7000008,85
		l-0.2999992-1l-0.2999992-1L30,82v-1l0.1000004-1l0.1000004-1L31.5,78.6999969l1.5-0.3000031l1.2999992-0.4000015
		l1.2999992-0.5999985l1.2999992-0.4000015l1.2999992-0.4000015l1.2000008-0.4000015l1.2999992-0.0999985l-0.0999985-0.8000031
		l-0.4000015-0.6999969l-0.4000015-0.8000031l-0.7000008-0.6999969l-0.7000008-0.5999985l-0.7000008-0.4000015l-0.9000015-0.3000031
		l-0.9000015-0.0999985l-1,0.4000015L34,72.6999969l-1,0.6999969L32,74l-0.6000004,0.4000015L30.6999989,74.5L30,74.5999985
		L29.3999996,74.5l-1-1l-0.7000008-0.8000031L27,71.8000031l-0.2999992-1h-9l1.2999992-1L20.6000004,69l1.7000008-0.8000031
		L24.2000008,67.5l2-0.5999985l2.2000008-0.5999985l2.2000008-0.4000015l2.2000008-0.0999985l0.0999985-0.6999969
		l0.4000015-0.4000015l0.4000015-0.4000015l1-0.3000031l1.2999992-0.2999992l1.2999992-0.0999985h1.2999992l1.2999992,0.0999985
		l1.2999992,0.0999985L42.5,63.8999977l1.2999992,0.0999985l1.2999992,0.2999992l0.2000008-1l0.4000015-1l0.9000015-0.7000008L48,61
		l1.2000008-0.5999985L50.5,59.7000008l1.2999992-0.5999985L53,58.4000015l0.2999992,0.7000008l-0.2999992,1l-0.2999992,1
		l-0.0999985,1l1.2000008-0.2999992l1.2000008-0.5999985l0.9000015-0.7000008l0.9000015-0.7999992l0.4000015,0.5999985
		l0.0999985,0.7000008v0.5999985L57,62l-0.2999992,0.5999985l-0.2999992,0.5l-0.0999985,0.5999985v0.4000015L56.6000023,64.5
		l0.5999985,0.3000031l0.4000015,0.3000031l-0.0999985,0.6999969L56,66.3000031l-1,0.5999985l-0.5999985,0.4000015L54,67.9000015
		l-0.2999992,0.4000015l-0.0999985,0.5999985L53.3000031,69.5L52.9000015,70l0.7000008,0.0999985L54.5000038,70.5
		l0.9000015,0.4000015L56.3000069,71.5l0.9000015,0.6999969l0.5999985,0.6999969l0.5999985,0.8000031l0.2999992,1L58,74.5
		l-0.7000008-0.3000031l-0.5999985-0.3000031l-0.5999985-0.3000031l-0.7000008-0.0999985l-0.5999985-0.0999985l-0.4000015,0.0999985
		L54,73.5999985l0.0999985,0.6999969l0.0999985,0.5999985v0.5999985l-0.0999985,0.4000015L55,76.2999954l0.9000015,0.5999985
		l0.7000008,0.5999985l0.7000008,0.8000031l0.5999985,0.6999969l0.4000015,0.8000031l0.4000015,0.8000031l0.4000015,0.8000031l-1-1
		l-1-0.4000015l-0.7000008-0.0999985h-0.5999985L55.4000015,80L55,80.0999985h-0.4000015L54.0999985,80v0.5999985L54,81.3000031
		v0.8000031l-0.2999992,0.8000031l0.9000015,0.3000031l0.7000008,0.4000015l0.9000015,0.5999985l0.7000008,0.8000031
		l0.5999985,0.8000031l0.5999985,0.8000031l0.5999985,0.8000031L59,88.1000214l-1-0.8000031l-1-0.4000015l-1-0.0999985h-0.7000008
		l-0.7000008,0.0999985H54l-0.5999985-0.0999985L53,86.5l-0.2999992,0.6999969l-0.0999985,0.6999969l-0.0999985,0.8000031
		L52.4000053,89.5l0.5999985,0.0999985l0.4000015,0.3000031l0.5999985,0.3000031l0.7000008,0.4000015l0.5999985,0.5999985
		l0.7000008,0.5999985L56.7000046,92.5l0.7000008,1l-0.9000015-0.3000031l-1-0.1999969l-0.5999985,0.0999985l-0.5999985,0.0999985
		l-0.5999985,0.4000015l-0.4000015,0.3000031c-0.2999992,0.1999969-0.7999992,0.4000015-1.2000008,0.4000015
		c0.2999992,0.8000031,0.0999985,2,0.7000008,2.6999969c0.7000008,0.8000031,1.9000015,0.5999985,2.7999992,0.5999985
		c1,0,1.4000015-0.3000031,2.2999992-0.5999985c1-0.3000031,1.2999992-0.9000015,2.2000008-1.5
		c1.2000008-0.8000031,2.9000015-1.8000031,3.4000015-3.1999969c0.4000015-0.9000015,0.2999992-1.8000031,0.5-2.6999969
		c0.3000031-1.4000015,0.6999969-2.6999969,0.9000015-4.1999969l0.3000031-1.8000031l0.5999985-1.5l0.5999985-1.6999969
		l1.1999969-1.5l1.3000031-1.4000015l1.5999985-1.4000015l1.6999969-1.4000015l1.9000015-1.4000015l1.9000015-1.1999969
		l2.1999969-1.1999969l2.1999969-1.1999969l2-1.0999985l2.1999969-1.0999985l2.1999969-1.0999985l2-1.0999985l2-1.0999985
		l1.9000015-1l1.6999969-1.0999985l1.5-1l-0.4000015,2.5L95.4000015,66v1.6999969L95.5,69.0999985l0.4000015,1.0999985
		l0.6999969,0.5999985l1,0.4000015l1.3000031,0.0999985L100.5,71.1999969l1.8000031-0.4000015L104.5,70.1999969l2.5-0.8000031
		l2.8000031-0.8000031l3.0999985-1.0999985l3.5-1.0999985l3.8000031-1.1999969l-1.1999969,2.1999969l-1.9000015,1.9000015
		l-2.1999969,1.9000015L113,73l-1.5,1.5l-0.3000031,1.5L112.5,77.5l3.1999969,1.1999969l-2.8000031,1.0999985l-3.0999985,1.5
		l-2.8000031,1.9000015l-2.3000031,2.1999969l-1.5999985,2.4000015l-0.5999985,2.8000031l0.6999969,2.8000031l2.5,3
		l-1.6999969-0.3000031l-1.5-0.0999985h-1.1999969h-1l-1,0.0999985l-0.9000015,0.3000031l-1,0.3000031l-1.1999969,0.5999985
		l1.9000015,0.5999985L100,98.7000046l1.5999985,0.8000031l1.6999969,1.0999985l1.5999985,1l1.9000015,0.8000031
		l2.1999969,0.6999969l2.3000031,0.4000015h1.1999969l1-0.0999985l0.9000015-0.3000031l0.9000015-0.3000031L116.1999969,102.5
		l0.6999969-0.4000015L117.5999908,101.5l0.6999969-0.4000015l-1.1999969,0.3000031H116h-1.1999969l-1.1999969-0.3000031
		l-1-0.3000031l-1-0.5999985l-1-0.5999985l-0.9000015-0.8000031l-0.6999969-0.6999969l-0.4000015-0.6999969l-0.3000031-0.6999969
		L108,95.9000015l-0.0999985-0.6999969v-0.8000031v-1l0.0999985-1l0.4000015-0.6999969l0.4000015-0.8000031l0.4000015-0.6999969
		l0.6999969-0.6999969l0.6999969-0.6999969l0.6999969-0.5999985l0.9000015-0.5999985l1-0.4000015l1.5999985-0.0999985l1.5-0.0999985
		l1.5,0.0999985l1.5,0.3000031l1.5,0.4000015l1.3000031,0.6999969l1.1999969,0.8000031l1.1999969,1.0999985l0.3000031-0.5999985
		l0.3000031-0.8000031l0.0999985-0.6999969L125.5,87.5000153v-0.8000031l0.0999985-0.8000031v-0.8000031L125.5,84.3000031
		l-0.9000015,0.3000031l-0.9000015,0.3000031l-0.9000015,0.3000031l-0.9000015,0.0999985l-0.9000015,0.0999985l-0.9000015,0.0999985
		l-0.9000015-0.0999985l-0.9000015-0.0999985l1.9000015-1.9000015l1.9000015-1.9000015l1.6999969-2.0999985l1.6999969-1.9000015
		l1.5999985-2.0999985l1.5999985-2.0999985l1.6000061-2.1999969l1.5-2.1999969v2.8000031v2.8000031l0.1000061,2.8000031
		L132,79.9000244l0.3999939,2.5999985l0.3999939,2.5999985l0.6999969,2.5L134.6000061,90z"/>
	<path id="path1117_8_" class="st1" d="M20.5,87.4000015L20.5,87.4000015l0.1000004,1L21,89l0.6000004,0.4000015L22.5,89.8000031
		L22.6000004,89l0.1000004-1l-0.1000004-0.8000031L22.5,86.3999939l-0.2999992-0.8000031l-0.3999996-0.8000031L21,84
		l-0.8999996-0.6999969l0.2999992,1.0999985l0.1000004,1v1V87.4000015z"/>
	<path id="path1121_8_" class="st2" d="M20.5,87.4000015L20.5,87.4000015l0.1000004,1L21,89l0.6000004,0.4000015L22.5,89.8000031
		L22.6000004,89l0.1000004-1l-0.1000004-0.8000031L22.5,86.3999939l-0.2999992-0.8000031l-0.3999996-0.8000031L21,84
		l-0.8999996-0.6999969l0.2999992,1.0999985l0.1000004,1v1V87.4000015"/>
	<path id="path1125_8_" class="st1" d="M99,143.3000031L99,143.3000031l0.3000031,0.6000061l0.3000031,0.3999939v0.3999939
		l-0.3000031,0.6000061L98.6000061,145l-0.5999985-0.1000061l-0.6999969,0.3000031L96.7000122,145.5l0.3000031-0.8000031
		l0.4000015-0.6000061l0.6999969-0.3999939L99,143.3000031z"/>
	<path id="path1129_8_" class="st2" d="M99,143.3000031L99,143.3000031l0.3000031,0.6000061l0.3000031,0.3999939v0.3999939
		l-0.3000031,0.6000061L98.6000061,145l-0.5999985-0.1000061l-0.6999969,0.3000031L96.7000122,145.5l0.3000031-0.8000031
		l0.4000015-0.6000061l0.6999969-0.3999939L99,143.3000031"/>
	<path id="path1133_8_" class="st1" d="M95.5,138.8999939L95.5,138.8999939L95.9000015,139.5L96,140.1999969v0.6000061
		l-0.4000015,0.3999939l-0.9000015-0.3000031h-0.9000015L93,141l-0.9000015,0.6000061L92.5,140.5l0.6999969-0.8000031
		l0.9000015-0.6000061L95.5,138.8999939z"/>
	<path id="path1137_8_" class="st2" d="M95.5,138.8999939L95.5,138.8999939L95.9000015,139.5L96,140.1999969v0.6000061
		l-0.4000015,0.3999939l-0.9000015-0.3000031h-0.9000015L93,141l-0.9000015,0.6000061L92.5,140.5l0.6999969-0.8000031
		l0.9000015-0.6000061L95.5,138.8999939"/>
	<path id="path1141_8_" class="st1" d="M97.5999985,134.6999969L97.5999985,134.6999969l0.0999985,0.6000061l-0.0999985,0.6000061
		l-0.3000031,0.6999969l-0.4000015,0.6000061l-0.6999969-0.3999939L95.5,136.7000122h-0.9000015l-0.9000015,0.1000061
		l0.9000015-0.6999969l1-0.6999969L96.5,135.0000305L97.5999985,134.6999969z"/>
	<path id="path1145_8_" class="st2" d="M97.5999985,134.6999969L97.5999985,134.6999969l0.0999985,0.6000061l-0.0999985,0.6000061
		l-0.3000031,0.6999969l-0.4000015,0.6000061l-0.6999969-0.3999939L95.5,136.7000122h-0.9000015l-0.9000015,0.1000061
		l0.9000015-0.6999969l1-0.6999969L96.5,135.0000305L97.5999985,134.6999969"/>
	<path id="path1149_8_" class="st1" d="M58.7000008,132.3999939L58.7000008,132.3999939L59,133.0999908v0.6999969l-0.2999992,0.5
		l-0.2999992,0.6000061L58,134.5999908l-0.5999985-0.3000031l-0.5999985-0.3000031l-0.5999985-0.1000061l-0.5999985-0.1000061H55
		h-0.5999985l-0.5999985,0.1000061l0.4000015-0.3999939l0.5999985-0.3000031l0.5999985-0.3000031L56,132.5999756
		l0.5999985-0.1000061l0.5999985-0.1000061H58L58.7000008,132.3999939L58.7000008,132.3999939z"/>
	<path id="path1153_8_" class="st2" d="M58.7000008,132.3999939L58.7000008,132.3999939L59,133.0999908v0.6999969l-0.2999992,0.5
		l-0.2999992,0.6000061L58,134.5999908l-0.5999985-0.3000031l-0.5999985-0.3000031l-0.5999985-0.1000061l-0.5999985-0.1000061H55
		h-0.5999985l-0.5999985,0.1000061l0.4000015-0.3999939l0.5999985-0.3000031l0.5999985-0.3000031L56,132.5999756
		l0.5999985-0.1000061l0.5999985-0.1000061H58L58.7000008,132.3999939"/>
	<path id="path1157_8_" class="st1" d="M55.7999992,137.3999939L55.7999992,137.3999939l0.4000015,0.3000031l0.0999985,0.3999939
		l0.0999985,0.3999939v0.6000061l-1-0.3000031h-0.9000015l-0.9000015,0.3000031l-0.9000015,0.3999939l0.4000015-0.8000031
		l0.5999985-0.6999969l0.9000015-0.3999939L55.7999992,137.3999939z"/>
	<path id="path1161_8_" class="st2" d="M55.7999992,137.3999939L55.7999992,137.3999939l0.4000015,0.3000031l0.0999985,0.3999939
		l0.0999985,0.3999939v0.6000061l-1-0.3000031h-0.9000015l-0.9000015,0.3000031l-0.9000015,0.3999939l0.4000015-0.8000031
		l0.5999985-0.6999969l0.9000015-0.3999939L55.7999992,137.3999939"/>
	<path id="path1165_8_" class="st1" d="M58,142.1999969L58,142.1999969h0.7000008l0.7000008,0.1000061l0.7000008,0.3999939
		L60.7000008,143H60h-0.5999985l-0.5999985,0.1000061h-0.5999985l-0.4000015,0.1000061l-0.5999985,0.1000061l-0.4000015,0.1000061
		l-0.5999985,0.3000031l0.0999985-0.6000061l0.2999992-0.6000061l0.5999985-0.3000031L58,142.1999969z"/>
	<path id="path1169_8_" class="st2" d="M58,142.1999969L58,142.1999969h0.7000008l0.7000008,0.1000061l0.7000008,0.3999939
		L60.7000008,143H60h-0.5999985l-0.5999985,0.1000061h-0.5999985l-0.4000015,0.1000061l-0.5999985,0.1000061l-0.4000015,0.1000061
		l-0.5999985,0.3000031l0.0999985-0.6000061l0.2999992-0.6000061l0.5999985-0.3000031L58,142.1999969"/>
	<path id="path1173_8_" class="st1" d="M20,142.1999969L20,142.1999969l0.3999996,0.1000061l0.2999992,0.3000031v0.6000061
		v0.6999969l-1.2000008-0.1000061h-0.8999996l-1,0.3999939l-1.2000008,0.6000061l0.3999996-1l0.7000008-0.6999969l1-0.3999939
		L20,142.1999969z"/>
	<path id="path1177_8_" class="st2" d="M20,142.1999969L20,142.1999969l0.3999996,0.1000061l0.2999992,0.3000031v0.6000061
		v0.6999969l-1.2000008-0.1000061h-0.8999996l-1,0.3999939l-1.2000008,0.6000061l0.3999996-1l0.7000008-0.6999969l1-0.3999939
		L20,142.1999969"/>
	<path id="path1181_8_" class="st1" d="M17.7999992,140.3000031L17.7999992,140.3000031L17.1999989,140l-0.3999996-0.3000031
		h-0.6000004l-0.6000004-0.1000061H15l-0.6000004,0.1000061L13.6999998,140L13,140.3000031l0.6000004-1.1000061L14.5,138.3999939
		L15.6999998,138l1.1999998-0.3000031l0.7000008,0.6999969L18,139l0.1000004,0.6999969L17.7999992,140.3000031z"/>
	<path id="path1185_8_" class="st2" d="M17.7999992,140.3000031L17.7999992,140.3000031L17.1999989,140l-0.3999996-0.3000031
		h-0.6000004l-0.6000004-0.1000061H15l-0.6000004,0.1000061L13.6999998,140L13,140.3000031l0.6000004-1.1000061L14.5,138.3999939
		L15.6999998,138l1.1999998-0.3000031l0.7000008,0.6999969L18,139l0.1000004,0.6999969L17.7999992,140.3000031"/>
	<path id="path1189_8_" class="st1" d="M20.7999992,133.1999969L20.7999992,133.1999969l-0.3999996,1l-0.6000004,0.6999969
		l-0.6000004,0.5L18.2999992,135.5l-0.8999996-0.1000061h-0.7000008l-0.6999998,0.3000031l-1,0.3999939l0.6000004-0.6999969
		l0.5999994-0.5l0.7000008-0.6000061L17.5,133.9999847l0.8999996-0.3999939l0.7000008-0.1000061L20,133.3999786
		L20.7999992,133.1999969z"/>
	<path id="path1193_8_" class="st2" d="M20.7999992,133.1999969L20.7999992,133.1999969l-0.3999996,1l-0.6000004,0.6999969
		l-0.6000004,0.5L18.2999992,135.5l-0.8999996-0.1000061h-0.7000008l-0.6999998,0.3000031l-1,0.3999939l0.6000004-0.6999969
		l0.5999994-0.5l0.7000008-0.6000061L17.5,133.9999847l0.8999996-0.3999939l0.7000008-0.1000061L20,133.3999786
		L20.7999992,133.1999969"/>
	<path id="path1197_8_" class="st1" d="M17.6000004,84.3000031L17.6000004,84.3000031v-0.6999969L17.5,83l-0.2999992-0.5l-0.5-0.5
		L16,81.4000015l-0.6999998-0.3000031l-1-0.4000015L13,80.5999985l0.8999996,0.5999985L14.5,81.7999954l0.3999996,0.5999985
		l0.3000002,0.5999985v0.6999969V84l-0.3000002,0.5999985l-0.3000002,0.5999985l0.6999998,0.0999985l0.6999998-0.0999985
		l0.6999998-0.4000015L17.6000004,84.3000031z"/>
	<path id="path1201_8_" class="st2" d="M17.6000004,84.3000031L17.6000004,84.3000031v-0.6999969L17.5,83l-0.2999992-0.5l-0.5-0.5
		L16,81.4000015l-0.6999998-0.3000031l-1-0.4000015L13,80.5999985l0.8999996,0.5999985L14.5,81.7999954l0.3999996,0.5999985
		l0.3000002,0.5999985v0.6999969V84l-0.3000002,0.5999985l-0.3000002,0.5999985l0.6999998,0.0999985l0.6999998-0.0999985
		l0.6999998-0.4000015L17.6000004,84.3000031"/>
	<path id="path1205_8_" class="st1" d="M11.6999998,86.8000031L11.6999998,86.8000031l-0.1000004-0.6999969l-0.3000002-0.4000015
		l-0.3999996-0.4000015l-0.6000004-0.4000015l-0.6000004-0.0999985l-0.8999996-0.0999985H8H7.0999999l1.5000005,0.6999969
		L9.5,86.2000046l0.1000004,1L9.5,88.3000031l0.6000004,0.0999985L10.5,88.0999985L11.1000004,87.5L11.6999998,86.8000031z"/>
	<path id="path1209_8_" class="st2" d="M11.6999998,86.8000031L11.6999998,86.8000031l-0.1000004-0.6999969l-0.3000002-0.4000015
		l-0.3999996-0.4000015l-0.6000004-0.4000015l-0.6000004-0.0999985l-0.8999996-0.0999985H8H7.0999999l1.5000005,0.6999969
		L9.5,86.2000046l0.1000004,1L9.5,88.3000031l0.6000004,0.0999985L10.5,88.0999985L11.1000004,87.5L11.6999998,86.8000031"/>
	<path id="path1213_8_" class="st1" d="M35.2000008,73L35.2000008,73L36.5,73.0999985l1,0.8000031L37.7999992,75
		l-0.9000015,1.0999985L35,77l-1.9000015,0.5999985L30.8999996,78l-2.2999992,0.0999985h-2.2999992L24,77.9000015
		l-2.2999992-0.0999985l-2.2999992-0.4000015l-0.2999992,1v0.8000031l0.3999996,0.8000031l0.6000004,1l-1.6000004-1.0999985
		l-1.6000004-1.1999969l-1.5-1.1999969L14.1000004,76l-1.1999998-1.4000015L12,73l-0.8999996-1.5L10.5,69.6999969
		l0.6999998,0.5999985l1.1999998,0.6999969l1.3999996,0.5999985l1.6000004,0.4000015L17,72.5999908l1.5,0.3000031
		l1.2999992,0.3000031h0.8999996l-0.1000004,0.6999969l-0.1000004,0.5999985v0.4000015l0.1000004,0.3000031l1.5,0.4000015
		l1.6000004,0.0999985h1.8999996l1.8999996-0.0999985l2-0.3000031l2-0.5999985L33.3999977,74L35.2000008,73z"/>
	<path id="path1217_8_" class="st2" d="M35.2000008,73L35.2000008,73L36.5,73.0999985l1,0.8000031L37.7999992,75
		l-0.9000015,1.0999985L35,77l-1.9000015,0.5999985L30.8999996,78l-2.2999992,0.0999985h-2.2999992L24,77.9000015
		l-2.2999992-0.0999985l-2.2999992-0.4000015l-0.2999992,1v0.8000031l0.3999996,0.8000031l0.6000004,1l-1.6000004-1.0999985
		l-1.6000004-1.1999969l-1.5-1.1999969L14.1000004,76l-1.1999998-1.4000015L12,73l-0.8999996-1.5L10.5,69.6999969
		l0.6999998,0.5999985l1.1999998,0.6999969l1.3999996,0.5999985l1.6000004,0.4000015L17,72.5999908l1.5,0.3000031
		l1.2999992,0.3000031h0.8999996l-0.1000004,0.6999969l-0.1000004,0.5999985v0.4000015l0.1000004,0.3000031l1.5,0.4000015
		l1.6000004,0.0999985h1.8999996l1.8999996-0.0999985l2-0.3000031l2-0.5999985L33.3999977,74L35.2000008,73"/>
	<path id="path1221_8_" class="st2" d="M95.1999969,66L95.1999969,66l-2.9000015,1.1999969l-2.8000031,1.1999969
		l-2.5999985,1.1999969L84.5999985,71l-2.1999969,1.1999969l-2.1999969,1.4000015L78.4000015,75l-1.6999969,1.4000015L75,77.8000031
		l-1.5,1.4000015L72,80.5999985l-1.1999969,1.5L69.6000061,83.5l-1,1.5l-0.9000015,1.5L67,88.0999985l1.1999969-1.4000015L69.5,85.5
		l1.3000031-1.4000015l1.5999985-1.1999969l1.5-1.1999969l1.6999969-1.0999985l1.6999969-1.0999985l1.9000015-1.0999985l2-1.0999985
		l2-1l2.1999969-1l2.3000031-0.8000031l2.5-0.8000031l2.5-0.8000031L95.5,72.2000046l2.8000031-0.6999969l0.9000015-0.0999985
		l0.6999969-0.0999985l0.9000015-0.0999985l0.9000015-0.0999985l0.6999969-0.0999985l0.9000015-0.0999985L104,70.8000183
		l0.9000015-0.0999985L103,71.5000229l-1.9000015,0.8000031L99.1999969,73l-1.9000015,0.8000031l-1.9000015,0.8000031L93.5999985,75
		l-1.9000015,0.8000031L90,76.6999969L88.3000031,77.5l-1.6999969,0.8000031l-1.5999985,1l-1.6999969,1l-1.5999985,1l-1.5,1
		l-1.5,1.0999985l-1.5,1.0999985l2-0.8000031l2.1999969-0.8000031l2.1999969-0.8000031l2.1999969-0.5999985l2-0.6999969
		L90,80.1999969l2.1999969-0.5999985L94.5,79.1999969l2.1999969-0.4000015l2.1999969-0.3000031l2.1999969-0.3000031
		l2.3000031-0.3000031l2.3000031-0.0999985l2.1999969-0.0999985l2.3000031-0.0999985H112.5l0.6999969,0.3000031l0.5999985,0.0999985
		l0.6999969,0.3000031l0.6999969,0.3000031L114.2999878,79l-0.9000015,0.4000015l-0.9000015,0.4000015l-0.6999969,0.4000015
		l-0.9000015,0.4000015L110,81l-0.6999969,0.5999985L108.4000015,82h-2.3000031l-2.1999969,0.0999985l-2.1999969,0.0999985
		l-2.1999969,0.0999985l-2.1999969,0.0999985l-2.1999969,0.3000031l-2,0.0999985l-2.1999969,0.3000031l-2,0.4000015l-2,0.4000015
		L85,84.3000031l-2,0.4000015l-1.9000015,0.5999985L79.1999969,86l-1.9000015,0.6999969l-1.6999969,0.6999969l1.6999969-0.0999985
		H79h2l1.6999969,0.0999985l1.6999969,0.0999985l1.6999969,0.0999985l1.6999969,0.0999985l1.5999985,0.3000031l1.6999969,0.4000015
		L93,89l1.5999985,0.4000015L96.2999954,90l1.5999985,0.5999985l1.5999985,0.6999969l1.6999969,0.6999969l1.5999985,0.8000031
		l0.6999969,0.8000031l0.5999985,0.8000031l0.6999969,0.8000031l0.5999985,0.8000031l-1-0.0999985l-0.9000015-0.0999985h-1
		l-1-0.0999985l-1.5999985-0.8000031L98.4000015,94l-1.5999985-0.6999969l-1.5999985-0.5999985l-1.5-0.5999985l-1.5999985-0.4000015
		l-1.5999985-0.4000015L89,91.0999985l-1.5999985-0.3000031l-1.5999985-0.0999985l-1.5999985-0.0999985h-1.5999985L81,90.4000015
		h-1.5999985L77.8000031,90.5h-1.5999985l2.5,0.6999969l2.5999985,1.0999985l2.5999985,1.0999985L86.5,94.7999954l2.5,1.6999969
		l2,1.8000031l1.6999969,1.8000031L94,102.1999969L95,104l1.1999969,1.6999969l1.1999969,1.5l1.5,1.4000015l1.5999985,1.1999969
		l1.5999985,1.1999969l1.9000015,1.1999969l1.9000015,1.0999985l2.5,1l2,1.1999969l1.3000031,1.1999969l1,1.5l0.6999969,1.5
		l0.5999985,1.5l0.4000015,1.6999969l0.5999985,1.6999969l-0.6999969-1.6999969l-0.6999969-1.6999969l-0.9000015-1.5
		l-0.9000015-1.4000015l-1.3000031-1.1999969l-1.5-1l-1.9000015-0.8000031l-2.1999969-0.6999969l-2.1999969-0.4000015
		L100.5,113.4999847l-2-0.8000031l-2-1l-1.9000015-1.4000015l-1.6999969-1.4000015l-1.5999985-1.8000031l-1.5999985-2.0999985
		l-2.1999969-2.5l-2.1999969-2.1999969L83,98.5999985l-2.3000031-1.5l-2.3000031-1.1999969L76,95l-2.5-0.5999985L71,94.3000031
		l2.5,1.5l2,1.8000031l1.5999985,1.8000031l1.3000031,1.9000015l0.9000015,2.0999985l0.5999985,2.1999969l0.4000015,2.1999969
		L80.6000061,110l-1.1999969-1.9000015l-1.1999969-1.9000015l-1.1999969-1.8000031l-1.1999969-1.8000031l-1.5-1.5l-1.5-1.4000015
		l-1.6999969-1L69.5,98l0.9000015,1.4000015l0.4000015,1.8000031l0.0999985,1.9000015l-0.0999985,2.1999969l-0.0999985,2.4000015
		l-0.3000031,2.1999969l-0.0999985,2.4000015L70.2000046,114.5l-0.4000015-1.8000031L69.5,110.7999954l-0.4000015-1.8000031
		l-0.3000031-1.8000031l-0.4000015-1.9000015l-0.3000031-1.8000031l-0.4000015-1.8000031L67,99.8000031L65,100.5l-1.5,1.4000015
		l-0.9000015,1.9000015L62,106l-0.4000015,2.5l-0.2999992,2.5999985l-0.2999992,2.5l-0.5999985,2.1999969L60,114.0999985
		l-0.4000015-1.8000031l-0.2999992-1.8000031l-0.0999985-1.8000031L59,107v-1.9000015l0.2999992-1.9000015l0.4000015-2.0999985
		l-1,0.6999969l-0.9000015,0.8000031l-0.7000008,1.0999985l-0.7000008,1.0999985l-0.7000008,1.1999969l-0.5999985,1.4000015
		l-0.5999985,1.5l-0.4000015,1.6999969L53.5,109.1999893l-0.4000015-1.5v-1.5l0.0999985-1.5l0.4000015-1.6999969l0.5999985-1.5
		l0.7000008-1.4000015l1-1.4000015l-3.0999985,1l-2.2000008,1L49,101.4999924l-1,0.6999969l-0.7000008,0.6999969
		l-0.7000008,0.6999969L46,104.2999802l-1,0.5999985v-1.4000015l0.2999992-1.4000015l0.5999985-1.0999985l0.9000015-1.0999985l1-1
		l1.2999992-0.8000031l1.5-0.8000031l1.5-0.8000031"/>
	<path id="path1225_8_" class="st3" d="M89.4000015,106.1999969L87.5,106.7999954l-1.5999985,0.6999969l-1.3000031,0.8000031
		l-1.1999969,1L82.5,110.4999924l-0.5999985,1.1999969l-0.4000015,1.5l-0.3000031,1.6999969l-0.3000031-0.3000031
		l-0.3000031-0.4000015l-0.4000015-0.3000031l-0.3000031-0.3000031l0.6999969-1.6999969l0.9000015-1.5l0.9000015-1.0999985
		l1.1999969-1l1.3000031-0.8000031l1.5-0.5999985l1.5-0.5999985L89.4000015,106.1999969z"/>
	<path id="path1229_8_" class="st3" d="M91.3000031,109.5l-1.5999985,0.4000015l-1.5,0.5999985l-1.1999969,0.8000031l-1,0.8000031
		l-0.6999969,1.0999985l-0.5999985,1.0999985l-0.4000015,1.4000015l-0.0999985,1.4000015l-0.3000031-0.3000031L83.6000061,116.5
		l-0.3000031-0.3000031L83,116l0.5999985-1.5l0.6999969-1.1999969l1-1l1-1l1-0.6999969l1.3000031-0.4000015l1.1999969-0.4000015
		L91.3000031,109.5z"/>
	<path id="path1233_8_" class="st3" d="M105,114.5l-1.1999969,0.6999969L102.9000015,116l-0.6999969,1l-0.4000015,0.8000031
		L101.5,118.9000015l-0.0999985,1L101.5,121l0.3000031,1.0999985L101.4000015,122l-0.0999985-0.0999985L101,121.8000031
		l-0.4000015-0.0999985v-1.1999969l0.0999985-1.0999985l0.4000015-1l0.4000015-1l0.6999969-0.8000031l0.6999969-0.6999969
		l1-0.6999969L105,114.5z"/>
	<path id="path1237_8_" class="st3" d="M107.6999969,115.5999985l-1,0.6999969l-0.9000015,0.8000031l-0.5999985,0.8000031
		l-0.4000015,0.8000031l-0.3000031,1v1v1l0.3000031,1.0999985l-0.4000015-0.0999985l-0.0999985-0.0999985l-0.3000031-0.0999985
		l-0.3000031-0.0999985v-1.0999985l0.0999985-1.0999985l0.3000031-1l0.5999985-0.8000031l0.5999985-0.6999969l0.6999969-0.8000031
		l0.9000015-0.5999985L107.6999969,115.5999985z"/>
	<path id="path1241_8_" class="st3" d="M112.6999969,118.1999969l-1.3000031,0.0999985l-1.1999969,0.4000015l-1,0.4000015
		l-0.9000015,0.5l-0.6999969,0.8000031L107,121.2000046l-0.4000015,1l-0.4000015,1.0999985L106.0999985,123L106,122.6999969
		l-0.3000031-0.3000031l-0.0999985-0.3000031l0.5999985-1.0999985l0.9000015-0.8000031l0.6999969-0.6999969l0.9000015-0.5
		l1-0.4000015l1-0.3000031l1-0.0999985L112.6999969,118.1999969z"/>
	<path id="path1245_8_" class="st3" d="M86.8000031,118L88,117.5999985l1.1999969-0.4000015l1.1999969-0.5999985l1-0.6999969
		l0.9000015-0.8000031l0.9000015-0.8000031l0.9000015-1l0.9000015-1l-0.5999985,1l-0.6999969,1l-0.5999985,1l-0.9000015,1
		l-0.9000015,0.8000031l-1,0.8000031l-1.1999969,0.8000031l-1.3000031,0.6999969L87.7000046,119l-0.3000031-0.3000031
		l-0.0999985-0.4000015L86.8000031,118z"/>
	<path id="path1249_8_" class="st3" d="M66.6999969,126.4000015L67.8999939,126l1.1999969-0.4000015L70.2999878,125l1-0.6999969
		L72.1999893,123.5l0.9000015-0.8000031l0.9000015-1l0.9000015-1l-0.5999985,1l-0.6999969,1l-0.5999985,1l-0.9000015,1
		L71.1999969,125.5l-1,0.8000031L69,127.1000061l-1.3000031,0.6999969l-0.0999985-0.4000015l-0.3000031-0.3000031
		l-0.0999985-0.4000015L66.6999969,126.4000015z"/>
	<path id="path1253_8_" class="st3" d="M92.8000031,120.5l1-0.6999969l0.9000015-0.6999969l0.6999969-0.8000031l0.6999969-1
		l0.5999985-1l0.5999985-1l0.5999985-1.0999985l0.4000015-1.0999985l-0.3000031,1.0999985l-0.3000031,1l-0.3000031,1.0999985
		l-0.4000015,1l-0.5999985,1.0999985L95.7999878,119.5l-0.9000015,1l-0.9000015,1.0999985l-0.3000031-0.4000015
		l-0.3000031-0.3000031l-0.4000015-0.0999985L92.8000031,120.5z"/>
	<path id="path1257_8_" class="st3" d="M72.8000031,129.6000061l1-0.6999969l0.9000015-0.6999969l0.6999969-0.8000031l0.6999969-1
		l0.5999985-1l0.5999985-1l0.5999985-1.0999985l0.4000015-1.0999985l-0.3000031,1.0999985l-0.3000031,1l-0.3000031,1.0999985
		l-0.4000015,1l-0.5999985,1.0999985l-0.5999985,1.0999985l-0.9000015,1l-0.9000015,1.1000061l-0.3000031-0.3999939
		l-0.3000031-0.3000031l-0.4000015-0.1000061L72.8000031,129.6000061z"/>
	<path id="path1261_8_" class="st2" d="M79.8000031,108.5999985L79.8000031,108.5999985L78.2000046,108.5h-1.3000031
		l-1.3000031,0.0999985l-1.3000031,0.3000031L73.0999985,109.5l-1,0.8000031l-1,0.8000031l-1,1.1999969l-1.1999969-0.5999985
		l-1-0.3000031l-1.1999969-0.0999985l-1-0.0999985l-1,0.0999985l-1,0.3000031l-1,0.3000031l-1,0.5"/>
	<path id="path1265_8_" class="st2" d="M96.5,97.1999969L96.5,97.1999969L96,97.5999985L95.4000015,98L95,98.3000031
		l-0.4000015,0.4000015l-0.4000015,0.4000015l-0.3000031,0.5999985v0.8000031v1"/>
	<path id="path1269_8_" class="st2" d="M59.5999985,113.3000031L59.5999985,113.3000031l-1-0.4000015l-0.9000015-0.3000031
		h-0.9000015l-0.7000008,0.0999985l-0.7000008,0.4000015l-0.5999985,0.5999985l-0.5999985,0.6999969l-0.5999985,1
		l-1.2999992-0.6999969L51,114.3999939h-1.2999992l-1.2999992,0.4000015l-1.2999992,0.8000031l-1.5,1.0999985l-1.2999992,1.5
		l-1.5,1.9000015l-0.5999985,0.5999985l-0.5999985,0.5999985l-0.7000008,0.4000015L40.2000046,122l-0.7000008,0.0999985
		l-0.9000015,0.0999985h-0.9000015l-1-0.0999985"/>
	<path id="path1273_8_" class="st2" d="M52.9000015,70L52.9000015,70l-1.5,0.6999969L51.1000023,71.5v1.0999985l0.2999992,1.0999985
		l1.2999992,0.6999969l0.0999985,0.6999969l-0.4000015,0.6999969l-0.7000008,0.8000031l0.7000008,0.8000031l0.0999985,0.8000031
		l-0.4000015,0.6999969l-1,0.5l0.2999992,1l-0.2999992,0.6999969l-0.5999985,0.4000015l-1,0.3000031L49,82.4000015
		l-0.7000008,0.4000015l-0.7000008,0.0999985l-0.9000015-0.5999985l-0.9000015,0.8000031l-1,0.3000031l-1-0.3000031
		l-1.2000008-0.5999985L40.7999992,84l-0.4000015,1.0999985l0.7000008,0.8000031L43,86.5999985l0.7000008,0.6999969
		l0.5999985,0.6999969l0.2999992,0.5999985l0.0999985,0.6999969v0.5999985l-0.0999985,0.6999969l-0.4000015,0.5999985
		l-0.5999985,0.5999985L44.5,92.3999786l0.4000015,0.8000031L45,94l-0.2999992,0.8000031l-0.5999985,0.8000031l-0.5999985,0.8000031
		L42.7999992,97l-0.7000008,0.3000031l0.5999985,1L43,99v0.6999969l-0.0999985,0.5999985L42.5,100.6999969l-0.5999985,0.4000015
		L41.5,101.5l-0.5999985,0.4000015l0.2999992,0.6999969L41.5,103.1999969l0.0999985,0.6999969l0.0999985,0.5999985v0.6999969
		l-0.0999985,0.6999969l-0.2999992,0.5999985l-0.4000015,0.6999969l0.9000015,0.5999985l0.5999985,0.6999969l0.2999992,0.6999969
		l0.0999985,0.6999969l-0.0999985,0.8000031l-0.2999992,0.8000031l-0.5999985,0.8000031l-0.9000015,0.8000031l-2.2999992,1.1999969
		l-2.2000008,0.8000031l-2.2999992,0.4000015h-2.2999992L29.5,115.1999817l-2.2000008-0.8000031L25,113.2999802
		l-2.2999992-1.6999969l-0.3999996-1.4000015l0.2999992-1.0999985L23.5,108.3999863l1.6000004-0.4000015"/>
	<path id="path1277_8_" class="st2" d="M43.2999992,91.6999969L43.2999992,91.6999969L42.0999985,92l-1,0.3000031h-1h-1
		L38.2000008,92l-0.9000015-0.4000015l-0.9000015-0.6999969L35.7000008,90"/>
	<path id="path1281_8_" class="st2" d="M42.0999985,96.9000015L42.0999985,96.9000015l-1.5,0.3000031l-1.2999992,0.3000031
		h-1.2000008H37l-1.2000008-0.3000031l-1.2000008-0.4000015l-1-0.6999969l-1-0.8000031"/>
	<path id="path1285_8_" class="st2" d="M41,102L41,102l-1.5,0.3000031l-1.2999992,0.3000031H37h-1.2000008l-1.2000008-0.3000031
		l-1.2000008-0.4000015l-1-0.6999969l-1-0.8000031"/>
	<path id="path1289_8_" class="st2" d="M41.5999985,106.8000031L41.5999985,106.8000031l-1.7000008,0.4000015l-1.5999985,0.3000031
		l-1.5999985,0.0999985l-1.5-0.0999985l-1.5-0.3000031l-1.5-0.5999985l-1.2999992-0.6999969l-1.2000008-1.0999985"/>
	<path id="path1293_8_" class="st3" d="M36.2000008,69.0999985L36.2000008,69.0999985l1-0.0999985h0.9000015l0.9000015-0.0999985h1
		h0.9000015l1,0.0999985l1,0.3000031l1,0.4000015l-1.2000008-0.4000015L42,69.0999985h-0.7000008l-0.4000015,0.3000031
		l-0.2999992,0.4000015l-0.4000015,0.4000015l-0.2999992,0.6999969l-0.2999992,0.6999969l-0.4000015-0.8000031l-1-0.6999969L37,69.5
		L36.2000008,69.0999985z"/>
</g>
<g>
	<path id="path1297_8_" class="st0" d="M28.7000008,253.5v1.1999969c0,3.5000153-0.5,5.0999908-2.5,5.0999908
		c-2.6000004,0-2.6000004-2.8999939-2.6000004-9.5v-0.5c0-6.3000031,0-9,2.6000004-9c1.8999996,0,2.5,1.6000061,2.6000004,5.1999969
		h6.0000019v-0.3000031c0-6.8999939-2.8999996-10.3000031-8.7000008-10.3000031
		c-3.3999996,0-5.7999992,1.1999969-7.2999992,3.6999969c-1.2999992,2.1000061-1.5,5.8000031-1.5,11.1999969
		s0.2000008,9.0000153,1.5,11.1999969c1.5,2.5,3.8999996,3.7000122,7.3999996,3.7000122
		c5.8999996,0,8.6000004-3.3999939,8.6000004-10.1999969c0-0.5,0-0.8999939,0-1.3999939h-6.1000004
		C28.7000008,253.6000061,28.7000008,253.5,28.7000008,253.5z"/>
	<path id="path1301_8_" class="st0" d="M42.5999985,264.3999939h6.2999992v-12l6.0999985-16.3000031h-6.7000008l-2.5999985,9
		l-2.5999985-9h-6.7000008l6.0999985,16.3000031v12H42.5999985z"/>
	<path id="path1305_8_" class="st0" d="M57.5999985,264.3999939h5.7999992l-0.5-21.8999939l4.2000008,21.8999939h4.6999969
		L75.9999924,242.5l-0.5,21.8999939h5.8000031v-28.3000031h-8.5999985L70.4000015,248
		C70.3000031,248.5,70,250.8000031,69.5,254.6999969c-0.5-4-0.8000031-6.1999969-0.8000031-6.6000061L66.3000031,236h-8.7000008
		L57.5999985,264.3999939L57.5999985,264.3999939z"/>
	<path id="path1309_8_" class="st0" d="M86.4000015,236.1000061h7c3.5,0,5.9000015,0.1999969,7.5,1.5
		C102.5,239,103.2000046,240.9000092,103.2000046,243.5c0,3.1999969-1,5.3999939-3.3000031,6.8000031
		c2.9000015,1.3999939,2.9000015,3.1999969,3,6.5999908c0.0999985,3.7000122-0.0999985,6.1000061,1.5,7.5h-7.3000031
		c-0.3000031-1.2000122-0.5-2.5-0.5-3.8999939c0-1.2000122,0.0999985-2.2000122,0.0999985-2.8999939
		c0-3.3000031-0.5999985-4.5-2.9000015-4.5h-1.3000031v11.2999878h-6.0999985
		C86.4000015,264.3999939,86.4000015,236.1000061,86.4000015,236.1000061z M93.3000031,247.8999939c2.5,0,3.5-1,3.5-3.6000061
		c0-2.3999939-1-3.3999939-3.5-3.3999939c-0.1999969,0-0.5,0-0.8000031,0v6.8999939
		C92.8000031,247.8999939,93,247.8999939,93.3000031,247.8999939"/>
	<path id="path1313_8_" class="st0" d="M107.6999969,236.1000061v15.1999969c0,4.6999969,0.0999985,7.9999847,1.3000031,10.3000031
		c1.3000031,2.5,3.5,3.5,7,3.5c3.6999969,0,6.0999985-1.1000061,7.4000015-3.7000122c1-2,1.0999985-4.2999878,1.0999985-7.1999969
		v-18.1000061h-6.1999969v18.1000061c0,3.5999908,0,5.5999908-2.0999985,5.5999908s-2.1999969-2-2.1999969-6V236h-6.3000031
		C107.6999969,236,107.6999969,236.1000061,107.6999969,236.1000061z"/>
</g>
</svg>
