<?xml version="1.0" encoding="iso-8859-1"?>
<!-- Generator: Adobe Illustrator 23.0.1, SVG Export Plug-In . SVG Version: 6.00 Build 0)  -->
<svg version="1.1" id="Layer_1" xmlns="http://www.w3.org/2000/svg" xmlns:xlink="http://www.w3.org/1999/xlink" x="0px" y="0px"
	 viewBox="0 0 141.7322845 286.2992249" style="enable-background:new 0 0 141.7322845 286.2992249;" xml:space="preserve">
<g id="Layer_6" style="display:none;">
	<g style="display:inline;">
		<path style="fill:#FFFFFF;" d="M113.3858261,286.2413635H28.3464565C12.7559052,286.2413635,0,273.4854431,0,257.8948975
			V28.4045048C0,12.8139505,12.7559052,0.0580458,28.3464565,0.0580458h85.0393677
			c15.5905533,0,28.3464584,12.7559052,28.3464584,28.3464584v229.490387
			C141.7322845,273.4854431,128.9763794,286.2413635,113.3858261,286.2413635z"/>
	</g>
</g>
<g id="wales" style="display:none;">
	<polyline style="display:inline;fill:none;" points="141.7322845,209.0726166 0,209.0726166 0,205.8156128 
		141.7322845,205.8156128 141.7322845,209.0726166 	"/>
	<polyline style="display:inline;fill:none;" points="141.7322845,209.0726166 0,209.0726166 0,205.8156128 
		141.7322845,205.8156128 141.7322845,209.0726166 	"/>
	<path style="display:inline;fill:#4DB74B;" d="M0,205.8156128V102.8679657h141.7322845v102.9476471
		C129.7365112,205.8156128,12.2550306,205.8156128,0,205.8156128z"/>
	<polygon style="display:inline;" points="141.7322845,209.0726166 0,209.0726166 0,205.8156128 141.7322845,205.8156128 	"/>
	<g style="display:inline;">
		<path id="path1297_8_" d="M28.7327271,249.154068v1.2434082c0,3.5439301-0.4575138,5.0882416-2.5003471,5.0882416
			c-2.6052361,0-2.6052361-2.9033051-2.6052361-9.5368347v-0.5270538c0-6.2559204,0.0349617-8.9709167,2.6052361-8.9709167
			c1.936945,0,2.5353107,1.5841675,2.5702744,5.2406769h6.0226097v-0.2650299c0-6.8596954-2.8879356-10.3269043-8.697773-10.3269043
			c-3.3814125,0-5.8118343,1.2434082-7.2902679,3.6933746c-1.302618,2.1480865-1.4794292,5.8045959-1.4794292,11.1558533
			c0,5.3532562,0.1768112,9.0097656,1.4794292,11.1578369c1.5143948,2.4878235,3.9438171,3.6933899,7.3951569,3.6933899
			c5.8807602,0,8.6278496-3.3546143,8.6278496-10.214325c0-0.4901886,0-0.9435272-0.0349655-1.4317169H28.7327271z"/>
		<path id="path1301_8_" d="M42.5715485,260.1213989h6.3392754v-12.0236511l6.0915375-16.320816h-6.7258644l-2.5702744,8.9709167
			l-2.57127-8.9709167h-6.655941l6.0925369,16.320816V260.1213989z"/>
		<path id="path1305_8_" d="M57.6083794,260.1213989h5.8458023l-0.5284424-21.899231l4.191555,21.899231h4.7169952
			l4.1915588-21.899231l-0.5294418,21.899231h5.8468018v-28.3444672h-8.5928879l-2.3245392,11.947937
			c-0.1048813,0.4901886-0.3865891,2.7518463-0.9499893,6.7481079c-0.5284424-3.9573975-0.775177-6.1821899-0.8451004-6.6335297
			l-2.3594971-12.0625153h-8.6628151V260.1213989z"/>
		<path id="path1309_8_" d="M86.3786087,231.7767944h6.9716034c3.5222626,0,5.8807602,0.1514435,7.4660797,1.5084381
			c1.550354,1.3560028,2.2546082,3.2789154,2.2546082,5.9171753c0,3.2420502-1.0219193,5.3901215-3.275528,6.8228455
			c2.88694,1.3559875,2.9219055,3.2420349,3.0277863,6.5578003c0.105896,3.6565094-0.1408463,6.1064911,1.5153961,7.5381927
			H97.083252c-0.3166656-1.206543-0.4565201-2.4868164-0.4565201-3.9185486c0-1.2434082,0.069931-2.1879272,0.069931-2.9032745
			c0-3.2789154-0.5993652-4.5233154-2.922905-4.5233154h-1.2676544v11.3451385h-6.1274948V231.7767944z M93.2802887,243.6121521
			c2.5353088,0,3.5222626-0.9794006,3.5222626-3.6176605c0-2.4499664-0.9869537-3.3546295-3.5222626-3.3546295
			c-0.2457428,0-0.4924774,0.0368652-0.7741852,0.0368652v6.8985596
			C92.7878113,243.5752869,93.0345459,243.6121521,93.2802887,243.6121521"/>
		<path id="path1313_8_" d="M107.683197,231.7767944v15.2657013c0,4.6747589,0.0699234,7.9905243,1.2686539,10.2531891
			c1.3375778,2.4868164,3.5212631,3.5050659,6.9716034,3.5050659c3.7330399,0,6.0925369-1.0939636,7.3951569-3.6933899
			c0.9859543-1.9617615,1.0558777-4.3359985,1.0558777-7.2373047v-18.0932617h-6.1964264v18.1301422
			c0,3.6196442-0.0349655,5.579422-2.0777969,5.579422c-2.1487198,0-2.2186432-2.0354919-2.2186432-5.9570313v-17.752533H107.683197
			z"/>
	</g>
	<path id="path1101_8_" style="display:inline;fill:#E1293A;" d="M92.9013748,129.882431v-0.1360626l-0.5826874-0.2810516
		l0.5826874,0.5557404V129.882431z"/>
	<path id="path1105_8_" style="display:inline;fill:none;stroke:#16161A;stroke-width:0.6863391;stroke-miterlimit:1;" d="
		M92.9013748,129.882431v-0.1360626l-0.5826874-0.2810516l0.5826874,0.5557404V129.882431z"/>
	<path id="path1109_8_" style="display:inline;fill:#E1293A;" d="M121.6990509,93.8704376l-0.4309616-0.8291397
		l-1.0212936-0.5595474l-1.4560776-0.8265915l-1.0161972-0.1424332l-0.8772202-0.1360703l-0.7242126,0.1360703l-0.7267685,0.1424332
		l-0.7254868,0.1386108l-0.5852432,0.2759552l-0.5801315,0.4120255l-0.5826874,0.4171143l-0.4335098,1.1101837l0.1453552,0.8304138
		l0.4347839,0.8316879l0.7254868,0.6930695l0.875946,0.4120255l1.0161896,0.281044l1.0187531,0.1335297h1.0187454
		l1.0161972-0.1335297l1.0212936-0.4196548l0.870842-0.6905289l0.8695679-0.9690247L121.6990509,93.8704376z
		 M134.6456757,89.9905167l-0.7242279-0.4145737l-0.5852356-0.554451l-0.7242126-0.5506439l-0.7305908-0.5544586
		l-0.7267609-0.6930695l-0.5826874-0.6943436l-0.5801392-0.6905212l-0.4386139-0.8355026l-0.1440735,1.1101837l-0.1415253,1.1101837
		l-0.1479034,1.106369l-0.2932587,1.1051025l-0.2894287,1.1127243l-0.2907104,1.1076431l-0.436058,1.1050949l-0.436058,0.9741135
		l0.5801392,1.6582794l0.2919769,1.6646423l-0.1466217,1.7981644l-0.2894287,1.6621017l-0.7242203,1.8007126l-0.7305908,1.5247498
		l-0.8733902,1.5247574l-1.0161972,1.2424393l-1.3094482,1.3848724l-1.8883209,1.3861389l-2.038765,1.1101837l-2.1841202,1.1038284
		l-2.3243713,0.8316803l-2.3282013,0.5557327l-2.181572,0.4171066l-1.8895874,0.2759628l1.7429657,0.8304062l2.0374908,0.4196625
		l2.1790161,0.1360703l2.1853943,0.2759552l2.0349426,0.6930695l1.7455139,1.1050949l1.167923,1.9418716l0.5775909,3.048233
		l-0.5775909-0.2784958l-0.7318649-0.4171143l-0.5826874-0.4145737l-0.7267609-0.2759552l-0.7280426-0.414566l-0.5801392-0.2785034
		l-0.7267609-0.2784958l-0.5826874-0.1360703l0.1415253,1.3835907v1.5247574v1.5247574v1.5222092v1.3810501l-0.1415253,1.5298462
		l-0.2894363,1.3835907l-0.293251,1.2449799c-0.0777817,0.4400177-0.1466293,0.8762054-0.2690353,1.3034821
		c-0.2715759,0.9397888-0.3366013,1.7816467-0.3366013,2.7621155c0,0.8253174-0.061203,1.4064789,0.7152863,1.8579254
		c0.9090958,0.5264893,1.7034378,0.5633698,2.7489548,0.5633698c0.6451645,0,1.5912323,0.1475067,2.2261963-0.0864716
		c0.2218552-0.0788574,0.3710327-0.2861328,0.6158371-0.2556152c-0.1096497,0.5684357-0.1351471,1.7638245,0.4704895,1.9571228
		c0.7713928,0.2479858,1.5861282-0.0177917,2.3702698,0.3929596c0.7229462,0.3726044,1.4892349,0.7121429,2.099968,1.2691498
		c-1.071022,0.0241547-2.1496887,0-3.2232666,0c-0.9014435,0-1.5504303-0.2365417-1.9099884,0.5836945
		c-0.2537308,0.5735321-0.154274,1.9075317-1.0531693,1.5819855c-0.7344131-0.2657928-1.5568085-0.9639435-2.2032471-1.4013977
		c-0.6502609-0.4374695-1.3528061-0.906723-2.0744705-1.1992035c-1.0633698-0.4349213-2.2121658-0.6282196-3.3622437-0.6167755
		c-0.8988953,0.0076294-2.1496964-0.0686798-2.7795563,0.638382c-0.7522659,0.8469543-1.424202,1.4611664-2.3256454,2.1466064
		l-1.3094559,0.6956177l-1.3081741,0.5531921l-1.453537,0.2759552l-1.3107224,0.273407l-1.4560852,0.4171143l-1.3056259,0.4196625
		l0.142807-0.5557251v-0.5544586l-0.142807-0.414566l-0.4373322-0.6930695h0.5801392h0.7267609l0.5826874-0.1386261
		l0.7267685-0.1398773l0.5826874-0.1386261l0.5826797-0.1373444l0.5826874-0.1386108l0.5801392-0.1360626l-0.1466293-0.4171143
		l-0.1415253-0.2785034l-0.436058-0.1373444l-0.4386139-0.1386108l-0.870842,0.1386108l-0.8746643,0.1373444h-0.8733902h-0.8721237
		h-0.870842h-1.0161972l-0.8772202-0.1373444l-0.870842-0.1386108l0.5801392-0.4145813v-0.6956177l-0.2919846-0.8291321
		l-0.436058-0.9715729l0.8721161,0.1386108l0.7293167,0.2810516l0.8721161,0.414566l0.8733978,0.2759552l0.8721161,0.1386108
		l0.8733902,0.2759552h0.7229462l0.8759384-0.1386108l-0.5826874-0.414566l-0.7267609-0.2785034l-0.5826874-0.414566
		l-0.7267685-0.2785034l-0.7254868-0.2759552l-0.7293167-0.2785034l-0.7216644-0.1360779l-0.733139-0.2759552l0.4386063-0.5557251
		l0.2945328-0.6905212l0.1389771-0.8355103v-0.9677429l0.8772125,0.6930695l1.0174789,0.8316803l1.0161972,0.6905212
		l1.0212936,0.5531921l1.0136414,0.5569916l1.0213013,0.4145813l1.1653748,0.2759552l1.1602707,0.1386108l0.2932587-0.8291473
		l0.4335022-0.8316803l0.4360657-0.6905212l0.4386063-0.8355103l0.5826874-0.6905212l0.436058-0.691803l0.5801392-0.6905212
		l0.5826874-0.6956177l0.2907028-0.8278656l0.2868805-0.6956177v-0.8316803v-0.8265991l-0.1415253-0.8329468l-0.1453552-0.8316879
		l-0.2907028-0.8342285l-0.2919846-0.9690247l-0.436058-0.6930695l-0.4347839-0.5531845l-0.5826874-0.551918l-0.5814133-0.4171143
		l-0.7293167-0.414566l-0.7267609-0.2759552l-0.7267685-0.2785034l-0.8721161-0.2759552l-1.1628189-0.1411514h-1.0161972
		l-1.167923-0.1360779h-1.1628265h-1.1628265l-1.1602783-0.1398849l-1.0238419-0.1386108l-1.1628265-0.2759552l-1.3081741-0.1411591
		l-1.3094559-0.2734146l-1.3094482-0.2784958l-1.1653748-0.4171143l-1.0161972-0.4145737l-1.0187454-0.554451l-0.7242203-0.691803
		l-0.733139-0.8329544l-1.1577225-0.4145737l-1.3094559-0.4171143l-1.3107224-0.6905212l-1.1653748-0.8316879l-1.1628265-0.8304138
		l-1.0161972-0.8291397l-0.7293091-0.9715652l-0.5801392-0.8316879l-0.4386139,1.1127243l-0.7267685,1.1051025l-0.7267609,0.8342285
		l-1.0187454,0.6905212l0.7293091,0.551918l0.7267685,0.6905212l0.436058,0.8316879l0.1466293,0.8329544l1.1641006,0.5557251
		l1.0174713,0.5569992l0.8721085,0.8265991l0.7267685,0.9715729l0.8721161,0.5506439l0.5801392,0.8342209l0.4411621,0.9690323
		l0.1466293,0.8291397l1.3043518,0.4183884l1.3081741,0.414566l1.1653748,0.5506439l1.3094559,0.5544586l1.1628189,0.69561
		l1.1628265,0.8291397l1.1653748,0.8316803l0.2894287,0.2759552l-0.5826874-0.1335144l-0.5775833-0.1424408h-0.5826874h-0.5826874
		h-0.5826874l-0.5801392,0.1424408l-0.4386063,0.1335144l-0.582695,0.6930847l-0.7267609,0.6905212l-0.5788651,0.6956177
		l-0.7267609,0.5519104l-0.7267685,0.6943359l-0.7293167,0.5519104l-0.728035,0.4222107l-0.870842,0.5493622l-1.0213013,0.6930695
		l-1.1628265,0.8316803l-1.3081741,0.8291473l-1.3120041,0.835495l-1.1602707,0.691803
		c-0.55336,0.3306427-1.5784836,0.0673981-1.5070801,0.7884369c0.077774,0.7744598,1.1487961,0.7541199,1.7289352,0.8215179
		c1.3298492,0.1538696,2.552597,0.5137634,3.8391037,0.7426605c-0.154274,0.0496063-0.3978119,0.1767731-0.4653854,0.3382721
		c-0.0739517,0.1704102,0.0420761,0.4819794,0.1377029,0.6282196c0.2715836,0.4196472,0.692337,0.8075104,1.03022,1.1890259
		c0.9894257,1.1127319,1.412735,2.1860352,1.3400574,3.6853485c-0.0242233,0.4450989-0.1568298,1.0529633-0.6030884,0.6790924
		c-0.3901596-0.3255615-0.4998093-0.92453-0.7063675-1.3963165c-0.1976242-0.4501801-0.4092789-0.92453-0.7050858-1.3187408
		c-0.2741318-0.3598938-0.9358749-0.9982758-1.4395065-0.9677582c-0.2091064,0.0114441-0.2664871,0.1462402-0.1938095,0.3242798
		c-0.4437103-0.073761-0.5584564,0.7159576-0.9613724,0.9295959c-0.8491669-0.5836945-1.5772018-1.3110962-2.5003204-1.8401184
		c-0.7152939-0.4107666-1.4369583-0.8418579-2.201973-1.18013c-1.7123642-0.7706451-3.3265457-0.3777008-5.0848083-0.3777008
		h-0.5801392l-0.7293091,0.1386261l-0.7254944,0.1373444l-0.7242126,0.1360626l-0.5826874,0.1424255l-0.5852432,0.1335297
		l-0.5775833,0.143692l-0.5852356,0.1398926l-0.5826874,0.1360626l-0.5801392,0.2759552l-0.4386139,0.1386261l-0.5801392,0.2785034
		l-0.7267647-0.5544586l-0.7280388-0.4145813l-1.0161972-0.2772217l-1.0174713-0.1424255l0.4296875-0.4120331l0.8772163-0.2785034
		l1.3094521-0.2772217l1.4522552-0.2785034l1.4548073-0.2759552l1.3094521-0.2759552l1.0212936-0.414566l0.5801392-0.4171143
		l-1.1628189,0.1411591l-1.1628265,0.1373444h-1.1640968h-1.1653748h-1.1628227h-1.1653786h-1.1628227l-1.0187454-0.1373444
		l0.1479073-0.6956177l-0.1479073-0.5506439l-0.4347839-0.5544586l-0.5839615-0.5557251l1.0187454-0.1398773l0.8746719,0.1398773
		l1.0187454,0.1360779l1.0187454,0.4196472l1.0174713,0.2759552l1.0161972,0.2785034l1.0161972,0.1360779l1.0238495-0.1360779
		l-0.5852394-0.414566l-0.5826874-0.420929l-0.7267647-0.414566l-0.7254906-0.4145813l-0.7293129-0.2810364l-0.7242165-0.2696075
		l-0.8746681-0.2835846l-0.8772202-0.1373444l0.5877876-0.4120331l0.4335098-0.6905212v-0.8367767l-0.1440773-1.2462463
		l0.5826874,0.5557251l0.7267647,0.5570068l0.7305908,0.4120178l0.7216644,0.2785034l0.7293129,0.2797699l0.8721161,0.2759552
		l0.8733978,0.273407l0.8746643,0.4171143l0.436058-0.5544586l0.5801392-0.4120178l0.7267685-0.1437073h0.7293091
		l0.7229462,0.1437073l0.7293091,0.2759552l0.7267685,0.5519104l0.5826874,0.6956177l1.0187454-0.2835846l0.8746719-0.4120331
		l1.0187454-0.4158478l0.7216644-0.5557251l0.8746719-0.5519104l0.7267609-0.5531921l0.5826874-0.6905212l0.5826874-0.6956177
		l-0.436058-0.4171143l-0.7293091-0.4120178l-0.8721161-0.2810516l-1.0161972-0.2759552l-1.0174713-0.2759552l-1.0212936-0.2797699
		l-1.0161972-0.2708588l-0.8746719-0.4196625l-0.5801392-0.4132996l-0.7293091-0.5557327l-0.5801468-0.5569992l-0.436058-0.5531845
		l-0.4411545-0.554451l-0.4322357-0.6905289l-0.1453552-0.6930695l-0.1466293-0.6892548l0.1466293-0.5569992l0.1453552-0.5519104
		l0.4322357-0.5557327l0.4411545-0.5544586l0.436058-0.5557251l0.4335098-0.5519104l0.2932587-0.6956177l0.2945328-0.5506439
		l-1.8985138,0.1360703l-2.1764755,0.4145737l-2.3281975,0.5569992l-2.6163521,0.6905289l-2.6201782,0.9728394l-2.7617073,0.8304138
		l-2.4761047,0.8316803l-2.4722748,0.8291397v0.9690247v0.9690323l-0.2894325,1.1101761l-0.2907066,0.9690247l-0.436058-0.8329468
		l-0.2932549-0.6930771l-0.5788612-0.6879807l-0.5839615-0.4196625l0.2907066-0.6905212l0.2932549-0.5506439l0.1428032-0.6930695
		l0.2881584-0.6956177l-0.8682938-0.414566l-0.8721199,0.1411514l-0.870842,0.6905289l-0.7305908,0.8291397l-1.0161972,1.9380569
		l-0.875946,1.5247498l-0.7242165,1.3886871l-0.8695641,1.2437134l-1.0238495,1.106369l-1.0212936,1.2462616l-1.3043556,1.3861389
		c-0.4233093,0.4425354-1.4739304,1.1852112-1.5810318,1.7828979c-0.1517296,0.8800201,1.3566322,1.1852112,1.9418716,1.4064941
		c0.6298637,0.2327118,1.3196564,0.3255463,1.9852142,0.4247437c0.3506317,0.0495911,0.6770363,0.1042786,1.0276718,0.1754913
		c0.4437065,0.0953827,0.9218407,0.0406952,1.3680992,0.1449738c-0.022953,0.4247437-0.0905266,0.7693634-0.2167511,1.1763
		c-0.1772308,0.5671844-0.1848793,1.1775818-0.3570061,1.7295074c0.952446,0.0521393,1.5593567,0.6549072,2.2198219,1.2437134
		c0.6298637,0.564621,1.1526222,1.1559601,1.6881371,1.800705c-0.535511-0.0521393-1.071022-0.3344574-1.6065331-0.4438171
		c-0.6872406-0.1424255-1.3821259-0.3153839-2.0642662-0.4768829c-0.2269554-0.0572205-1.0263977-0.4107513-1.2252998-0.2785034
		c-0.2358818,0.1538696,0.0854301,0.6333008-0.0701256,0.8215179c-0.4322357,0.5366516-1.3069038-0.4412842-1.5759315-0.6574707
		c-0.7101898-0.5684357-1.4191055-1.1025543-2.0744667-1.7384033c-0.4500809-0.4374542-0.8466187-0.9372253-1.1755714-1.4611664
		c-0.1466255-0.237793-0.3034554-0.4908752-0.5023575-0.6778107c-0.3111115-0.2899475,0.1185799-0.1068115-0.4207611-0.2556
		c-0.4233093-0.1170044-1.3680992-0.1564178-1.7812157-0.0279846c-0.3735809,0.1170044-0.3978043,0.4870605-0.5278625,0.8520355
		l-0.5775909,0.5569916l-0.7267647,0.4145813l-0.7280388,0.2759552l-1.4560776,0.1360626l-0.8721161,0.1424255l-0.7293129,0.1335297
		h-0.7242165l-0.5826893,0.6956177l-0.5814133,0.4171143l-0.870842,0.1386108l-0.7293129,0.1398926h-0.8746643h-0.7242165
		l-0.7280388,0.1335144l-0.7242165,0.2810516l0.1415291-0.6930695l-0.1415291-0.5544586l-0.4386101-0.414566l-0.5877857-0.4196625
		h1.0263958h0.8695679l0.870842-0.1360626l0.730587-0.1373444l0.7267647-0.1386261l0.7242165-0.1411591l0.8746643-0.273407
		l0.8759384-0.2785034l0.2894287-0.4171143l0.1440754-0.2759552l-0.4335041-0.414566l-0.5852375-0.2759552h-0.7293129
		l-0.8721161,0.1373444l-0.7267647,0.1386108h-0.8721142l-0.7267647,0.1386261h-0.7293148l-0.7242146-0.1386261
		l-0.7331371-0.2759552l-0.5775909,0.1373444l-0.438612,0.2772369l-0.2881527,0.4132996l-0.2945347,0.5557251v-0.9690247
		l-0.2881527-0.8291473l-0.2919769-0.6956177l-0.5775909-0.6905212l0.8695679,0.1398773l0.8708401,0.1360779l1.0161934,0.1360626
		l1.0263958,0.1424255l0.8695679,0.1360779h1.0174675l1.0161915,0.1411591l0.8772221,0.1347961l-0.5826874-0.5544586
		l-0.7267647-0.4120331l-0.730587-0.4196625l-0.7216682-0.2759552l-0.8772221-0.2772217l-1.0174675-0.1373444l-0.8746643-0.1360626
		l-1.0161915-0.1449738l1.0161915-0.2696075l0.8746643-0.5569916l0.4373379-0.6905212l0.291975-0.9715729l0.7242165,0.5519104
		l0.5826893,0.2785034l0.7267647,0.2772217l0.7254887,0.2785034l0.7267647,0.1373444l0.7267647,0.2746887l0.7305889,0.2810364
		l0.7242165,0.4094849l0.7293129-0.1335297h0.5801392l0.5852375-0.1360626l0.5788651-0.2835846l0.4398842-0.1373444
		l0.5750332-0.2746887l0.4411602-0.4158478l0.5826874-0.2772217l0.2919769-1.1051025l0.7267628-0.5569916l1.0187531-0.2734222
		l1.3094521-0.2823181l-0.1491737-1.106369v-1.1076355l0.4386101-0.8291473l0.7242165-0.5544586l-0.2881508-0.8316727v-0.6981583
		l0.4398842-0.6905289l0.8695679-0.5506439l-0.5801392-0.9690247l-0.1466255-0.8342285l0.4347878-0.9664841l0.8721161-0.9715652
		l-0.7242165,0.4171143l-0.7254906,0.4158401l-0.7293129,0.2772293l-0.7267647,0.1373367h-0.8746643H32.828434l-0.8695679-0.2759552
		l-0.7267647-0.2784958l0.1440754,0.8304138l-0.1440754,0.8342285l-0.2919769,0.8265915l-0.2932606,0.6930771l-0.2945347,0.8342209
		l-0.4296818,0.8304138l-0.5852356,0.6905212l-0.4360638,0.6930695l-0.5826874,0.5531921l-0.5775909,0.4171143l-0.7254906,0.2759552
		l-0.5852356,0.2759552l0.4335041-0.6879883l0.2945347-0.6930695l0.2907009-0.6956177l0.1440773-0.6905212v-0.6981583v-0.6905289
		v-0.6905212l-0.1440773-0.6930695l-1.3094521-1.3848724l-1.1628284-1.3835983l-1.0212994-1.2475281l-1.1602783-1.246254
		l-0.8746643-1.2475281l-1.0161915-1.2487946l-0.8759384-1.1050949l-0.8695679-1.2475281l-0.7293129-1.2437134l-0.7267647-1.2500687
		l-0.7280388-1.3835983l-0.5775909-1.3848648l-0.5877857-1.5260315l-0.4360628-1.6582794l-0.5801392-1.6595535l-0.4360628-1.9393234
		l-0.870842,1.1050949l-0.7267647,1.1076431l-0.5852365,1.1050949l-0.4360628,1.2475281l-0.5826874,1.2487946l-0.2894278,1.1076431
		l-0.5826883,0.9690247l-0.4335041,0.9664841v-0.6892548l-0.1466255-0.6892548v-0.5569992v-0.5557251l-0.1466255-0.5519104
		v-0.5569992l-0.1440763-0.5531921l-0.1453514-0.5519104l0.4360628-0.6930695l0.4360628-0.8291397l0.4335041-0.8316879
		l0.2932606-0.8329544l0.438611-0.6943436l0.2868795-0.8278656l0.4398851-0.8316879l0.2894278-0.6930695l-0.5826874-1.3861389
		l-0.4335051-1.3835983l-0.438611-1.5222092l-0.1466255-1.5247574l-0.291976-1.6595535l-0.2881536-1.5247498l-0.2894278-1.3835983
		l-0.5826874-1.2500687l0.8721151-0.1360779l0.8733902-0.2810364l0.5788651-0.6879883l0.7293139-0.9728394v0.9728928
		l0.1491642,0.9690323l0.1415272,0.9715652l0.1478996,0.8265991l0.2881632,0.8291397l0.4386024,0.6930695l0.4335136,0.6930695
		l0.4373274,0.4171143l0.1479092-0.9677505l0.2881536-0.9715729l0.1478996-0.9690247v-0.9728394l0.1415281-0.9639435
		l-0.1415281-0.9741135l-0.2919769-0.9677582l-0.4360619-0.9690247l1.0161924,0.1360703l0.8746643-0.1360703l1.0174656-0.4171143
		l0.8721161-0.6905289l-0.2907009,1.3861465l-0.1428032,1.1050949v0.8291397l0.1428127,0.6981583v0.8291397l0.1466351,0.8278732
		v0.9728394l-0.1466255,1.3810501l0.2907009-0.8265915l0.2919769-0.5544586l0.2907028-0.5531845l0.4360619-0.5569992
		l0.2881527-0.4145737l0.2919769-0.554451l0.1466255-0.5506439v-0.6981583l0.4360733,0.9741135l0.5801392,0.6879883
		l0.7293129,0.5557251l0.8772125,0.281044l-0.4411507,0.6905289L21.342989,91.655159l-0.5877838,0.6930695l-0.5801392,0.6930695
		l-0.5826893,0.5480957l-0.5801392,0.5569992l-0.7267647,0.6930695l-0.7254906,0.5531845l0.4335041,1.1076431l0.2919769,1.1076431
		l0.43223,1.1114502l0.4411602,1.1076431l0.2868786,1.246254l0.2932606,1.1076431l0.1466255,1.2500687l0.1428013,1.246254
		l1.3145504,0.6905289l1.1602802,0.6879807l1.3107262,0.8342285l1.1628265,0.6930695l1.1628284,0.9690323l1.1653767,0.8291397
		l1.0136433,0.9690247l0.8733902,1.1127319l0.4360619-0.281044v-0.4171143v-0.8291473l-0.1440754-0.8316803l-0.2919769-0.9664841
		v-0.9715729l0.2919769-0.9690247l0.5801392-0.8291397l-0.1415291-0.5557327l-0.1453514-0.5519104v-0.69561l0.1453514-0.6930771
		l0.1415291-0.6905212l0.2881527-0.6930695l0.4411602-0.4145737l0.5826874-0.2785034l-0.1440754-0.5506363l-0.1491756-0.8329544
		v-0.8316879l0.1491756-0.8291397l0.1440754-0.9741135l0.4360638-0.6905289l0.4360638-0.6930695l0.7242126-0.5531845
		l-0.1440735-0.5519104v-0.6981583l0.1440735-0.8291397l0.2945366-0.8265991l0.4347878-0.8329544l0.4360619-0.5531845
		l0.5852394-0.5569992l0.7254906-0.1335297l-0.1478996-0.8355026l0.1478996-0.6917953l0.1466255-0.8329544l0.1415253-0.6905289
		l0.4411621-0.5531845l0.2881508-0.5569992l0.4386139-0.2734146l0.4335022-0.2797699l-0.1440773-0.6905289l0.1440773-0.835495
		v-0.6892548l0.2932625-0.6905289l0.2894249-0.6930695l0.4386139-0.6930695l0.5775909-0.5544586l0.7267647-0.5506439
		l-0.7267647-0.2784958l-0.5775909-0.1424332h-0.7280388l-0.5852394,0.420929l-0.7242126,0.8265991l-0.433506,0.8316879
		l-0.5877838,0.9690247l-0.433506,1.1050949l-0.5852356-0.5506363L33.7018433,82.23703l-0.2881546-0.6930695l-0.1466255-0.9715729
		l-0.2945328,0.6956177l-0.433506,0.8265915l-0.2907028,0.832962l-0.2894268,0.8367691l-0.1466255,0.6879807l-0.2945347,0.8291397
		l-0.1415272,0.6930695v0.5544586l-0.4360638-0.8329544l-0.2932606-0.8291397l-0.2945347-0.9690247l-0.2881527-0.9702988
		l-0.1415272-0.9715729v-0.9690247l0.1415272-0.9715729l0.1466255-0.9626617l1.3069038-0.2785034l1.4548054-0.281044
		l1.3094521-0.4120255l1.3132744-0.5544586l1.3094521-0.4196548l1.3056297-0.4094849l1.1628304-0.4196548l1.3094521-0.1360703
		l-0.1415291-0.8304138l-0.436058-0.6981583l-0.4411545-0.8291397l-0.7267647-0.6879807L38.21035,72.5378647l-0.7280388-0.4132996
		l-0.8682938-0.2746811l-0.877224-0.1424332l-1.0136414,0.4171143l-0.8733902,0.5569992l-0.877224,0.6905289l-1.0136433,0.5506363
		l-0.5826874,0.4183884l-0.7293148,0.1386108l-0.7242146,0.1335297l-0.5852375-0.1335297l-1.0187511-0.9715729l-0.7254906-0.8265915
		l-0.5775909-0.8316879l-0.2958088-0.9715652h-9.0169849l1.3094521-0.9690247l1.601429-0.8316879l1.748064-0.8291397
		l1.8844852-0.6930695l2.040041-0.5569992l2.1790199-0.5531845l2.1815681-0.4183884l2.1815681-0.133522l0.1440773-0.6930771
		l0.4411583-0.4196548l0.4360657-0.4120255l1.0174675-0.281044l1.3107262-0.2734146l1.3043556-0.1386108h1.3132744
		l1.3094521,0.1386108l1.3069038,0.1373444l1.3081779,0.1360703l1.3094559,0.1436996l1.3069038,0.2734146l0.1504517-0.9690247
		l0.4373322-0.9652138l0.8695679-0.6956139l1.1628227-0.8291397l1.1628227-0.5569992l1.3081779-0.6905289l1.3094521-0.5544548
		l1.1653748-0.6917992l0.2907104,0.6917992l-0.1466331,0.8278656l-0.2907066,0.9741173l-0.1453514,0.96521l1.1666527-0.2708664
		l1.1628227-0.5557289l0.873394-0.6956139l0.8695679-0.8316841l0.4386101,0.5582695l0.1440773,0.6905251v0.5519142
		l-0.2919807,0.5531845l-0.2907066,0.5595436l-0.2894325,0.5480957l-0.1440773,0.5569992v0.4120293l0.2894325,0.4171066
		l0.5826874,0.2759552l0.4347839,0.281044l-0.1466293,0.6930771l-1.4548035,0.5531845l-1.0149231,0.5569992l-0.5826874,0.4094772
		l-0.4335098,0.5531845l-0.2945328,0.420929l-0.1466293,0.5531845l-0.2894325,0.5519104l-0.2907066,0.6956177l0.7267647,0.1411591
		l0.8746681,0.4094849l0.870842,0.4171143l0.8746719,0.5519104l0.8721199,0.6956177l0.5826874,0.6879807l0.5775871,0.8316879
		l0.2932549,0.9741135l-0.5826874-0.2785034l-0.7267647-0.281044l-0.5826912-0.2759552l-0.5801392-0.2797699l-0.7280388-0.1348038
		l-0.5801392-0.1360703l-0.4373322,0.1360703l-0.4335098,0.1348038l0.1389809,0.6981583l0.1466293,0.5531845v0.554451
		l-0.1466293,0.4145737l0.8772163,0.4145737l0.8733978,0.5569992l0.7254906,0.5531845l0.7267647,0.8316803l0.5826874,0.6905289
		l0.4335098,0.8355026l0.4398842,0.8265915l0.4335098,0.8316879l-1.0212936-0.9677582l-1.0123711-0.420929l-0.7280388-0.133522
		h-0.5801392l-0.4386101,0.133522l-0.4347839,0.1424332h-0.436058l-0.4411621-0.1424332v0.5569992l-0.1389923,0.6956177v0.8265991
		l-0.2945366,0.8329544l0.8746719,0.2772293l0.7242165,0.4120255l0.8746681,0.5595398l0.7267647,0.8265991l0.5801353,0.8355026
		l0.5826874,0.8291397l0.5826874,0.8291397l0.2919807,0.69561l-1.0187454-0.8316803l-1.0187454-0.4171143l-0.8746681-0.1373444
		H55.228096l-0.7242165,0.1373444h-0.5801392l-0.5826836-0.1373444l-0.4386139-0.2772293L52.6104622,87.22332l-0.1466255,0.6930695
		l-0.1415253,0.8304138l-0.1466331,0.8291397l0.5801392,0.1411591l0.4373322,0.2734146l0.5839653,0.281044l0.7267647,0.4120255
		l0.5826874,0.5569992l0.7267647,0.5531845l0.7254906,0.6879807l0.7267647,0.9715729l-0.8721199-0.2734146l-0.870842-0.1386108
		l-0.5826874,0.1386108l-0.5826912,0.1360703l-0.5801392,0.4183884c0,0-0.436058,0.2721405-0.436058,0.2746811
		c-0.3391533,0.2136459-0.7726631,0.3560791-1.1653748,0.4158478c0.2779541,0.8494873,0.0548248,2.0181656,0.6795921,2.7290421
		c0.6795883,0.7744598,1.9125366,0.6231232,2.8407593,0.6231232c1.0493469,0,1.3923264-0.3001175,2.3294716-0.5887909
		c1.0225677-0.3153763,1.3273048-0.8660202,2.2032471-1.4548111c1.1985245-0.8024368,2.853508-1.808342,3.4489441-3.2071991
		c0.358284-0.8520279,0.3162079-1.7829056,0.501091-2.671814c0.2855988-1.3988571,0.6974335-2.7493896,0.9435196-4.1584244
		l0.2894287-1.7981644l0.5839615-1.5247574l0.5788651-1.6620941l1.1628189-1.5222092l1.3094559-1.3861465l1.6014328-1.3835983
		l1.7429657-1.3861389l1.8921356-1.3899536l1.8908691-1.2424393l2.1815643-1.246254l2.181572-1.2449875l2.0349426-1.1076431
		l2.1828461-1.1101761l2.1790161-1.1076431l2.0425949-1.1050949l2.0349426-1.1101837l1.8895874-0.9715729l1.7455139-1.1050949
		l1.4548035-0.9741173l-0.436058,2.4963264l-0.2907028,2.212738v1.6646423l0.1440735,1.3861389l0.4386139,1.1127243
		l0.7242126,0.551918l1.0238495,0.4120255l1.3069,0.1360703l1.5963364-0.1360703l1.7506104-0.4120255l2.1790161-0.551918
		l2.4722824-0.8367691l2.7642517-0.8329544l3.0511398-1.1050949l3.493576-1.1076431l3.7804489-1.246254l-1.1628189,2.212738
		l-1.8921432,1.9393234l-2.181572,1.9405975l-1.8908615,1.7981644l-1.4509811,1.527298l-0.2945328,1.5222168l1.3120041,1.5247498
		l3.1977615,1.2475281l-2.7642517,1.1076431l-3.0524139,1.5222092l-2.7617111,1.9405975l-2.3307419,2.2152786l-1.6014328,2.3564377
		l-0.5775909,2.7671967l0.7267685,2.7697372l2.4697266,3.0469666l-1.7455139-0.2721405l-1.4509811-0.1424332h-1.1641006h-1.0200195
		l-1.0187454,0.1424332l-0.8721161,0.2721405l-1.0161972,0.2759552l-1.1653748,0.5569992l1.8908615,0.5531845l1.8946915,0.8329544
		l1.5988846,0.8291473l1.7455063,1.1076355l1.5988846,0.9690323l1.8895874,0.8316803l2.181572,0.6930695l2.3294754,0.4145737
		h1.1628265l1.0161896-0.1335297l0.8733978-0.281044l0.8721161-0.2784958l0.8733902-0.2759628l0.7254944-0.414566
		l0.7293167-0.5557251l0.7267609-0.4132996l-1.1628189,0.2759552h-1.3069077h-1.167923l-1.1628265-0.2759552l-1.0161896-0.2772293
		l-1.0213013-0.5544586l-1.0187454-0.5531845l-0.8695679-0.8304138l-0.7293167-0.69561l-0.4335098-0.6930695l-0.2907028-0.6905289
		l-0.297081-0.8316879l-0.1415253-0.6930695v-0.8316803v-0.9715729l0.1415253-0.9677505l0.4411621-0.6879883l0.436058-0.8329544
		l0.436058-0.6930695l0.7267609-0.6905289l0.7267685-0.69561l0.7305908-0.5506439l0.870842-0.5544586l1.0187454-0.4196548
		l1.5988846-0.1360703l1.4560776-0.1373444l1.4522552,0.1373444l1.4548035,0.2759552l1.4586334,0.4145737l1.3081741,0.69561
		l1.1628265,0.8291397l1.1628265,1.1076431l0.2881546-0.5557251l0.2919846-0.8278732l0.1466217-0.69561l0.2894363-0.8316879
		v-0.8291397l0.1415253-0.8304138V85.281456l-0.1415253-0.8291473l-0.8721237,0.2797775l-0.870842,0.2708664l-0.8721161,0.2785034
		l-0.8746643,0.1411514l-0.8708496,0.1373444l-0.8746643,0.1360703l-0.8733978-0.1360703l-0.8721161-0.1373444l1.8883133-1.9444122
		l1.8921432-1.9342346l1.7455063-2.0766678l1.7455139-1.9405975l1.6014328-2.0779419l1.5988922-2.0766602l1.598877-2.2178268
		l1.4573517-2.2140121v2.7671967v2.7722855l0.146637,2.767189l0.1440735,2.6349411l0.4360504,2.6323929l0.4360657,2.6285782
		l0.7293091,2.493782L134.6456757,89.9905167z"/>
	<path id="path1113_8_" style="display:inline;fill:none;stroke:#16161A;stroke-width:0.6863391;stroke-miterlimit:1;" d="
		M121.6990509,93.8704376l-0.4309616-0.8291397l-1.0212936-0.5595474l-1.4560776-0.8265915l-1.0161972-0.1424332
		l-0.8772202-0.1360703l-0.7242126,0.1360703l-0.7267685,0.1424332l-0.7254868,0.1386108l-0.5852432,0.2759552l-0.5801315,0.4120255
		l-0.5826874,0.4171143l-0.4335098,1.1101837l0.1453552,0.8304138l0.4347839,0.8316879l0.7254868,0.6930695l0.875946,0.4120255
		l1.0161896,0.281044l1.0187531,0.1335297h1.0187454l1.0161972-0.1335297l1.0212936-0.4196548l0.870842-0.6905289
		l0.8695679-0.9690247L121.6990509,93.8704376z M134.6456757,89.9905167l-0.7242279-0.4145737l-0.5852356-0.554451
		l-0.7242126-0.5506439l-0.7305908-0.5544586l-0.7267609-0.6930695l-0.5826874-0.6943436l-0.5801392-0.6905212l-0.4386139-0.8355026
		l-0.1440735,1.1101837l-0.1415253,1.1101837l-0.1479034,1.106369l-0.2932587,1.1051025l-0.2894287,1.1127243l-0.2907104,1.1076431
		l-0.436058,1.1050949l-0.436058,0.9741135l0.5801392,1.6582794l0.2919769,1.6646423l-0.1466217,1.7981644l-0.2894287,1.6621017
		l-0.7242203,1.8007126l-0.7305908,1.5247498l-0.8733902,1.5247574l-1.0161972,1.2424393l-1.3094482,1.3848724l-1.8883209,1.3861389
		l-2.038765,1.1101837l-2.1841202,1.1038284l-2.3243713,0.8316803l-2.3282013,0.5557327l-2.181572,0.4171066l-1.8895874,0.2759628
		l1.7429657,0.8304062l2.0374908,0.4196625l2.1790161,0.1360703l2.1853943,0.2759552l2.0349426,0.6930695l1.7455139,1.1050949
		l1.167923,1.9418716l0.5775909,3.048233l-0.5775909-0.2784958l-0.7318649-0.4171143l-0.5826874-0.4145737l-0.7267609-0.2759552
		l-0.7280426-0.414566l-0.5801392-0.2785034l-0.7267609-0.2784958l-0.5826874-0.1360703l0.1415253,1.3835907v1.5247574v1.5247574
		v1.5222092v1.3810501l-0.1415253,1.5298462l-0.2894363,1.3835907l-0.293251,1.2449799
		c-0.0777817,0.4400177-0.1466293,0.8762054-0.2690353,1.3034821c-0.2715759,0.9397888-0.3366013,1.7816467-0.3366013,2.7621155
		c0,0.8253174-0.061203,1.4064789,0.7152863,1.8579254c0.9090958,0.5264893,1.7034378,0.5633698,2.7489548,0.5633698
		c0.6451645,0,1.5912323,0.1475067,2.2261963-0.0864716c0.2218552-0.0788574,0.3710327-0.2861328,0.6158371-0.2556152
		c-0.1096497,0.5684357-0.1351471,1.7638245,0.4704895,1.9571228c0.7713928,0.2479858,1.5861282-0.0177917,2.3702698,0.3929596
		c0.7229462,0.3726044,1.4892349,0.7121429,2.099968,1.2691498c-1.071022,0.0241547-2.1496887,0-3.2232666,0
		c-0.9014435,0-1.5504303-0.2365417-1.9099884,0.5836945c-0.2537308,0.5735321-0.154274,1.9075317-1.0531693,1.5819855
		c-0.7344131-0.2657928-1.5568085-0.9639435-2.2032471-1.4013977c-0.6502609-0.4374695-1.3528061-0.906723-2.0744705-1.1992035
		c-1.0633698-0.4349213-2.2121658-0.6282196-3.3622437-0.6167755c-0.8988953,0.0076294-2.1496964-0.0686798-2.7795563,0.638382
		c-0.7522659,0.8469543-1.424202,1.4611664-2.3256454,2.1466064l-1.3094559,0.6956177l-1.3081741,0.5531921l-1.453537,0.2759552
		l-1.3107224,0.273407l-1.4560852,0.4171143l-1.3056259,0.4196625l0.142807-0.5557251v-0.5544586l-0.142807-0.414566
		l-0.4373322-0.6930695h0.5801392h0.7267609l0.5826874-0.1386261l0.7267685-0.1398773l0.5826874-0.1386261l0.5826797-0.1373444
		l0.5826874-0.1386108l0.5801392-0.1360626l-0.1466293-0.4171143l-0.1415253-0.2785034l-0.436058-0.1373444l-0.4386139-0.1386108
		l-0.870842,0.1386108l-0.8746643,0.1373444h-0.8733902h-0.8721237h-0.870842h-1.0161972l-0.8772202-0.1373444l-0.870842-0.1386108
		l0.5801392-0.4145813v-0.6956177l-0.2919846-0.8291321l-0.436058-0.9715729l0.8721161,0.1386108l0.7293167,0.2810516
		l0.8721161,0.414566l0.8733978,0.2759552l0.8721161,0.1386108l0.8733902,0.2759552h0.7229462l0.8759384-0.1386108
		l-0.5826874-0.414566l-0.7267609-0.2785034l-0.5826874-0.414566l-0.7267685-0.2785034l-0.7254868-0.2759552l-0.7293167-0.2785034
		l-0.7216644-0.1360779l-0.733139-0.2759552l0.4386063-0.5557251l0.2945328-0.6905212l0.1389771-0.8355103v-0.9677429
		l0.8772125,0.6930695l1.0174789,0.8316803l1.0161972,0.6905212l1.0212936,0.5531921l1.0136414,0.5569916l1.0213013,0.4145813
		l1.1653748,0.2759552l1.1602707,0.1386108l0.2932587-0.8291473l0.4335022-0.8316803l0.4360657-0.6905212l0.4386063-0.8355103
		l0.5826874-0.6905212l0.436058-0.691803l0.5801392-0.6905212l0.5826874-0.6956177l0.2907028-0.8278656l0.2868805-0.6956177
		v-0.8316803v-0.8265991l-0.1415253-0.8329468l-0.1453552-0.8316879l-0.2907028-0.8342285l-0.2919846-0.9690247l-0.436058-0.6930695
		l-0.4347839-0.5531845l-0.5826874-0.551918l-0.5814133-0.4171143l-0.7293167-0.414566l-0.7267609-0.2759552l-0.7267685-0.2785034
		l-0.8721161-0.2759552l-1.1628189-0.1411514h-1.0161972l-1.167923-0.1360779h-1.1628265h-1.1628265l-1.1602783-0.1398849
		l-1.0238419-0.1386108l-1.1628265-0.2759552l-1.3081741-0.1411591l-1.3094559-0.2734146l-1.3094482-0.2784958l-1.1653748-0.4171143
		l-1.0161972-0.4145737l-1.0187454-0.554451l-0.7242203-0.691803l-0.733139-0.8329544l-1.1577225-0.4145737l-1.3094559-0.4171143
		l-1.3107224-0.6905212l-1.1653748-0.8316879l-1.1628265-0.8304138l-1.0161972-0.8291397l-0.7293091-0.9715652l-0.5801392-0.8316879
		l-0.4386139,1.1127243l-0.7267685,1.1051025l-0.7267609,0.8342285l-1.0187454,0.6905212l0.7293091,0.551918l0.7267685,0.6905212
		l0.436058,0.8316879l0.1466293,0.8329544l1.1641006,0.5557251l1.0174713,0.5569992l0.8721085,0.8265991l0.7267685,0.9715729
		l0.8721161,0.5506439l0.5801392,0.8342209l0.4411621,0.9690323l0.1466293,0.8291397l1.3043518,0.4183884l1.3081741,0.414566
		l1.1653748,0.5506439l1.3094559,0.5544586l1.1628189,0.69561l1.1628265,0.8291397l1.1653748,0.8316803l0.2894287,0.2759552
		l-0.5826874-0.1335144l-0.5775833-0.1424408h-0.5826874h-0.5826874h-0.5826874l-0.5801392,0.1424408l-0.4386063,0.1335144
		l-0.582695,0.6930847l-0.7267609,0.6905212l-0.5788651,0.6956177l-0.7267609,0.5519104l-0.7267685,0.6943359l-0.7293167,0.5519104
		l-0.728035,0.4222107l-0.870842,0.5493622l-1.0213013,0.6930695l-1.1628265,0.8316803l-1.3081741,0.8291473l-1.3120041,0.835495
		l-1.1602707,0.691803c-0.55336,0.3306427-1.5784836,0.0673981-1.5070801,0.7884369
		c0.077774,0.7744598,1.1487961,0.7541199,1.7289352,0.8215179c1.3298492,0.1538696,2.552597,0.5137634,3.8391037,0.7426605
		c-0.154274,0.0496063-0.3978119,0.1767731-0.4653854,0.3382721c-0.0739517,0.1704102,0.0420761,0.4819794,0.1377029,0.6282196
		c0.2715836,0.4196472,0.692337,0.8075104,1.03022,1.1890259c0.9894257,1.1127319,1.412735,2.1860352,1.3400574,3.6853485
		c-0.0242233,0.4450989-0.1568298,1.0529633-0.6030884,0.6790924c-0.3901596-0.3255615-0.4998093-0.92453-0.7063675-1.3963165
		c-0.1976242-0.4501801-0.4092789-0.92453-0.7050858-1.3187408c-0.2741318-0.3598938-0.9358749-0.9982758-1.4395065-0.9677582
		c-0.2091064,0.0114441-0.2664871,0.1462402-0.1938095,0.3242798c-0.4437103-0.073761-0.5584564,0.7159576-0.9613724,0.9295959
		c-0.8491669-0.5836945-1.5772018-1.3110962-2.5003204-1.8401184c-0.7152939-0.4107666-1.4369583-0.8418579-2.201973-1.18013
		c-1.7123642-0.7706451-3.3265457-0.3777008-5.0848083-0.3777008h-0.5801392l-0.7293091,0.1386261l-0.7254944,0.1373444
		l-0.7242126,0.1360626l-0.5826874,0.1424255l-0.5852432,0.1335297l-0.5775833,0.143692l-0.5852356,0.1398926l-0.5826874,0.1360626
		l-0.5801392,0.2759552l-0.4386139,0.1386261l-0.5801392,0.2785034l-0.7267647-0.5544586l-0.7280388-0.4145813l-1.0161972-0.2772217
		l-1.0174713-0.1424255l0.4296875-0.4120331l0.8772163-0.2785034l1.3094521-0.2772217l1.4522552-0.2785034l1.4548073-0.2759552
		l1.3094521-0.2759552l1.0212936-0.414566l0.5801392-0.4171143l-1.1628189,0.1411591l-1.1628265,0.1373444h-1.1640968h-1.1653748
		h-1.1628227h-1.1653786h-1.1628227l-1.0187454-0.1373444l0.1479073-0.6956177l-0.1479073-0.5506439l-0.4347839-0.5544586
		l-0.5839615-0.5557251l1.0187454-0.1398773l0.8746719,0.1398773l1.0187454,0.1360779l1.0187454,0.4196472l1.0174713,0.2759552
		l1.0161972,0.2785034l1.0161972,0.1360779l1.0238495-0.1360779l-0.5852394-0.414566l-0.5826874-0.420929l-0.7267647-0.414566
		l-0.7254906-0.4145813l-0.7293129-0.2810364l-0.7242165-0.2696075l-0.8746681-0.2835846l-0.8772202-0.1373444l0.5877876-0.4120331
		l0.4335098-0.6905212v-0.8367767l-0.1440773-1.2462463l0.5826874,0.5557251l0.7267647,0.5570068l0.7305908,0.4120178
		l0.7216644,0.2785034l0.7293129,0.2797699l0.8721161,0.2759552l0.8733978,0.273407l0.8746643,0.4171143l0.436058-0.5544586
		l0.5801392-0.4120178l0.7267685-0.1437073h0.7293091l0.7229462,0.1437073l0.7293091,0.2759552l0.7267685,0.5519104
		l0.5826874,0.6956177l1.0187454-0.2835846l0.8746719-0.4120331l1.0187454-0.4158478l0.7216644-0.5557251l0.8746719-0.5519104
		l0.7267609-0.5531921l0.5826874-0.6905212l0.5826874-0.6956177l-0.436058-0.4171143l-0.7293091-0.4120178l-0.8721161-0.2810516
		l-1.0161972-0.2759552l-1.0174713-0.2759552l-1.0212936-0.2797699l-1.0161972-0.2708588l-0.8746719-0.4196625l-0.5801392-0.4132996
		l-0.7293091-0.5557327l-0.5801468-0.5569992l-0.436058-0.5531845l-0.4411545-0.554451l-0.4322357-0.6905289l-0.1453552-0.6930695
		l-0.1466293-0.6892548l0.1466293-0.5569992l0.1453552-0.5519104l0.4322357-0.5557327l0.4411545-0.5544586l0.436058-0.5557251
		l0.4335098-0.5519104l0.2932587-0.6956177l0.2945328-0.5506439l-1.8985138,0.1360703l-2.1764755,0.4145737l-2.3281975,0.5569992
		l-2.6163521,0.6905289l-2.6201782,0.9728394l-2.7617073,0.8304138l-2.4761047,0.8316803l-2.4722748,0.8291397v0.9690247v0.9690323
		l-0.2894325,1.1101761l-0.2907066,0.9690247l-0.436058-0.8329468l-0.2932549-0.6930771l-0.5788612-0.6879807l-0.5839615-0.4196625
		l0.2907066-0.6905212l0.2932549-0.5506439l0.1428032-0.6930695l0.2881584-0.6956177l-0.8682938-0.414566l-0.8721199,0.1411514
		l-0.870842,0.6905289l-0.7305908,0.8291397l-1.0161972,1.9380569l-0.875946,1.5247498l-0.7242165,1.3886871l-0.8695641,1.2437134
		l-1.0238495,1.106369l-1.0212936,1.2462616l-1.3043556,1.3861389c-0.4233093,0.4425354-1.4739304,1.1852112-1.5810318,1.7828979
		c-0.1517296,0.8800201,1.3566322,1.1852112,1.9418716,1.4064941c0.6298637,0.2327118,1.3196564,0.3255463,1.9852142,0.4247437
		c0.3506317,0.0495911,0.6770363,0.1042786,1.0276718,0.1754913c0.4437065,0.0953827,0.9218407,0.0406952,1.3680992,0.1449738
		c-0.022953,0.4247437-0.0905266,0.7693634-0.2167511,1.1763c-0.1772308,0.5671844-0.1848793,1.1775818-0.3570061,1.7295074
		c0.952446,0.0521393,1.5593567,0.6549072,2.2198219,1.2437134c0.6298637,0.564621,1.1526222,1.1559601,1.6881371,1.800705
		c-0.535511-0.0521393-1.071022-0.3344574-1.6065331-0.4438171c-0.6872406-0.1424255-1.3821259-0.3153839-2.0642662-0.4768829
		c-0.2269554-0.0572205-1.0263977-0.4107513-1.2252998-0.2785034c-0.2358818,0.1538696,0.0854301,0.6333008-0.0701256,0.8215179
		c-0.4322357,0.5366516-1.3069038-0.4412842-1.5759315-0.6574707c-0.7101898-0.5684357-1.4191055-1.1025543-2.0744667-1.7384033
		c-0.4500809-0.4374542-0.8466187-0.9372253-1.1755714-1.4611664c-0.1466255-0.237793-0.3034554-0.4908752-0.5023575-0.6778107
		c-0.3111115-0.2899475,0.1185799-0.1068115-0.4207611-0.2556c-0.4233093-0.1170044-1.3680992-0.1564178-1.7812157-0.0279846
		c-0.3735809,0.1170044-0.3978043,0.4870605-0.5278625,0.8520355l-0.5775909,0.5569916l-0.7267647,0.4145813l-0.7280388,0.2759552
		l-1.4560776,0.1360626l-0.8721161,0.1424255l-0.7293129,0.1335297h-0.7242165l-0.5826893,0.6956177l-0.5814133,0.4171143
		l-0.870842,0.1386108l-0.7293129,0.1398926h-0.8746643h-0.7242165l-0.7280388,0.1335144l-0.7242165,0.2810516l0.1415291-0.6930695
		l-0.1415291-0.5544586l-0.4386101-0.414566l-0.5877857-0.4196625h1.0263958h0.8695679l0.870842-0.1360626l0.730587-0.1373444
		l0.7267647-0.1386261l0.7242165-0.1411591l0.8746643-0.273407l0.8759384-0.2785034l0.2894287-0.4171143l0.1440754-0.2759552
		l-0.4335041-0.414566l-0.5852375-0.2759552h-0.7293129l-0.8721161,0.1373444l-0.7267647,0.1386108h-0.8721142l-0.7267647,0.1386261
		h-0.7293148l-0.7242146-0.1386261l-0.7331371-0.2759552l-0.5775909,0.1373444l-0.438612,0.2772369l-0.2881527,0.4132996
		l-0.2945347,0.5557251v-0.9690247l-0.2881527-0.8291473l-0.2919769-0.6956177l-0.5775909-0.6905212l0.8695679,0.1398773
		l0.8708401,0.1360779l1.0161934,0.1360626l1.0263958,0.1424255l0.8695679,0.1360779h1.0174675l1.0161915,0.1411591
		l0.8772221,0.1347961l-0.5826874-0.5544586l-0.7267647-0.4120331l-0.730587-0.4196625l-0.7216682-0.2759552l-0.8772221-0.2772217
		l-1.0174675-0.1373444l-0.8746643-0.1360626l-1.0161915-0.1449738l1.0161915-0.2696075l0.8746643-0.5569916l0.4373379-0.6905212
		l0.291975-0.9715729l0.7242165,0.5519104l0.5826893,0.2785034l0.7267647,0.2772217l0.7254887,0.2785034l0.7267647,0.1373444
		l0.7267647,0.2746887l0.7305889,0.2810364l0.7242165,0.4094849l0.7293129-0.1335297h0.5801392l0.5852375-0.1360626
		l0.5788651-0.2835846l0.4398842-0.1373444l0.5750332-0.2746887l0.4411602-0.4158478l0.5826874-0.2772217l0.2919769-1.1051025
		l0.7267628-0.5569916l1.0187531-0.2734222l1.3094521-0.2823181l-0.1491737-1.106369v-1.1076355l0.4386101-0.8291473
		l0.7242165-0.5544586l-0.2881508-0.8316727v-0.6981583l0.4398842-0.6905289l0.8695679-0.5506439l-0.5801392-0.9690247
		l-0.1466255-0.8342285l0.4347878-0.9664841l0.8721161-0.9715652l-0.7242165,0.4171143l-0.7254906,0.4158401l-0.7293129,0.2772293
		l-0.7267647,0.1373367h-0.8746643H32.828434l-0.8695679-0.2759552l-0.7267647-0.2784958l0.1440754,0.8304138l-0.1440754,0.8342285
		l-0.2919769,0.8265915l-0.2932606,0.6930771l-0.2945347,0.8342209l-0.4296818,0.8304138l-0.5852356,0.6905212l-0.4360638,0.6930695
		l-0.5826874,0.5531921l-0.5775909,0.4171143l-0.7254906,0.2759552l-0.5852356,0.2759552l0.4335041-0.6879883l0.2945347-0.6930695
		l0.2907009-0.6956177l0.1440773-0.6905212v-0.6981583v-0.6905289v-0.6905212l-0.1440773-0.6930695l-1.3094521-1.3848724
		l-1.1628284-1.3835983l-1.0212994-1.2475281l-1.1602783-1.246254l-0.8746643-1.2475281l-1.0161915-1.2487946l-0.8759384-1.1050949
		l-0.8695679-1.2475281l-0.7293129-1.2437134l-0.7267647-1.2500687l-0.7280388-1.3835983l-0.5775909-1.3848648l-0.5877857-1.5260315
		l-0.4360628-1.6582794l-0.5801392-1.6595535l-0.4360628-1.9393234l-0.870842,1.1050949l-0.7267647,1.1076431l-0.5852365,1.1050949
		l-0.4360628,1.2475281l-0.5826874,1.2487946l-0.2894278,1.1076431l-0.5826883,0.9690247l-0.4335041,0.9664841v-0.6892548
		l-0.1466255-0.6892548v-0.5569992v-0.5557251l-0.1466255-0.5519104v-0.5569992l-0.1440763-0.5531921l-0.1453514-0.5519104
		l0.4360628-0.6930695l0.4360628-0.8291397l0.4335041-0.8316879l0.2932606-0.8329544l0.438611-0.6943436l0.2868795-0.8278656
		l0.4398851-0.8316879l0.2894278-0.6930695l-0.5826874-1.3861389l-0.4335051-1.3835983l-0.438611-1.5222092l-0.1466255-1.5247574
		l-0.291976-1.6595535l-0.2881536-1.5247498l-0.2894278-1.3835983l-0.5826874-1.2500687l0.8721151-0.1360779l0.8733902-0.2810364
		l0.5788651-0.6879883l0.7293139-0.9728394v0.9728928l0.1491642,0.9690323l0.1415272,0.9715652l0.1478996,0.8265991
		l0.2881632,0.8291397l0.4386024,0.6930695l0.4335136,0.6930695l0.4373274,0.4171143l0.1479092-0.9677505l0.2881536-0.9715729
		l0.1478996-0.9690247v-0.9728394l0.1415281-0.9639435l-0.1415281-0.9741135l-0.2919769-0.9677582l-0.4360619-0.9690247
		l1.0161924,0.1360703l0.8746643-0.1360703l1.0174656-0.4171143l0.8721161-0.6905289l-0.2907009,1.3861465l-0.1428032,1.1050949
		v0.8291397l0.1428127,0.6981583v0.8291397l0.1466351,0.8278732v0.9728394l-0.1466255,1.3810501l0.2907009-0.8265915
		l0.2919769-0.5544586l0.2907028-0.5531845l0.4360619-0.5569992l0.2881527-0.4145737l0.2919769-0.554451l0.1466255-0.5506439
		v-0.6981583l0.4360733,0.9741135l0.5801392,0.6879883l0.7293129,0.5557251l0.8772125,0.281044l-0.4411507,0.6905289
		L21.342989,91.655159l-0.5877838,0.6930695l-0.5801392,0.6930695l-0.5826893,0.5480957l-0.5801392,0.5569992l-0.7267647,0.6930695
		l-0.7254906,0.5531845l0.4335041,1.1076431l0.2919769,1.1076431l0.43223,1.1114502l0.4411602,1.1076431l0.2868786,1.246254
		l0.2932606,1.1076431l0.1466255,1.2500687l0.1428013,1.246254l1.3145504,0.6905289l1.1602802,0.6879807l1.3107262,0.8342285
		l1.1628265,0.6930695l1.1628284,0.9690323l1.1653767,0.8291397l1.0136433,0.9690247l0.8733902,1.1127319l0.4360619-0.281044
		v-0.4171143v-0.8291473l-0.1440754-0.8316803l-0.2919769-0.9664841v-0.9715729l0.2919769-0.9690247l0.5801392-0.8291397
		l-0.1415291-0.5557327l-0.1453514-0.5519104v-0.69561l0.1453514-0.6930771l0.1415291-0.6905212l0.2881527-0.6930695
		l0.4411602-0.4145737l0.5826874-0.2785034l-0.1440754-0.5506363l-0.1491756-0.8329544v-0.8316879l0.1491756-0.8291397
		l0.1440754-0.9741135l0.4360638-0.6905289l0.4360638-0.6930695l0.7242126-0.5531845l-0.1440735-0.5519104v-0.6981583
		l0.1440735-0.8291397l0.2945366-0.8265991l0.4347878-0.8329544l0.4360619-0.5531845l0.5852394-0.5569992l0.7254906-0.1335297
		l-0.1478996-0.8355026l0.1478996-0.6917953l0.1466255-0.8329544l0.1415253-0.6905289l0.4411621-0.5531845l0.2881508-0.5569992
		l0.4386139-0.2734146l0.4335022-0.2797699l-0.1440773-0.6905289l0.1440773-0.835495v-0.6892548l0.2932625-0.6905289
		l0.2894249-0.6930695l0.4386139-0.6930695l0.5775909-0.5544586l0.7267647-0.5506439l-0.7267647-0.2784958l-0.5775909-0.1424332
		h-0.7280388l-0.5852394,0.420929l-0.7242126,0.8265991l-0.433506,0.8316879l-0.5877838,0.9690247l-0.433506,1.1050949
		l-0.5852356-0.5506363L33.7018433,82.23703l-0.2881546-0.6930695l-0.1466255-0.9715729l-0.2945328,0.6956177l-0.433506,0.8265915
		l-0.2907028,0.832962l-0.2894268,0.8367691l-0.1466255,0.6879807l-0.2945347,0.8291397l-0.1415272,0.6930695v0.5544586
		l-0.4360638-0.8329544l-0.2932606-0.8291397l-0.2945347-0.9690247l-0.2881527-0.9702988l-0.1415272-0.9715729v-0.9690247
		l0.1415272-0.9715729l0.1466255-0.9626617l1.3069038-0.2785034l1.4548054-0.281044l1.3094521-0.4120255l1.3132744-0.5544586
		l1.3094521-0.4196548l1.3056297-0.4094849l1.1628304-0.4196548l1.3094521-0.1360703l-0.1415291-0.8304138l-0.436058-0.6981583
		l-0.4411545-0.8291397l-0.7267647-0.6879807L38.21035,72.5378647l-0.7280388-0.4132996l-0.8682938-0.2746811l-0.877224-0.1424332
		l-1.0136414,0.4171143l-0.8733902,0.5569992l-0.877224,0.6905289l-1.0136433,0.5506363l-0.5826874,0.4183884l-0.7293148,0.1386108
		l-0.7242146,0.1335297l-0.5852375-0.1335297l-1.0187511-0.9715729l-0.7254906-0.8265915l-0.5775909-0.8316879l-0.2958088-0.9715652
		h-9.0169849l1.3094521-0.9690247l1.601429-0.8316879l1.748064-0.8291397l1.8844852-0.6930695l2.040041-0.5569992
		l2.1790199-0.5531845l2.1815681-0.4183884l2.1815681-0.133522l0.1440773-0.6930771l0.4411583-0.4196548l0.4360657-0.4120255
		l1.0174675-0.281044l1.3107262-0.2734146l1.3043556-0.1386108h1.3132744l1.3094521,0.1386108l1.3069038,0.1373444
		l1.3081779,0.1360703l1.3094559,0.1436996l1.3069038,0.2734146l0.1504517-0.9690247l0.4373322-0.9652138l0.8695679-0.6956139
		l1.1628227-0.8291397l1.1628227-0.5569992l1.3081779-0.6905289l1.3094521-0.5544548l1.1653748-0.6917992l0.2907104,0.6917992
		l-0.1466331,0.8278656l-0.2907066,0.9741173l-0.1453514,0.96521l1.1666527-0.2708664l1.1628227-0.5557289l0.873394-0.6956139
		l0.8695679-0.8316841l0.4386101,0.5582695l0.1440773,0.6905251v0.5519142l-0.2919807,0.5531845l-0.2907066,0.5595436
		l-0.2894325,0.5480957l-0.1440773,0.5569992v0.4120293l0.2894325,0.4171066l0.5826874,0.2759552l0.4347839,0.281044
		l-0.1466293,0.6930771l-1.4548035,0.5531845l-1.0149231,0.5569992l-0.5826874,0.4094772l-0.4335098,0.5531845l-0.2945328,0.420929
		l-0.1466293,0.5531845l-0.2894325,0.5519104l-0.2907066,0.6956177l0.7267647,0.1411591l0.8746681,0.4094849l0.870842,0.4171143
		l0.8746719,0.5519104l0.8721199,0.6956177l0.5826874,0.6879807l0.5775871,0.8316879l0.2932549,0.9741135l-0.5826874-0.2785034
		l-0.7267647-0.281044l-0.5826912-0.2759552l-0.5801392-0.2797699l-0.7280388-0.1348038l-0.5801392-0.1360703l-0.4373322,0.1360703
		l-0.4335098,0.1348038l0.1389809,0.6981583l0.1466293,0.5531845v0.554451l-0.1466293,0.4145737l0.8772163,0.4145737
		l0.8733978,0.5569992l0.7254906,0.5531845l0.7267647,0.8316803l0.5826874,0.6905289l0.4335098,0.8355026l0.4398842,0.8265915
		l0.4335098,0.8316879l-1.0212936-0.9677582l-1.0123711-0.420929l-0.7280388-0.133522h-0.5801392l-0.4386101,0.133522
		l-0.4347839,0.1424332h-0.436058l-0.4411621-0.1424332v0.5569992l-0.1389923,0.6956177v0.8265991l-0.2945366,0.8329544
		l0.8746719,0.2772293l0.7242165,0.4120255l0.8746681,0.5595398l0.7267647,0.8265991l0.5801353,0.8355026l0.5826874,0.8291397
		l0.5826874,0.8291397l0.2919807,0.69561l-1.0187454-0.8316803l-1.0187454-0.4171143l-0.8746681-0.1373444H55.228096
		l-0.7242165,0.1373444h-0.5801392l-0.5826836-0.1373444l-0.4386139-0.2772293L52.6104622,87.22332l-0.1466255,0.6930695
		l-0.1415253,0.8304138l-0.1466331,0.8291397l0.5801392,0.1411591l0.4373322,0.2734146l0.5839653,0.281044l0.7267647,0.4120255
		l0.5826874,0.5569992l0.7267647,0.5531845l0.7254906,0.6879807l0.7267647,0.9715729l-0.8721199-0.2734146l-0.870842-0.1386108
		l-0.5826874,0.1386108l-0.5826912,0.1360703l-0.5801392,0.4183884c0,0-0.436058,0.2721405-0.436058,0.2746811
		c-0.3391533,0.2136459-0.7726631,0.3560791-1.1653748,0.4158478c0.2779541,0.8494873,0.0548248,2.0181656,0.6795921,2.7290421
		c0.6795883,0.7744598,1.9125366,0.6231232,2.8407593,0.6231232c1.0493469,0,1.3923264-0.3001175,2.3294716-0.5887909
		c1.0225677-0.3153763,1.3273048-0.8660202,2.2032471-1.4548111c1.1985245-0.8024368,2.853508-1.808342,3.4489441-3.2071991
		c0.358284-0.8520279,0.3162079-1.7829056,0.501091-2.671814c0.2855988-1.3988571,0.6974335-2.7493896,0.9435196-4.1584244
		l0.2894287-1.7981644l0.5839615-1.5247574l0.5788651-1.6620941l1.1628189-1.5222092l1.3094559-1.3861465l1.6014328-1.3835983
		l1.7429657-1.3861389l1.8921356-1.3899536l1.8908691-1.2424393l2.1815643-1.246254l2.181572-1.2449875l2.0349426-1.1076431
		l2.1828461-1.1101761l2.1790161-1.1076431l2.0425949-1.1050949l2.0349426-1.1101837l1.8895874-0.9715729l1.7455139-1.1050949
		l1.4548035-0.9741173l-0.436058,2.4963264l-0.2907028,2.212738v1.6646423l0.1440735,1.3861389l0.4386139,1.1127243
		l0.7242126,0.551918l1.0238495,0.4120255l1.3069,0.1360703l1.5963364-0.1360703l1.7506104-0.4120255l2.1790161-0.551918
		l2.4722824-0.8367691l2.7642517-0.8329544l3.0511398-1.1050949l3.493576-1.1076431l3.7804489-1.246254l-1.1628189,2.212738
		l-1.8921432,1.9393234l-2.181572,1.9405975l-1.8908615,1.7981644l-1.4509811,1.527298l-0.2945328,1.5222168l1.3120041,1.5247498
		l3.1977615,1.2475281l-2.7642517,1.1076431l-3.0524139,1.5222092l-2.7617111,1.9405975l-2.3307419,2.2152786l-1.6014328,2.3564377
		l-0.5775909,2.7671967l0.7267685,2.7697372l2.4697266,3.0469666l-1.7455139-0.2721405l-1.4509811-0.1424332h-1.1641006h-1.0200195
		l-1.0187454,0.1424332l-0.8721161,0.2721405l-1.0161972,0.2759552l-1.1653748,0.5569992l1.8908615,0.5531845l1.8946915,0.8329544
		l1.5988846,0.8291473l1.7455063,1.1076355l1.5988846,0.9690323l1.8895874,0.8316803l2.181572,0.6930695l2.3294754,0.4145737
		h1.1628265l1.0161896-0.1335297l0.8733978-0.281044l0.8721161-0.2784958l0.8733902-0.2759628l0.7254944-0.414566
		l0.7293167-0.5557251l0.7267609-0.4132996l-1.1628189,0.2759552h-1.3069077h-1.167923l-1.1628265-0.2759552l-1.0161896-0.2772293
		l-1.0213013-0.5544586l-1.0187454-0.5531845l-0.8695679-0.8304138l-0.7293167-0.69561l-0.4335098-0.6930695l-0.2907028-0.6905289
		l-0.297081-0.8316879l-0.1415253-0.6930695v-0.8316803v-0.9715729l0.1415253-0.9677505l0.4411621-0.6879883l0.436058-0.8329544
		l0.436058-0.6930695l0.7267609-0.6905289l0.7267685-0.69561l0.7305908-0.5506439l0.870842-0.5544586l1.0187454-0.4196548
		l1.5988846-0.1360703l1.4560776-0.1373444l1.4522552,0.1373444l1.4548035,0.2759552l1.4586334,0.4145737l1.3081741,0.69561
		l1.1628265,0.8291397l1.1628265,1.1076431l0.2881546-0.5557251l0.2919846-0.8278732l0.1466217-0.69561l0.2894363-0.8316879
		v-0.8291397l0.1415253-0.8304138V85.281456l-0.1415253-0.8291473l-0.8721237,0.2797775l-0.870842,0.2708664l-0.8721161,0.2785034
		l-0.8746643,0.1411514l-0.8708496,0.1373444l-0.8746643,0.1360703l-0.8733978-0.1360703l-0.8721161-0.1373444l1.8883133-1.9444122
		l1.8921432-1.9342346l1.7455063-2.0766678l1.7455139-1.9405975l1.6014328-2.0779419l1.5988922-2.0766602l1.598877-2.2178268
		l1.4573517-2.2140121v2.7671967v2.7722855l0.146637,2.767189l0.1440735,2.6349411l0.4360504,2.6323929l0.4360657,2.6285782
		l0.7293091,2.493782L134.6456757,89.9905167z"/>
	<path id="path1117_8_" style="display:inline;fill:#E1293A;" d="M20.4663506,87.3604126L20.4663506,87.3604126l0.1466293,0.9690323
		l0.436058,0.6930695l0.5826874,0.4120255l0.872118,0.4222031l0.1440773-0.8342285l0.1466293-0.9715729l-0.1466293-0.8265991
		l-0.1440773-0.835495l-0.2919807-0.8291397l-0.4386101-0.8265991l-0.7242146-0.6981583l-0.8746681-0.6905289l0.2919807,1.1076431
		l0.1466293,0.9715652v0.9652176L20.4663506,87.3604126z"/>
	<path id="path1121_8_" style="display:inline;fill:none;stroke:#16161A;stroke-width:0.6863391;stroke-miterlimit:1;" d="
		M20.4663506,87.3604126L20.4663506,87.3604126l0.1466293,0.9690323l0.436058,0.6930695l0.5826874,0.4120255l0.872118,0.4222031
		l0.1440773-0.8342285l0.1466293-0.9715729l-0.1466293-0.8265991l-0.1440773-0.835495l-0.2919807-0.8291397l-0.4386101-0.8265991
		l-0.7242146-0.6981583l-0.8746681-0.6905289l0.2919807,1.1076431l0.1466293,0.9715652v0.9652176L20.4663506,87.3604126"/>
	<path id="path1125_8_" style="display:inline;fill:#E1293A;" d="M99.0124969,143.3196411L99.0124969,143.3196411
		l0.2894287,0.5544586l0.2907104,0.4120178v0.4171143l-0.2907104,0.5557404l-0.7280426-0.2785034l-0.5826874-0.1411591
		l-0.7267609,0.2759552l-0.5826874,0.2797699l0.2907028-0.832962l0.4386139-0.5519104l0.7267609-0.4171143L99.0124969,143.3196411z"
		/>
	<path id="path1129_8_" style="display:inline;fill:none;stroke:#16161A;stroke-width:0.6863391;stroke-miterlimit:1;" d="
		M99.0124969,143.3196411L99.0124969,143.3196411l0.2894287,0.5544586l0.2907104,0.4120178v0.4171143l-0.2907104,0.5557404
		l-0.7280426-0.2785034l-0.5826874-0.1411591l-0.7267609,0.2759552l-0.5826874,0.2797699l0.2907028-0.832962l0.4386139-0.5519104
		l0.7267609-0.4171143L99.0124969,143.3196411"/>
	<path id="path1133_8_" style="display:inline;fill:#E1293A;" d="M95.5186386,138.8885803L95.5186386,138.8885803
		l0.4386063,0.5519104l0.1440811,0.6905212v0.5531921l-0.436058,0.414566l-0.870842-0.2734222H93.919754l-0.8733902,0.1373444
		l-0.8721237,0.5531921l0.4386139-1.1101837l0.7267609-0.8265991l0.8721237-0.5570068L95.5186386,138.8885803z"/>
	<path id="path1137_8_" style="display:inline;fill:none;stroke:#16161A;stroke-width:0.6863391;stroke-miterlimit:1;" d="
		M95.5186386,138.8885803L95.5186386,138.8885803l0.4386063,0.5519104l0.1440811,0.6905212v0.5531921l-0.436058,0.414566
		l-0.870842-0.2734222H93.919754l-0.8733902,0.1373444l-0.8721237,0.5531921l0.4386139-1.1101837l0.7267609-0.8265991
		l0.8721237-0.5570068L95.5186386,138.8885803"/>
	<path id="path1141_8_" style="display:inline;fill:#E1293A;" d="M97.5581589,134.7283478L97.5581589,134.7283478
		l0.1466293,0.5544586l-0.1466293,0.5557251l-0.2932587,0.6905365l-0.436058,0.5544434l-0.728035-0.4158325l-0.7267685-0.1386108
		h-0.870842l-0.8746719,0.1386108l0.8746719-0.6943512l1.0149231-0.6905212l0.8746643-0.4132996L97.5581589,134.7283478z"/>
	<path id="path1145_8_" style="display:inline;fill:none;stroke:#16161A;stroke-width:0.6863391;stroke-miterlimit:1;" d="
		M97.5581589,134.7283478L97.5581589,134.7283478l0.1466293,0.5544586l-0.1466293,0.5557251l-0.2932587,0.6905365
		l-0.436058,0.5544434l-0.728035-0.4158325l-0.7267685-0.1386108h-0.870842l-0.8746719,0.1386108l0.8746719-0.6943512
		l1.0149231-0.6905212l0.8746643-0.4132996L97.5581589,134.7283478"/>
	<path id="path1149_8_" style="display:inline;fill:#E1293A;" d="M58.7221451,132.3786621L58.7221451,132.3786621
		l0.2894287,0.6905212v0.6956177l-0.2894287,0.5480957l-0.2932587,0.5570068l-0.436058-0.2785034l-0.5826874-0.2785034
		l-0.5801353-0.2772217l-0.5801392-0.1373444l-0.5826874-0.1335297h-0.5814095h-0.5826874l-0.5801392,0.1335297l0.4335098-0.414566
		l0.5826874-0.2759705l0.5826874-0.2772217l0.5801353-0.2785034l0.5801392-0.1398773l0.5826874-0.1335297h0.7280388H58.7221451z"/>
	<path id="path1153_8_" style="display:inline;fill:none;stroke:#16161A;stroke-width:0.6863391;stroke-miterlimit:1;" d="
		M58.7221451,132.3786621L58.7221451,132.3786621l0.2894287,0.6905212v0.6956177l-0.2894287,0.5480957l-0.2932587,0.5570068
		l-0.436058-0.2785034l-0.5826874-0.2785034l-0.5801353-0.2772217l-0.5801392-0.1373444l-0.5826874-0.1335297h-0.5814095h-0.5826874
		l-0.5801392,0.1335297l0.4335098-0.414566l0.5826874-0.2759705l0.5826874-0.2772217l0.5801353-0.2785034l0.5801392-0.1398773
		l0.5826874-0.1335297h0.7280388H58.7221451"/>
	<path id="path1157_8_" style="display:inline;fill:#E1293A;" d="M55.8135834,137.3635712L55.8135834,137.3635712
		l0.436058,0.2759552l0.1440773,0.414566l0.1440811,0.414566v0.5544586l-1.0161972-0.273407h-0.870842l-0.8746719,0.273407
		l-0.8733902,0.4171143l0.4386063-0.8316803l0.5826874-0.6905212l0.8708458-0.4158478L55.8135834,137.3635712z"/>
	<path id="path1161_8_" style="display:inline;fill:none;stroke:#16161A;stroke-width:0.6863391;stroke-miterlimit:1;" d="
		M55.8135834,137.3635712L55.8135834,137.3635712l0.436058,0.2759552l0.1440773,0.414566l0.1440811,0.414566v0.5544586
		l-1.0161972-0.273407h-0.870842l-0.8746719,0.273407l-0.8733902,0.4171143l0.4386063-0.8316803l0.5826874-0.6905212
		l0.8708458-0.4158478L55.8135834,137.3635712"/>
	<path id="path1165_8_" style="display:inline;fill:#E1293A;" d="M57.992466,142.2118988L57.992466,142.2118988h0.7293167
		l0.7280388,0.1360779l0.7267647,0.4158325l0.5801392,0.2772369h-0.7242165h-0.5826874l-0.5826874,0.1398773h-0.5852356
		l-0.4335098,0.1386108l-0.5826874,0.1348114l-0.436058,0.1386108l-0.5801392,0.2810364l0.1440811-0.5544586l0.2894287-0.5557251
		l0.5826874-0.2759552L57.992466,142.2118988z"/>
	<path id="path1169_8_" style="display:inline;fill:none;stroke:#16161A;stroke-width:0.6863391;stroke-miterlimit:1;" d="
		M57.992466,142.2118988L57.992466,142.2118988h0.7293167l0.7280388,0.1360779l0.7267647,0.4158325l0.5801392,0.2772369h-0.7242165
		h-0.5826874l-0.5826874,0.1398773h-0.5852356l-0.4335098,0.1386108l-0.5826874,0.1348114l-0.436058,0.1386108l-0.5801392,0.2810364
		l0.1440811-0.5544586l0.2894287-0.5557251l0.5826874-0.2759552L57.992466,142.2118988"/>
	<path id="path1173_8_" style="display:inline;fill:#E1293A;" d="M20.0281372,142.2118988L20.0281372,142.2118988
		l0.4386082,0.1360779l0.2881565,0.2759552v0.5569916v0.6930695l-1.1628246-0.1398773h-0.8733921l-1.0161972,0.414566
		l-1.1628227,0.5544586l0.4347839-0.9690247l0.7280388-0.6930695l1.0161972-0.4171143L20.0281372,142.2118988z"/>
	<path id="path1177_8_" style="display:inline;fill:none;stroke:#16161A;stroke-width:0.6863391;stroke-miterlimit:1;" d="
		M20.0281372,142.2118988L20.0281372,142.2118988l0.4386082,0.1360779l0.2881565,0.2759552v0.5569916v0.6930695
		l-1.1628246-0.1398773h-0.8733921l-1.0161972,0.414566l-1.1628246,0.5544586l0.4347839-0.9690247l0.7280407-0.6930695
		l1.0161972-0.4171143L20.0281372,142.2118988"/>
	<path id="path1181_8_" style="display:inline;fill:#E1293A;" d="M17.8491421,140.2696381L17.8491421,140.2696381
		l-0.5826874-0.2785034l-0.4386082-0.2759552h-0.5775871l-0.5826874-0.1360779h-0.5852375l-0.5775862,0.1360779
		l-0.7318659,0.2759552l-0.7254896,0.2785034l0.5801373-1.1051025l0.8772182-0.8342285l1.1628237-0.4132996l1.1602745-0.2772217
		l0.7318649,0.6905212l0.4335098,0.5582733l0.1453514,0.6905212L17.8491421,140.2696381z"/>
	<path id="path1185_8_" style="display:inline;fill:none;stroke:#16161A;stroke-width:0.6863391;stroke-miterlimit:1;" d="
		M17.8491421,140.2696381L17.8491421,140.2696381l-0.5826874-0.2785034l-0.4386082-0.2759552h-0.5775871l-0.5826874-0.1360779
		h-0.5852375l-0.5775862,0.1360779l-0.7318659,0.2759552l-0.7254896,0.2785034l0.5801373-1.1051025l0.8772182-0.8342285
		l1.1628237-0.4132996l1.1602745-0.2772217l0.7318649,0.6905212l0.4335098,0.5582733l0.1453514,0.6905212L17.8491421,140.2696381"/>
	<path id="path1189_8_" style="display:inline;fill:#E1293A;" d="M20.7552776,133.2081909L20.7552776,133.2081909
		l-0.4386101,0.9715576l-0.5775871,0.6905365l-0.5801373,0.5480957l-0.8733921,0.1449738l-0.872118-0.1449738h-0.7267666
		l-0.7254896,0.2835846l-1.0212955,0.414566l0.5788622-0.6981506l0.5852375-0.5480957l0.7242146-0.5570068l0.5852375-0.2784882
		l0.872118-0.4145813l0.7267647-0.1360626l0.8733921-0.1424408L20.7552776,133.2081909z"/>
	<path id="path1193_8_" style="display:inline;fill:none;stroke:#16161A;stroke-width:0.6863391;stroke-miterlimit:1;" d="
		M20.7552776,133.2081909L20.7552776,133.2081909l-0.4386101,0.9715576l-0.5775871,0.6905365l-0.5801373,0.5480957
		l-0.8733921,0.1449738l-0.872118-0.1449738h-0.7267666l-0.7254896,0.2835846l-1.0212955,0.414566l0.5788622-0.6981506
		l0.5852375-0.5480957l0.7242146-0.5570068l0.5852375-0.2784882l0.872118-0.4145813l0.7267647-0.1360626l0.8733921-0.1424408
		L20.7552776,133.2081909"/>
	<path id="path1197_8_" style="display:inline;fill:#E1293A;" d="M17.5602169,84.3103485L17.5602169,84.3103485v-0.6930695
		l-0.1466274-0.5531845l-0.2919827-0.5493698l-0.436058-0.5595398l-0.7242155-0.5506439l-0.7318649-0.2759552l-1.0161963-0.4171143
		l-1.1653748-0.1386108l0.8721189,0.5557251l0.5852365,0.5544586l0.4347839,0.5531845l0.2894316,0.554451v0.6879883v0.5557251
		l-0.2894306,0.5569992l-0.2907066,0.5506439l0.7242155,0.1398849l0.7293148-0.1398849l0.7254906-0.4094849L17.5602169,84.3103485z"
		/>
	<path id="path1201_8_" style="display:inline;fill:none;stroke:#16161A;stroke-width:0.6863391;stroke-miterlimit:1;" d="
		M17.5602169,84.3103485L17.5602169,84.3103485v-0.6930695l-0.1466274-0.5531845l-0.2919827-0.5493698l-0.436058-0.5595398
		l-0.7242155-0.5506439l-0.7318649-0.2759552l-1.0161963-0.4171143l-1.1653748-0.1386108l0.8721189,0.5557251l0.5852365,0.5544586
		l0.4347839,0.5531845l0.2894316,0.554451v0.6879883v0.5557251l-0.2894316,0.5569992l-0.2907057,0.5506439l0.7242155,0.1398849
		l0.7293148-0.1398849l0.7254906-0.4094849L17.5602169,84.3103485"/>
	<path id="path1205_8_" style="display:inline;fill:#E1293A;" d="M11.7379112,86.806572L11.7379112,86.806572l-0.1466284-0.6930695
		l-0.2868814-0.4171143l-0.4386091-0.4145737l-0.5826864-0.414566l-0.5801373-0.1348038l-0.8708429-0.1411514H7.9549074H7.0866141
		l1.4535308,0.6905212l0.872118,0.8316879l0.1440773,0.9715729l-0.1440773,1.1076355l0.5826864,0.1360703l0.4335089-0.2772217
		l0.5852375-0.5544586L11.7379112,86.806572z"/>
	<path id="path1209_8_" style="display:inline;fill:none;stroke:#16161A;stroke-width:0.6863391;stroke-miterlimit:1;" d="
		M11.7379112,86.806572L11.7379112,86.806572l-0.1466284-0.6930695l-0.2868814-0.4171143l-0.4386091-0.4145737l-0.5826864-0.414566
		l-0.5801373-0.1348038l-0.8708429-0.1411514H7.9549074H7.0866141l1.4535308,0.6905212l0.872118,0.8316879l0.1440773,0.9715729
		l-0.1440773,1.1076355l0.5826864,0.1360703l0.4335089-0.2772217l0.5852375-0.5544586L11.7379112,86.806572"/>
	<path id="path1213_8_" style="display:inline;fill:#E1293A;" d="M35.1589966,72.9520493L35.1589966,72.9520493l1.3069,0.1436996
		l1.0161972,0.8278732l0.2919807,1.1101837l-0.8695679,1.1076431l-1.8921394,0.8316803l-1.8934135,0.5544586l-2.1790218,0.4120255
		l-2.3281975,0.1411591h-2.3256493l-2.3307476-0.1411591l-2.3230972-0.1373444l-2.3320236-0.414566l-0.2881565,0.9690247v0.8316803
		l0.4335098,0.8278732l0.5826874,0.9702988l-1.5988846-1.1050949L16.82794,78.6326828l-1.4548044-1.2449799l-1.3094511-1.3861465
		l-1.1628256-1.387413l-0.8695688-1.6620941l-0.8759441-1.5171204l-0.5826874-1.8032608l0.7318668,0.5582733l1.1653738,0.6879883
		l1.4497032,0.5569992l1.5988846,0.414566l1.6039839,0.5506439l1.4535313,0.281044l1.3094501,0.2708664h0.8695698
		l-0.1415291,0.6905289l-0.1466274,0.5557251v0.4158478l0.1466274,0.2797699l1.4535313,0.4171143l1.5988827,0.1373367h1.8934135
		l1.8895893-0.1373367l2.0349426-0.2772293l2.0349426-0.5544586l1.8946877-0.69561L35.1589966,72.9520493z"/>
	<path id="path1217_8_" style="display:inline;fill:none;stroke:#16161A;stroke-width:0.6863391;stroke-miterlimit:1;" d="
		M35.1589966,72.9520493L35.1589966,72.9520493l1.3069,0.1436996l1.0161972,0.8278732l0.2919807,1.1101837l-0.8695679,1.1076431
		l-1.8921394,0.8316803l-1.8934135,0.5544586l-2.1790218,0.4120255l-2.3281975,0.1411591h-2.3256493l-2.3307476-0.1411591
		l-2.3230972-0.1373444l-2.3320236-0.414566l-0.2881565,0.9690247v0.8316803l0.4335098,0.8278732l0.5826874,0.9702988
		l-1.5988846-1.1050949L16.82794,78.6326828l-1.4548044-1.2449799l-1.3094511-1.3861465l-1.1628256-1.387413l-0.8695688-1.6620941
		l-0.8759441-1.5171204l-0.5826874-1.8032608l0.7318668,0.5582733l1.1653738,0.6879883l1.4497032,0.5569992l1.5988846,0.414566
		l1.6039839,0.5506439l1.4535313,0.281044l1.3094501,0.2708664h0.8695698l-0.1415291,0.6905289l-0.1466274,0.5557251v0.4158478
		l0.1466274,0.2797699l1.4535313,0.4171143l1.5988827,0.1373367h1.8934135l1.8895893-0.1373367l2.0349426-0.2772293
		l2.0349426-0.5544586l1.8946877-0.69561L35.1589966,72.9520493"/>
	<path id="path1221_8_" style="display:inline;fill:none;stroke:#16161A;stroke-width:0.6863391;stroke-miterlimit:1;" d="
		M95.2297134,66.0272903L95.2297134,66.0272903l-2.9108887,1.246254l-2.7617035,1.2475281l-2.6227341,1.2488022
		l-2.3205414,1.2475204l-2.1841278,1.246254l-2.1815643,1.3785172l-1.8921432,1.3912277l-1.746788,1.3861389l-1.5976028,1.3835983
		L73.5568085,79.18927l-1.4548035,1.3835983l-1.1653748,1.5222092l-1.1628265,1.3835983l-1.0161972,1.5247574l-0.8733902,1.5247498
		l-0.8772202,1.5222092l1.1653748-1.3835907l1.31073-1.2437134l1.3094482-1.3886871l1.5988846-1.2437057l1.4586334-1.2475281
		l1.741684-1.1076431l1.7455139-1.1101837l1.8921356-1.1050949l2.0374985-1.1127319l2.0362167-0.9664841l2.1790161-0.9715652
		l2.3269272-0.8291397l2.4722748-0.8316879l2.478653-0.8278656l2.7591553-0.6968842l2.7642593-0.6930771l0.8733902-0.1373367
		l0.7242203-0.1360703l0.8746643-0.1398849l0.8695679-0.1360779l0.7344208-0.1411514l0.8657379-0.1398849l0.733139-0.1360703
		l0.8682938-0.1348038l-1.8895874,0.8278732l-1.8921356,0.8316803l-1.8883209,0.6879883l-1.8921356,0.8342209l-1.8908615,0.8278732
		l-1.7455139,0.8342285l-1.8921432,0.8291397l-1.7429581,0.8355026l-1.7493362,0.8291397l-1.7404099,0.8291397l-1.6014328,0.9690247
		l-1.7455139,0.9715729l-1.603981,0.9702988l-1.4509811,0.9690247l-1.4522552,1.1076431l-1.4586258,1.1076431l2.038765-0.8342285
		l2.181572-0.8265991l2.181572-0.835495l2.1841202-0.5506439l2.0323868-0.6930695l2.1841202-0.5544586l2.181572-0.5557251
		l2.3282013-0.4120255l2.1790161-0.4158478l2.1841202-0.2797699l2.1790237-0.2734146l2.3307495-0.281044l2.3230972-0.1360703
		l2.1841202-0.1398849l2.3282013-0.1360703h2.3281937l0.7267685,0.2759552l0.5788574,0.1360703l0.7293167,0.281044
		l0.7242203,0.2734146l-0.8682938,0.4171143l-0.8746719,0.4145737l-0.8721161,0.4196548l-0.7267609,0.4120255l-0.8708496,0.4158401
		l-0.8746643,0.4145737l-0.7293167,0.5557251l-0.8695679,0.4120331h-2.3282013l-2.1841202,0.1398849l-2.1815643,0.1411591
		l-2.1790237,0.1373367l-2.181572,0.1411591l-2.1841202,0.2759552l-2.0336685,0.1360703l-2.1815643,0.2785034l-2.0374985,0.4120255
		l-2.0400391,0.4171143l-1.8870392,0.4171143l-2.0374908,0.4145737l-1.889595,0.5569992l-1.8908615,0.6905212l-1.8921432,0.6930771
		l-1.7455063,0.6905212l1.7455063-0.1373444h1.7455139h1.7455063l1.7455139,0.1373367l1.746788,0.1386185l1.7429581,0.1373444
		l1.7455139,0.1436996l1.6014328,0.2759552l1.7455063,0.4120255l1.7429657,0.4171143l1.6014328,0.4120255l1.7455063,0.5569992
		l1.5988846,0.5557251l1.6014328,0.6930695l1.7455139,0.6930771l1.5988846,0.8265915l0.7293167,0.8304138l0.5801315,0.8342285
		l0.7305908,0.8316803l0.5775909,0.8304138l-1.0161972-0.1398849l-0.8721161-0.1386108h-1.0187454l-1.0225754-0.1360703
		l-1.5963364-0.832962l-1.6014328-0.8291397l-1.598877-0.6930695l-1.5988846-0.5569992L93.77491,92.2062683l-1.6001587-0.4120255
		l-1.5988846-0.4171143l-1.5988846-0.2759552l-1.6065292-0.2784958l-1.5937881-0.1386185l-1.6065292-0.1373367h-1.5988846
		l-1.5963364-0.1386185H79.37603l-1.6027069,0.1386185h-1.598877l2.474823,0.6930695l2.61763,1.1076355l2.61763,1.1051025
		l2.6189041,1.3861389l2.4735489,1.6620941l2.0336685,1.8007126l1.7493362,1.7981644l1.3043518,2.0817566l1.0187454,1.7981644
		l1.1628265,1.6608276l1.1653748,1.5260239l1.4548035,1.3848724l1.5976105,1.2475281l1.6014328,1.2437134l1.8934097,1.2475204
		l1.8870468,1.1101837l2.4760971,0.9690323l2.0336685,1.2437134l1.3081741,1.2475204l1.0200272,1.5247574l0.728035,1.527298
		l0.5801392,1.517128l0.4386063,1.6671829l0.5801392,1.6620941l-0.7305908-1.6620941l-0.7242126-1.6671829l-0.8721161-1.517128
		l-0.8733978-1.3886795l-1.3120041-1.246254l-1.4522552-0.9715729l-1.8883133-0.8316803l-2.1802902-0.6905289l-2.186676-0.4145737
		l-2.1815643-0.6930618l-2.0349426-0.8304138l-2.0374985-0.9677582l-1.8895874-1.3861389l-1.7455063-1.3886871l-1.5988846-1.8007126
		l-1.6014328-2.0766602l-2.1790237-2.4887009l-2.1841202-2.2203674l-2.3282013-1.9367828l-2.3256454-1.5234833l-2.3282013-1.2487946
		l-2.3269196-0.8291473l-2.4722748-0.554451l-2.4722748-0.1360703l2.4722748,1.5196609l2.0349426,1.8007126l1.5988846,1.8032532
		l1.3119965,1.9367828l0.8733978,2.0817566l0.5826874,2.2101974l0.4335098,2.2190933l0.2919769,2.2178192l-1.1653748-1.9405975
		l-1.1628189-1.9393234l-1.1653748-1.8007126l-1.1615524-1.800705l-1.4509811-1.5222168l-1.4598999-1.3835983l-1.7429657-0.9715652
		l-1.8921356-0.6956177l0.8733902,1.3886871l0.436058,1.8007126l0.1440811,1.9367828l-0.1440811,2.2190933l-0.1440811,2.3538971
		l-0.2919769,2.2127457l-0.1440811,2.3551636l-0.1440811,2.2152863l-0.4386063-1.798172l-0.2945328-1.941864l-0.4296799-1.798172
		l-0.2945328-1.8007126l-0.4386139-1.9405975l-0.2881546-1.7956238l-0.436058-1.8058014l-0.4411621-1.7981644l-2.0323868,0.6905289
		l-1.450985,1.3861389l-0.8746681,1.9393234l-0.5852356,2.2140045l-0.4360619,2.4950562l-0.2881546,2.6311264l-0.2894325,2.4937744
		l-0.5852356,2.2178268l-0.4322357-1.6620941l-0.4386063-1.8057938l-0.2919846-1.798172l-0.1466255-1.798172l-0.1440811-1.8007126
		v-1.941864l0.2907066-1.9380569l0.4360619-2.0753937l-1.0161972,0.6930695l-0.873394,0.8291397l-0.7280388,1.1076431
		l-0.7267647,1.1076431l-0.7267647,1.2449799l-0.5801353,1.3848724l-0.5826874,1.5260239l-0.4411621,1.6608276l-0.5801392-1.3835983
		l-0.436058-1.5222092v-1.5247574l0.1466293-1.5196686l0.436058-1.6697235l0.5801392-1.5196686l0.7293167-1.3886871
		l1.0161972-1.3810501l-3.0524101,0.9715652l-2.1815681,0.9652176l-1.6014366,0.8329544l-1.0212936,0.6930695l-0.7242165,0.6905289
		l-0.7254906,0.6930695l-0.5826874,0.6943436l-1.0149231,0.5519104v-1.3810577l0.2856064-1.3861389l0.5877838-1.1101837
		l0.8695679-1.1076355l1.0161972-0.9715729l1.3094521-0.8316803l1.4548035-0.8316879l1.4535294-0.8278732"/>
	<path id="path1225_8_" style="display:inline;fill:#16161A;" d="M89.409996,106.197258l-1.8870392,0.5557327l-1.603981,0.6892548
		l-1.3056259,0.8316803l-1.1628265,0.9702988l-0.8784943,1.2475281l-0.5801392,1.246254l-0.4386063,1.5260239l-0.2868805,1.6608276
		l-0.2907028-0.2772293l-0.2919846-0.4158401l-0.436058-0.2772293l-0.2881546-0.2784958l0.7242126-1.6621017l0.8695679-1.5222092
		l0.875946-1.1101837l1.1641006-0.9690247l1.3094482-0.8291473l1.4535294-0.554451l1.4522552-0.5582733L89.409996,106.197258z"/>
	<path id="path1229_8_" style="display:inline;fill:#16161A;" d="M91.3024902,109.5205841l-1.6014328,0.4145737
		l-1.4560776,0.5569992l-1.1641006,0.8316879l-1.0174713,0.8265915l-0.7254868,1.1127319l-0.5826874,1.106369l-0.436058,1.3823242
		l-0.1491776,1.3835983l-0.2856064-0.2759552l-0.2919846-0.2772293l-0.2881546-0.2759552l-0.2945328-0.2759552l0.5826874-1.5247574
		l0.7267685-1.2424393l1.0187454-0.9728394l1.0187454-0.9664841l1.013649-0.6956177l1.3119965-0.4120255l1.1653748-0.4171143
		L91.3024902,109.5205841z"/>
	<path id="path1233_8_" style="display:inline;fill:#16161A;" d="M104.9767532,114.5054398l-1.1653748,0.6981583
		l-0.8746643,0.8265991l-0.7242203,0.9690247l-0.436058,0.8342285l-0.2907028,1.1050949l-0.1479034,0.9741135l0.1479034,1.1025543
		l0.2907028,1.1101837l-0.4386063-0.1386108l-0.1466293-0.1398849l-0.2881546-0.1360703l-0.4386063-0.1386185v-1.2475281
		l0.1440735-1.1050949l0.436058-0.9715652l0.4411621-0.9702988l0.7267609-0.832962l0.7242203-0.6930695l1.0212936-0.6905212
		L104.9767532,114.5054398z"/>
	<path id="path1237_8_" style="display:inline;fill:#16161A;" d="M107.7385101,115.6132355l-1.0212936,0.6930695
		l-0.8708496,0.8291397l-0.5801315,0.8329544l-0.4386139,0.8316879l-0.2894287,0.9690247v0.9702988v0.9715729l0.2894287,1.1076431
		l-0.4335098-0.1386185l-0.1466217-0.1398849l-0.2894363-0.1360703l-0.2907028-0.1411591v-1.106369l0.1440735-1.1101837
		l0.2881622-0.9677505l0.5839615-0.8304138l0.5826874-0.6956177l0.7242126-0.8291397l0.8733902-0.5519104L107.7385101,115.6132355z"
		/>
	<path id="path1241_8_" style="display:inline;fill:#16161A;" d="M112.6842194,118.2485657l-1.3094482,0.1360703
		l-1.1628265,0.4158401l-1.0187454,0.4196548l-0.8721161,0.5481033l-0.7267685,0.8329544l-0.5826874,0.8291397l-0.4386063,0.9741135
		l-0.436058,1.1050949l-0.1466293-0.2759552l-0.1440811-0.2759552l-0.2919769-0.2784958l-0.1440811-0.2746887l0.5801392-1.1101837
		l0.8746643-0.8329544l0.7293167-0.6930695l0.870842-0.5481033l1.0161972-0.4196548l1.0161972-0.2759552l1.0238495-0.1398849
		L112.6842194,118.2485657z"/>
	<path id="path1245_8_" style="display:inline;fill:#16161A;" d="M86.7926254,117.9678726l1.1628265-0.414566l1.1653671-0.4171143
		l1.1602783-0.5544586l1.0212936-0.6879807l0.8721237-0.8316879l0.870842-0.8304138l0.8746643-0.9677505l0.8733978-0.9741135
		l-0.5826874,0.9741135l-0.7267685,0.9677505l-0.5826874,0.9715729l-0.8721161,0.9690247l-0.870842,0.8265991l-1.0187454,0.8355026
		l-1.1628265,0.8291397l-1.3094559,0.6930695l-0.1453476-0.4171143l-0.2932587-0.2759552l-0.1466293-0.4145737
		L86.7926254,117.9678726z"/>
	<path id="path1249_8_" style="display:inline;fill:#16161A;" d="M66.718483,126.420166l1.1653748-0.4196548l1.1628189-0.4120255
		l1.1653748-0.551918l1.0161972-0.6930695l0.8746719-0.8342285l0.870842-0.8291397l0.8772125-0.9690247l0.8682938-0.9715729
		l-0.5826874,0.9715729l-0.7242126,0.9690247l-0.5852356,0.9677582l-0.8721161,0.9690247l-0.8708496,0.8316879l-1.0161896,0.8304138
		l-1.1628265,0.8316803l-1.31073,0.6956177l-0.1466293-0.4196625l-0.293251-0.2759552l-0.1466293-0.4120255L66.718483,126.420166z"
		/>
	<path id="path1253_8_" style="display:inline;fill:#16161A;" d="M92.7593689,120.4615097l1.0161896-0.6930695l0.8708496-0.6905289
		l0.728035-0.8291397l0.7267685-0.9715652l0.5801315-0.9715729l0.5826874-0.9677505l0.5801392-1.1051025l0.4386139-1.1127243
		l-0.2907104,1.1127243l-0.2868805,0.9702988l-0.2945328,1.1025543l-0.4373322,0.9715729l-0.5801392,1.1076355l-0.5826874,1.1076431
		l-0.8746643,0.9690247l-0.8721161,1.1101837l-0.2881622-0.414566l-0.2919769-0.2785034l-0.4373322-0.1386108
		L92.7593689,120.4615097z"/>
	<path id="path1257_8_" style="display:inline;fill:#16161A;" d="M72.8271179,129.6018066l1.0238495-0.6905365l0.8682938-0.6930695
		l0.728035-0.8316803l0.7267685-0.9664841l0.5826874-0.9715652l0.5801392-0.9677582l0.5801315-1.1050949l0.4386139-1.1127319
		l-0.2919846,1.1127319l-0.2907028,0.9677505l-0.2894363,1.1051025l-0.4347839,0.9715652l-0.5826874,1.1076431l-0.5839615,1.1051025
		l-0.870842,0.9690247l-0.8746643,1.1127319l-0.2856064-0.4196625l-0.2945328-0.273407l-0.4373322-0.1386261L72.8271179,129.6018066
		z"/>
	<path id="path1261_8_" style="display:inline;fill:none;stroke:#16161A;stroke-width:0.6863391;stroke-miterlimit:1;" d="
		M79.812355,108.5519562L79.812355,108.5519562l-1.6014328-0.1386185h-1.3094559l-1.3107224,0.1386185l-1.3069077,0.2784958
		l-1.1653748,0.5506439l-1.0161896,0.8355026L71.083519,111.04319l-1.0161896,1.2462616l-1.1628265-0.5506439l-1.0200195-0.2759552
		l-1.1666489-0.1386185l-1.0123749-0.1424255l-1.0212936,0.1424255l-1.0187454,0.270874l-1.0161972,0.2823105l-1.0212936,0.5493698"
		/>
	<path id="path1265_8_" style="display:inline;fill:none;stroke:#16161A;stroke-width:0.6863391;stroke-miterlimit:1;" d="
		M96.5371323,97.1911774L96.5371323,97.1911774l-0.5801392,0.4171143l-0.5826874,0.4145737l-0.4386063,0.2784958
		l-0.4335098,0.4171143l-0.4373322,0.4145737l-0.2894363,0.5569992v0.8265991v0.9715652"/>
	<path id="path1269_8_" style="display:inline;fill:none;stroke:#16161A;stroke-width:0.6863391;stroke-miterlimit:1;" d="
		M59.5937195,113.2636566L59.5937195,113.2636566l-1.0187454-0.4171143l-0.8708458-0.2759552h-0.8746681l-0.7267647,0.1373444
		l-0.7280388,0.4120255l-0.5801353,0.5557251l-0.5852394,0.6930695l-0.5801353,0.9690247l-1.3069038-0.6905212l-1.3094521-0.2785034
		h-1.3107262l-1.3094521,0.4145737l-1.3107262,0.8304138l-1.4535332,1.1101837l-1.3120003,1.5247498l-1.4522552,1.9342422
		l-0.5775871,0.5569992l-0.5826874,0.5531845l-0.7280426,0.4183884l-0.7293129,0.2746811l-0.7267647,0.1398849l-0.8721199,0.1360703
		h-0.8733902l-1.0161972-0.1360703"/>
	<path id="path1273_8_" style="display:inline;fill:none;stroke:#16161A;stroke-width:0.6863391;stroke-miterlimit:1;" d="
		M52.9023743,70.0484619L52.9023743,70.0484619l-1.4522552,0.6930695l-0.2907066,0.8265991v1.1127319l0.2907066,1.1038208
		l1.3056297,0.6943436l0.1466255,0.6905289l-0.4386101,0.6930695l-0.7267647,0.835495l0.7267647,0.8291473l0.1466293,0.8291397
		l-0.4347839,0.69561l-1.0161972,0.5493698l0.2907066,0.9702988l-0.2907066,0.6956177l-0.5852356,0.414566l-1.0187454,0.2734146
		l-0.5801392,0.4171143l-0.7293129,0.4183884l-0.7254906,0.1360703l-0.870842-0.5544586l-0.8746681,0.8329544l-1.0187492,0.2734146
		l-1.0161934-0.2734146l-1.1653748-0.554451l-1.7429619,1.3835907l-0.4386063,1.1076431l0.7254868,0.8316879l1.8921432,0.6930695
		l0.7293129,0.6930695l0.576313,0.6905289l0.2932549,0.554451l0.1466293,0.6956177v0.5557251l-0.1466293,0.6905289
		l-0.436058,0.5544586l-0.5801353,0.5531845l0.8746681,0.5519104l0.436058,0.8342285l0.1466255,0.8291397l-0.294529,0.8329544
		l-0.5826874,0.8316879l-0.5801353,0.8291397l-0.7293167,0.5544586l-0.7242165,0.2734146l0.5801392,0.9702988l0.2907066,0.835495
		v0.6930695l-0.1466293,0.5531845l-0.436058,0.4120255l-0.5801392,0.4171143l-0.436058,0.4158401l-0.5801353,0.4145737
		l0.2868805,0.6930695l0.2932549,0.5531845l0.1479034,0.6930695l0.1440773,0.5544586v0.6905289l-0.1440811,0.69561
		l-0.2894287,0.5531845l-0.4386101,0.6930695l0.8721161,0.5544586l0.5826874,0.6905212l0.2881584,0.6930771l0.1453514,0.6917953
		l-0.1453514,0.8329544l-0.2881584,0.8316879l-0.5826874,0.8265991l-0.8721161,0.8329544l-2.3307495,1.2487946l-2.1790199,0.8291397
		l-2.3307495,0.4132996h-2.3230953l-2.3307476-0.2708664l-2.1790199-0.8342285l-2.3294735-1.106369l-2.3256474-1.668457
		l-0.43606-1.3785095l0.2945328-1.1127243l0.869566-0.6905289l1.5976086-0.4171066"/>
	<path id="path1277_8_" style="display:inline;fill:none;stroke:#16161A;stroke-width:0.6863391;stroke-miterlimit:1;" d="
		M43.3023605,91.6549072L43.3023605,91.6549072L42.139534,91.933403l-1.0212936,0.2734146h-1.013649h-1.0238457l-0.870842-0.2734146
		l-0.8721199-0.4196548l-0.870842-0.6905289l-0.7305908-0.8329544"/>
	<path id="path1281_8_" style="display:inline;fill:none;stroke:#16161A;stroke-width:0.6863391;stroke-miterlimit:1;" d="
		M42.139431,96.9178619L42.139431,96.9178619l-1.4573555,0.2734146l-1.3094521,0.2784958h-1.1628227h-1.1628265
		l-1.1577225-0.2784958l-1.1653748-0.4145737l-1.0212975-0.6905289l-1.0161934-0.8304062"/>
	<path id="path1285_8_" style="display:inline;fill:none;stroke:#16161A;stroke-width:0.6863391;stroke-miterlimit:1;" d="
		M40.9763374,102.0444641L40.9763374,102.0444641l-1.4573555,0.2734146l-1.3094521,0.2784958h-1.1628227h-1.1577263
		l-1.1653709-0.2784958l-1.1653748-0.4145737l-1.0187454-0.6905289l-1.0212975-0.8329544"/>
	<path id="path1289_8_" style="display:inline;fill:none;stroke:#16161A;stroke-width:0.6863391;stroke-miterlimit:1;" d="
		M41.5591545,106.7536316L41.5591545,106.7536316l-1.7455139,0.4120255l-1.603981,0.2759628l-1.5963326,0.1411514
		l-1.4548073-0.1411514l-1.4560814-0.2759628l-1.4548035-0.5557251l-1.3069019-0.6905289l-1.1628246-1.1076355"/>
	<path id="path1293_8_" style="display:inline;fill:#16161A;" d="M36.1776543,69.1246033L36.1776543,69.1246033l1.0161972-0.1386108
		h0.8733902l0.8695679-0.1373444h1.0212975h0.873394l1.0161972,0.1373444l1.0161934,0.2797699l1.0187454,0.4132996
		l-1.1628227-0.4132996l-0.7254906-0.1411591h-0.7242165l-0.4386063,0.2759552l-0.2907066,0.4222031l-0.436058,0.4069443
		l-0.2907066,0.69561l-0.2945328,0.6930695l-0.4386101-0.8291397l-1.0136452-0.69561l-1.1628227-0.551918L36.1776543,69.1246033z"/>
	<g style="display:inline;">
		<path d="M113.3858261,3.3150604c13.8343582,0,25.0894547,11.2550907,25.0894547,25.0894566v229.490387
			c0,13.8344116-11.2550964,25.0894775-25.0894547,25.0894775H28.3464603
			c-13.8343639,0-25.0894547-11.2550659-25.0894547-25.0894775V28.4045162
			c0-13.8343658,11.2550907-25.0894547,25.0894547-25.0894547h85.0393677 M113.3858261,0.0580603H28.3464603
			c-15.5905457,0-28.3464546,12.755908-28.3464546,28.3464565v229.490387c0,15.5905762,12.755909,28.3464966,28.3464546,28.3464966
			h85.0393677c15.590538,0,28.3464584-12.7559204,28.3464584-28.3464966V28.4045162
			C141.7322845,12.8139687,128.9763641,0.0580603,113.3858261,0.0580603L113.3858261,0.0580603z"/>
	</g>
</g>
<g id="scotland" style="display:none;">
	<g style="display:inline;">
		<polygon style="fill:#2A6EB6;" points="0,187.8459625 53.1774254,109.8083038 0,28.6626091 		"/>
		<polygon style="fill:#2A6EB6;" points="141.7322845,28.6627274 88.0618286,109.8326111 141.7322845,190.3683929 		"/>
		<polygon style="fill:#2A6EB6;" points="71.7132492,132.9506531 15.2846155,214.8524323 126.44767,214.8766327 		"/>
		<path style="fill:#2A6EB6;" d="M22.7363815,0.5600297c-0.1538086,0.0287476-0.3059082,0.0617065-0.4587402,0.0927124
			c-2.487915,0.5310667-4.8549805,1.394165-7.0583506,2.5350952l56.0571289,82.0668335l55.2365723-81.8813477
			c-3.9743652-2.1304932-8.5054932-3.3442383-13.3076172-3.3442383h-83.130127h-1.6743164
			c-1.7092285,0-3.3818359,0.1456909-5.0093994,0.413147C23.1726608,0.4797684,22.9536667,0.5174271,22.7363815,0.5600297z"/>
		<polygon points="141.7322845,217.8375092 0,217.8375092 0,214.8766327 141.7322845,214.8766327 		"/>
		<path id="path863_8_" d="M26.8290024,257.3236084c-0.0529442,0.7901001-0.1048889,1.5802002-0.1048889,2.3154602
			c0,8.6989441,4.0636902,13.1046753,12.0841827,13.1046753c7.6518822,0,11.9273453-4.7445068,11.9273453-13.2740479
			c0-2.9949341-0.6343269-5.4797821-1.7431488-7.3439026c-1.5293808-2.541626-4.1156349-4.1227875-7.2283325-6.2698822
			c-3.4303627-2.3722382-5.8048439-3.5000916-5.8048439-6.6086121c0-2.3154602,1.2127151-3.671463,2.9019203-3.671463
			c2.0578194,0,3.1666412,1.9209137,3.1666412,5.6491699v0.5081177h8.3381577c0-0.4523315,0.0519447-0.9036713,0.0519447-1.3549957
			c0-7.8520508-4.1156349-12.1442108-11.8204613-12.1442108c-7.0185566,0-11.2920227,4.4615479-11.2920227,11.9190369
			c0,3.0487518,0.6842728,5.647171,2.0038738,7.6806793c1.4254875,2.1460724,4.0107441,3.9534149,7.3881626,6.3824463
			c3.0088081,2.1461029,5.1725121,3.1643219,5.1725121,6.6644135c0,2.541626-1.2137108,4.0670166-3.1666412,4.0670166
			c-2.5852585,0-3.3774185-1.9767151-3.3774185-6.3824768v-1.2414246H26.8290024z"/>
		<path id="path867_8_" d="M73.0047379,255.2900085v1.8621216c0,5.3104248-0.6862717,7.625885-3.748024,7.625885
			c-3.903862,0-3.903862-4.3489685-3.903862-14.2902985v-0.7900848c0-9.3754272,0.052948-13.4424286,3.903862-13.4424286
			c2.902916,0,3.8009644,2.3712616,3.8529129,7.8490601h9.0244293v-0.3945465
			c0-10.2800903-4.3274155-15.4759216-13.0351791-15.4759216c-5.0656204,0-8.7077599,1.8641205-10.924408,5.5355835
			c-1.951931,3.2191315-2.2156525,8.6989136-2.2156525,16.718338c0,8.0204315,0.2637215,13.5001984,2.2156525,16.7193451
			c2.2695923,3.728241,5.9117279,5.5365601,11.0822449,5.5365601c8.8126526,0,12.9292831-5.0284424,12.9292831-15.3075256
			c0-0.7352905,0-1.4128113-0.0519409-2.1460876H73.0047379z"/>
		<path id="path871_8_" d="M90.6280289,233.7698212c2.2695923-3.728241,5.9107285-5.5365753,11.0832443-5.5365753
			c5.170517,0,8.7587128,1.8083344,11.0283051,5.5365753c2.005867,3.2749176,2.2685928,8.754715,2.2685928,16.7173462
			c0,7.9646149-0.2627258,13.4444122-2.2685928,16.7203217c-2.2695923,3.728241-5.9097366,5.5355835-11.0283051,5.5355835
			c-5.1725159,0-8.813652-1.8073425-11.0832443-5.5355835c-1.9519272-3.2191162-2.2166443-8.6989136-2.2166443-16.7203217
			C88.4113846,242.4677429,88.6761017,236.9879456,90.6280289,233.7698212 M105.5092468,246.6483154
			c0-6.8925781,0-10.3936615-3.8519135-10.3936615c-3.7460251,0-3.7989731,3.5010834-3.7989731,10.3936615v7.6806793
			c0,6.9463654,0.1058884,10.3926544,3.8529129,10.3926544c3.7460251,0,3.7979736-3.4462891,3.7979736-10.3926544V246.6483154z"/>
		<g>
			<path d="M113.3858261,3.3440216c13.8343582,0,25.0894547,11.2550907,25.0894547,25.0894566v229.490387
				c0,13.8344116-11.2550964,25.0894775-25.0894547,25.0894775H28.3464603
				c-13.8343639,0-25.0894547-11.2550659-25.0894547-25.0894775V28.4334774
				c0-13.8343658,11.2550907-25.0894547,25.0894547-25.0894547h85.0393677 M113.3858261,0.0870215H28.3464603
				c-15.5905457,0-28.3464546,12.755908-28.3464546,28.3464565v229.490387c0,15.5905457,12.755909,28.3464966,28.3464546,28.3464966
				h85.0393677c15.590538,0,28.3464584-12.7559509,28.3464584-28.3464966V28.4334774
				C141.7322845,12.8429298,128.9763641,0.0870215,113.3858261,0.0870215L113.3858261,0.0870215z"/>
		</g>
	</g>
</g>
<g id="england" style="display:none;">
	<g style="display:inline;">
		<polyline style="fill:none;" points="141.7322845,74.1933517 83.7710648,74.1933517 83.7710648,0.0580458 57.9600983,0.0580458 
			57.9600983,74.1933517 0,74.1933517 0,103.0638809 57.9600983,103.0638809 57.9600983,207.7518463 83.7710648,207.7518463 
			83.7710648,103.0638809 141.7322845,103.0638809 141.7322845,74.1933517 		"/>
		<polyline style="fill:none;" points="141.7322845,74.1933517 83.7710648,74.1933517 83.7710648,0.0580458 57.9600983,0.0580458 
			57.9600983,74.1933517 0,74.1933517 0,103.0638809 57.9600983,103.0638809 57.9600983,207.7518463 83.7710648,207.7518463 
			83.7710648,103.0638809 141.7322845,103.0638809 141.7322845,74.1933517 		"/>
		<polygon style="fill:#E12839;" points="141.7322845,74.1933517 83.7710648,74.1933517 83.7710648,0.0580458 57.9600983,0.0580458 
			57.9600983,74.1933517 0,74.1933517 0,103.0638809 57.9600983,103.0638809 57.9600983,207.7518463 83.7710648,207.7518463 
			83.7710648,103.0638809 141.7322845,103.0638809 		"/>
		<polyline style="fill:none;" points="141.7322845,211.0088501 0,211.0088501 0,207.7518463 141.7322845,207.7518463 
			141.7322845,211.0088501 		"/>
		<polyline style="fill:none;" points="141.7322845,211.0088501 0,211.0088501 0,207.7518463 141.7322845,207.7518463 
			141.7322845,211.0088501 		"/>
		<polygon style="fill:#191718;" points="141.7322845,211.0088501 0,211.0088501 0,207.7518463 141.7322845,207.7518463 		"/>
		<g>
			<polygon points="23.5854397,270.7076111 47.6085968,270.7076111 47.6085968,261.0888977 33.8631325,261.0888977 
				33.8631325,250.7771301 46.5512543,250.7771301 46.5512543,241.2848358 33.8631325,241.2848358 33.8631325,232.6109314 
				47.6085968,232.6109314 47.6085968,223.4313507 23.5854397,223.4313507 			"/>
			<path d="M55.1248627,270.7076111h9.2814941v-7.9852905c0-7.1036835-0.4102592-14.4591064-1.1751938-22.0662384
				l8.6344147,30.0515289h10.8069229v-47.2762604h-9.2225723v7.4186249c0,5.1542206,0.3524475,12.3843231,0.999527,21.7513123
				L65.87397,223.4313507H55.1248627V270.7076111z"/>
			<path d="M118.146843,244.8062592h-14.0367661v8.234787h4.052597c0.0578156,0.8815918,0.0578156,1.6345367,0.0578156,2.3885956
				c0,5.2196503-1.116272,7.671463-3.9936676,7.671463c-3.4655533,0-3.6412201-3.7104187-3.6412201-12.007309v-7.923172
				c0-8.3600922,0.2345963-12.195816,3.8180008-12.195816c2.5838699,0,3.4655533,2.3897095,3.4655533,7.607132v0.5666504h9.8084946
				c0-0.6298523,0.0589294-1.1954041,0.0589294-1.7598419c0-9.9957275-4.4061508-15.0900726-13.0983887-15.0900726
				c-5.520195,0-9.5727921,2.0747681-12.0399246,6.2243195c-1.821167,3.0805664-2.4660263,9.0531616-2.4660263,17.9189148
				c0,10.0578461,0.2924118,16.7223969,3.8168869,20.9329376c2.2303238,2.7024231,5.3445358,4.1495361,8.9279404,4.1495361
				c3.1698074,0,5.63694-1.1931763,7.6938171-3.7713928l0.468071,2.9541321h7.1078873V244.8062592z"/>
		</g>
		<g>
			<path d="M113.3858261,3.3150604c13.8343582,0,25.0894547,11.2550907,25.0894547,25.0894566v229.490387
				c0,13.8344116-11.2550964,25.0894775-25.0894547,25.0894775H28.3464603
				c-13.8343639,0-25.0894547-11.2550659-25.0894547-25.0894775V28.4045162
				c0-13.8343658,11.2550907-25.0894547,25.0894547-25.0894547h85.0393677 M113.3858261,0.0580603H28.3464603
				c-15.5905457,0-28.3464546,12.755908-28.3464546,28.3464565v229.490387c0,15.5905762,12.755909,28.3464966,28.3464546,28.3464966
				h85.0393677c15.590538,0,28.3464584-12.7559204,28.3464584-28.3464966V28.4045162
				C141.7322845,12.8139687,128.9763641,0.0580603,113.3858261,0.0580603L113.3858261,0.0580603z"/>
		</g>
	</g>
</g>
<g id="uk" style="display:none;">
	<g style="display:inline;">
		<path style="fill:#FFFFFF;" d="M113.3858261,286.2993164H28.3464565C12.7559052,286.2993164,0,273.543396,0,257.9528503
			V28.3465481C0,12.7559996,12.7559052,0.0000951,28.3464565,0.0000951h85.0393677
			c15.5905533,0,28.3464584,12.7559042,28.3464584,28.3464584v229.6062927
			C141.7322845,273.543396,128.9763794,286.2993164,113.3858261,286.2993164z"/>
		<g>
			<path id="path1027_8_" d="M41.1533089,227.5774384v22.8766327c0,7.0031738,0.1048889,11.9738464,1.8989868,15.3633423
				c2.0058708,3.728241,5.2784004,5.2526245,10.4489174,5.2526245c5.5940666,0,9.1293144-1.63797,11.0822449-5.5346069
				c1.4774323-2.9381409,1.5833206-6.4960327,1.5833206-10.844986v-27.1130066h-9.288147v27.1697998
				c0,5.4220123-0.0529442,8.3581696-3.1136971,8.3581696c-3.218586,0-3.3244743-3.0487671-3.3244743-8.9240875v-26.6038818
				H41.1533089z"/>
			<path id="path1031_8_" d="M74.6694565,270.0535583h9.2871475v-11.2973328l2.0058746-4.0660095l4.8548508,15.3633423h9.7616425
				l-8.8116531-23.8918762l8.6018753-18.5844574h-9.4989243l-6.9136658,17.6239929v-17.6239929h-9.2871475V270.0535583z"/>
		</g>
		<polygon points="141.7322845,215.8330231 0,215.8330231 0,212.5760193 141.7322845,212.5760193 		"/>
		<path style="fill:#1A478C;" d="M0.0358674,26.9369526c-0.0229492,0.4639893-0.0354004,0.9306641-0.0356445,1.4000244v60.0139694
			h42.7755127L0.0358674,26.9369526z"/>
		<path style="fill:#1A478C;" d="M27.6669712,0.0173945c-0.0643311,0.0015259-0.12854,0.0029297-0.192627,0.0048828
			c-0.3308105,0.0089722-0.6591797,0.0269775-0.9870605,0.0459595c-3.4796143,0.2282715-6.7910156,1.0919189-9.8227539,2.4751587
			l29.9157696,44.730587V0.0198969H29.5091343L27.6669712,0.0173945z"/>
		<path style="fill:#1A478C;" d="M141.7320404,86.6453781V28.336977c-0.0003662-1.1542969-0.0787354-2.2906494-0.2149658-3.4098511
			L98.569313,86.6453781H141.7320404z"/>
		<path style="fill:#1A478C;" d="M116.3421402,0.1558833c-0.6645508-0.0615234-1.3328857-0.1118164-2.0098877-0.1317139
			c-0.0560303-0.0018921-0.1123047-0.0027466-0.168457-0.0042725H93.73069v45.1214561l29.7741699-43.2561646
			C121.2394791,1.0121455,118.8390884,0.4177241,116.3421402,0.1558833z"/>
		<polygon style="fill:#1A478C;" points="141.7320404,125.1316757 98.8704987,125.1316757 141.7320404,186.7216492 		"/>
		<polygon style="fill:#1A478C;" points="125.5916138,212.5786743 94.0323715,166.3604889 94.0323715,212.5786743 		"/>
		<polygon style="fill:#1A478C;" points="0.0002395,126.8367081 43.7001572,126.8367081 0.0002395,189.6292419 		"/>
		<polygon style="fill:#1A478C;" points="16.0851021,212.5786743 46.9478302,168.0989532 46.9478302,212.5786743 		"/>
		<polygon style="fill:#E12839;" points="141.7322845,96.7207489 84.7323914,96.7207489 84.7323914,0.0000951 57.7382584,0.0000951 
			57.7382584,96.7207489 0,96.7207489 0,116.4866257 57.7382584,116.4866257 57.7382584,212.5615997 84.7323914,212.5615997 
			84.7323914,116.4866257 141.7322845,116.4866257 		"/>
		<path style="fill:#E12839;" d="M16.9516392,28.007082c-2.9523926-4.2992554-5.9047852-8.5985107-8.8570557-12.8958769
			c-0.5756841-0.838501-1.4674077-2.1715698-2.464478-3.668457c-1.9694822,2.6361084-3.4873044,5.6245756-4.449707,8.8468657
			c5.2949219,7.6794434,12.7714844,18.6185856,17.7060547,25.7588444
			c6.1174316,8.8530273,12.2348633,17.7061157,18.352293,26.5601768c2.9279785,4.2383423,5.8581543,8.4777222,8.7849121,12.7150879
			V70.3331833c-3.1977539-4.6555786-6.3953857-9.3101158-9.5919189-13.96661
			C29.9376011,46.9137535,23.4445591,37.4598961,16.9516392,28.007082z"/>
		<polygon style="fill:#E12839;" points="46.9480629,159.7817383 46.9480629,145.30513 0.0004791,210.5945892 
			0.0004791,212.5985107 8.8783665,212.5985107 		"/>
		<polygon style="fill:#E12839;" points="95.8124313,128.4064331 95.8124313,143.3970032 141.7321167,210.2522888 
			141.7321167,194.8645172 		"/>
		<path style="fill:#E12839;" d="M129.219223,4.8675537L94.3600845,53.2214928v14.4756432L135.4181976,10.57092
			C133.6450043,8.3797598,131.5573578,6.4525146,129.219223,4.8675537z"/>
		<g>
			<path d="M113.3858261,3.3150604c13.8343582,0,25.0894547,11.2550907,25.0894547,25.0894566v229.490387
				c0,13.8344116-11.2550964,25.0894775-25.0894547,25.0894775H28.3464603
				c-13.8343639,0-25.0894547-11.2550659-25.0894547-25.0894775V28.4045162
				c0-13.8343658,11.2550907-25.0894547,25.0894547-25.0894547h85.0393677 M113.3858261,0.0580603H28.3464603
				c-15.5905457,0-28.3464546,12.755908-28.3464546,28.3464565v229.490387c0,15.5905762,12.755909,28.3464966,28.3464546,28.3464966
				h85.0393677c15.590538,0,28.3464584-12.7559204,28.3464584-28.3464966V28.4045162
				C141.7322845,12.8139687,128.9763641,0.0580603,113.3858261,0.0580603L113.3858261,0.0580603z"/>
		</g>
	</g>
</g>
<path style="fill:#00557F;" d="M113.3858566,0.0000737H28.3464279c-15.5904551,0-28.3464355,12.7559204-28.3464355,28.3464985
	v229.6062469c0,15.5905762,12.7559814,28.3464966,28.3464355,28.3464966h85.0394287
	c15.5905685,0,28.3464279-12.7559204,28.3464279-28.3464966V28.3465729
	C141.7322845,12.7559938,128.9764252,0.0000737,113.3858566,0.0000737z"/>
</svg>
