<?xml version="1.0" encoding="utf-8"?>
<!-- Generator: Adobe Illustrator 23.0.1, SVG Export Plug-In . SVG Version: 6.00 Build 0)  -->
<svg version="1.1" id="Layer_1" xmlns="http://www.w3.org/2000/svg" xmlns:xlink="http://www.w3.org/1999/xlink" x="0px" y="0px"
	 viewBox="0 0 141.7 286.3" style="enable-background:new 0 0 141.7 286.3;" xml:space="preserve">
<style type="text/css">
	.st0{fill:#FFCF06;}
	.st1{display:none;}
	.st2{display:inline;}
	.st3{fill:#FFFFFF;}
	.st4{display:inline;fill:none;}
	.st5{display:inline;fill:#4DB74B;}
	.st6{display:inline;fill:#E1293A;}
	.st7{display:inline;fill:none;stroke:#16161A;stroke-width:0.6863;stroke-miterlimit:1;}
	.st8{display:inline;fill:#16161A;}
	.st9{fill:#2A6EB6;}
	.st10{fill:none;}
	.st11{fill:#E12839;}
	.st12{fill:#191718;}
	.st13{fill:#1A478C;}
	.st14{fill:#0076BD;}
	.st15{fill:#FCEE23;}
	.st16{fill:none;stroke:#FFFFFF;stroke-width:0.1417;stroke-miterlimit:10;}
</style>
<g>
	<rect x="22.6" y="184.8" class="st0" width="96.6" height="68.4"/>
</g>
<g>
	<g id="Layer_6" class="st1">
		<g class="st2">
			<path class="st3" d="M113.4,286.2h-85C12.8,286.2,0,273.5,0,257.9V28.4C0,12.8,12.8,0.1,28.3,0.1h85c15.6,0,28.3,12.8,28.3,28.3
				v229.5C141.7,273.5,129,286.2,113.4,286.2z"/>
		</g>
	</g>
	<g id="wales" class="st1">
		<polyline class="st4" points="141.7,209.1 0,209.1 0,205.8 141.7,205.8 141.7,209.1 		"/>
		<polyline class="st4" points="141.7,209.1 0,209.1 0,205.8 141.7,205.8 141.7,209.1 		"/>
		<path class="st5" d="M0,205.8V102.9h141.7v102.9C129.7,205.8,12.3,205.8,0,205.8z"/>
		<polygon class="st2" points="141.7,209.1 0,209.1 0,205.8 141.7,205.8 		"/>
		<g class="st2">
			<path id="path1297_8_" d="M28.7,249.2v1.2c0,3.5-0.5,5.1-2.5,5.1c-2.6,0-2.6-2.9-2.6-9.5v-0.5c0-6.3,0-9,2.6-9
				c1.9,0,2.5,1.6,2.6,5.2h6v-0.3c0-6.9-2.9-10.3-8.7-10.3c-3.4,0-5.8,1.2-7.3,3.7c-1.3,2.1-1.5,5.8-1.5,11.2c0,5.4,0.2,9,1.5,11.2
				c1.5,2.5,3.9,3.7,7.4,3.7c5.9,0,8.6-3.4,8.6-10.2c0-0.5,0-0.9,0-1.4H28.7z"/>
			<path id="path1301_8_" d="M42.6,260.1h6.3v-12l6.1-16.3h-6.7l-2.6,9l-2.6-9h-6.7l6.1,16.3V260.1z"/>
			<path id="path1305_8_" d="M57.6,260.1h5.8l-0.5-21.9l4.2,21.9h4.7l4.2-21.9l-0.5,21.9h5.8v-28.3h-8.6l-2.3,11.9
				c-0.1,0.5-0.4,2.8-0.9,6.7c-0.5-4-0.8-6.2-0.8-6.6l-2.4-12.1h-8.7V260.1z"/>
			<path id="path1309_8_" d="M86.4,231.8h7c3.5,0,5.9,0.2,7.5,1.5c1.6,1.4,2.3,3.3,2.3,5.9c0,3.2-1,5.4-3.3,6.8
				c2.9,1.4,2.9,3.2,3,6.6c0.1,3.7-0.1,6.1,1.5,7.5h-7.3c-0.3-1.2-0.5-2.5-0.5-3.9c0-1.2,0.1-2.2,0.1-2.9c0-3.3-0.6-4.5-2.9-4.5
				h-1.3v11.3h-6.1V231.8z M93.3,243.6c2.5,0,3.5-1,3.5-3.6c0-2.4-1-3.4-3.5-3.4c-0.2,0-0.5,0-0.8,0v6.9
				C92.8,243.6,93,243.6,93.3,243.6"/>
			<path id="path1313_8_" d="M107.7,231.8V247c0,4.7,0.1,8,1.3,10.3c1.3,2.5,3.5,3.5,7,3.5c3.7,0,6.1-1.1,7.4-3.7
				c1-2,1.1-4.3,1.1-7.2v-18.1h-6.2v18.1c0,3.6,0,5.6-2.1,5.6c-2.1,0-2.2-2-2.2-6v-17.8H107.7z"/>
		</g>
		<path id="path1101_8_" class="st6" d="M92.9,129.9v-0.1l-0.6-0.3l0.6,0.6V129.9z"/>
		<path id="path1105_8_" class="st7" d="M92.9,129.9v-0.1l-0.6-0.3l0.6,0.6V129.9z"/>
		<path id="path1109_8_" class="st6" d="M121.7,93.9l-0.4-0.8l-1-0.6l-1.5-0.8l-1-0.1l-0.9-0.1l-0.7,0.1l-0.7,0.1l-0.7,0.1l-0.6,0.3
			l-0.6,0.4l-0.6,0.4l-0.4,1.1l0.1,0.8l0.4,0.8l0.7,0.7l0.9,0.4l1,0.3l1,0.1h1l1-0.1l1-0.4l0.9-0.7l0.9-1L121.7,93.9z M134.6,90
			l-0.7-0.4l-0.6-0.6l-0.7-0.6l-0.7-0.6l-0.7-0.7l-0.6-0.7l-0.6-0.7l-0.4-0.8l-0.1,1.1l-0.1,1.1l-0.1,1.1l-0.3,1.1l-0.3,1.1
			l-0.3,1.1l-0.4,1.1l-0.4,1l0.6,1.7l0.3,1.7l-0.1,1.8l-0.3,1.7l-0.7,1.8l-0.7,1.5l-0.9,1.5l-1,1.2l-1.3,1.4l-1.9,1.4l-2,1.1
			l-2.2,1.1l-2.3,0.8l-2.3,0.6l-2.2,0.4l-1.9,0.3l1.7,0.8l2,0.4l2.2,0.1l2.2,0.3l2,0.7l1.7,1.1l1.2,1.9l0.6,3l-0.6-0.3l-0.7-0.4
			l-0.6-0.4l-0.7-0.3l-0.7-0.4l-0.6-0.3l-0.7-0.3l-0.6-0.1l0.1,1.4v1.5v1.5v1.5v1.4l-0.1,1.5l-0.3,1.4l-0.3,1.2
			c-0.1,0.4-0.1,0.9-0.3,1.3c-0.3,0.9-0.3,1.8-0.3,2.8c0,0.8-0.1,1.4,0.7,1.9c0.9,0.5,1.7,0.6,2.7,0.6c0.6,0,1.6,0.1,2.2-0.1
			c0.2-0.1,0.4-0.3,0.6-0.3c-0.1,0.6-0.1,1.8,0.5,2c0.8,0.2,1.6,0,2.4,0.4c0.7,0.4,1.5,0.7,2.1,1.3c-1.1,0-2.1,0-3.2,0
			c-0.9,0-1.6-0.2-1.9,0.6c-0.3,0.6-0.2,1.9-1.1,1.6c-0.7-0.3-1.6-1-2.2-1.4c-0.7-0.4-1.4-0.9-2.1-1.2c-1.1-0.4-2.2-0.6-3.4-0.6
			c-0.9,0-2.1-0.1-2.8,0.6c-0.8,0.8-1.4,1.5-2.3,2.1l-1.3,0.7l-1.3,0.6l-1.5,0.3l-1.3,0.3l-1.5,0.4l-1.3,0.4l0.1-0.6v-0.6l-0.1-0.4
			l-0.4-0.7h0.6h0.7l0.6-0.1l0.7-0.1l0.6-0.1l0.6-0.1l0.6-0.1l0.6-0.1l-0.1-0.4l-0.1-0.3l-0.4-0.1l-0.4-0.1l-0.9,0.1l-0.9,0.1h-0.9
			h-0.9h-0.9h-1l-0.9-0.1l-0.9-0.1l0.6-0.4v-0.7l-0.3-0.8l-0.4-1l0.9,0.1l0.7,0.3l0.9,0.4l0.9,0.3l0.9,0.1l0.9,0.3h0.7l0.9-0.1
			l-0.6-0.4l-0.7-0.3l-0.6-0.4l-0.7-0.3l-0.7-0.3l-0.7-0.3l-0.7-0.1l-0.7-0.3l0.4-0.6l0.3-0.7l0.1-0.8v-1l0.9,0.7l1,0.8l1,0.7l1,0.6
			l1,0.6l1,0.4l1.2,0.3l1.2,0.1l0.3-0.8l0.4-0.8l0.4-0.7l0.4-0.8l0.6-0.7l0.4-0.7l0.6-0.7l0.6-0.7l0.3-0.8l0.3-0.7v-0.8v-0.8
			l-0.1-0.8l-0.1-0.8l-0.3-0.8l-0.3-1l-0.4-0.7l-0.4-0.6l-0.6-0.6l-0.6-0.4l-0.7-0.4l-0.7-0.3l-0.7-0.3l-0.9-0.3l-1.2-0.1h-1
			l-1.2-0.1H100h-1.2l-1.2-0.1l-1-0.1l-1.2-0.3l-1.3-0.1l-1.3-0.3l-1.3-0.3l-1.2-0.4l-1-0.4l-1-0.6l-0.7-0.7l-0.7-0.8l-1.2-0.4
			l-1.3-0.4l-1.3-0.7l-1.2-0.8l-1.2-0.8l-1-0.8l-0.7-1l-0.6-0.8l-0.4,1.1l-0.7,1.1l-0.7,0.8l-1,0.7l0.7,0.6l0.7,0.7l0.4,0.8l0.1,0.8
			l1.2,0.6l1,0.6l0.9,0.8l0.7,1l0.9,0.6l0.6,0.8l0.4,1l0.1,0.8l1.3,0.4l1.3,0.4l1.2,0.6l1.3,0.6l1.2,0.7l1.2,0.8l1.2,0.8l0.3,0.3
			l-0.6-0.1l-0.6-0.1h-0.6H90h-0.6l-0.6,0.1l-0.4,0.1l-0.6,0.7l-0.7,0.7l-0.6,0.7l-0.7,0.6l-0.7,0.7l-0.7,0.6l-0.7,0.4l-0.9,0.5
			l-1,0.7l-1.2,0.8l-1.3,0.8l-1.3,0.8l-1.2,0.7c-0.6,0.3-1.6,0.1-1.5,0.8c0.1,0.8,1.1,0.8,1.7,0.8c1.3,0.2,2.6,0.5,3.8,0.7
			c-0.2,0-0.4,0.2-0.5,0.3c-0.1,0.2,0,0.5,0.1,0.6c0.3,0.4,0.7,0.8,1,1.2c1,1.1,1.4,2.2,1.3,3.7c0,0.4-0.2,1.1-0.6,0.7
			c-0.4-0.3-0.5-0.9-0.7-1.4c-0.2-0.5-0.4-0.9-0.7-1.3c-0.3-0.4-0.9-1-1.4-1c-0.2,0-0.3,0.1-0.2,0.3c-0.4-0.1-0.6,0.7-1,0.9
			c-0.8-0.6-1.6-1.3-2.5-1.8c-0.7-0.4-1.4-0.8-2.2-1.2c-1.7-0.8-3.3-0.4-5.1-0.4h-0.6l-0.7,0.1l-0.7,0.1l-0.7,0.1l-0.6,0.1l-0.6,0.1
			l-0.6,0.1l-0.6,0.1l-0.6,0.1l-0.6,0.3l-0.4,0.1l-0.6,0.3l-0.7-0.6l-0.7-0.4l-1-0.3l-1-0.1l0.4-0.4L59,141l1.3-0.3l1.5-0.3l1.5-0.3
			l1.3-0.3l1-0.4l0.6-0.4l-1.2,0.1l-1.2,0.1h-1.2h-1.2h-1.2h-1.2H58l-1-0.1l0.1-0.7l-0.1-0.6l-0.4-0.6l-0.6-0.6l1-0.1l0.9,0.1l1,0.1
			l1,0.4l1,0.3l1,0.3l1,0.1l1-0.1l-0.6-0.4l-0.6-0.4l-0.7-0.4l-0.7-0.4l-0.7-0.3l-0.7-0.3l-0.9-0.3l-0.9-0.1l0.6-0.4l0.4-0.7v-0.8
			l-0.1-1.2l0.6,0.6l0.7,0.6l0.7,0.4l0.7,0.3l0.7,0.3l0.9,0.3l0.9,0.3l0.9,0.4l0.4-0.6l0.6-0.4l0.7-0.1h0.7l0.7,0.1l0.7,0.3l0.7,0.6
			l0.6,0.7l1-0.3l0.9-0.4l1-0.4L74,134l0.9-0.6l0.7-0.6l0.6-0.7l0.6-0.7l-0.4-0.4l-0.7-0.4l-0.9-0.3l-1-0.3l-1-0.3l-1-0.3l-1-0.3
			l-0.9-0.4l-0.6-0.4l-0.7-0.6l-0.6-0.6l-0.4-0.6l-0.4-0.6l-0.4-0.7l-0.1-0.7l-0.1-0.7l0.1-0.6l0.1-0.6l0.4-0.6l0.4-0.6l0.4-0.6
			l0.4-0.6l0.3-0.7l0.3-0.6l-1.9,0.1l-2.2,0.4l-2.3,0.6l-2.6,0.7l-2.6,1l-2.8,0.8l-2.5,0.8l-2.5,0.8v1v1l-0.3,1.1l-0.3,1l-0.4-0.8
			l-0.3-0.7l-0.6-0.7l-0.6-0.4l0.3-0.7l0.3-0.6l0.1-0.7l0.3-0.7l-0.9-0.4l-0.9,0.1l-0.9,0.7l-0.7,0.8l-1,1.9l-0.9,1.5l-0.7,1.4
			l-0.9,1.2l-1,1.1l-1,1.2l-1.3,1.4c-0.4,0.4-1.5,1.2-1.6,1.8c-0.2,0.9,1.4,1.2,1.9,1.4c0.6,0.2,1.3,0.3,2,0.4c0.4,0,0.7,0.1,1,0.2
			c0.4,0.1,0.9,0,1.4,0.1c0,0.4-0.1,0.8-0.2,1.2c-0.2,0.6-0.2,1.2-0.4,1.7c1,0.1,1.6,0.7,2.2,1.2c0.6,0.6,1.2,1.2,1.7,1.8
			c-0.5-0.1-1.1-0.3-1.6-0.4c-0.7-0.1-1.4-0.3-2.1-0.5c-0.2-0.1-1-0.4-1.2-0.3c-0.2,0.2,0.1,0.6-0.1,0.8c-0.4,0.5-1.3-0.4-1.6-0.7
			c-0.7-0.6-1.4-1.1-2.1-1.7c-0.5-0.4-0.8-0.9-1.2-1.5c-0.1-0.2-0.3-0.5-0.5-0.7c-0.3-0.3,0.1-0.1-0.4-0.3c-0.4-0.1-1.4-0.2-1.8,0
			c-0.4,0.1-0.4,0.5-0.5,0.9l-0.6,0.6l-0.7,0.4l-0.7,0.3l-1.5,0.1l-0.9,0.1l-0.7,0.1h-0.7l-0.6,0.7L26,143l-0.9,0.1l-0.7,0.1h-0.9
			h-0.7l-0.7,0.1l-0.7,0.3l0.1-0.7l-0.1-0.6l-0.4-0.4l-0.6-0.4h1h0.9l0.9-0.1l0.7-0.1l0.7-0.1l0.7-0.1l0.9-0.3l0.9-0.3l0.3-0.4
			l0.1-0.3l-0.4-0.4l-0.6-0.3h-0.7l-0.9,0.1l-0.7,0.1h-0.9l-0.7,0.1h-0.7l-0.7-0.1l-0.7-0.3l-0.6,0.1l-0.4,0.3L19,140l-0.3,0.6v-1
			l-0.3-0.8l-0.3-0.7l-0.6-0.7l0.9,0.1l0.9,0.1l1,0.1l1,0.1l0.9,0.1h1l1,0.1l0.9,0.1l-0.6-0.6l-0.7-0.4l-0.7-0.4l-0.7-0.3l-0.9-0.3
			l-1-0.1l-0.9-0.1l-1-0.1l1-0.3l0.9-0.6l0.4-0.7l0.3-1l0.7,0.6l0.6,0.3l0.7,0.3l0.7,0.3l0.7,0.1l0.7,0.3l0.7,0.3l0.7,0.4l0.7-0.1
			h0.6l0.6-0.1l0.6-0.3l0.4-0.1l0.6-0.3l0.4-0.4l0.6-0.3l0.3-1.1l0.7-0.6l1-0.3l1.3-0.3l-0.1-1.1v-1.1l0.4-0.8l0.7-0.6l-0.3-0.8V127
			l0.4-0.7l0.9-0.6l-0.6-1l-0.1-0.8l0.4-1l0.9-1l-0.7,0.4l-0.7,0.4l-0.7,0.3l-0.7,0.1h-0.9h-0.7L32,123l-0.7-0.3l0.1,0.8l-0.1,0.8
			l-0.3,0.8l-0.3,0.7l-0.3,0.8l-0.4,0.8l-0.6,0.7l-0.4,0.7l-0.6,0.6l-0.6,0.4l-0.7,0.3l-0.6,0.3l0.4-0.7l0.3-0.7l0.3-0.7l0.1-0.7
			V127v-0.7v-0.7l-0.1-0.7l-1.3-1.4l-1.2-1.4l-1-1.2l-1.2-1.2l-0.9-1.2l-1-1.2L20,116l-0.9-1.2l-0.7-1.2l-0.7-1.3l-0.7-1.4l-0.6-1.4
			l-0.6-1.5l-0.4-1.7l-0.6-1.7l-0.4-1.9l-0.9,1.1l-0.7,1.1l-0.6,1.1l-0.4,1.2l-0.6,1.2l-0.3,1.1l-0.6,1l-0.4,1v-0.7l-0.1-0.7v-0.6
			v-0.6l-0.1-0.6V108l-0.1-0.6l-0.1-0.6l0.4-0.7l0.4-0.8l0.4-0.8l0.3-0.8l0.4-0.7l0.3-0.8l0.4-0.8l0.3-0.7l-0.6-1.4l-0.4-1.4
			l-0.4-1.5l-0.1-1.5l-0.3-1.7l-0.3-1.5l-0.3-1.4L9.3,89l0.9-0.1l0.9-0.3l0.6-0.7l0.7-1v1l0.1,1l0.1,1l0.1,0.8l0.3,0.8l0.4,0.7
			l0.4,0.7l0.4,0.4l0.1-1l0.3-1l0.1-1v-1l0.1-1l-0.1-1l-0.3-1l-0.4-1l1,0.1l0.9-0.1l1-0.4l0.9-0.7l-0.3,1.4l-0.1,1.1v0.8l0.1,0.7
			v0.8l0.1,0.8v1l-0.1,1.4l0.3-0.8l0.3-0.6l0.3-0.6L19,90l0.3-0.4l0.3-0.6l0.1-0.6v-0.7l0.4,1l0.6,0.7l0.7,0.6l0.9,0.3L21.9,91
			l-0.6,0.7l-0.6,0.7L20.2,93l-0.6,0.5L19,94.1l-0.7,0.7l-0.7,0.6l0.4,1.1l0.3,1.1l0.4,1.1l0.4,1.1l0.3,1.2l0.3,1.1l0.1,1.3l0.1,1.2
			l1.3,0.7l1.2,0.7l1.3,0.8l1.2,0.7l1.2,1l1.2,0.8l1,1l0.9,1.1l0.4-0.3v-0.4v-0.8l-0.1-0.8l-0.3-1v-1l0.3-1l0.6-0.8l-0.1-0.6
			l-0.1-0.6v-0.7l0.1-0.7l0.1-0.7l0.3-0.7l0.4-0.4l0.6-0.3l-0.1-0.6l-0.1-0.8v-0.8l0.1-0.8l0.1-1l0.4-0.7l0.4-0.7l0.7-0.6l-0.1-0.6
			v-0.7l0.1-0.8l0.3-0.8l0.4-0.8l0.4-0.6l0.6-0.6l0.7-0.1L35.3,89l0.1-0.7l0.1-0.8l0.1-0.7l0.4-0.6l0.3-0.6l0.4-0.3l0.4-0.3
			l-0.1-0.7l0.1-0.8v-0.7l0.3-0.7l0.3-0.7l0.4-0.7l0.6-0.6l0.7-0.6l-0.7-0.3l-0.6-0.1h-0.7L37,79.7l-0.7,0.8l-0.4,0.8l-0.6,1
			l-0.4,1.1l-0.6-0.6l-0.6-0.7l-0.3-0.7l-0.1-1L33,81.3l-0.4,0.8l-0.3,0.8L32,83.8l-0.1,0.7l-0.3,0.8L31.4,86v0.6l-0.4-0.8l-0.3-0.8
			l-0.3-1l-0.3-1l-0.1-1v-1l0.1-1l0.1-1l1.3-0.3l1.5-0.3l1.3-0.4l1.3-0.6l1.3-0.4l1.3-0.4l1.2-0.4l1.3-0.1l-0.1-0.8l-0.4-0.7
			l-0.4-0.8l-0.7-0.7l-0.7-0.6l-0.7-0.4l-0.9-0.3l-0.9-0.1l-1,0.4l-0.9,0.6L33,73.4l-1,0.6l-0.6,0.4l-0.7,0.1l-0.7,0.1l-0.6-0.1
			l-1-1l-0.7-0.8L27,71.8l-0.3-1h-9l1.3-1l1.6-0.8l1.7-0.8l1.9-0.7l2-0.6l2.2-0.6l2.2-0.4l2.2-0.1l0.1-0.7l0.4-0.4l0.4-0.4l1-0.3
			l1.3-0.3l1.3-0.1h1.3l1.3,0.1l1.3,0.1l1.3,0.1l1.3,0.1l1.3,0.3l0.2-1l0.4-1l0.9-0.7L48,61l1.2-0.6l1.3-0.7l1.3-0.6l1.2-0.7
			l0.3,0.7L53,60.1l-0.3,1l-0.1,1l1.2-0.3l1.2-0.6l0.9-0.7l0.9-0.8l0.4,0.6l0.1,0.7v0.6L57,62l-0.3,0.6l-0.3,0.5l-0.1,0.6v0.4
			l0.3,0.4l0.6,0.3l0.4,0.3l-0.1,0.7L56,66.3l-1,0.6l-0.6,0.4l-0.4,0.6l-0.3,0.4l-0.1,0.6l-0.3,0.6L52.9,70l0.7,0.1l0.9,0.4l0.9,0.4
			l0.9,0.6l0.9,0.7l0.6,0.7l0.6,0.8l0.3,1L58,74.5l-0.7-0.3l-0.6-0.3l-0.6-0.3l-0.7-0.1l-0.6-0.1l-0.4,0.1l-0.4,0.1l0.1,0.7l0.1,0.6
			v0.6l-0.1,0.4l0.9,0.4l0.9,0.6l0.7,0.6l0.7,0.8l0.6,0.7l0.4,0.8l0.4,0.8l0.4,0.8l-1-1l-1-0.4l-0.7-0.1h-0.6L55.4,80l-0.4,0.1h-0.4
			L54.1,80v0.6l-0.1,0.7v0.8l-0.3,0.8l0.9,0.3l0.7,0.4l0.9,0.6l0.7,0.8l0.6,0.8l0.6,0.8l0.6,0.8l0.3,0.7l-1-0.8l-1-0.4L56,86.8h-0.7
			l-0.7,0.1h-0.6l-0.6-0.1l-0.4-0.3l-0.3,0.7l-0.1,0.7l-0.1,0.8l-0.1,0.8l0.6,0.1l0.4,0.3l0.6,0.3l0.7,0.4l0.6,0.6l0.7,0.6l0.7,0.7
			l0.7,1l-0.9-0.3L55.5,93l-0.6,0.1l-0.6,0.1l-0.6,0.4c0,0-0.4,0.3-0.4,0.3c-0.3,0.2-0.8,0.4-1.2,0.4c0.3,0.8,0.1,2,0.7,2.7
			c0.7,0.8,1.9,0.6,2.8,0.6c1,0,1.4-0.3,2.3-0.6c1-0.3,1.3-0.9,2.2-1.5c1.2-0.8,2.9-1.8,3.4-3.2c0.4-0.9,0.3-1.8,0.5-2.7
			c0.3-1.4,0.7-2.7,0.9-4.2l0.3-1.8l0.6-1.5l0.6-1.7l1.2-1.5l1.3-1.4l1.6-1.4l1.7-1.4l1.9-1.4l1.9-1.2l2.2-1.2l2.2-1.2l2-1.1
			l2.2-1.1l2.2-1.1l2-1.1l2-1.1l1.9-1l1.7-1.1l1.5-1l-0.4,2.5L95.4,66v1.7l0.1,1.4l0.4,1.1l0.7,0.6l1,0.4l1.3,0.1l1.6-0.1l1.8-0.4
			l2.2-0.6l2.5-0.8l2.8-0.8l3.1-1.1l3.5-1.1l3.8-1.2l-1.2,2.2l-1.9,1.9l-2.2,1.9L113,73l-1.5,1.5l-0.3,1.5l1.3,1.5l3.2,1.2l-2.8,1.1
			l-3.1,1.5l-2.8,1.9l-2.3,2.2l-1.6,2.4l-0.6,2.8l0.7,2.8l2.5,3l-1.7-0.3l-1.5-0.1h-1.2h-1l-1,0.1l-0.9,0.3l-1,0.3l-1.2,0.6l1.9,0.6
			l1.9,0.8l1.6,0.8l1.7,1.1l1.6,1l1.9,0.8l2.2,0.7l2.3,0.4h1.2l1-0.1l0.9-0.3l0.9-0.3l0.9-0.3l0.7-0.4l0.7-0.6l0.7-0.4l-1.2,0.3H116
			h-1.2l-1.2-0.3l-1-0.3l-1-0.6l-1-0.6l-0.9-0.8l-0.7-0.7l-0.4-0.7l-0.3-0.7l-0.3-0.8l-0.1-0.7v-0.8v-1l0.1-1l0.4-0.7l0.4-0.8
			l0.4-0.7l0.7-0.7l0.7-0.7l0.7-0.6l0.9-0.6l1-0.4l1.6-0.1l1.5-0.1l1.5,0.1l1.5,0.3l1.5,0.4l1.3,0.7l1.2,0.8l1.2,1.1l0.3-0.6
			l0.3-0.8l0.1-0.7l0.3-0.8v-0.8l0.1-0.8v-0.8l-0.1-0.8l-0.9,0.3l-0.9,0.3l-0.9,0.3l-0.9,0.1l-0.9,0.1l-0.9,0.1l-0.9-0.1l-0.9-0.1
			l1.9-1.9l1.9-1.9l1.7-2.1l1.7-1.9l1.6-2.1l1.6-2.1l1.6-2.2l1.5-2.2v2.8v2.8l0.1,2.8l0.1,2.6l0.4,2.6l0.4,2.6l0.7,2.5L134.6,90z"/>
		<path id="path1113_8_" class="st7" d="M121.7,93.9l-0.4-0.8l-1-0.6l-1.5-0.8l-1-0.1l-0.9-0.1l-0.7,0.1l-0.7,0.1l-0.7,0.1l-0.6,0.3
			l-0.6,0.4l-0.6,0.4l-0.4,1.1l0.1,0.8l0.4,0.8l0.7,0.7l0.9,0.4l1,0.3l1,0.1h1l1-0.1l1-0.4l0.9-0.7l0.9-1L121.7,93.9z M134.6,90
			l-0.7-0.4l-0.6-0.6l-0.7-0.6l-0.7-0.6l-0.7-0.7l-0.6-0.7l-0.6-0.7l-0.4-0.8l-0.1,1.1l-0.1,1.1l-0.1,1.1l-0.3,1.1l-0.3,1.1
			l-0.3,1.1l-0.4,1.1l-0.4,1l0.6,1.7l0.3,1.7l-0.1,1.8l-0.3,1.7l-0.7,1.8l-0.7,1.5l-0.9,1.5l-1,1.2l-1.3,1.4l-1.9,1.4l-2,1.1
			l-2.2,1.1l-2.3,0.8l-2.3,0.6l-2.2,0.4l-1.9,0.3l1.7,0.8l2,0.4l2.2,0.1l2.2,0.3l2,0.7l1.7,1.1l1.2,1.9l0.6,3l-0.6-0.3l-0.7-0.4
			l-0.6-0.4l-0.7-0.3l-0.7-0.4l-0.6-0.3l-0.7-0.3l-0.6-0.1l0.1,1.4v1.5v1.5v1.5v1.4l-0.1,1.5l-0.3,1.4l-0.3,1.2
			c-0.1,0.4-0.1,0.9-0.3,1.3c-0.3,0.9-0.3,1.8-0.3,2.8c0,0.8-0.1,1.4,0.7,1.9c0.9,0.5,1.7,0.6,2.7,0.6c0.6,0,1.6,0.1,2.2-0.1
			c0.2-0.1,0.4-0.3,0.6-0.3c-0.1,0.6-0.1,1.8,0.5,2c0.8,0.2,1.6,0,2.4,0.4c0.7,0.4,1.5,0.7,2.1,1.3c-1.1,0-2.1,0-3.2,0
			c-0.9,0-1.6-0.2-1.9,0.6c-0.3,0.6-0.2,1.9-1.1,1.6c-0.7-0.3-1.6-1-2.2-1.4c-0.7-0.4-1.4-0.9-2.1-1.2c-1.1-0.4-2.2-0.6-3.4-0.6
			c-0.9,0-2.1-0.1-2.8,0.6c-0.8,0.8-1.4,1.5-2.3,2.1l-1.3,0.7l-1.3,0.6l-1.5,0.3l-1.3,0.3l-1.5,0.4l-1.3,0.4l0.1-0.6v-0.6l-0.1-0.4
			l-0.4-0.7h0.6h0.7l0.6-0.1l0.7-0.1l0.6-0.1l0.6-0.1l0.6-0.1l0.6-0.1l-0.1-0.4l-0.1-0.3l-0.4-0.1l-0.4-0.1l-0.9,0.1l-0.9,0.1h-0.9
			h-0.9h-0.9h-1l-0.9-0.1l-0.9-0.1l0.6-0.4v-0.7l-0.3-0.8l-0.4-1l0.9,0.1l0.7,0.3l0.9,0.4l0.9,0.3l0.9,0.1l0.9,0.3h0.7l0.9-0.1
			l-0.6-0.4l-0.7-0.3l-0.6-0.4l-0.7-0.3l-0.7-0.3l-0.7-0.3l-0.7-0.1l-0.7-0.3l0.4-0.6l0.3-0.7l0.1-0.8v-1l0.9,0.7l1,0.8l1,0.7l1,0.6
			l1,0.6l1,0.4l1.2,0.3l1.2,0.1l0.3-0.8l0.4-0.8l0.4-0.7l0.4-0.8l0.6-0.7l0.4-0.7l0.6-0.7l0.6-0.7l0.3-0.8l0.3-0.7v-0.8v-0.8
			l-0.1-0.8l-0.1-0.8l-0.3-0.8l-0.3-1l-0.4-0.7l-0.4-0.6l-0.6-0.6l-0.6-0.4l-0.7-0.4l-0.7-0.3l-0.7-0.3l-0.9-0.3l-1.2-0.1h-1
			l-1.2-0.1H100h-1.2l-1.2-0.1l-1-0.1l-1.2-0.3l-1.3-0.1l-1.3-0.3l-1.3-0.3l-1.2-0.4l-1-0.4l-1-0.6l-0.7-0.7l-0.7-0.8l-1.2-0.4
			l-1.3-0.4l-1.3-0.7l-1.2-0.8l-1.2-0.8l-1-0.8l-0.7-1l-0.6-0.8l-0.4,1.1l-0.7,1.1l-0.7,0.8l-1,0.7l0.7,0.6l0.7,0.7l0.4,0.8l0.1,0.8
			l1.2,0.6l1,0.6l0.9,0.8l0.7,1l0.9,0.6l0.6,0.8l0.4,1l0.1,0.8l1.3,0.4l1.3,0.4l1.2,0.6l1.3,0.6l1.2,0.7l1.2,0.8l1.2,0.8l0.3,0.3
			l-0.6-0.1l-0.6-0.1h-0.6H90h-0.6l-0.6,0.1l-0.4,0.1l-0.6,0.7l-0.7,0.7l-0.6,0.7l-0.7,0.6l-0.7,0.7l-0.7,0.6l-0.7,0.4l-0.9,0.5
			l-1,0.7l-1.2,0.8l-1.3,0.8l-1.3,0.8l-1.2,0.7c-0.6,0.3-1.6,0.1-1.5,0.8c0.1,0.8,1.1,0.8,1.7,0.8c1.3,0.2,2.6,0.5,3.8,0.7
			c-0.2,0-0.4,0.2-0.5,0.3c-0.1,0.2,0,0.5,0.1,0.6c0.3,0.4,0.7,0.8,1,1.2c1,1.1,1.4,2.2,1.3,3.7c0,0.4-0.2,1.1-0.6,0.7
			c-0.4-0.3-0.5-0.9-0.7-1.4c-0.2-0.5-0.4-0.9-0.7-1.3c-0.3-0.4-0.9-1-1.4-1c-0.2,0-0.3,0.1-0.2,0.3c-0.4-0.1-0.6,0.7-1,0.9
			c-0.8-0.6-1.6-1.3-2.5-1.8c-0.7-0.4-1.4-0.8-2.2-1.2c-1.7-0.8-3.3-0.4-5.1-0.4h-0.6l-0.7,0.1l-0.7,0.1l-0.7,0.1l-0.6,0.1l-0.6,0.1
			l-0.6,0.1l-0.6,0.1l-0.6,0.1l-0.6,0.3l-0.4,0.1l-0.6,0.3l-0.7-0.6l-0.7-0.4l-1-0.3l-1-0.1l0.4-0.4L59,141l1.3-0.3l1.5-0.3l1.5-0.3
			l1.3-0.3l1-0.4l0.6-0.4l-1.2,0.1l-1.2,0.1h-1.2h-1.2h-1.2h-1.2H58l-1-0.1l0.1-0.7l-0.1-0.6l-0.4-0.6l-0.6-0.6l1-0.1l0.9,0.1l1,0.1
			l1,0.4l1,0.3l1,0.3l1,0.1l1-0.1l-0.6-0.4l-0.6-0.4l-0.7-0.4l-0.7-0.4l-0.7-0.3l-0.7-0.3l-0.9-0.3l-0.9-0.1l0.6-0.4l0.4-0.7v-0.8
			l-0.1-1.2l0.6,0.6l0.7,0.6l0.7,0.4l0.7,0.3l0.7,0.3l0.9,0.3l0.9,0.3l0.9,0.4l0.4-0.6l0.6-0.4l0.7-0.1h0.7l0.7,0.1l0.7,0.3l0.7,0.6
			l0.6,0.7l1-0.3l0.9-0.4l1-0.4L74,134l0.9-0.6l0.7-0.6l0.6-0.7l0.6-0.7l-0.4-0.4l-0.7-0.4l-0.9-0.3l-1-0.3l-1-0.3l-1-0.3l-1-0.3
			l-0.9-0.4l-0.6-0.4l-0.7-0.6l-0.6-0.6l-0.4-0.6l-0.4-0.6l-0.4-0.7l-0.1-0.7l-0.1-0.7l0.1-0.6l0.1-0.6l0.4-0.6l0.4-0.6l0.4-0.6
			l0.4-0.6l0.3-0.7l0.3-0.6l-1.9,0.1l-2.2,0.4l-2.3,0.6l-2.6,0.7l-2.6,1l-2.8,0.8l-2.5,0.8l-2.5,0.8v1v1l-0.3,1.1l-0.3,1l-0.4-0.8
			l-0.3-0.7l-0.6-0.7l-0.6-0.4l0.3-0.7l0.3-0.6l0.1-0.7l0.3-0.7l-0.9-0.4l-0.9,0.1l-0.9,0.7l-0.7,0.8l-1,1.9l-0.9,1.5l-0.7,1.4
			l-0.9,1.2l-1,1.1l-1,1.2l-1.3,1.4c-0.4,0.4-1.5,1.2-1.6,1.8c-0.2,0.9,1.4,1.2,1.9,1.4c0.6,0.2,1.3,0.3,2,0.4c0.4,0,0.7,0.1,1,0.2
			c0.4,0.1,0.9,0,1.4,0.1c0,0.4-0.1,0.8-0.2,1.2c-0.2,0.6-0.2,1.2-0.4,1.7c1,0.1,1.6,0.7,2.2,1.2c0.6,0.6,1.2,1.2,1.7,1.8
			c-0.5-0.1-1.1-0.3-1.6-0.4c-0.7-0.1-1.4-0.3-2.1-0.5c-0.2-0.1-1-0.4-1.2-0.3c-0.2,0.2,0.1,0.6-0.1,0.8c-0.4,0.5-1.3-0.4-1.6-0.7
			c-0.7-0.6-1.4-1.1-2.1-1.7c-0.5-0.4-0.8-0.9-1.2-1.5c-0.1-0.2-0.3-0.5-0.5-0.7c-0.3-0.3,0.1-0.1-0.4-0.3c-0.4-0.1-1.4-0.2-1.8,0
			c-0.4,0.1-0.4,0.5-0.5,0.9l-0.6,0.6l-0.7,0.4l-0.7,0.3l-1.5,0.1l-0.9,0.1l-0.7,0.1h-0.7l-0.6,0.7L26,143l-0.9,0.1l-0.7,0.1h-0.9
			h-0.7l-0.7,0.1l-0.7,0.3l0.1-0.7l-0.1-0.6l-0.4-0.4l-0.6-0.4h1h0.9l0.9-0.1l0.7-0.1l0.7-0.1l0.7-0.1l0.9-0.3l0.9-0.3l0.3-0.4
			l0.1-0.3l-0.4-0.4l-0.6-0.3h-0.7l-0.9,0.1l-0.7,0.1h-0.9l-0.7,0.1h-0.7l-0.7-0.1l-0.7-0.3l-0.6,0.1l-0.4,0.3L19,140l-0.3,0.6v-1
			l-0.3-0.8l-0.3-0.7l-0.6-0.7l0.9,0.1l0.9,0.1l1,0.1l1,0.1l0.9,0.1h1l1,0.1l0.9,0.1l-0.6-0.6l-0.7-0.4l-0.7-0.4l-0.7-0.3l-0.9-0.3
			l-1-0.1l-0.9-0.1l-1-0.1l1-0.3l0.9-0.6l0.4-0.7l0.3-1l0.7,0.6l0.6,0.3l0.7,0.3l0.7,0.3l0.7,0.1l0.7,0.3l0.7,0.3l0.7,0.4l0.7-0.1
			h0.6l0.6-0.1l0.6-0.3l0.4-0.1l0.6-0.3l0.4-0.4l0.6-0.3l0.3-1.1l0.7-0.6l1-0.3l1.3-0.3l-0.1-1.1v-1.1l0.4-0.8l0.7-0.6l-0.3-0.8V127
			l0.4-0.7l0.9-0.6l-0.6-1l-0.1-0.8l0.4-1l0.9-1l-0.7,0.4l-0.7,0.4l-0.7,0.3l-0.7,0.1h-0.9h-0.7L32,123l-0.7-0.3l0.1,0.8l-0.1,0.8
			l-0.3,0.8l-0.3,0.7l-0.3,0.8l-0.4,0.8l-0.6,0.7l-0.4,0.7l-0.6,0.6l-0.6,0.4l-0.7,0.3l-0.6,0.3l0.4-0.7l0.3-0.7l0.3-0.7l0.1-0.7
			V127v-0.7v-0.7l-0.1-0.7l-1.3-1.4l-1.2-1.4l-1-1.2l-1.2-1.2l-0.9-1.2l-1-1.2L20,116l-0.9-1.2l-0.7-1.2l-0.7-1.3l-0.7-1.4l-0.6-1.4
			l-0.6-1.5l-0.4-1.7l-0.6-1.7l-0.4-1.9l-0.9,1.1l-0.7,1.1l-0.6,1.1l-0.4,1.2l-0.6,1.2l-0.3,1.1l-0.6,1l-0.4,1v-0.7l-0.1-0.7v-0.6
			v-0.6l-0.1-0.6V108l-0.1-0.6l-0.1-0.6l0.4-0.7l0.4-0.8l0.4-0.8l0.3-0.8l0.4-0.7l0.3-0.8l0.4-0.8l0.3-0.7l-0.6-1.4l-0.4-1.4
			l-0.4-1.5l-0.1-1.5l-0.3-1.7l-0.3-1.5l-0.3-1.4L9.3,89l0.9-0.1l0.9-0.3l0.6-0.7l0.7-1v1l0.1,1l0.1,1l0.1,0.8l0.3,0.8l0.4,0.7
			l0.4,0.7l0.4,0.4l0.1-1l0.3-1l0.1-1v-1l0.1-1l-0.1-1l-0.3-1l-0.4-1l1,0.1l0.9-0.1l1-0.4l0.9-0.7l-0.3,1.4l-0.1,1.1v0.8l0.1,0.7
			v0.8l0.1,0.8v1l-0.1,1.4l0.3-0.8l0.3-0.6l0.3-0.6L19,90l0.3-0.4l0.3-0.6l0.1-0.6v-0.7l0.4,1l0.6,0.7l0.7,0.6l0.9,0.3L21.9,91
			l-0.6,0.7l-0.6,0.7L20.2,93l-0.6,0.5L19,94.1l-0.7,0.7l-0.7,0.6l0.4,1.1l0.3,1.1l0.4,1.1l0.4,1.1l0.3,1.2l0.3,1.1l0.1,1.3l0.1,1.2
			l1.3,0.7l1.2,0.7l1.3,0.8l1.2,0.7l1.2,1l1.2,0.8l1,1l0.9,1.1l0.4-0.3v-0.4v-0.8l-0.1-0.8l-0.3-1v-1l0.3-1l0.6-0.8l-0.1-0.6
			l-0.1-0.6v-0.7l0.1-0.7l0.1-0.7l0.3-0.7l0.4-0.4l0.6-0.3l-0.1-0.6l-0.1-0.8v-0.8l0.1-0.8l0.1-1l0.4-0.7l0.4-0.7l0.7-0.6l-0.1-0.6
			v-0.7l0.1-0.8l0.3-0.8l0.4-0.8l0.4-0.6l0.6-0.6l0.7-0.1L35.3,89l0.1-0.7l0.1-0.8l0.1-0.7l0.4-0.6l0.3-0.6l0.4-0.3l0.4-0.3
			l-0.1-0.7l0.1-0.8v-0.7l0.3-0.7l0.3-0.7l0.4-0.7l0.6-0.6l0.7-0.6l-0.7-0.3l-0.6-0.1h-0.7L37,79.7l-0.7,0.8l-0.4,0.8l-0.6,1
			l-0.4,1.1l-0.6-0.6l-0.6-0.7l-0.3-0.7l-0.1-1L33,81.3l-0.4,0.8l-0.3,0.8L32,83.8l-0.1,0.7l-0.3,0.8L31.4,86v0.6l-0.4-0.8l-0.3-0.8
			l-0.3-1l-0.3-1l-0.1-1v-1l0.1-1l0.1-1l1.3-0.3l1.5-0.3l1.3-0.4l1.3-0.6l1.3-0.4l1.3-0.4l1.2-0.4l1.3-0.1l-0.1-0.8l-0.4-0.7
			l-0.4-0.8l-0.7-0.7l-0.7-0.6l-0.7-0.4l-0.9-0.3l-0.9-0.1l-1,0.4l-0.9,0.6L33,73.4l-1,0.6l-0.6,0.4l-0.7,0.1l-0.7,0.1l-0.6-0.1
			l-1-1l-0.7-0.8L27,71.8l-0.3-1h-9l1.3-1l1.6-0.8l1.7-0.8l1.9-0.7l2-0.6l2.2-0.6l2.2-0.4l2.2-0.1l0.1-0.7l0.4-0.4l0.4-0.4l1-0.3
			l1.3-0.3l1.3-0.1h1.3l1.3,0.1l1.3,0.1l1.3,0.1l1.3,0.1l1.3,0.3l0.2-1l0.4-1l0.9-0.7L48,61l1.2-0.6l1.3-0.7l1.3-0.6l1.2-0.7
			l0.3,0.7L53,60.1l-0.3,1l-0.1,1l1.2-0.3l1.2-0.6l0.9-0.7l0.9-0.8l0.4,0.6l0.1,0.7v0.6L57,62l-0.3,0.6l-0.3,0.5l-0.1,0.6v0.4
			l0.3,0.4l0.6,0.3l0.4,0.3l-0.1,0.7L56,66.3l-1,0.6l-0.6,0.4l-0.4,0.6l-0.3,0.4l-0.1,0.6l-0.3,0.6L52.9,70l0.7,0.1l0.9,0.4l0.9,0.4
			l0.9,0.6l0.9,0.7l0.6,0.7l0.6,0.8l0.3,1L58,74.5l-0.7-0.3l-0.6-0.3l-0.6-0.3l-0.7-0.1l-0.6-0.1l-0.4,0.1l-0.4,0.1l0.1,0.7l0.1,0.6
			v0.6l-0.1,0.4l0.9,0.4l0.9,0.6l0.7,0.6l0.7,0.8l0.6,0.7l0.4,0.8l0.4,0.8l0.4,0.8l-1-1l-1-0.4l-0.7-0.1h-0.6L55.4,80l-0.4,0.1h-0.4
			L54.1,80v0.6l-0.1,0.7v0.8l-0.3,0.8l0.9,0.3l0.7,0.4l0.9,0.6l0.7,0.8l0.6,0.8l0.6,0.8l0.6,0.8l0.3,0.7l-1-0.8l-1-0.4L56,86.8h-0.7
			l-0.7,0.1h-0.6l-0.6-0.1l-0.4-0.3l-0.3,0.7l-0.1,0.7l-0.1,0.8l-0.1,0.8l0.6,0.1l0.4,0.3l0.6,0.3l0.7,0.4l0.6,0.6l0.7,0.6l0.7,0.7
			l0.7,1l-0.9-0.3L55.5,93l-0.6,0.1l-0.6,0.1l-0.6,0.4c0,0-0.4,0.3-0.4,0.3c-0.3,0.2-0.8,0.4-1.2,0.4c0.3,0.8,0.1,2,0.7,2.7
			c0.7,0.8,1.9,0.6,2.8,0.6c1,0,1.4-0.3,2.3-0.6c1-0.3,1.3-0.9,2.2-1.5c1.2-0.8,2.9-1.8,3.4-3.2c0.4-0.9,0.3-1.8,0.5-2.7
			c0.3-1.4,0.7-2.7,0.9-4.2l0.3-1.8l0.6-1.5l0.6-1.7l1.2-1.5l1.3-1.4l1.6-1.4l1.7-1.4l1.9-1.4l1.9-1.2l2.2-1.2l2.2-1.2l2-1.1
			l2.2-1.1l2.2-1.1l2-1.1l2-1.1l1.9-1l1.7-1.1l1.5-1l-0.4,2.5L95.4,66v1.7l0.1,1.4l0.4,1.1l0.7,0.6l1,0.4l1.3,0.1l1.6-0.1l1.8-0.4
			l2.2-0.6l2.5-0.8l2.8-0.8l3.1-1.1l3.5-1.1l3.8-1.2l-1.2,2.2l-1.9,1.9l-2.2,1.9L113,73l-1.5,1.5l-0.3,1.5l1.3,1.5l3.2,1.2l-2.8,1.1
			l-3.1,1.5l-2.8,1.9l-2.3,2.2l-1.6,2.4l-0.6,2.8l0.7,2.8l2.5,3l-1.7-0.3l-1.5-0.1h-1.2h-1l-1,0.1l-0.9,0.3l-1,0.3l-1.2,0.6l1.9,0.6
			l1.9,0.8l1.6,0.8l1.7,1.1l1.6,1l1.9,0.8l2.2,0.7l2.3,0.4h1.2l1-0.1l0.9-0.3l0.9-0.3l0.9-0.3l0.7-0.4l0.7-0.6l0.7-0.4l-1.2,0.3H116
			h-1.2l-1.2-0.3l-1-0.3l-1-0.6l-1-0.6l-0.9-0.8l-0.7-0.7l-0.4-0.7l-0.3-0.7l-0.3-0.8l-0.1-0.7v-0.8v-1l0.1-1l0.4-0.7l0.4-0.8
			l0.4-0.7l0.7-0.7l0.7-0.7l0.7-0.6l0.9-0.6l1-0.4l1.6-0.1l1.5-0.1l1.5,0.1l1.5,0.3l1.5,0.4l1.3,0.7l1.2,0.8l1.2,1.1l0.3-0.6
			l0.3-0.8l0.1-0.7l0.3-0.8v-0.8l0.1-0.8v-0.8l-0.1-0.8l-0.9,0.3l-0.9,0.3l-0.9,0.3l-0.9,0.1l-0.9,0.1l-0.9,0.1l-0.9-0.1l-0.9-0.1
			l1.9-1.9l1.9-1.9l1.7-2.1l1.7-1.9l1.6-2.1l1.6-2.1l1.6-2.2l1.5-2.2v2.8v2.8l0.1,2.8l0.1,2.6l0.4,2.6l0.4,2.6l0.7,2.5L134.6,90z"/>
		<path id="path1117_8_" class="st6" d="M20.5,87.4L20.5,87.4l0.1,1L21,89l0.6,0.4l0.9,0.4l0.1-0.8l0.1-1l-0.1-0.8l-0.1-0.8
			l-0.3-0.8l-0.4-0.8L21,84l-0.9-0.7l0.3,1.1l0.1,1v1L20.5,87.4z"/>
		<path id="path1121_8_" class="st7" d="M20.5,87.4L20.5,87.4l0.1,1L21,89l0.6,0.4l0.9,0.4l0.1-0.8l0.1-1l-0.1-0.8l-0.1-0.8
			l-0.3-0.8l-0.4-0.8L21,84l-0.9-0.7l0.3,1.1l0.1,1v1L20.5,87.4"/>
		<path id="path1125_8_" class="st6" d="M99,143.3L99,143.3l0.3,0.6l0.3,0.4v0.4l-0.3,0.6l-0.7-0.3l-0.6-0.1l-0.7,0.3l-0.6,0.3
			l0.3-0.8l0.4-0.6l0.7-0.4L99,143.3z"/>
		<path id="path1129_8_" class="st7" d="M99,143.3L99,143.3l0.3,0.6l0.3,0.4v0.4l-0.3,0.6l-0.7-0.3l-0.6-0.1l-0.7,0.3l-0.6,0.3
			l0.3-0.8l0.4-0.6l0.7-0.4L99,143.3"/>
		<path id="path1133_8_" class="st6" d="M95.5,138.9L95.5,138.9l0.4,0.6l0.1,0.7v0.6l-0.4,0.4l-0.9-0.3h-0.9L93,141l-0.9,0.6
			l0.4-1.1l0.7-0.8l0.9-0.6L95.5,138.9z"/>
		<path id="path1137_8_" class="st7" d="M95.5,138.9L95.5,138.9l0.4,0.6l0.1,0.7v0.6l-0.4,0.4l-0.9-0.3h-0.9L93,141l-0.9,0.6
			l0.4-1.1l0.7-0.8l0.9-0.6L95.5,138.9"/>
		<path id="path1141_8_" class="st6" d="M97.6,134.7L97.6,134.7l0.1,0.6l-0.1,0.6l-0.3,0.7l-0.4,0.6l-0.7-0.4l-0.7-0.1h-0.9
			l-0.9,0.1l0.9-0.7l1-0.7l0.9-0.4L97.6,134.7z"/>
		<path id="path1145_8_" class="st7" d="M97.6,134.7L97.6,134.7l0.1,0.6l-0.1,0.6l-0.3,0.7l-0.4,0.6l-0.7-0.4l-0.7-0.1h-0.9
			l-0.9,0.1l0.9-0.7l1-0.7l0.9-0.4L97.6,134.7"/>
		<path id="path1149_8_" class="st6" d="M58.7,132.4L58.7,132.4l0.3,0.7v0.7l-0.3,0.5l-0.3,0.6l-0.4-0.3l-0.6-0.3l-0.6-0.3l-0.6-0.1
			l-0.6-0.1h-0.6h-0.6l-0.6,0.1l0.4-0.4l0.6-0.3l0.6-0.3l0.6-0.3l0.6-0.1l0.6-0.1H58H58.7z"/>
		<path id="path1153_8_" class="st7" d="M58.7,132.4L58.7,132.4l0.3,0.7v0.7l-0.3,0.5l-0.3,0.6l-0.4-0.3l-0.6-0.3l-0.6-0.3l-0.6-0.1
			l-0.6-0.1h-0.6h-0.6l-0.6,0.1l0.4-0.4l0.6-0.3l0.6-0.3l0.6-0.3l0.6-0.1l0.6-0.1H58H58.7"/>
		<path id="path1157_8_" class="st6" d="M55.8,137.4L55.8,137.4l0.4,0.3l0.1,0.4l0.1,0.4v0.6l-1-0.3h-0.9l-0.9,0.3l-0.9,0.4l0.4-0.8
			l0.6-0.7l0.9-0.4L55.8,137.4z"/>
		<path id="path1161_8_" class="st7" d="M55.8,137.4L55.8,137.4l0.4,0.3l0.1,0.4l0.1,0.4v0.6l-1-0.3h-0.9l-0.9,0.3l-0.9,0.4l0.4-0.8
			l0.6-0.7l0.9-0.4L55.8,137.4"/>
		<path id="path1165_8_" class="st6" d="M58,142.2L58,142.2h0.7l0.7,0.1l0.7,0.4l0.6,0.3H60h-0.6l-0.6,0.1h-0.6l-0.4,0.1l-0.6,0.1
			l-0.4,0.1l-0.6,0.3l0.1-0.6l0.3-0.6l0.6-0.3L58,142.2z"/>
		<path id="path1169_8_" class="st7" d="M58,142.2L58,142.2h0.7l0.7,0.1l0.7,0.4l0.6,0.3H60h-0.6l-0.6,0.1h-0.6l-0.4,0.1l-0.6,0.1
			l-0.4,0.1l-0.6,0.3l0.1-0.6l0.3-0.6l0.6-0.3L58,142.2"/>
		<path id="path1173_8_" class="st6" d="M20,142.2L20,142.2l0.4,0.1l0.3,0.3v0.6v0.7l-1.2-0.1h-0.9l-1,0.4l-1.2,0.6l0.4-1l0.7-0.7
			l1-0.4L20,142.2z"/>
		<path id="path1177_8_" class="st7" d="M20,142.2L20,142.2l0.4,0.1l0.3,0.3v0.6v0.7l-1.2-0.1h-0.9l-1,0.4l-1.2,0.6l0.4-1l0.7-0.7
			l1-0.4L20,142.2"/>
		<path id="path1181_8_" class="st6" d="M17.8,140.3L17.8,140.3l-0.6-0.3l-0.4-0.3h-0.6l-0.6-0.1h-0.6l-0.6,0.1l-0.7,0.3l-0.7,0.3
			l0.6-1.1l0.9-0.8l1.2-0.4l1.2-0.3l0.7,0.7l0.4,0.6l0.1,0.7L17.8,140.3z"/>
		<path id="path1185_8_" class="st7" d="M17.8,140.3L17.8,140.3l-0.6-0.3l-0.4-0.3h-0.6l-0.6-0.1h-0.6l-0.6,0.1l-0.7,0.3l-0.7,0.3
			l0.6-1.1l0.9-0.8l1.2-0.4l1.2-0.3l0.7,0.7l0.4,0.6l0.1,0.7L17.8,140.3"/>
		<path id="path1189_8_" class="st6" d="M20.8,133.2L20.8,133.2l-0.4,1l-0.6,0.7l-0.6,0.5l-0.9,0.1l-0.9-0.1h-0.7l-0.7,0.3l-1,0.4
			l0.6-0.7l0.6-0.5l0.7-0.6l0.6-0.3l0.9-0.4l0.7-0.1l0.9-0.1L20.8,133.2z"/>
		<path id="path1193_8_" class="st7" d="M20.8,133.2L20.8,133.2l-0.4,1l-0.6,0.7l-0.6,0.5l-0.9,0.1l-0.9-0.1h-0.7l-0.7,0.3l-1,0.4
			l0.6-0.7l0.6-0.5l0.7-0.6l0.6-0.3l0.9-0.4l0.7-0.1l0.9-0.1L20.8,133.2"/>
		<path id="path1197_8_" class="st6" d="M17.6,84.3L17.6,84.3v-0.7l-0.1-0.6l-0.3-0.5L16.7,82L16,81.4l-0.7-0.3l-1-0.4L13,80.6
			l0.9,0.6l0.6,0.6l0.4,0.6l0.3,0.6v0.7V84l-0.3,0.6l-0.3,0.6l0.7,0.1l0.7-0.1l0.7-0.4L17.6,84.3z"/>
		<path id="path1201_8_" class="st7" d="M17.6,84.3L17.6,84.3v-0.7l-0.1-0.6l-0.3-0.5L16.7,82L16,81.4l-0.7-0.3l-1-0.4L13,80.6
			l0.9,0.6l0.6,0.6l0.4,0.6l0.3,0.6v0.7V84l-0.3,0.6l-0.3,0.6l0.7,0.1l0.7-0.1l0.7-0.4L17.6,84.3"/>
		<path id="path1205_8_" class="st6" d="M11.7,86.8L11.7,86.8l-0.1-0.7l-0.3-0.4l-0.4-0.4l-0.6-0.4l-0.6-0.1l-0.9-0.1H8H7.1l1.5,0.7
			l0.9,0.8l0.1,1l-0.1,1.1l0.6,0.1l0.4-0.3l0.6-0.6L11.7,86.8z"/>
		<path id="path1209_8_" class="st7" d="M11.7,86.8L11.7,86.8l-0.1-0.7l-0.3-0.4l-0.4-0.4l-0.6-0.4l-0.6-0.1l-0.9-0.1H8H7.1l1.5,0.7
			l0.9,0.8l0.1,1l-0.1,1.1l0.6,0.1l0.4-0.3l0.6-0.6L11.7,86.8"/>
		<path id="path1213_8_" class="st6" d="M35.2,73L35.2,73l1.3,0.1l1,0.8l0.3,1.1l-0.9,1.1L35,77l-1.9,0.6l-2.2,0.4l-2.3,0.1h-2.3
			L24,77.9l-2.3-0.1l-2.3-0.4l-0.3,1v0.8l0.4,0.8l0.6,1l-1.6-1.1l-1.6-1.2l-1.5-1.2L14.1,76l-1.2-1.4L12,73l-0.9-1.5l-0.6-1.8
			l0.7,0.6l1.2,0.7l1.4,0.6l1.6,0.4l1.6,0.6l1.5,0.3l1.3,0.3h0.9l-0.1,0.7l-0.1,0.6v0.4l0.1,0.3l1.5,0.4l1.6,0.1h1.9l1.9-0.1l2-0.3
			l2-0.6l1.9-0.7L35.2,73z"/>
		<path id="path1217_8_" class="st7" d="M35.2,73L35.2,73l1.3,0.1l1,0.8l0.3,1.1l-0.9,1.1L35,77l-1.9,0.6l-2.2,0.4l-2.3,0.1h-2.3
			L24,77.9l-2.3-0.1l-2.3-0.4l-0.3,1v0.8l0.4,0.8l0.6,1l-1.6-1.1l-1.6-1.2l-1.5-1.2L14.1,76l-1.2-1.4L12,73l-0.9-1.5l-0.6-1.8
			l0.7,0.6l1.2,0.7l1.4,0.6l1.6,0.4l1.6,0.6l1.5,0.3l1.3,0.3h0.9l-0.1,0.7l-0.1,0.6v0.4l0.1,0.3l1.5,0.4l1.6,0.1h1.9l1.9-0.1l2-0.3
			l2-0.6l1.9-0.7L35.2,73"/>
		<path id="path1221_8_" class="st7" d="M95.2,66L95.2,66l-2.9,1.2l-2.8,1.2l-2.6,1.2L84.6,71l-2.2,1.2l-2.2,1.4L78.4,75l-1.7,1.4
			L75,77.8l-1.5,1.4l-1.5,1.4l-1.2,1.5l-1.2,1.4l-1,1.5l-0.9,1.5L67,88.1l1.2-1.4l1.3-1.2l1.3-1.4l1.6-1.2l1.5-1.2l1.7-1.1l1.7-1.1
			l1.9-1.1l2-1.1l2-1l2.2-1l2.3-0.8l2.5-0.8l2.5-0.8l2.8-0.7l2.8-0.7l0.9-0.1l0.7-0.1l0.9-0.1l0.9-0.1l0.7-0.1l0.9-0.1l0.7-0.1
			l0.9-0.1l-1.9,0.8l-1.9,0.8l-1.9,0.7l-1.9,0.8l-1.9,0.8L93.6,75l-1.9,0.8L90,76.7l-1.7,0.8l-1.7,0.8l-1.6,1l-1.7,1l-1.6,1l-1.5,1
			l-1.5,1.1l-1.5,1.1l2-0.8l2.2-0.8l2.2-0.8l2.2-0.6l2-0.7l2.2-0.6l2.2-0.6l2.3-0.4l2.2-0.4l2.2-0.3l2.2-0.3l2.3-0.3l2.3-0.1
			l2.2-0.1l2.3-0.1h2.3l0.7,0.3l0.6,0.1l0.7,0.3l0.7,0.3l-0.9,0.4l-0.9,0.4l-0.9,0.4l-0.7,0.4l-0.9,0.4l-0.9,0.4l-0.7,0.6l-0.9,0.4
			h-2.3l-2.2,0.1l-2.2,0.1l-2.2,0.1l-2.2,0.1l-2.2,0.3l-2,0.1l-2.2,0.3l-2,0.4l-2,0.4l-1.9,0.4l-2,0.4l-1.9,0.6l-1.9,0.7l-1.9,0.7
			l-1.7,0.7l1.7-0.1h1.7H81l1.7,0.1l1.7,0.1l1.7,0.1l1.7,0.1l1.6,0.3l1.7,0.4L93,89l1.6,0.4l1.7,0.6l1.6,0.6l1.6,0.7l1.7,0.7
			l1.6,0.8l0.7,0.8l0.6,0.8l0.7,0.8l0.6,0.8l-1-0.1l-0.9-0.1h-1l-1-0.1l-1.6-0.8L98.4,94l-1.6-0.7l-1.6-0.6l-1.5-0.6l-1.6-0.4
			l-1.6-0.4L89,91.1l-1.6-0.3l-1.6-0.1l-1.6-0.1h-1.6L81,90.4h-1.6l-1.6,0.1h-1.6l2.5,0.7l2.6,1.1l2.6,1.1l2.6,1.4l2.5,1.7l2,1.8
			l1.7,1.8l1.3,2.1l1,1.8l1.2,1.7l1.2,1.5l1.5,1.4l1.6,1.2l1.6,1.2l1.9,1.2l1.9,1.1l2.5,1l2,1.2l1.3,1.2l1,1.5l0.7,1.5l0.6,1.5
			l0.4,1.7l0.6,1.7l-0.7-1.7l-0.7-1.7l-0.9-1.5l-0.9-1.4l-1.3-1.2l-1.5-1l-1.9-0.8l-2.2-0.7l-2.2-0.4l-2.2-0.7l-2-0.8l-2-1l-1.9-1.4
			l-1.7-1.4l-1.6-1.8l-1.6-2.1l-2.2-2.5l-2.2-2.2L83,98.6l-2.3-1.5l-2.3-1.2L76,95l-2.5-0.6l-2.5-0.1l2.5,1.5l2,1.8l1.6,1.8l1.3,1.9
			l0.9,2.1l0.6,2.2l0.4,2.2l0.3,2.2l-1.2-1.9l-1.2-1.9l-1.2-1.8l-1.2-1.8l-1.5-1.5l-1.5-1.4l-1.7-1L69.5,98l0.9,1.4l0.4,1.8l0.1,1.9
			l-0.1,2.2l-0.1,2.4l-0.3,2.2l-0.1,2.4l-0.1,2.2l-0.4-1.8l-0.3-1.9l-0.4-1.8l-0.3-1.8l-0.4-1.9l-0.3-1.8l-0.4-1.8L67,99.8l-2,0.7
			l-1.5,1.4l-0.9,1.9l-0.6,2.2l-0.4,2.5l-0.3,2.6l-0.3,2.5l-0.6,2.2l-0.4-1.7l-0.4-1.8l-0.3-1.8l-0.1-1.8L59,107v-1.9l0.3-1.9
			l0.4-2.1l-1,0.7l-0.9,0.8l-0.7,1.1l-0.7,1.1l-0.7,1.2l-0.6,1.4l-0.6,1.5l-0.4,1.7l-0.6-1.4l-0.4-1.5v-1.5l0.1-1.5l0.4-1.7l0.6-1.5
			l0.7-1.4l1-1.4l-3.1,1l-2.2,1l-1.6,0.8l-1,0.7l-0.7,0.7l-0.7,0.7l-0.6,0.7l-1,0.6v-1.4l0.3-1.4l0.6-1.1l0.9-1.1l1-1l1.3-0.8
			l1.5-0.8l1.5-0.8"/>
		<path id="path1225_8_" class="st8" d="M89.4,106.2l-1.9,0.6l-1.6,0.7l-1.3,0.8l-1.2,1l-0.9,1.2l-0.6,1.2l-0.4,1.5l-0.3,1.7
			l-0.3-0.3l-0.3-0.4l-0.4-0.3l-0.3-0.3l0.7-1.7l0.9-1.5l0.9-1.1l1.2-1l1.3-0.8l1.5-0.6l1.5-0.6L89.4,106.2z"/>
		<path id="path1229_8_" class="st8" d="M91.3,109.5l-1.6,0.4l-1.5,0.6l-1.2,0.8l-1,0.8l-0.7,1.1l-0.6,1.1l-0.4,1.4l-0.1,1.4
			l-0.3-0.3l-0.3-0.3l-0.3-0.3L83,116l0.6-1.5l0.7-1.2l1-1l1-1l1-0.7l1.3-0.4l1.2-0.4L91.3,109.5z"/>
		<path id="path1233_8_" class="st8" d="M105,114.5l-1.2,0.7l-0.9,0.8l-0.7,1l-0.4,0.8l-0.3,1.1l-0.1,1l0.1,1.1l0.3,1.1l-0.4-0.1
			l-0.1-0.1l-0.3-0.1l-0.4-0.1v-1.2l0.1-1.1l0.4-1l0.4-1l0.7-0.8l0.7-0.7l1-0.7L105,114.5z"/>
		<path id="path1237_8_" class="st8" d="M107.7,115.6l-1,0.7l-0.9,0.8l-0.6,0.8l-0.4,0.8l-0.3,1v1v1l0.3,1.1l-0.4-0.1l-0.1-0.1
			l-0.3-0.1l-0.3-0.1v-1.1l0.1-1.1l0.3-1l0.6-0.8l0.6-0.7l0.7-0.8l0.9-0.6L107.7,115.6z"/>
		<path id="path1241_8_" class="st8" d="M112.7,118.2l-1.3,0.1l-1.2,0.4l-1,0.4l-0.9,0.5l-0.7,0.8l-0.6,0.8l-0.4,1l-0.4,1.1
			l-0.1-0.3l-0.1-0.3l-0.3-0.3l-0.1-0.3l0.6-1.1l0.9-0.8l0.7-0.7l0.9-0.5l1-0.4l1-0.3l1-0.1L112.7,118.2z"/>
		<path id="path1245_8_" class="st8" d="M86.8,118l1.2-0.4l1.2-0.4l1.2-0.6l1-0.7l0.9-0.8l0.9-0.8l0.9-1l0.9-1l-0.6,1l-0.7,1l-0.6,1
			l-0.9,1l-0.9,0.8l-1,0.8l-1.2,0.8l-1.3,0.7l-0.1-0.4l-0.3-0.3l-0.1-0.4L86.8,118z"/>
		<path id="path1249_8_" class="st8" d="M66.7,126.4l1.2-0.4l1.2-0.4l1.2-0.6l1-0.7l0.9-0.8l0.9-0.8l0.9-1l0.9-1l-0.6,1l-0.7,1
			l-0.6,1l-0.9,1l-0.9,0.8l-1,0.8l-1.2,0.8l-1.3,0.7l-0.1-0.4l-0.3-0.3l-0.1-0.4L66.7,126.4z"/>
		<path id="path1253_8_" class="st8" d="M92.8,120.5l1-0.7l0.9-0.7l0.7-0.8l0.7-1l0.6-1l0.6-1l0.6-1.1l0.4-1.1l-0.3,1.1l-0.3,1
			l-0.3,1.1l-0.4,1l-0.6,1.1l-0.6,1.1l-0.9,1l-0.9,1.1l-0.3-0.4l-0.3-0.3l-0.4-0.1L92.8,120.5z"/>
		<path id="path1257_8_" class="st8" d="M72.8,129.6l1-0.7l0.9-0.7l0.7-0.8l0.7-1l0.6-1l0.6-1l0.6-1.1l0.4-1.1l-0.3,1.1l-0.3,1
			l-0.3,1.1l-0.4,1l-0.6,1.1l-0.6,1.1l-0.9,1l-0.9,1.1l-0.3-0.4l-0.3-0.3l-0.4-0.1L72.8,129.6z"/>
		<path id="path1261_8_" class="st7" d="M79.8,108.6L79.8,108.6l-1.6-0.1h-1.3l-1.3,0.1l-1.3,0.3l-1.2,0.6l-1,0.8l-1,0.8l-1,1.2
			l-1.2-0.6l-1-0.3l-1.2-0.1l-1-0.1l-1,0.1l-1,0.3l-1,0.3l-1,0.5"/>
		<path id="path1265_8_" class="st7" d="M96.5,97.2L96.5,97.2L96,97.6L95.4,98l-0.4,0.3l-0.4,0.4l-0.4,0.4l-0.3,0.6v0.8v1"/>
		<path id="path1269_8_" class="st7" d="M59.6,113.3L59.6,113.3l-1-0.4l-0.9-0.3h-0.9l-0.7,0.1l-0.7,0.4l-0.6,0.6l-0.6,0.7l-0.6,1
			l-1.3-0.7l-1.3-0.3h-1.3l-1.3,0.4l-1.3,0.8l-1.5,1.1l-1.3,1.5l-1.5,1.9l-0.6,0.6l-0.6,0.6l-0.7,0.4l-0.7,0.3l-0.7,0.1l-0.9,0.1
			h-0.9l-1-0.1"/>
		<path id="path1273_8_" class="st7" d="M52.9,70L52.9,70l-1.5,0.7l-0.3,0.8v1.1l0.3,1.1l1.3,0.7l0.1,0.7l-0.4,0.7l-0.7,0.8l0.7,0.8
			l0.1,0.8l-0.4,0.7l-1,0.5l0.3,1l-0.3,0.7l-0.6,0.4l-1,0.3L49,82.4l-0.7,0.4l-0.7,0.1l-0.9-0.6l-0.9,0.8l-1,0.3l-1-0.3l-1.2-0.6
			L40.8,84l-0.4,1.1l0.7,0.8l1.9,0.7l0.7,0.7l0.6,0.7l0.3,0.6l0.1,0.7v0.6l-0.1,0.7l-0.4,0.6l-0.6,0.6l0.9,0.6l0.4,0.8l0.1,0.8
			l-0.3,0.8l-0.6,0.8l-0.6,0.8l-0.7,0.6l-0.7,0.3l0.6,1L43,99v0.7l-0.1,0.6l-0.4,0.4l-0.6,0.4l-0.4,0.4l-0.6,0.4l0.3,0.7l0.3,0.6
			l0.1,0.7l0.1,0.6v0.7l-0.1,0.7l-0.3,0.6l-0.4,0.7l0.9,0.6l0.6,0.7l0.3,0.7l0.1,0.7l-0.1,0.8l-0.3,0.8l-0.6,0.8l-0.9,0.8l-2.3,1.2
			l-2.2,0.8l-2.3,0.4h-2.3l-2.3-0.3l-2.2-0.8l-2.3-1.1l-2.3-1.7l-0.4-1.4l0.3-1.1l0.9-0.7l1.6-0.4"/>
		<path id="path1277_8_" class="st7" d="M43.3,91.7L43.3,91.7l-1.2,0.3l-1,0.3h-1h-1l-0.9-0.3l-0.9-0.4l-0.9-0.7L35.7,90"/>
		<path id="path1281_8_" class="st7" d="M42.1,96.9L42.1,96.9l-1.5,0.3l-1.3,0.3h-1.2H37l-1.2-0.3l-1.2-0.4l-1-0.7l-1-0.8"/>
		<path id="path1285_8_" class="st7" d="M41,102L41,102l-1.5,0.3l-1.3,0.3H37h-1.2l-1.2-0.3l-1.2-0.4l-1-0.7l-1-0.8"/>
		<path id="path1289_8_" class="st7" d="M41.6,106.8L41.6,106.8l-1.7,0.4l-1.6,0.3l-1.6,0.1l-1.5-0.1l-1.5-0.3l-1.5-0.6l-1.3-0.7
			l-1.2-1.1"/>
		<path id="path1293_8_" class="st8" d="M36.2,69.1L36.2,69.1l1-0.1h0.9l0.9-0.1h1h0.9l1,0.1l1,0.3l1,0.4l-1.2-0.4L42,69.1h-0.7
			l-0.4,0.3l-0.3,0.4l-0.4,0.4l-0.3,0.7l-0.3,0.7l-0.4-0.8l-1-0.7l-1.2-0.6L36.2,69.1z"/>
		<g class="st2">
			<path d="M113.4,3.3c13.8,0,25.1,11.3,25.1,25.1v229.5c0,13.8-11.3,25.1-25.1,25.1h-85c-13.8,0-25.1-11.3-25.1-25.1V28.4
				c0-13.8,11.3-25.1,25.1-25.1L113.4,3.3 M113.4,0.1h-85C12.8,0.1,0,12.8,0,28.4v229.5c0,15.6,12.8,28.3,28.3,28.3h85
				c15.6,0,28.3-12.8,28.3-28.3V28.4C141.7,12.8,129,0.1,113.4,0.1L113.4,0.1z"/>
		</g>
	</g>
	<g id="scotland" class="st1">
		<g class="st2">
			<polygon class="st9" points="0,187.8 53.2,109.8 0,28.7 			"/>
			<polygon class="st9" points="141.7,28.7 88.1,109.8 141.7,190.4 			"/>
			<polygon class="st9" points="71.7,133 15.3,214.9 126.4,214.9 			"/>
			<path class="st9" d="M22.7,0.6c-0.2,0-0.3,0.1-0.5,0.1c-2.5,0.5-4.9,1.4-7.1,2.5l56.1,82.1l55.2-81.9c-4-2.1-8.5-3.3-13.3-3.3
				H30.1h-1.7c-1.7,0-3.4,0.1-5,0.4C23.2,0.5,23,0.5,22.7,0.6z"/>
			<polygon points="141.7,217.8 0,217.8 0,214.9 141.7,214.9 			"/>
			<path id="path863_8_" d="M26.8,257.3c-0.1,0.8-0.1,1.6-0.1,2.3c0,8.7,4.1,13.1,12.1,13.1c7.7,0,11.9-4.7,11.9-13.3
				c0-3-0.6-5.5-1.7-7.3c-1.5-2.5-4.1-4.1-7.2-6.3c-3.4-2.4-5.8-3.5-5.8-6.6c0-2.3,1.2-3.7,2.9-3.7c2.1,0,3.2,1.9,3.2,5.6v0.5h8.3
				c0-0.5,0.1-0.9,0.1-1.4c0-7.9-4.1-12.1-11.8-12.1c-7,0-11.3,4.5-11.3,11.9c0,3,0.7,5.6,2,7.7c1.4,2.1,4,4,7.4,6.4
				c3,2.1,5.2,3.2,5.2,6.7c0,2.5-1.2,4.1-3.2,4.1c-2.6,0-3.4-2-3.4-6.4v-1.2H26.8z"/>
			<path id="path867_8_" d="M73,255.3v1.9c0,5.3-0.7,7.6-3.7,7.6c-3.9,0-3.9-4.3-3.9-14.3v-0.8c0-9.4,0.1-13.4,3.9-13.4
				c2.9,0,3.8,2.4,3.9,7.8h9v-0.4c0-10.3-4.3-15.5-13-15.5c-5.1,0-8.7,1.9-10.9,5.5c-2,3.2-2.2,8.7-2.2,16.7c0,8,0.3,13.5,2.2,16.7
				c2.3,3.7,5.9,5.5,11.1,5.5c8.8,0,12.9-5,12.9-15.3c0-0.7,0-1.4-0.1-2.1H73z"/>
			<path id="path871_8_" d="M90.6,233.8c2.3-3.7,5.9-5.5,11.1-5.5c5.2,0,8.8,1.8,11,5.5c2,3.3,2.3,8.8,2.3,16.7
				c0,8-0.3,13.4-2.3,16.7c-2.3,3.7-5.9,5.5-11,5.5c-5.2,0-8.8-1.8-11.1-5.5c-2-3.2-2.2-8.7-2.2-16.7
				C88.4,242.5,88.7,237,90.6,233.8 M105.5,246.6c0-6.9,0-10.4-3.9-10.4c-3.7,0-3.8,3.5-3.8,10.4v7.7c0,6.9,0.1,10.4,3.9,10.4
				c3.7,0,3.8-3.4,3.8-10.4V246.6z"/>
			<g>
				<path d="M113.4,3.3c13.8,0,25.1,11.3,25.1,25.1v229.5c0,13.8-11.3,25.1-25.1,25.1h-85c-13.8,0-25.1-11.3-25.1-25.1V28.4
					c0-13.8,11.3-25.1,25.1-25.1L113.4,3.3 M113.4,0.1h-85C12.8,0.1,0,12.8,0,28.4v229.5c0,15.6,12.8,28.3,28.3,28.3h85
					c15.6,0,28.3-12.8,28.3-28.3V28.4C141.7,12.8,129,0.1,113.4,0.1L113.4,0.1z"/>
			</g>
		</g>
	</g>
	<g id="england" class="st1">
		<g class="st2">
			<polyline class="st10" points="141.7,74.2 83.8,74.2 83.8,0.1 58,0.1 58,74.2 0,74.2 0,103.1 58,103.1 58,207.8 83.8,207.8 
				83.8,103.1 141.7,103.1 141.7,74.2 			"/>
			<polyline class="st10" points="141.7,74.2 83.8,74.2 83.8,0.1 58,0.1 58,74.2 0,74.2 0,103.1 58,103.1 58,207.8 83.8,207.8 
				83.8,103.1 141.7,103.1 141.7,74.2 			"/>
			<polygon class="st11" points="141.7,74.2 83.8,74.2 83.8,0.1 58,0.1 58,74.2 0,74.2 0,103.1 58,103.1 58,207.8 83.8,207.8 
				83.8,103.1 141.7,103.1 			"/>
			<polyline class="st10" points="141.7,211 0,211 0,207.8 141.7,207.8 141.7,211 			"/>
			<polyline class="st10" points="141.7,211 0,211 0,207.8 141.7,207.8 141.7,211 			"/>
			<polygon class="st12" points="141.7,211 0,211 0,207.8 141.7,207.8 			"/>
			<g>
				<polygon points="23.6,270.7 47.6,270.7 47.6,261.1 33.9,261.1 33.9,250.8 46.6,250.8 46.6,241.3 33.9,241.3 33.9,232.6 
					47.6,232.6 47.6,223.4 23.6,223.4 				"/>
				<path d="M55.1,270.7h9.3v-8c0-7.1-0.4-14.5-1.2-22.1l8.6,30.1h10.8v-47.3h-9.2v7.4c0,5.2,0.4,12.4,1,21.8l-8.6-29.2H55.1V270.7z
					"/>
				<path d="M118.1,244.8h-14v8.2h4.1c0.1,0.9,0.1,1.6,0.1,2.4c0,5.2-1.1,7.7-4,7.7c-3.5,0-3.6-3.7-3.6-12v-7.9
					c0-8.4,0.2-12.2,3.8-12.2c2.6,0,3.5,2.4,3.5,7.6v0.6h9.8c0-0.6,0.1-1.2,0.1-1.8c0-10-4.4-15.1-13.1-15.1c-5.5,0-9.6,2.1-12,6.2
					c-1.8,3.1-2.5,9.1-2.5,17.9c0,10.1,0.3,16.7,3.8,20.9c2.2,2.7,5.3,4.1,8.9,4.1c3.2,0,5.6-1.2,7.7-3.8l0.5,3h7.1V244.8z"/>
			</g>
			<g>
				<path d="M113.4,3.3c13.8,0,25.1,11.3,25.1,25.1v229.5c0,13.8-11.3,25.1-25.1,25.1h-85c-13.8,0-25.1-11.3-25.1-25.1V28.4
					c0-13.8,11.3-25.1,25.1-25.1L113.4,3.3 M113.4,0.1h-85C12.8,0.1,0,12.8,0,28.4v229.5c0,15.6,12.8,28.3,28.3,28.3h85
					c15.6,0,28.3-12.8,28.3-28.3V28.4C141.7,12.8,129,0.1,113.4,0.1L113.4,0.1z"/>
			</g>
		</g>
	</g>
	<g id="uk" class="st1">
		<g class="st2">
			<path class="st3" d="M113.4,286.3h-85C12.8,286.3,0,273.5,0,258V28.3C0,12.8,12.8,0,28.3,0h85c15.6,0,28.3,12.8,28.3,28.3V258
				C141.7,273.5,129,286.3,113.4,286.3z"/>
			<g>
				<path id="path1027_8_" d="M41.2,227.6v22.9c0,7,0.1,12,1.9,15.4c2,3.7,5.3,5.3,10.4,5.3c5.6,0,9.1-1.6,11.1-5.5
					c1.5-2.9,1.6-6.5,1.6-10.8v-27.1h-9.3v27.2c0,5.4-0.1,8.4-3.1,8.4c-3.2,0-3.3-3-3.3-8.9v-26.6H41.2z"/>
				<path id="path1031_8_" d="M74.7,270.1H84v-11.3l2-4.1l4.9,15.4h9.8l-8.8-23.9l8.6-18.6h-9.5L84,245.2v-17.6h-9.3V270.1z"/>
			</g>
			<polygon points="141.7,215.8 0,215.8 0,212.6 141.7,212.6 			"/>
			<path class="st13" d="M0,26.9c0,0.5,0,0.9,0,1.4v60h42.8L0,26.9z"/>
			<path class="st13" d="M27.7,0c-0.1,0-0.1,0-0.2,0c-0.3,0-0.7,0-1,0c-3.5,0.2-6.8,1.1-9.8,2.5l29.9,44.7V0H29.5L27.7,0z"/>
			<path class="st13" d="M141.7,86.6V28.3c0-1.2-0.1-2.3-0.2-3.4L98.6,86.6H141.7z"/>
			<path class="st13" d="M116.3,0.2c-0.7-0.1-1.3-0.1-2-0.1c-0.1,0-0.1,0-0.2,0H93.7v45.1l29.8-43.3C121.2,1,118.8,0.4,116.3,0.2z"
				/>
			<polygon class="st13" points="141.7,125.1 98.9,125.1 141.7,186.7 			"/>
			<polygon class="st13" points="125.6,212.6 94,166.4 94,212.6 			"/>
			<polygon class="st13" points="0,126.8 43.7,126.8 0,189.6 			"/>
			<polygon class="st13" points="16.1,212.6 46.9,168.1 46.9,212.6 			"/>
			<polygon class="st11" points="141.7,96.7 84.7,96.7 84.7,0 57.7,0 57.7,96.7 0,96.7 0,116.5 57.7,116.5 57.7,212.6 84.7,212.6 
				84.7,116.5 141.7,116.5 			"/>
			<path class="st11" d="M17,28c-3-4.3-5.9-8.6-8.9-12.9c-0.6-0.8-1.5-2.2-2.5-3.7c-2,2.6-3.5,5.6-4.4,8.8C6.5,28,14,38.9,18.9,46
				c6.1,8.9,12.2,17.7,18.4,26.6c2.9,4.2,5.9,8.5,8.8,12.7v-15c-3.2-4.7-6.4-9.3-9.6-14C29.9,46.9,23.4,37.5,17,28z"/>
			<polygon class="st11" points="46.9,159.8 46.9,145.3 0,210.6 0,212.6 8.9,212.6 			"/>
			<polygon class="st11" points="95.8,128.4 95.8,143.4 141.7,210.3 141.7,194.9 			"/>
			<path class="st11" d="M129.2,4.9L94.4,53.2v14.5l41.1-57.1C133.6,8.4,131.6,6.5,129.2,4.9z"/>
			<g>
				<path d="M113.4,3.3c13.8,0,25.1,11.3,25.1,25.1v229.5c0,13.8-11.3,25.1-25.1,25.1h-85c-13.8,0-25.1-11.3-25.1-25.1V28.4
					c0-13.8,11.3-25.1,25.1-25.1L113.4,3.3 M113.4,0.1h-85C12.8,0.1,0,12.8,0,28.4v229.5c0,15.6,12.8,28.3,28.3,28.3h85
					c15.6,0,28.3-12.8,28.3-28.3V28.4C141.7,12.8,129,0.1,113.4,0.1L113.4,0.1z"/>
			</g>
		</g>
	</g>
	<g id="gb">
		<g>
			<g>
				<polygon class="st14" points="98.7,213.3 100.3,213.2 101.7,213 102.8,212.6 103.8,212.1 104.5,211.4 105,210.4 105.4,209.4 
					105.5,208.2 105.4,207 105,206 104.5,205.2 103.8,204.5 102.8,204 101.7,203.5 100.3,203.3 98.7,203.3 87.7,203.3 87.9,213.3 
									"/>
				<polygon class="st14" points="106.3,224.9 105.8,223.9 104.9,222.9 103.8,222.2 102.5,221.8 100.9,221.4 99.1,221.3 87.7,221.3 
					87.9,233.8 99.1,233.8 100.9,233.7 102.5,233.4 103.8,232.9 104.9,232.3 105.8,231.4 106.3,230.3 106.7,229.1 106.8,227.7 
					106.7,226.2 				"/>
				<path class="st14" d="M113.4,0h-85C12.8,0,0,12.8,0,28.3V258c0,15.6,12.8,28.3,28.3,28.3h85c15.6,0,28.3-12.8,28.3-28.3V28.3
					C141.7,12.8,129,0,113.4,0z M68.1,242.3h-6.6l-1.2-5.3l-0.5,0.6l-0.6,0.8l-0.6,0.7l-0.7,0.6l-0.8,0.6l-0.8,0.6l-0.8,0.5
					l-0.8,0.4l-0.9,0.4l-0.9,0.4l-1.9,0.6l-1,0.2l-1,0.1l-1.1,0.1h-1.1l-2.4-0.1l-1.2-0.1L41,243l-1-0.4l-1.1-0.4l-1-0.4l-1.9-1
					l-0.9-0.6l-0.9-0.6l-0.8-0.6l-0.8-0.8l-0.8-0.7l-0.7-0.9l-0.8-0.8l-0.7-0.8l-0.6-0.9l-1.1-2l-1-2.1l-0.4-1.1l-0.4-1.2l-0.6-2.4
					l-0.2-1.3l-0.3-2.7l-0.1-1.4v-1.4l0.1-3l0.3-2.7l0.4-2.5l0.6-2.4l0.9-2.2l0.9-2l1.2-1.8l1.4-1.7l1.4-1.4l1.7-1.3l1.8-1.1
					l1.9-0.9l2.2-0.7l2.3-0.6l2.4-0.4l2.6-0.1l2.2,0.1l2.1,0.3l2,0.4l1.9,0.4l1.7,0.6l1.6,0.7L60,197l1.4,1l1.2,1.1l1.1,1.2l1,1.3
					l0.9,1.4l0.8,1.6l0.6,1.6l0.5,1.8l0.5,2.1h-9.9l-0.7-1.9l-0.8-1.5l-1.1-1.3l-1.2-1l-1.5-0.8l-1.6-0.5l-1.8-0.3l-2.1-0.1
					l-1.5,0.1l-1.3,0.3l-1.3,0.3l-1.2,0.5l-1.1,0.6l-1,0.7l-0.9,0.8l-0.8,1l-0.7,1l-0.6,1.2l-0.6,1.3l-0.4,1.5l-0.4,1.5l-0.3,1.7
					l-0.2,1.8l-0.1,2l0.1,2l0.2,1.8l0.3,1.8l0.4,1.5l0.5,1.5l0.6,1.3l0.6,1.3l0.8,1l0.9,1l1,0.8l1.1,0.7l1.1,0.6l1.2,0.4l1.3,0.3
					l1.4,0.3l1.5,0.1l2.3-0.2l2-0.6l1.8-0.8l1.5-1.1l1.3-1.4l1.1-1.7l0.8-2l0.5-2.1l-10.3-0.2v-8.2h19.4V242.3z M116.8,229.6
					l-0.3,1.6l-0.4,1.5l-0.4,1.3l-0.6,1.3l-0.7,1.1l-0.9,1.1l-1,0.9l-1.1,0.8l-1.2,0.8l-1.4,0.6l-1.5,0.5l-1.6,0.4l-1.8,0.3
					l-1.9,0.1l-2,0.1H78.7v-47h21.8l1.8,0.1l1.6,0.1l1.6,0.2l1.4,0.4l1.3,0.4l1.2,0.6l1.1,0.6l0.9,0.7l0.9,0.8l0.8,0.8l0.6,1
					l0.5,1.1l0.4,1.2l0.3,1.3l0.1,1.3l0.1,1.5l-0.1,1.6l-0.3,1.5l-0.5,1.4l-0.6,1.3l-0.8,1.2l-1,1l-1.1,0.9l-1.4,0.7l1.8,0.8
					l1.5,0.9l1.3,1.1l1.1,1.3l0.9,1.5l0.6,1.7l0.4,1.8l0.1,2L116.8,229.6z"/>
			</g>
			<g>
				<path id="path887-0_7_" class="st15" d="M32.7,70.3l-4-2.7l4.8-0.1l1.6-4.4l1.6,4.4l4.6,0.1l-3.7,2.7l1.5,4.5l-4-2.7l-3.9,2.7
					L32.7,70.3z"/>
				<path id="path895-1_7_" class="st15" d="M47.7,55.4l-4-2.8l4.8-0.1l1.6-4.4l1.6,4.4l4.6,0.1l-3.7,2.7l1.5,4.5l-4.1-2.7l-3.9,2.7
					L47.7,55.4z"/>
				<path id="path907-8_7_" class="st16" d="M26.6,91.6l-4-2.8l4.8-0.1l1.6-4.4l1.6,4.4l4.6,0.1l-3.7,2.7l1.6,4.5l-4.1-2.7L25.1,96
					L26.6,91.6z"/>
				<path id="path915-8_7_" class="st16" d="M32.5,111.9l-4-2.8l4.8-0.1l1.6-4.4l1.6,4.4h4.6l-3.7,2.8l1.5,4.4l-4.1-2.7l-3.9,2.7
					L32.5,111.9z"/>
				<path id="path919-8_7_" class="st15" d="M47.5,127l-4-2.8l4.8-0.1l1.6-4.4l1.6,4.5h4.6l-3.7,2.8l1.5,4.4l-4.1-2.7l-3.9,2.7
					L47.5,127z"/>
				<path id="path927-2_7_" class="st15" d="M68.5,49.9l-4-2.8l4.7-0.1l1.6-4.4l1.6,4.4l4.7,0.1l-3.7,2.8l1.5,4.4l-4.1-2.7L67,54.4
					L68.5,49.9z"/>
				<path id="path939-5_7_" class="st16" d="M89.9,55.8l-4-2.8l4.7-0.1l1.6-4.4l1.6,4.4l4.7,0.1l-3.7,2.7l1.5,4.5l-4.1-2.7l-3.9,2.7
					L89.9,55.8z"/>
				<path id="path943-9_7_" class="st15" d="M105.1,70.7l-4.1-2.8l4.8-0.1l1.6-4.4l1.6,4.4l4.6,0.1l-3.7,2.7l1.6,4.5l-4.1-2.7
					l-3.9,2.7L105.1,70.7z"/>
				<path id="path951-1_7_" class="st15" d="M110.5,91.5l-4-2.8l4.8-0.1l1.6-4.4l1.6,4.4l4.6,0.1l-3.7,2.7L117,96l-4.1-2.7L109,96
					L110.5,91.5z"/>
				<path id="path959-0_7_" class="st15" d="M89.6,127.2l-4.1-2.8l4.8-0.1l1.6-4.4l1.6,4.5h4.6l-3.7,2.8l1.6,4.4l-4.1-2.7l-3.9,2.7
					L89.6,127.2z"/>
				<path id="path967-0_7_" class="st15" d="M69.1,132.3l-4-2.8l4.8-0.1l1.6-4.4l1.7,4.4l4.6,0.1l-3.7,2.7l1.5,4.5l-4.1-2.7
					l-3.9,2.7L69.1,132.3z"/>
				<path id="path975-9_7_" class="st15" d="M105.1,112.3l-4.1-2.8l4.8-0.1l1.6-4.4l1.6,4.4h4.6l-3.7,2.8l1.6,4.4l-4.1-2.7l-3.9,2.7
					L105.1,112.3z"/>
				<path id="path903-6_7_" class="st15" d="M26.6,91.6l-4-2.8l4.8-0.1l1.6-4.4l1.6,4.4l4.6,0.1l-3.7,2.7l1.6,4.5l-4.1-2.7L25.1,96
					L26.6,91.6z"/>
				<path id="path911-4_7_" class="st15" d="M32.5,111.9l-4-2.8l4.8-0.1l1.6-4.4l1.6,4.4h4.6l-3.7,2.8l1.5,4.4l-4.1-2.7l-3.9,2.7
					L32.5,111.9z"/>
				<path id="path935-1_7_" class="st15" d="M89.9,55.8l-4-2.8l4.7-0.1l1.6-4.4l1.6,4.4l4.7,0.1l-3.7,2.7l1.5,4.5l-4.1-2.7l-3.9,2.7
					L89.9,55.8z"/>
				<path id="path891-7_7_" class="st16" d="M32.7,70.3l-4-2.7l4.8-0.1l1.6-4.4l1.6,4.4l4.6,0.1l-3.7,2.7l1.5,4.5l-4-2.7l-3.9,2.7
					L32.7,70.3z"/>
				<path id="path899-1_7_" class="st16" d="M47.7,55.4l-4-2.8l4.8-0.1l1.6-4.4l1.6,4.4l4.6,0.1l-3.7,2.7l1.5,4.5l-4.1-2.7l-3.9,2.7
					L47.7,55.4z"/>
				<path id="path923-7_7_" class="st16" d="M47.5,127l-4-2.8l4.8-0.1l1.6-4.4l1.6,4.5h4.6l-3.7,2.8l1.5,4.4l-4.1-2.7l-3.9,2.7
					L47.5,127z"/>
				<path id="path931-2_7_" class="st16" d="M68.5,49.9l-4-2.8l4.7-0.1l1.6-4.4l1.6,4.4l4.7,0.1l-3.7,2.8l1.5,4.4l-4.1-2.7L67,54.4
					L68.5,49.9z"/>
				<path id="path947-5_7_" class="st16" d="M105.1,70.7l-4.1-2.8l4.8-0.1l1.6-4.4l1.6,4.4l4.6,0.1l-3.7,2.7l1.6,4.5l-4.1-2.7
					l-3.9,2.7L105.1,70.7z"/>
				<path id="path955-1_7_" class="st16" d="M110.5,91.5l-4-2.8l4.8-0.1l1.6-4.4l1.6,4.4l4.6,0.1l-3.7,2.7L117,96l-4.1-2.7L109,96
					L110.5,91.5z"/>
				<path id="path963-5_7_" class="st16" d="M89.6,127.2l-4.1-2.8l4.8-0.1l1.6-4.4l1.6,4.5h4.6l-3.7,2.8l1.6,4.4l-4.1-2.7l-3.9,2.7
					L89.6,127.2z"/>
				<path id="path971-7_7_" class="st16" d="M69.1,132.3l-4-2.8l4.8-0.1l1.6-4.4l1.7,4.4l4.6,0.1l-3.7,2.7l1.5,4.5l-4.1-2.7
					l-3.9,2.7L69.1,132.3z"/>
				<path id="path979-9_7_" class="st16" d="M105.1,112.3l-4.1-2.8l4.8-0.1l1.6-4.4l1.6,4.4h4.6l-3.7,2.8l1.6,4.4l-4.1-2.7l-3.9,2.7
					L105.1,112.3z"/>
			</g>
		</g>
	</g>
</g>
</svg>
