<?xml version="1.0" encoding="utf-8"?>
<!-- Generator: Adobe Illustrator 23.0.1, SVG Export Plug-In . SVG Version: 6.00 Build 0)  -->
<svg version="1.1" id="Layer_1" xmlns="http://www.w3.org/2000/svg" xmlns:xlink="http://www.w3.org/1999/xlink" x="0px" y="0px"
	 viewBox="0 0 141.6999969 286.2999878" style="enable-background:new 0 0 141.6999969 286.2999878;" xml:space="preserve">
<style type="text/css">
	.st0{fill:#FFFFFF;}
	.st1{fill:#2A6EB6;}
	.st2{fill:#F0F0F0;}
	.st3{opacity:0.5;fill:url(#SVGID_1_);}
	.st4{fill:url(#SVGID_2_);}
</style>
<g>
	<g>
		<path class="st0" d="M113.3000031,0.1h-85C12.8000002,0.1,0,12.8000002,0,28.3999996v229.5
			C0,273.5,12.8000002,286.1999817,28.3999996,286.1999817h85c15.5999985,0,28.2999954-12.7000122,28.2000046-28.2999878v-229.5
			C141.6000061,12.8999996,128.8999939,0.1,113.3000031,0.1L113.3000031,0.1z"/>
	</g>
</g>
<g>
	<polygon class="st1" points="0,187.8000031 53.2000008,109.8000031 0,28.7000008 	"/>
	<polygon class="st1" points="141.6999969,28.7000008 88.0999985,109.8000031 141.6999969,190.3999939 	"/>
	<polygon class="st1" points="71.6999969,133 15.3000002,214.8999939 126.4000015,214.8999939 	"/>
	<path class="st1" d="M22.7000008,0.6c-0.2000008,0-0.2999992,0.1-0.5,0.1c-2.5,0.5-4.8999996,1.3999999-7.1000004,2.5
		l56.0999985,82.0999985l55.1999969-81.9000015c-4-2.0999999-8.5-3.3-13.3000031-3.3h-83h-1.7000008
		c-1.7000008,0-3.3999996,0.1-5,0.4C23.2000008,0.5,23,0.5,22.7000008,0.6z"/>
</g>
<path class="st2" d="M0.0499802,215.7999878v47.1727905c0,12.7763672,12.7000122,23.3272095,28.3000488,23.3272095h85
	c15.5000076,0,28.2999954-10.4683838,28.2999954-23.3272095v-47.1727905H0.0499802z"/>
<polygon points="141.6999969,217.8000031 0,217.8000031 0,214.8999939 141.6999969,214.8999939 "/>
<g>
	<path id="path863_8_" d="M26.7999992,257.2999878c-0.1000004,0.7999878-0.1000004,1.6000061-0.1000004,2.2999878
		c0,8.7000122,4.1000004,13.1000061,12.1000004,13.1000061c7.7000008,0,11.8999977-4.7000122,11.8999977-13.2999878
		c0-3-0.5999985-5.5-1.7000008-7.3000031c-1.5-2.5-4.0999985-4.1000061-7.2000008-6.3000031
		c-3.4000015-2.3999939-5.7999992-3.5-5.7999992-6.6000061c0-2.3000031,1.2000008-3.6999969,2.9000015-3.6999969
		c2.0999985,0,3.2000008,1.8999939,3.2000008,5.6000061v0.5h8.2999992c0-0.5,0.0999985-0.8999939,0.0999985-1.3999939
		c0-7.8999939-4.0999985-12.1000061-11.7999992-12.1000061c-7,0-11.2999992,4.5-11.2999992,11.8999939
		c0,3,0.7000008,5.6000061,2,7.6999969c1.3999996,2.1000061,4,4,7.4000015,6.3999939
		c3,2.1000061,5.2000008,3.2000122,5.2000008,6.7000122c0,2.5-1.2000008,4.1000061-3.2000008,4.1000061
		c-2.5999985,0-3.4000015-2-3.4000015-6.3999939v-1.2000122H26.7999992z"/>
	<path id="path867_8_" d="M73,255.3000031v1.9000092c0,5.2999878-0.6999969,7.6000061-3.6999969,7.6000061
		c-3.9000015,0-3.9000015-4.2999878-3.9000015-14.3000031v-0.8000031c0-9.3999939,0.0999985-13.3999939,3.9000015-13.3999939
		c2.9000015,0,3.8000031,2.3999939,3.9000015,7.8000031h9v-0.3999939c0-10.3000031-4.3000031-15.5-13-15.5
		c-5.0999985,0-8.7000008,1.8999939-10.9000015,5.5c-2,3.1999969-2.2000008,8.6999969-2.2000008,16.6999969
		s0.2999992,13.5,2.2000008,16.7000122c2.2999992,3.7000122,5.9000015,5.5,11.0999985,5.5
		c8.8000031,0,12.9000015-5,12.9000015-15.2999878c0-0.7000122,0-1.3999939-0.0999985-2.1000061L73,255.3000031L73,255.3000031z"/>
	<path id="path871_8_" d="M90.5999985,233.8000031c2.3000031-3.6999969,5.9000015-5.5,11.0999985-5.5s8.8000031,1.8000031,11,5.5
		C114.6999969,237.1000061,115,242.6000061,115,250.5c0,8-0.3000031,13.3999939-2.3000031,16.7000122
		c-2.3000031,3.7000122-5.9000015,5.5-11,5.5c-5.1999969,0-8.8000031-1.7999878-11.0999985-5.5
		c-2-3.2000122-2.1999969-8.7000122-2.1999969-16.6999969C88.4000015,242.5,88.6999969,237,90.5999985,233.8000031
		 M105.5,246.6000061c0-6.8999939,0-10.3999939-3.9000015-10.3999939c-3.6999969,0-3.8000031,3.5-3.8000031,10.3999939v7.6999969
		c0,6.9000092,0.0999985,10.4000092,3.9000015,10.4000092c3.6999969,0,3.8000031-3.3999939,3.8000031-10.3999939V246.6000061z"/>
</g>
<linearGradient id="SVGID_1_" gradientUnits="userSpaceOnUse" x1="4.6907387" y1="140.0981445" x2="43.7000008" y2="140.0981445">
	<stop  offset="0" style="stop-color:#FFFFFF"/>
	<stop  offset="1" style="stop-color:#FFFFFF;stop-opacity:0"/>
</linearGradient>
<path class="st3" d="M24.1953888,271.222229h-0.0000381c-10.7275372,0-19.504612-8.7770691-19.504612-19.5046234V28.4786873
	c0-10.7275372,8.7770748-19.504612,19.504612-19.504612h0.0000381c10.7275352,0,19.504612,8.7770748,19.504612,19.504612
	v223.2389221C43.7000008,262.4451599,34.922924,271.222229,24.1953888,271.222229z"/>
<linearGradient id="SVGID_2_" gradientUnits="userSpaceOnUse" x1="70.8500061" y1="3.8999996" x2="70.8500061" y2="45.1999969">
	<stop  offset="0" style="stop-color:#FFFFFF"/>
	<stop  offset="1" style="stop-color:#FFFFFF;stop-opacity:0"/>
</linearGradient>
<path class="st4" d="M25.3407192,45.1999969h91.0185623c11.3574905,0,20.6499786-9.2924919,20.6499786-20.6499786v-0.0000401
	c0-11.3574886-9.2924881-20.6499786-20.6499786-20.6499786H25.3407192c-11.3574886,0-20.6499786,9.29249-20.6499786,20.6499786
	v0.0000401C4.6907406,35.907505,13.9832306,45.1999969,25.3407192,45.1999969z"/>
</svg>
