<?xml version="1.0" encoding="utf-8"?>
<!-- Generator: Adobe Illustrator 23.0.1, SVG Export Plug-In . SVG Version: 6.00 Build 0)  -->
<svg version="1.1" id="Layer_1" xmlns="http://www.w3.org/2000/svg" xmlns:xlink="http://www.w3.org/1999/xlink" x="0px" y="0px"
	 viewBox="0 0 141.6999969 286.2999878" style="enable-background:new 0 0 141.6999969 286.2999878;" xml:space="preserve">
<style type="text/css">
	.st0{opacity:0.33;}
	.st1{fill:#2A6EB6;}
</style>
<g class="st0">
	<polygon class="st1" points="0,187.8000031 53.2000008,109.8000031 0,28.7000008 	"/>
	<polygon class="st1" points="141.6999969,28.7000008 88.0999985,109.8000031 141.6999969,190.3999939 	"/>
	<polygon class="st1" points="71.6999969,133 15.3000002,214.8999939 126.4000015,214.8999939 	"/>
	<path class="st1" d="M22.7000008,0.6c-0.2000008,0-0.2999992,0.1-0.5,0.1c-2.5,0.5-4.8999996,1.3999999-7.1000004,2.5
		l56.0999985,82.0999985l55.1999969-81.9000015c-4-2.0999999-8.5-3.3-13.3000031-3.3h-83h-1.7000008
		c-1.7000008,0-3.3999996,0.1-5,0.4C23.2000008,0.5,23,0.5,22.7000008,0.6z"/>
</g>
<polygon class="st0" points="141.6999969,217.8000031 0,217.8000031 0,214.8999939 141.6999969,214.8999939 "/>
</svg>
