<?xml version="1.0" encoding="utf-8"?>
<!-- Generator: Adobe Illustrator 23.0.1, SVG Export Plug-In . SVG Version: 6.00 Build 0)  -->
<svg version="1.1" id="Layer_1" xmlns="http://www.w3.org/2000/svg" xmlns:xlink="http://www.w3.org/1999/xlink" x="0px" y="0px"
	 viewBox="0 0 141.7 286.3" style="enable-background:new 0 0 141.7 286.3;" xml:space="preserve">
<style type="text/css">
	.st0{fill:#232323;}
	.st1{fill:#235A96;}
</style>
<polygon class="st0" points="141.7,223.4 0,223.4 0,214.9 141.7,214.9 "/>
<path class="st1" d="M141.6,214.9H0.1v-190c0-13.5,11-24.5,24.5-24.5H117c13.5,0,24.5,11,24.5,24.5v190H141.6z"/>
<g>
	<path id="path863_1_" class="st0" d="M22.4,262.4c-0.1,0.9-0.1,1.8-0.1,2.5c0,9.6,4.5,14.4,13.3,14.4c8.5,0,13.1-5.2,13.1-14.6
		c0-3.3-0.7-6.1-1.9-8c-1.7-2.8-4.5-4.5-7.9-6.9c-3.7-2.6-6.4-3.9-6.4-7.3c0-2.5,1.3-4.1,3.2-4.1c2.3,0,3.5,2.1,3.5,6.2v0.6h9.1
		c0-0.6,0.1-1,0.1-1.5c0-8.7-4.5-13.3-13-13.3c-7.7,0-12.4,5-12.4,13.1c0,3.3,0.8,6.2,2.2,8.5c1.5,2.3,4.4,4.4,8.1,7
		c3.3,2.3,5.7,3.5,5.7,7.4c0,2.8-1.3,4.5-3.5,4.5c-2.9,0-3.7-2.2-3.7-7v-1.3L22.4,262.4L22.4,262.4z"/>
	<path id="path867_1_" class="st0" d="M73.2,260.2v2.1c0,5.8-0.8,8.4-4.1,8.4c-4.3,0-4.3-4.7-4.3-15.7v-0.9
		c0-10.3,0.1-14.8,4.3-14.8c3.2,0,4.2,2.6,4.3,8.6h9.9v-0.4c0-11.3-4.7-17.1-14.3-17.1c-5.6,0-9.6,2.1-12,6.1
		c-2.2,3.5-2.4,9.6-2.4,18.4s0.3,14.9,2.4,18.4c2.5,4.1,6.5,6.1,12.2,6.1c9.7,0,14.2-5.5,14.2-16.8c0-0.8,0-1.5-0.1-2.3L73.2,260.2
		L73.2,260.2z"/>
	<path id="path871_1_" class="st0" d="M92.6,236.6c2.5-4.1,6.5-6.1,12.2-6.1s9.7,2,12.1,6.1c2.2,3.6,2.5,9.7,2.5,18.4
		c0,8.8-0.3,14.8-2.5,18.4c-2.5,4.1-6.5,6.1-12.1,6.1c-5.7,0-9.7-2-12.2-6.1c-2.2-3.5-2.4-9.6-2.4-18.4
		C90.2,246.2,90.5,240.1,92.6,236.6 M109,250.7c0-7.6,0-11.4-4.3-11.4c-4.1,0-4.2,3.9-4.2,11.4v8.5c0,7.6,0.1,11.4,4.3,11.4
		c4.1,0,4.2-3.7,4.2-11.4V250.7z"/>
</g>
</svg>
