<?xml version="1.0" encoding="utf-8"?>
<!-- Generator: Adobe Illustrator 23.0.1, SVG Export Plug-In . SVG Version: 6.00 Build 0)  -->
<svg version="1.1" xmlns="http://www.w3.org/2000/svg" xmlns:xlink="http://www.w3.org/1999/xlink" x="0px" y="0px"
	 viewBox="0 0 141.732 286.299" style="enable-background:new 0 0 141.732 286.299;" xml:space="preserve">
<style type="text/css">
	.st0{fill:#FFFFFF;}
	.st1{fill:#2A6EB6;}
</style>
<g id="Layer_2">
	<path class="st0" d="M113.386,0h-85.04C12.756,0,0,12.756,0,28.346v229.606c0,15.591,12.756,28.347,28.346,28.347h85.039
		c15.591,0,28.346-12.756,28.346-28.347V28.346C141.732,12.756,128.976,0,113.386,0L113.386,0z"/>
</g>
<g id="Layer_1">
	<g id="blue_background">
		<path class="st1" d="M141.732,207.723H0V28.346C0,12.756,12.756,0,28.346,0h85.039c15.591,0,28.346,12.756,28.346,28.346
			L141.732,207.723L141.732,207.723z"/>
	</g>
	<g id="St._Andrew_x27_s_Saltire">
		<path class="st0" d="M141.732,185.564L87.94,105.49l53.657-79.873c-1.052-10.878-8.319-20.004-18.182-23.767L70.866,80.073
			L18.317,1.85C8.454,5.612,1.187,14.739,0.135,25.617l53.657,79.873L0,185.563v22.16h19.262l51.604-76.817l51.604,76.817h19.262
			V185.564z"/>
	</g>
	<g id="SCO">
		<g>
			<path id="path863_8_" d="M23.19,254.365c-0.057,0.855-0.114,1.711-0.114,2.507c0,9.418,4.4,14.188,13.083,14.188
				c8.284,0,12.913-5.137,12.913-14.371c0-3.242-0.687-5.933-1.887-7.951c-1.656-2.752-4.456-4.464-7.826-6.788
				c-3.714-2.568-6.285-3.789-6.285-7.155c0-2.507,1.313-3.975,3.142-3.975c2.228,0,3.428,2.08,3.428,6.116v0.55h9.027
				c0-0.49,0.056-0.978,0.056-1.467c0-8.501-4.456-13.148-12.797-13.148c-7.599,0-12.225,4.83-12.225,12.904
				c0,3.301,0.741,6.114,2.169,8.315c1.543,2.323,4.342,4.28,7.999,6.91c3.257,2.323,5.6,3.426,5.6,7.215
				c0,2.752-1.314,4.403-3.428,4.403c-2.799,0-3.657-2.14-3.657-6.91v-1.344L23.19,254.365L23.19,254.365z"/>
			<path id="path867_8_" d="M73.181,252.164v2.016c0,5.749-0.743,8.256-4.058,8.256c-4.226,0-4.226-4.708-4.226-15.471v-0.855
				c0-10.15,0.057-14.553,4.226-14.553c3.143,0,4.115,2.567,4.171,8.498h9.77v-0.427c0-11.13-4.685-16.755-14.112-16.755
				c-5.484,0-9.427,2.018-11.827,5.993c-2.113,3.485-2.399,9.418-2.399,18.1c0,8.683,0.286,14.616,2.399,18.101
				c2.457,4.036,6.4,5.994,11.998,5.994c9.541,0,13.998-5.444,13.998-16.573c0-0.796,0-1.53-0.056-2.323h-9.884V252.164z"/>
			<path id="path871_8_" d="M92.261,228.865c2.457-4.036,6.399-5.994,11.999-5.994c5.598,0,9.483,1.958,11.94,5.994
				c2.172,3.546,2.456,9.478,2.456,18.099c0,8.623-0.284,14.556-2.456,18.102c-2.457,4.036-6.398,5.993-11.94,5.993
				c-5.6,0-9.542-1.957-11.999-5.993c-2.113-3.485-2.4-9.418-2.4-18.102C89.861,238.282,90.148,232.349,92.261,228.865
				 M108.372,242.808c0-7.462,0-11.253-4.17-11.253c-4.056,0-4.113,3.79-4.113,11.253v8.315c0,7.52,0.115,11.252,4.171,11.252
				s4.112-3.731,4.112-11.252V242.808z"/>
		</g>
	</g>
	<g id="bar">
		<polygon id="bar_1_" points="0,210.98 141.732,210.98 141.732,207.723 0,207.723 		"/>
	</g>
	<g id="outline_1_">
		<g id="outline">
			<path d="M113.386,3.26c13.833,0,25.087,11.254,25.087,25.087v229.606c0,13.833-11.254,25.087-25.087,25.087h-85.04
				c-13.833,0-25.087-11.254-25.087-25.087V28.346C3.26,14.514,14.514,3.26,28.346,3.26H113.386 M113.386,0h-85.04
				C12.756,0,0,12.756,0,28.346v229.606c0,15.591,12.756,28.347,28.346,28.347h85.039c15.591,0,28.346-12.756,28.346-28.347V28.346
				C141.732,12.756,128.976,0,113.386,0L113.386,0z"/>
		</g>
	</g>
</g>
</svg>
